%TF.GenerationSoftware,KiCad,Pcbnew,6.0.7-f9a2dced07~116~ubuntu20.04.1*%
%TF.CreationDate,2022-10-10T21:45:52+02:00*%
%TF.ProjectId,ploopy-nano,706c6f6f-7079-42d6-9e61-6e6f2e6b6963,rev?*%
%TF.SameCoordinates,Original*%
%TF.FileFunction,Profile,NP*%
%FSLAX46Y46*%
G04 Gerber Fmt 4.6, Leading zero omitted, Abs format (unit mm)*
G04 Created by KiCad (PCBNEW 6.0.7-f9a2dced07~116~ubuntu20.04.1) date 2022-10-10 21:45:52*
%MOMM*%
%LPD*%
G01*
G04 APERTURE LIST*
%TA.AperFunction,Profile*%
%ADD10C,0.160000*%
%TD*%
G04 APERTURE END LIST*
D10*
X152419809Y-69998493D02*
X143993811Y-69998493D01*
X163656811Y-102423492D02*
X163656811Y-92573494D01*
X130317809Y-119038494D02*
G75*
G03*
X141652810Y-124720493I17892791J21547194D01*
G01*
X154760809Y-70276501D02*
G75*
G03*
X152419809Y-69998493I-2344809J-9749399D01*
G01*
X138156810Y-102423492D02*
X163656811Y-102423492D01*
X154760808Y-124720479D02*
G75*
G03*
X166095810Y-119038493I-6557808J27229279D01*
G01*
X166095821Y-75958479D02*
G75*
G03*
X154760811Y-70276493I-17892821J-21547321D01*
G01*
X163656811Y-92573494D02*
X138156810Y-92573494D01*
X141652811Y-124720489D02*
G75*
G03*
X143993811Y-124998493I2344789J9749389D01*
G01*
X143993811Y-124998493D02*
X152419809Y-124998493D01*
X141652806Y-70276477D02*
G75*
G03*
X130317810Y-75958492I6557894J-27229323D01*
G01*
X126706810Y-83651493D02*
X126706810Y-111345493D01*
X126706815Y-111345493D02*
G75*
G03*
X130317810Y-119038493I9999785J-207D01*
G01*
X169706773Y-83651493D02*
G75*
G03*
X166095810Y-75958492I-9999873J193D01*
G01*
X169706810Y-111345493D02*
X169706810Y-83651493D01*
X166095818Y-119038502D02*
G75*
G03*
X169706810Y-111345493I-6388818J7692802D01*
G01*
X138156810Y-92573494D02*
X138156810Y-102423492D01*
X152419809Y-124998502D02*
G75*
G03*
X154760811Y-124720493I-3809J10027402D01*
G01*
X166606810Y-113998492D02*
G75*
G03*
X166606810Y-113998492I-4900001J0D01*
G01*
X143993811Y-69998487D02*
G75*
G03*
X141652810Y-70276493I3789J-10027313D01*
G01*
X130317814Y-75958497D02*
G75*
G03*
X126706810Y-83651493I6388786J-7692803D01*
G01*
M02*
