%TF.GenerationSoftware,KiCad,Pcbnew,6.0.7-f9a2dced07~116~ubuntu20.04.1*%
%TF.CreationDate,2022-10-10T21:45:52+02:00*%
%TF.ProjectId,ploopy-nano,706c6f6f-7079-42d6-9e61-6e6f2e6b6963,rev?*%
%TF.SameCoordinates,Original*%
%TF.FileFunction,Copper,L2,Bot*%
%TF.FilePolarity,Positive*%
%FSLAX46Y46*%
G04 Gerber Fmt 4.6, Leading zero omitted, Abs format (unit mm)*
G04 Created by KiCad (PCBNEW 6.0.7-f9a2dced07~116~ubuntu20.04.1) date 2022-10-10 21:45:52*
%MOMM*%
%LPD*%
G01*
G04 APERTURE LIST*
%TA.AperFunction,ComponentPad*%
%ADD10R,1.700000X1.700000*%
%TD*%
%TA.AperFunction,ComponentPad*%
%ADD11O,1.700000X1.700000*%
%TD*%
%TA.AperFunction,ComponentPad*%
%ADD12O,1.050000X2.100000*%
%TD*%
%TA.AperFunction,ComponentPad*%
%ADD13R,1.308000X1.308000*%
%TD*%
%TA.AperFunction,ComponentPad*%
%ADD14C,1.308000*%
%TD*%
%TA.AperFunction,SMDPad,CuDef*%
%ADD15C,1.000000*%
%TD*%
%TA.AperFunction,ViaPad*%
%ADD16C,0.711200*%
%TD*%
%TA.AperFunction,Conductor*%
%ADD17C,0.381000*%
%TD*%
%TA.AperFunction,Conductor*%
%ADD18C,0.508000*%
%TD*%
G04 APERTURE END LIST*
D10*
%TO.P,J2,1,Pin_1*%
%TO.N,Net-(J2-Pad1)*%
X160225000Y-86500000D03*
D11*
%TO.P,J2,2,Pin_2*%
%TO.N,GND*%
X162765000Y-86500000D03*
%TD*%
D12*
%TO.P,J4,S1,SHIELD*%
%TO.N,GND*%
X143780000Y-119182500D03*
%TO.P,J4,S2,SHIELD*%
X152420000Y-119182500D03*
%TO.P,J4,S3,SHIELD*%
X143780000Y-123362500D03*
%TO.P,J4,S4,SHIELD*%
X152420000Y-123362500D03*
%TD*%
D10*
%TO.P,J3,1,Pin_1*%
%TO.N,UART_TX*%
X129600000Y-91925000D03*
D11*
%TO.P,J3,2,Pin_2*%
%TO.N,UART_RX*%
X129600000Y-89385000D03*
%TO.P,J3,3,Pin_3*%
%TO.N,GND*%
X129600000Y-86845000D03*
%TD*%
D13*
%TO.P,U3,1,SDIO*%
%TO.N,ADNS_SDIO*%
X150150000Y-91150000D03*
D14*
%TO.P,U3,2,XY_LED*%
%TO.N,Net-(D1-Pad1)*%
X148150000Y-91150000D03*
%TO.P,U3,3,NRESET*%
%TO.N,RESET*%
X146150000Y-91150000D03*
%TO.P,U3,4,NCS*%
%TO.N,ADNS_CS*%
X144150000Y-91150000D03*
%TO.P,U3,5,VDD*%
%TO.N,VBUS*%
X145150000Y-103750000D03*
%TO.P,U3,6,GND*%
%TO.N,GND*%
X147150000Y-103750000D03*
%TO.P,U3,7,REGO*%
%TO.N,Net-(C10-Pad1)*%
X149150000Y-103750000D03*
%TO.P,U3,8,SCLK*%
%TO.N,ADNS_SCLK*%
X151150000Y-103750000D03*
%TD*%
D15*
%TO.P,TP4,1,1*%
%TO.N,ICSP_SCLK*%
X150241000Y-71628000D03*
%TD*%
%TO.P,TP2,1,1*%
%TO.N,ICSP_MOSI*%
X147574000Y-71628000D03*
%TD*%
%TO.P,TP1,1,1*%
%TO.N,VBUS*%
X152908000Y-71628000D03*
%TD*%
%TO.P,TP6,1,1*%
%TO.N,GND*%
X155575000Y-72263000D03*
%TD*%
%TO.P,TP5,1,1*%
%TO.N,RESET*%
X141986000Y-71755000D03*
%TD*%
%TO.P,TP3,1,1*%
%TO.N,ICSP_MISO*%
X144907000Y-71628000D03*
%TD*%
D16*
%TO.N,GND*%
X135890000Y-80010000D03*
X155575000Y-73787000D03*
X137033000Y-82550000D03*
%TO.N,RESET*%
X141478000Y-73152000D03*
X146200000Y-84800000D03*
%TO.N,VBUS*%
X148463000Y-76835000D03*
X147447000Y-76835000D03*
X141400000Y-114800000D03*
X137400000Y-114800000D03*
X139400000Y-115800000D03*
X158500000Y-76800000D03*
X138400000Y-115800000D03*
X140400000Y-115800000D03*
X152100000Y-73300000D03*
X143700000Y-109400000D03*
X141400000Y-115800000D03*
X158100000Y-85100000D03*
X158200000Y-84000000D03*
X167200000Y-104400000D03*
X137400000Y-115800000D03*
X142400000Y-114800000D03*
X142600000Y-88800000D03*
X140400000Y-114800000D03*
X165100000Y-104500000D03*
X143000000Y-108100000D03*
X139400000Y-114800000D03*
X158300000Y-77800000D03*
X138400000Y-114800000D03*
X142400000Y-115800000D03*
X166300000Y-105200000D03*
X143800000Y-88800000D03*
X136200000Y-78400000D03*
X136700000Y-77200000D03*
X143100000Y-73000000D03*
%TO.N,Net-(FB1-Pad2)*%
X146900000Y-114800000D03*
X151800000Y-115600000D03*
%TO.N,ICSP_MISO*%
X144780000Y-73279000D03*
%TO.N,ICSP_SCLK*%
X146812000Y-73406000D03*
%TO.N,ICSP_MOSI*%
X145779503Y-73279000D03*
%TO.N,USB_DN*%
X138500000Y-88600000D03*
X148600000Y-78400000D03*
%TO.N,USB_DP*%
X150400000Y-77100000D03*
X139200000Y-89600000D03*
%TO.N,ADNS_SCLK*%
X145500000Y-76800000D03*
%TO.N,ADNS_SDIO*%
X151200000Y-84400000D03*
%TD*%
D17*
%TO.N,GND*%
X137033000Y-81153000D02*
X135890000Y-80010000D01*
X137033000Y-82550000D02*
X137033000Y-81153000D01*
X155575000Y-72263000D02*
X155575000Y-73787000D01*
%TO.N,RESET*%
X146150000Y-84850000D02*
X146200000Y-84800000D01*
X141478000Y-73152000D02*
X141478000Y-72263000D01*
X141478000Y-72263000D02*
X141986000Y-71755000D01*
X146150000Y-91150000D02*
X146150000Y-84850000D01*
D18*
%TO.N,Net-(FB1-Pad2)*%
X146900000Y-114800000D02*
X147700000Y-115600000D01*
X147700000Y-115600000D02*
X151800000Y-115600000D01*
D17*
%TO.N,ICSP_MISO*%
X144780000Y-71755000D02*
X144907000Y-71628000D01*
X144780000Y-73279000D02*
X144780000Y-71755000D01*
%TO.N,ICSP_SCLK*%
X148463000Y-73406000D02*
X150241000Y-71628000D01*
X146812000Y-73406000D02*
X148463000Y-73406000D01*
%TO.N,ICSP_MOSI*%
X146685000Y-71628000D02*
X147574000Y-71628000D01*
X145796000Y-72517000D02*
X146685000Y-71628000D01*
X145779503Y-73279000D02*
X145796000Y-73262503D01*
X145796000Y-73262503D02*
X145796000Y-72517000D01*
%TO.N,USB_DN*%
X138500000Y-88600000D02*
X148600000Y-78500000D01*
X148600000Y-78500000D02*
X148600000Y-78400000D01*
%TO.N,USB_DP*%
X139200000Y-89600000D02*
X150400000Y-78400000D01*
X150400000Y-78400000D02*
X150400000Y-77100000D01*
%TO.N,ADNS_SCLK*%
X151200000Y-105100000D02*
X151150000Y-105050000D01*
X139700000Y-106000000D02*
X150300000Y-106000000D01*
X145500000Y-76800000D02*
X145500000Y-78500000D01*
X145500000Y-78500000D02*
X135700000Y-88300000D01*
X135700000Y-88300000D02*
X135700000Y-102000000D01*
X150300000Y-106000000D02*
X151200000Y-105100000D01*
X151150000Y-105050000D02*
X151150000Y-103750000D01*
X135700000Y-102000000D02*
X139700000Y-106000000D01*
%TO.N,ADNS_SDIO*%
X150150000Y-85450000D02*
X151200000Y-84400000D01*
X150150000Y-91150000D02*
X150150000Y-85450000D01*
%TD*%
%TA.AperFunction,Conductor*%
%TO.N,VBUS*%
G36*
X152399533Y-70381552D02*
G01*
X152409867Y-70383193D01*
X152409868Y-70383193D01*
X152419662Y-70384748D01*
X152434520Y-70382401D01*
X152457194Y-70380893D01*
X152532907Y-70382706D01*
X152685214Y-70386354D01*
X152752836Y-70407981D01*
X152798031Y-70462735D01*
X152806449Y-70533231D01*
X152775419Y-70597087D01*
X152717772Y-70633192D01*
X152534483Y-70687137D01*
X152523108Y-70691732D01*
X152412969Y-70749312D01*
X152402820Y-70759101D01*
X152405274Y-70766064D01*
X152895188Y-71255978D01*
X152909132Y-71263592D01*
X152910965Y-71263461D01*
X152917580Y-71259210D01*
X153405834Y-70770956D01*
X153412594Y-70758576D01*
X153407935Y-70752353D01*
X153305924Y-70697196D01*
X153294619Y-70692444D01*
X153201097Y-70663494D01*
X153141937Y-70624243D01*
X153113390Y-70559239D01*
X153124518Y-70489120D01*
X153171790Y-70436148D01*
X153247304Y-70417447D01*
X153324544Y-70422946D01*
X153330455Y-70423507D01*
X153775950Y-70476412D01*
X153781826Y-70477251D01*
X154224350Y-70551088D01*
X154230145Y-70552196D01*
X154605618Y-70633192D01*
X154634869Y-70639502D01*
X154656592Y-70646291D01*
X154670373Y-70652011D01*
X154670433Y-70652016D01*
X154670489Y-70652039D01*
X154686694Y-70653321D01*
X154708391Y-70656966D01*
X155608649Y-70890584D01*
X155612866Y-70891757D01*
X156513264Y-71159494D01*
X156538840Y-71167099D01*
X156543059Y-71168435D01*
X157458726Y-71476107D01*
X157462896Y-71477590D01*
X158367219Y-71817241D01*
X158371334Y-71818870D01*
X159263160Y-72190067D01*
X159267168Y-72191819D01*
X160101474Y-72573986D01*
X160145444Y-72594127D01*
X160149431Y-72596039D01*
X160187945Y-72615345D01*
X161012980Y-73028917D01*
X161016901Y-73030969D01*
X161864736Y-73493920D01*
X161868583Y-73496109D01*
X162139405Y-73656585D01*
X162699656Y-73988564D01*
X162703398Y-73990871D01*
X163011815Y-74188580D01*
X163516639Y-74512195D01*
X163520323Y-74514649D01*
X163830743Y-74729389D01*
X164314752Y-75064213D01*
X164318319Y-75066774D01*
X164723207Y-75368425D01*
X165092980Y-75643916D01*
X165096482Y-75646622D01*
X165822312Y-76228116D01*
X165838205Y-76243306D01*
X165838267Y-76243376D01*
X165849032Y-76255634D01*
X165849042Y-76255640D01*
X165849051Y-76255650D01*
X165860972Y-76262730D01*
X165879930Y-76276527D01*
X166247460Y-76600390D01*
X166271517Y-76621589D01*
X166276882Y-76626601D01*
X166671422Y-77017562D01*
X166676481Y-77022877D01*
X167047470Y-77436231D01*
X167052196Y-77441818D01*
X167398369Y-77876151D01*
X167402769Y-77882016D01*
X167660378Y-78247160D01*
X167722957Y-78335862D01*
X167727013Y-78341985D01*
X167864950Y-78564021D01*
X168020086Y-78813742D01*
X168023792Y-78820115D01*
X168288781Y-79308218D01*
X168292098Y-79314779D01*
X168383915Y-79510390D01*
X168528085Y-79817540D01*
X168531021Y-79824302D01*
X168737203Y-80340005D01*
X168739738Y-80346928D01*
X168915399Y-80873785D01*
X168915400Y-80873789D01*
X168917523Y-80880839D01*
X169054644Y-81389515D01*
X169062074Y-81417077D01*
X169063784Y-81424248D01*
X169176728Y-81968032D01*
X169178015Y-81975290D01*
X169220941Y-82266657D01*
X169258961Y-82524730D01*
X169259821Y-82532046D01*
X169298436Y-82970930D01*
X169308498Y-83085298D01*
X169308929Y-83092649D01*
X169310931Y-83161095D01*
X169324194Y-83614574D01*
X169322696Y-83637969D01*
X169320555Y-83651486D01*
X169322106Y-83661279D01*
X169322106Y-83661281D01*
X169323759Y-83671717D01*
X169325310Y-83691426D01*
X169325310Y-111305561D01*
X169323759Y-111325270D01*
X169320555Y-111345501D01*
X169322727Y-111359211D01*
X169324225Y-111382607D01*
X169313134Y-111761861D01*
X169308967Y-111904329D01*
X169308536Y-111911689D01*
X169259860Y-112464938D01*
X169259005Y-112472221D01*
X169178046Y-113021749D01*
X169176770Y-113028939D01*
X169071660Y-113535001D01*
X169063821Y-113572744D01*
X169062111Y-113579915D01*
X168917560Y-114116151D01*
X168915434Y-114123209D01*
X168739772Y-114650067D01*
X168737238Y-114656987D01*
X168531047Y-115172713D01*
X168528127Y-115179437D01*
X168424901Y-115399355D01*
X168292138Y-115682199D01*
X168288812Y-115688778D01*
X168023821Y-116176881D01*
X168020115Y-116183254D01*
X167873272Y-116419626D01*
X167727037Y-116655018D01*
X167722986Y-116661132D01*
X167426040Y-117082031D01*
X167402812Y-117114955D01*
X167398393Y-117120845D01*
X167052233Y-117555158D01*
X167047475Y-117560782D01*
X166676488Y-117974130D01*
X166671436Y-117979437D01*
X166288474Y-118358920D01*
X166276925Y-118370364D01*
X166271539Y-118375398D01*
X165879990Y-118720422D01*
X165861031Y-118734220D01*
X165849051Y-118741335D01*
X165849044Y-118741343D01*
X165849034Y-118741349D01*
X165842582Y-118748696D01*
X165838272Y-118753604D01*
X165822377Y-118768797D01*
X165096473Y-119350351D01*
X165092971Y-119353057D01*
X164940346Y-119466767D01*
X164318322Y-119930192D01*
X164314750Y-119932757D01*
X163883399Y-120231153D01*
X163520314Y-120482324D01*
X163516630Y-120484778D01*
X162703403Y-121006094D01*
X162699648Y-121008409D01*
X162507536Y-121122246D01*
X161868575Y-121500864D01*
X161864728Y-121503053D01*
X161016895Y-121966004D01*
X161012974Y-121968056D01*
X160149429Y-122400932D01*
X160145440Y-122402845D01*
X159590475Y-122657056D01*
X159267196Y-122805139D01*
X159263145Y-122806909D01*
X158573705Y-123093870D01*
X158371320Y-123178107D01*
X158367204Y-123179736D01*
X157462891Y-123519383D01*
X157458721Y-123520866D01*
X156543055Y-123828538D01*
X156538835Y-123829874D01*
X155612862Y-124105216D01*
X155608645Y-124106389D01*
X154837374Y-124306535D01*
X154708324Y-124340024D01*
X154686610Y-124343672D01*
X154670489Y-124344947D01*
X154670433Y-124344970D01*
X154670373Y-124344975D01*
X154661523Y-124348648D01*
X154661520Y-124348649D01*
X154656547Y-124350713D01*
X154634817Y-124357505D01*
X154492468Y-124388212D01*
X154230146Y-124444798D01*
X154224350Y-124445907D01*
X153907122Y-124498838D01*
X153781828Y-124519744D01*
X153775950Y-124520583D01*
X153330455Y-124573488D01*
X153324543Y-124574049D01*
X153134289Y-124587594D01*
X153064921Y-124572480D01*
X153014735Y-124522261D01*
X152999666Y-124452882D01*
X153026922Y-124384233D01*
X153027891Y-124383284D01*
X153122625Y-124236286D01*
X153182437Y-124071953D01*
X153199500Y-123936890D01*
X153199500Y-122793531D01*
X153184938Y-122663710D01*
X153127426Y-122498558D01*
X153067619Y-122402846D01*
X153038487Y-122356226D01*
X153034754Y-122350252D01*
X153026278Y-122341716D01*
X152916490Y-122231159D01*
X152911528Y-122226162D01*
X152900809Y-122219359D01*
X152821363Y-122168942D01*
X152763872Y-122132457D01*
X152736882Y-122122846D01*
X152605761Y-122076156D01*
X152605756Y-122076155D01*
X152599126Y-122073794D01*
X152592138Y-122072961D01*
X152592135Y-122072960D01*
X152471741Y-122058604D01*
X152425476Y-122053087D01*
X152418473Y-122053823D01*
X152418472Y-122053823D01*
X152370608Y-122058854D01*
X152251555Y-122071367D01*
X152244889Y-122073636D01*
X152244886Y-122073637D01*
X152092672Y-122125455D01*
X152092669Y-122125456D01*
X152086005Y-122127725D01*
X151937055Y-122219359D01*
X151812109Y-122341716D01*
X151717375Y-122488714D01*
X151657563Y-122653047D01*
X151640500Y-122788110D01*
X151640500Y-123931469D01*
X151655062Y-124061290D01*
X151657379Y-124067943D01*
X151657379Y-124067944D01*
X151670774Y-124106410D01*
X151712574Y-124226442D01*
X151716307Y-124232416D01*
X151716308Y-124232418D01*
X151790220Y-124350702D01*
X151805246Y-124374748D01*
X151832516Y-124402209D01*
X151866323Y-124464640D01*
X151861011Y-124535437D01*
X151818267Y-124592124D01*
X151751660Y-124616703D01*
X151743110Y-124616993D01*
X144457989Y-124616993D01*
X144389868Y-124596991D01*
X144343375Y-124543335D01*
X144333271Y-124473061D01*
X144362765Y-124408481D01*
X144369831Y-124400970D01*
X144382859Y-124388212D01*
X144382860Y-124388211D01*
X144387891Y-124383284D01*
X144482625Y-124236286D01*
X144542437Y-124071953D01*
X144559500Y-123936890D01*
X144559500Y-122793531D01*
X144544938Y-122663710D01*
X144487426Y-122498558D01*
X144427619Y-122402846D01*
X144398487Y-122356226D01*
X144394754Y-122350252D01*
X144386278Y-122341716D01*
X144276490Y-122231159D01*
X144271528Y-122226162D01*
X144260809Y-122219359D01*
X144181363Y-122168942D01*
X144123872Y-122132457D01*
X144096882Y-122122846D01*
X143965761Y-122076156D01*
X143965756Y-122076155D01*
X143959126Y-122073794D01*
X143952138Y-122072961D01*
X143952135Y-122072960D01*
X143831741Y-122058604D01*
X143785476Y-122053087D01*
X143778473Y-122053823D01*
X143778472Y-122053823D01*
X143730608Y-122058854D01*
X143611555Y-122071367D01*
X143604889Y-122073636D01*
X143604886Y-122073637D01*
X143452672Y-122125455D01*
X143452669Y-122125456D01*
X143446005Y-122127725D01*
X143297055Y-122219359D01*
X143172109Y-122341716D01*
X143077375Y-122488714D01*
X143017563Y-122653047D01*
X143000500Y-122788110D01*
X143000500Y-123931469D01*
X143015062Y-124061290D01*
X143017379Y-124067943D01*
X143017379Y-124067944D01*
X143030774Y-124106410D01*
X143072574Y-124226442D01*
X143076307Y-124232416D01*
X143076308Y-124232418D01*
X143165246Y-124374748D01*
X143163213Y-124376018D01*
X143185641Y-124431392D01*
X143172486Y-124501159D01*
X143123701Y-124552739D01*
X143054773Y-124569755D01*
X143045403Y-124568996D01*
X142637671Y-124520577D01*
X142631792Y-124519738D01*
X142189288Y-124445904D01*
X142183456Y-124444789D01*
X141778781Y-124357495D01*
X141757048Y-124350702D01*
X141752102Y-124348649D01*
X141752099Y-124348648D01*
X141743249Y-124344975D01*
X141743187Y-124344970D01*
X141743131Y-124344947D01*
X141727013Y-124343672D01*
X141726925Y-124343665D01*
X141705212Y-124340017D01*
X141576508Y-124306618D01*
X140804972Y-124106403D01*
X140800755Y-124105230D01*
X139874782Y-123829887D01*
X139870562Y-123828551D01*
X138954896Y-123520879D01*
X138950726Y-123519396D01*
X138046413Y-123179748D01*
X138042297Y-123178119D01*
X138042269Y-123178107D01*
X137150473Y-122806920D01*
X137146421Y-122805150D01*
X136837646Y-122663710D01*
X136268177Y-122402855D01*
X136264188Y-122400942D01*
X135400643Y-121968065D01*
X135396722Y-121966013D01*
X134548888Y-121503061D01*
X134545041Y-121500872D01*
X133713995Y-121008432D01*
X133710227Y-121006109D01*
X132896973Y-120484775D01*
X132893290Y-120482321D01*
X132098887Y-119932773D01*
X132095292Y-119930192D01*
X131855404Y-119751469D01*
X143000500Y-119751469D01*
X143015062Y-119881290D01*
X143072574Y-120046442D01*
X143165246Y-120194748D01*
X143170209Y-120199746D01*
X143170210Y-120199747D01*
X143224893Y-120254813D01*
X143288472Y-120318838D01*
X143294418Y-120322612D01*
X143294420Y-120322613D01*
X143305006Y-120329331D01*
X143436128Y-120412543D01*
X143442771Y-120414908D01*
X143442770Y-120414908D01*
X143594239Y-120468844D01*
X143594244Y-120468845D01*
X143600874Y-120471206D01*
X143607862Y-120472039D01*
X143607865Y-120472040D01*
X143728259Y-120486396D01*
X143774524Y-120491913D01*
X143781527Y-120491177D01*
X143781528Y-120491177D01*
X143853768Y-120483584D01*
X143948445Y-120473633D01*
X143955111Y-120471364D01*
X143955114Y-120471363D01*
X144107328Y-120419545D01*
X144107331Y-120419544D01*
X144113995Y-120417275D01*
X144262945Y-120325641D01*
X144359432Y-120231153D01*
X144382859Y-120208212D01*
X144382860Y-120208211D01*
X144387891Y-120203284D01*
X144444537Y-120115387D01*
X144498251Y-120068964D01*
X144568538Y-120058949D01*
X144633081Y-120088525D01*
X144645393Y-120100812D01*
X144751177Y-120222074D01*
X144757391Y-120226441D01*
X144879755Y-120312441D01*
X144879757Y-120312442D01*
X144885972Y-120316810D01*
X145039473Y-120376657D01*
X145134310Y-120389143D01*
X145161042Y-120392662D01*
X145161043Y-120392662D01*
X145165129Y-120393200D01*
X145251318Y-120393200D01*
X145373562Y-120378407D01*
X145527682Y-120320170D01*
X145663462Y-120226851D01*
X145773062Y-120103838D01*
X145850156Y-119958233D01*
X145890293Y-119798441D01*
X145890330Y-119791312D01*
X150308844Y-119791312D01*
X150310616Y-119798692D01*
X150310616Y-119798694D01*
X150342501Y-119931504D01*
X150347306Y-119951516D01*
X150422871Y-120097921D01*
X150427863Y-120103643D01*
X150427864Y-120103645D01*
X150526182Y-120216349D01*
X150526185Y-120216352D01*
X150531177Y-120222074D01*
X150537391Y-120226441D01*
X150659755Y-120312441D01*
X150659757Y-120312442D01*
X150665972Y-120316810D01*
X150819473Y-120376657D01*
X150914310Y-120389143D01*
X150941042Y-120392662D01*
X150941043Y-120392662D01*
X150945129Y-120393200D01*
X151031318Y-120393200D01*
X151153562Y-120378407D01*
X151307682Y-120320170D01*
X151443462Y-120226851D01*
X151553062Y-120103838D01*
X151554626Y-120105231D01*
X151601650Y-120067366D01*
X151672243Y-120059803D01*
X151735718Y-120091607D01*
X151756678Y-120117023D01*
X151805246Y-120194748D01*
X151810209Y-120199746D01*
X151810210Y-120199747D01*
X151864893Y-120254813D01*
X151928472Y-120318838D01*
X151934418Y-120322612D01*
X151934420Y-120322613D01*
X151945006Y-120329331D01*
X152076128Y-120412543D01*
X152082771Y-120414908D01*
X152082770Y-120414908D01*
X152234239Y-120468844D01*
X152234244Y-120468845D01*
X152240874Y-120471206D01*
X152247862Y-120472039D01*
X152247865Y-120472040D01*
X152368259Y-120486396D01*
X152414524Y-120491913D01*
X152421527Y-120491177D01*
X152421528Y-120491177D01*
X152493768Y-120483584D01*
X152588445Y-120473633D01*
X152595111Y-120471364D01*
X152595114Y-120471363D01*
X152747328Y-120419545D01*
X152747331Y-120419544D01*
X152753995Y-120417275D01*
X152902945Y-120325641D01*
X152999432Y-120231153D01*
X153022859Y-120208212D01*
X153022860Y-120208211D01*
X153027891Y-120203284D01*
X153122625Y-120056286D01*
X153155870Y-119964947D01*
X153180026Y-119898577D01*
X153182437Y-119891953D01*
X153199500Y-119756890D01*
X153199500Y-118613531D01*
X153184938Y-118483710D01*
X153127426Y-118318558D01*
X153034754Y-118170252D01*
X153026278Y-118161716D01*
X152916490Y-118051159D01*
X152911528Y-118046162D01*
X152900809Y-118039359D01*
X152806414Y-117979455D01*
X152763872Y-117952457D01*
X152736882Y-117942846D01*
X152605761Y-117896156D01*
X152605756Y-117896155D01*
X152599126Y-117893794D01*
X152592138Y-117892961D01*
X152592135Y-117892960D01*
X152471741Y-117878604D01*
X152425476Y-117873087D01*
X152418473Y-117873823D01*
X152418472Y-117873823D01*
X152370608Y-117878854D01*
X152251555Y-117891367D01*
X152244889Y-117893636D01*
X152244886Y-117893637D01*
X152092672Y-117945455D01*
X152092669Y-117945456D01*
X152086005Y-117947725D01*
X151937055Y-118039359D01*
X151812109Y-118161716D01*
X151717375Y-118308714D01*
X151714964Y-118315337D01*
X151714963Y-118315340D01*
X151694936Y-118370364D01*
X151657563Y-118473047D01*
X151640500Y-118608110D01*
X151640500Y-119095078D01*
X151620498Y-119163199D01*
X151566842Y-119209692D01*
X151496568Y-119219796D01*
X151442049Y-119198165D01*
X151320245Y-119112559D01*
X151320243Y-119112558D01*
X151314028Y-119108190D01*
X151160527Y-119048343D01*
X151065690Y-119035857D01*
X151038958Y-119032338D01*
X151038957Y-119032338D01*
X151034871Y-119031800D01*
X150948682Y-119031800D01*
X150826438Y-119046593D01*
X150672318Y-119104830D01*
X150666060Y-119109131D01*
X150587391Y-119163199D01*
X150536538Y-119198149D01*
X150531488Y-119203817D01*
X150531487Y-119203818D01*
X150530372Y-119205070D01*
X150426938Y-119321162D01*
X150349844Y-119466767D01*
X150309707Y-119626559D01*
X150308844Y-119791312D01*
X145890330Y-119791312D01*
X145891156Y-119633688D01*
X145887676Y-119619190D01*
X145854466Y-119480864D01*
X145854465Y-119480862D01*
X145852694Y-119473484D01*
X145789135Y-119350340D01*
X145780612Y-119333827D01*
X145780612Y-119333826D01*
X145777129Y-119327079D01*
X145772136Y-119321355D01*
X145673818Y-119208651D01*
X145673815Y-119208648D01*
X145668823Y-119202926D01*
X145610932Y-119162239D01*
X145540245Y-119112559D01*
X145540243Y-119112558D01*
X145534028Y-119108190D01*
X145380527Y-119048343D01*
X145285690Y-119035857D01*
X145258958Y-119032338D01*
X145258957Y-119032338D01*
X145254871Y-119031800D01*
X145168682Y-119031800D01*
X145046438Y-119046593D01*
X144892318Y-119104830D01*
X144762798Y-119193847D01*
X144756867Y-119197923D01*
X144689398Y-119220023D01*
X144620691Y-119202138D01*
X144572560Y-119149946D01*
X144559500Y-119094083D01*
X144559500Y-118613531D01*
X144544938Y-118483710D01*
X144487426Y-118318558D01*
X144394754Y-118170252D01*
X144386278Y-118161716D01*
X144276490Y-118051159D01*
X144271528Y-118046162D01*
X144260809Y-118039359D01*
X144166414Y-117979455D01*
X144123872Y-117952457D01*
X144096882Y-117942846D01*
X143965761Y-117896156D01*
X143965756Y-117896155D01*
X143959126Y-117893794D01*
X143952138Y-117892961D01*
X143952135Y-117892960D01*
X143831741Y-117878604D01*
X143785476Y-117873087D01*
X143778473Y-117873823D01*
X143778472Y-117873823D01*
X143730608Y-117878854D01*
X143611555Y-117891367D01*
X143604889Y-117893636D01*
X143604886Y-117893637D01*
X143452672Y-117945455D01*
X143452669Y-117945456D01*
X143446005Y-117947725D01*
X143297055Y-118039359D01*
X143172109Y-118161716D01*
X143077375Y-118308714D01*
X143074964Y-118315337D01*
X143074963Y-118315340D01*
X143054936Y-118370364D01*
X143017563Y-118473047D01*
X143000500Y-118608110D01*
X143000500Y-119751469D01*
X131855404Y-119751469D01*
X131320630Y-119353047D01*
X131317128Y-119350340D01*
X130591256Y-118768809D01*
X130575364Y-118753621D01*
X130570656Y-118748260D01*
X130570654Y-118748259D01*
X130564586Y-118741349D01*
X130564578Y-118741344D01*
X130564570Y-118741335D01*
X130552647Y-118734254D01*
X130533683Y-118720454D01*
X130265016Y-118483710D01*
X130142085Y-118375386D01*
X130136702Y-118370355D01*
X130094934Y-118328966D01*
X129805726Y-118042387D01*
X129742199Y-117979437D01*
X129737117Y-117974097D01*
X129522176Y-117734615D01*
X129366160Y-117560785D01*
X129361401Y-117555161D01*
X129015238Y-117120845D01*
X129010814Y-117114948D01*
X129010526Y-117114539D01*
X128690657Y-116661148D01*
X128686586Y-116655004D01*
X128393506Y-116183242D01*
X128389800Y-116176868D01*
X128124814Y-115688774D01*
X128121488Y-115682195D01*
X127974655Y-115369377D01*
X127885503Y-115179446D01*
X127882570Y-115172690D01*
X127842266Y-115071880D01*
X127734011Y-114801114D01*
X127730992Y-114793564D01*
X146285453Y-114793564D01*
X146301657Y-114940340D01*
X146304267Y-114947472D01*
X146349654Y-115071498D01*
X146352404Y-115079014D01*
X146356640Y-115085317D01*
X146356640Y-115085318D01*
X146419896Y-115179452D01*
X146434765Y-115201580D01*
X146543985Y-115300962D01*
X146673758Y-115371423D01*
X146681100Y-115373349D01*
X146681102Y-115373350D01*
X146747230Y-115390698D01*
X146804352Y-115423479D01*
X147290177Y-115909304D01*
X147297800Y-115918844D01*
X147298168Y-115918530D01*
X147303986Y-115925366D01*
X147308776Y-115932958D01*
X147315504Y-115938900D01*
X147349125Y-115968593D01*
X147354812Y-115973939D01*
X147366255Y-115985382D01*
X147373780Y-115991022D01*
X147374630Y-115991659D01*
X147382459Y-115998033D01*
X147417951Y-116029378D01*
X147426074Y-116033192D01*
X147428562Y-116034826D01*
X147443523Y-116043814D01*
X147446108Y-116045229D01*
X147453295Y-116050616D01*
X147497642Y-116067241D01*
X147506958Y-116071167D01*
X147549800Y-116091281D01*
X147558669Y-116092662D01*
X147561502Y-116093528D01*
X147578389Y-116097958D01*
X147581274Y-116098592D01*
X147589684Y-116101745D01*
X147618842Y-116103912D01*
X147636906Y-116105254D01*
X147646952Y-116106408D01*
X147655575Y-116107751D01*
X147655578Y-116107751D01*
X147660386Y-116108500D01*
X147675906Y-116108500D01*
X147685243Y-116108846D01*
X147734941Y-116112539D01*
X147743720Y-116110665D01*
X147751978Y-116110102D01*
X147767161Y-116108500D01*
X151425868Y-116108500D01*
X151485990Y-116123769D01*
X151573758Y-116171423D01*
X151716592Y-116208895D01*
X151793379Y-116210101D01*
X151856643Y-116211095D01*
X151856646Y-116211095D01*
X151864241Y-116211214D01*
X151916036Y-116199351D01*
X152000779Y-116179943D01*
X152000783Y-116179942D01*
X152008182Y-116178247D01*
X152028954Y-116167800D01*
X152133321Y-116115310D01*
X152133324Y-116115308D01*
X152140104Y-116111898D01*
X152252391Y-116015995D01*
X152338561Y-115896077D01*
X152393640Y-115759065D01*
X152414446Y-115612871D01*
X152414581Y-115600000D01*
X152396841Y-115453402D01*
X152344644Y-115315267D01*
X152261004Y-115193570D01*
X152245159Y-115179452D01*
X152156421Y-115100390D01*
X152150750Y-115095337D01*
X152144040Y-115091784D01*
X152026957Y-115029792D01*
X152026955Y-115029791D01*
X152020246Y-115026239D01*
X151973340Y-115014457D01*
X151884398Y-114992116D01*
X151884394Y-114992116D01*
X151877027Y-114990265D01*
X151869428Y-114990225D01*
X151869426Y-114990225D01*
X151807798Y-114989903D01*
X151729362Y-114989492D01*
X151721982Y-114991264D01*
X151721980Y-114991264D01*
X151593153Y-115022192D01*
X151593149Y-115022193D01*
X151585774Y-115023964D01*
X151579029Y-115027445D01*
X151579030Y-115027445D01*
X151482116Y-115077466D01*
X151424326Y-115091500D01*
X147962817Y-115091500D01*
X147894696Y-115071498D01*
X147873722Y-115054595D01*
X147528388Y-114709261D01*
X147496900Y-114653380D01*
X147496841Y-114653402D01*
X147496696Y-114653017D01*
X147496695Y-114653014D01*
X147444644Y-114515267D01*
X147408023Y-114461983D01*
X147365306Y-114399829D01*
X147365305Y-114399827D01*
X147361004Y-114393570D01*
X147250750Y-114295337D01*
X147243866Y-114291692D01*
X147126957Y-114229792D01*
X147126955Y-114229791D01*
X147120246Y-114226239D01*
X147073340Y-114214457D01*
X146984398Y-114192116D01*
X146984394Y-114192116D01*
X146977027Y-114190265D01*
X146969428Y-114190225D01*
X146969426Y-114190225D01*
X146907798Y-114189903D01*
X146829362Y-114189492D01*
X146821982Y-114191264D01*
X146821980Y-114191264D01*
X146693153Y-114222192D01*
X146693149Y-114222193D01*
X146685774Y-114223964D01*
X146554554Y-114291692D01*
X146443277Y-114388765D01*
X146358368Y-114509579D01*
X146304727Y-114647160D01*
X146285453Y-114793564D01*
X127730992Y-114793564D01*
X127676388Y-114656987D01*
X127673853Y-114650064D01*
X127498191Y-114123206D01*
X127496065Y-114116148D01*
X127464349Y-113998492D01*
X156420276Y-113998492D01*
X156420396Y-114001240D01*
X156427161Y-114156185D01*
X156437799Y-114399829D01*
X156440393Y-114459244D01*
X156500590Y-114916489D01*
X156600410Y-115366747D01*
X156601238Y-115369372D01*
X156601239Y-115369377D01*
X156721735Y-115751539D01*
X156739093Y-115806593D01*
X156915583Y-116232677D01*
X157128537Y-116641758D01*
X157376335Y-117030723D01*
X157657090Y-117396610D01*
X157968666Y-117736635D01*
X158308691Y-118048211D01*
X158310853Y-118049870D01*
X158310859Y-118049875D01*
X158435075Y-118145189D01*
X158674578Y-118328966D01*
X159063542Y-118576764D01*
X159472624Y-118789718D01*
X159898708Y-118966208D01*
X159901328Y-118967034D01*
X159901336Y-118967037D01*
X160335924Y-119104062D01*
X160335929Y-119104063D01*
X160338554Y-119104891D01*
X160788812Y-119204711D01*
X160791531Y-119205069D01*
X160791537Y-119205070D01*
X160963414Y-119227698D01*
X161246057Y-119264908D01*
X161248806Y-119265028D01*
X161248817Y-119265029D01*
X161704061Y-119284905D01*
X161706809Y-119285025D01*
X161709557Y-119284905D01*
X162164801Y-119265029D01*
X162164812Y-119265028D01*
X162167561Y-119264908D01*
X162450204Y-119227698D01*
X162622081Y-119205070D01*
X162622087Y-119205069D01*
X162624806Y-119204711D01*
X163075064Y-119104891D01*
X163077689Y-119104063D01*
X163077694Y-119104062D01*
X163512282Y-118967037D01*
X163512290Y-118967034D01*
X163514910Y-118966208D01*
X163940994Y-118789718D01*
X164350076Y-118576764D01*
X164739040Y-118328966D01*
X164978543Y-118145189D01*
X165102759Y-118049875D01*
X165102765Y-118049870D01*
X165104927Y-118048211D01*
X165444952Y-117736635D01*
X165756528Y-117396610D01*
X166037283Y-117030723D01*
X166285081Y-116641758D01*
X166498035Y-116232677D01*
X166674525Y-115806593D01*
X166691884Y-115751539D01*
X166812379Y-115369377D01*
X166812380Y-115369372D01*
X166813208Y-115366747D01*
X166913028Y-114916489D01*
X166973225Y-114459244D01*
X166975820Y-114399829D01*
X166993222Y-114001240D01*
X166993342Y-113998492D01*
X166982682Y-113754339D01*
X166973346Y-113540500D01*
X166973345Y-113540489D01*
X166973225Y-113537740D01*
X166913028Y-113080495D01*
X166813208Y-112630237D01*
X166790497Y-112558206D01*
X166675354Y-112193019D01*
X166675351Y-112193011D01*
X166674525Y-112190391D01*
X166498035Y-111764307D01*
X166285081Y-111355226D01*
X166037283Y-110966261D01*
X165853506Y-110726758D01*
X165758192Y-110602542D01*
X165758187Y-110602536D01*
X165756528Y-110600374D01*
X165444952Y-110260349D01*
X165104927Y-109948773D01*
X165102765Y-109947114D01*
X165102759Y-109947109D01*
X164938319Y-109820930D01*
X164739040Y-109668018D01*
X164350076Y-109420220D01*
X163940994Y-109207266D01*
X163514910Y-109030776D01*
X163512290Y-109029950D01*
X163512282Y-109029947D01*
X163077694Y-108892922D01*
X163077689Y-108892921D01*
X163075064Y-108892093D01*
X162624806Y-108792273D01*
X162622087Y-108791915D01*
X162622081Y-108791914D01*
X162450204Y-108769286D01*
X162167561Y-108732076D01*
X162164812Y-108731956D01*
X162164801Y-108731955D01*
X161709557Y-108712079D01*
X161706809Y-108711959D01*
X161704061Y-108712079D01*
X161248817Y-108731955D01*
X161248806Y-108731956D01*
X161246057Y-108732076D01*
X160963414Y-108769286D01*
X160791537Y-108791914D01*
X160791531Y-108791915D01*
X160788812Y-108792273D01*
X160338554Y-108892093D01*
X160335929Y-108892921D01*
X160335924Y-108892922D01*
X159901336Y-109029947D01*
X159901328Y-109029950D01*
X159898708Y-109030776D01*
X159472624Y-109207266D01*
X159063543Y-109420220D01*
X158674578Y-109668018D01*
X158475299Y-109820930D01*
X158310859Y-109947109D01*
X158310853Y-109947114D01*
X158308691Y-109948773D01*
X157968666Y-110260349D01*
X157657090Y-110600374D01*
X157655431Y-110602536D01*
X157655426Y-110602542D01*
X157560112Y-110726758D01*
X157376335Y-110966261D01*
X157128537Y-111355226D01*
X156915583Y-111764307D01*
X156739093Y-112190391D01*
X156738267Y-112193011D01*
X156738264Y-112193019D01*
X156623121Y-112558206D01*
X156600410Y-112630237D01*
X156500590Y-113080495D01*
X156440393Y-113537740D01*
X156440273Y-113540489D01*
X156440272Y-113540500D01*
X156430936Y-113754339D01*
X156420276Y-113998492D01*
X127464349Y-113998492D01*
X127351514Y-113579913D01*
X127349804Y-113572742D01*
X127301134Y-113338416D01*
X127236855Y-113028938D01*
X127235579Y-113021748D01*
X127154620Y-112472220D01*
X127153765Y-112464937D01*
X127105089Y-111911689D01*
X127104658Y-111904329D01*
X127100563Y-111764307D01*
X127089399Y-111382581D01*
X127090897Y-111359189D01*
X127093065Y-111345501D01*
X127089861Y-111325270D01*
X127088310Y-111305561D01*
X127088310Y-102014136D01*
X135250196Y-102014136D01*
X135251888Y-102023399D01*
X135260605Y-102071126D01*
X135261255Y-102075034D01*
X135269868Y-102132326D01*
X135272956Y-102138757D01*
X135274237Y-102145771D01*
X135278578Y-102154127D01*
X135300944Y-102197184D01*
X135302713Y-102200724D01*
X135327792Y-102252952D01*
X135332634Y-102258190D01*
X135335921Y-102264518D01*
X135340184Y-102269509D01*
X135376963Y-102306288D01*
X135380392Y-102309854D01*
X135418625Y-102351214D01*
X135424919Y-102354870D01*
X135430922Y-102360247D01*
X139361373Y-106290698D01*
X139371228Y-106301787D01*
X139391936Y-106328055D01*
X139399683Y-106333410D01*
X139399685Y-106333411D01*
X139439581Y-106360984D01*
X139442804Y-106363287D01*
X139489419Y-106397718D01*
X139496150Y-106400082D01*
X139502016Y-106404136D01*
X139557234Y-106421599D01*
X139560975Y-106422847D01*
X139606786Y-106438935D01*
X139606791Y-106438936D01*
X139615673Y-106442055D01*
X139622802Y-106442335D01*
X139629600Y-106444485D01*
X139636143Y-106445000D01*
X139688158Y-106445000D01*
X139693104Y-106445097D01*
X139749383Y-106447308D01*
X139756418Y-106445443D01*
X139764464Y-106445000D01*
X150266113Y-106445000D01*
X150280923Y-106445873D01*
X150314136Y-106449804D01*
X150371141Y-106439393D01*
X150375034Y-106438745D01*
X150391242Y-106436308D01*
X150432326Y-106430132D01*
X150438757Y-106427044D01*
X150445771Y-106425763D01*
X150497185Y-106399056D01*
X150500725Y-106397287D01*
X150544456Y-106376288D01*
X150544457Y-106376287D01*
X150552952Y-106372208D01*
X150558190Y-106367366D01*
X150564518Y-106364079D01*
X150569509Y-106359816D01*
X150606288Y-106323037D01*
X150609854Y-106319608D01*
X150644296Y-106287770D01*
X150651214Y-106281375D01*
X150654870Y-106275081D01*
X150660247Y-106269078D01*
X151468399Y-105460926D01*
X151477467Y-105453719D01*
X151477114Y-105453305D01*
X151484277Y-105447187D01*
X151492269Y-105442203D01*
X151523128Y-105406641D01*
X151529199Y-105400126D01*
X151538302Y-105391023D01*
X151541098Y-105387238D01*
X151541102Y-105387233D01*
X151544637Y-105382447D01*
X151550820Y-105374729D01*
X151573797Y-105348250D01*
X151573797Y-105348249D01*
X151579970Y-105341136D01*
X151583778Y-105332522D01*
X151588230Y-105325507D01*
X151592120Y-105318159D01*
X151597718Y-105310581D01*
X151612456Y-105268613D01*
X151616090Y-105259433D01*
X151634076Y-105218750D01*
X151635183Y-105209393D01*
X151637375Y-105201382D01*
X151638933Y-105193218D01*
X151642055Y-105184327D01*
X151643801Y-105139893D01*
X151644577Y-105130031D01*
X151648697Y-105095220D01*
X151648697Y-105095217D01*
X151649804Y-105085864D01*
X151648111Y-105076593D01*
X151647849Y-105068279D01*
X151646938Y-105060028D01*
X151647308Y-105050617D01*
X151635911Y-105007631D01*
X151633752Y-104997974D01*
X151627456Y-104963497D01*
X151627455Y-104963495D01*
X151625763Y-104954229D01*
X151621421Y-104945871D01*
X151618724Y-104937993D01*
X151615427Y-104930374D01*
X151613014Y-104921273D01*
X151608031Y-104913283D01*
X151605363Y-104907118D01*
X151595000Y-104857078D01*
X151595000Y-104613856D01*
X151615002Y-104545735D01*
X151646939Y-104511920D01*
X151755909Y-104432749D01*
X151755911Y-104432747D01*
X151761253Y-104428866D01*
X151889040Y-104286944D01*
X151984527Y-104121556D01*
X152043542Y-103939928D01*
X152047008Y-103906956D01*
X152062814Y-103756565D01*
X152063504Y-103750000D01*
X152048280Y-103605151D01*
X152044232Y-103566635D01*
X152044232Y-103566633D01*
X152043542Y-103560072D01*
X151984527Y-103378444D01*
X151889040Y-103213056D01*
X151761253Y-103071134D01*
X151708667Y-103032928D01*
X151665313Y-102976706D01*
X151659238Y-102905970D01*
X151692369Y-102843178D01*
X151754189Y-102808266D01*
X151782728Y-102804992D01*
X163634570Y-102804992D01*
X163645441Y-102805462D01*
X163687157Y-102809075D01*
X163729449Y-102798569D01*
X163739132Y-102796565D01*
X163782094Y-102789414D01*
X163791260Y-102784468D01*
X163795860Y-102782893D01*
X163800309Y-102780968D01*
X163810418Y-102778457D01*
X163847025Y-102754821D01*
X163855540Y-102749785D01*
X163884703Y-102734050D01*
X163884706Y-102734047D01*
X163893868Y-102729104D01*
X163900933Y-102721462D01*
X163904776Y-102718481D01*
X163908371Y-102715209D01*
X163917115Y-102709563D01*
X163944092Y-102675343D01*
X163950510Y-102667828D01*
X163980080Y-102635840D01*
X163984291Y-102626315D01*
X163986961Y-102622251D01*
X163989297Y-102618001D01*
X163995745Y-102609822D01*
X164010180Y-102568719D01*
X164013819Y-102559526D01*
X164027225Y-102529201D01*
X164031435Y-102519679D01*
X164032334Y-102509307D01*
X164034304Y-102501634D01*
X164035201Y-102497469D01*
X164037827Y-102489990D01*
X164038311Y-102484401D01*
X164038311Y-102445733D01*
X164038781Y-102434861D01*
X164041495Y-102403524D01*
X164042394Y-102393146D01*
X164039883Y-102383037D01*
X164039066Y-102372655D01*
X164039695Y-102372605D01*
X164038311Y-102361293D01*
X164038311Y-92595735D01*
X164038781Y-92584863D01*
X164041495Y-92553526D01*
X164042394Y-92543148D01*
X164031888Y-92500856D01*
X164029883Y-92491170D01*
X164024443Y-92458485D01*
X164022733Y-92448211D01*
X164017787Y-92439045D01*
X164016212Y-92434445D01*
X164014287Y-92429996D01*
X164011776Y-92419887D01*
X163988140Y-92383280D01*
X163983104Y-92374765D01*
X163967369Y-92345602D01*
X163967366Y-92345599D01*
X163962423Y-92336437D01*
X163954781Y-92329372D01*
X163951800Y-92325529D01*
X163948528Y-92321934D01*
X163942882Y-92313190D01*
X163908662Y-92286213D01*
X163901147Y-92279795D01*
X163869159Y-92250225D01*
X163859634Y-92246014D01*
X163855570Y-92243344D01*
X163851320Y-92241008D01*
X163843141Y-92234560D01*
X163802038Y-92220125D01*
X163792845Y-92216486D01*
X163783221Y-92212231D01*
X163752998Y-92198870D01*
X163742626Y-92197971D01*
X163734953Y-92196001D01*
X163730788Y-92195104D01*
X163723309Y-92192478D01*
X163717720Y-92191994D01*
X163679052Y-92191994D01*
X163668180Y-92191524D01*
X163626465Y-92187911D01*
X163616356Y-92190422D01*
X163605974Y-92191239D01*
X163605924Y-92190610D01*
X163594612Y-92191994D01*
X151083741Y-92191994D01*
X151015620Y-92171992D01*
X150969127Y-92118336D01*
X150959023Y-92048062D01*
X150986340Y-91988248D01*
X150987484Y-91987484D01*
X151021059Y-91937237D01*
X151036839Y-91913620D01*
X151043734Y-91903301D01*
X151058500Y-91829067D01*
X151058499Y-90470934D01*
X151043734Y-90396699D01*
X151021059Y-90362763D01*
X150994377Y-90322832D01*
X150987484Y-90312516D01*
X150903301Y-90256266D01*
X150829067Y-90241500D01*
X150721000Y-90241500D01*
X150652879Y-90221498D01*
X150606386Y-90167842D01*
X150595000Y-90115500D01*
X150595000Y-85686515D01*
X150613082Y-85624933D01*
X159120500Y-85624933D01*
X159120501Y-87375066D01*
X159135266Y-87449301D01*
X159142161Y-87459620D01*
X159142162Y-87459622D01*
X159182516Y-87520015D01*
X159191516Y-87533484D01*
X159275699Y-87589734D01*
X159349933Y-87604500D01*
X160224858Y-87604500D01*
X161100066Y-87604499D01*
X161135818Y-87597388D01*
X161162126Y-87592156D01*
X161162128Y-87592155D01*
X161174301Y-87589734D01*
X161184621Y-87582839D01*
X161184622Y-87582838D01*
X161248168Y-87540377D01*
X161258484Y-87533484D01*
X161314734Y-87449301D01*
X161329500Y-87375067D01*
X161329499Y-86470964D01*
X161656148Y-86470964D01*
X161669424Y-86673522D01*
X161670845Y-86679118D01*
X161670846Y-86679123D01*
X161712036Y-86841305D01*
X161719392Y-86870269D01*
X161721809Y-86875512D01*
X161759010Y-86956208D01*
X161804377Y-87054616D01*
X161807710Y-87059332D01*
X161917915Y-87215269D01*
X161921533Y-87220389D01*
X162066938Y-87362035D01*
X162235720Y-87474812D01*
X162241023Y-87477090D01*
X162241026Y-87477092D01*
X162372283Y-87533484D01*
X162422228Y-87554942D01*
X162495244Y-87571464D01*
X162614579Y-87598467D01*
X162614584Y-87598468D01*
X162620216Y-87599742D01*
X162625987Y-87599969D01*
X162625989Y-87599969D01*
X162685756Y-87602317D01*
X162823053Y-87607712D01*
X162930348Y-87592155D01*
X163018231Y-87579413D01*
X163018236Y-87579412D01*
X163023945Y-87578584D01*
X163029409Y-87576729D01*
X163029414Y-87576728D01*
X163210693Y-87515192D01*
X163210698Y-87515190D01*
X163216165Y-87513334D01*
X163393276Y-87414147D01*
X163405078Y-87404332D01*
X163544913Y-87288031D01*
X163549345Y-87284345D01*
X163679147Y-87128276D01*
X163778334Y-86951165D01*
X163780190Y-86945698D01*
X163780192Y-86945693D01*
X163841728Y-86764414D01*
X163841729Y-86764409D01*
X163843584Y-86758945D01*
X163844412Y-86753236D01*
X163844413Y-86753231D01*
X163872179Y-86561727D01*
X163872712Y-86558053D01*
X163874232Y-86500000D01*
X163855658Y-86297859D01*
X163854090Y-86292299D01*
X163802125Y-86108046D01*
X163802124Y-86108044D01*
X163800557Y-86102487D01*
X163792423Y-86085991D01*
X163713331Y-85925609D01*
X163710776Y-85920428D01*
X163589320Y-85757779D01*
X163440258Y-85619987D01*
X163435375Y-85616906D01*
X163435371Y-85616903D01*
X163273464Y-85514748D01*
X163268581Y-85511667D01*
X163080039Y-85436446D01*
X163074379Y-85435320D01*
X163074375Y-85435319D01*
X162886613Y-85397971D01*
X162886610Y-85397971D01*
X162880946Y-85396844D01*
X162875171Y-85396768D01*
X162875167Y-85396768D01*
X162773793Y-85395441D01*
X162677971Y-85394187D01*
X162672274Y-85395166D01*
X162672273Y-85395166D01*
X162584397Y-85410266D01*
X162477910Y-85428564D01*
X162287463Y-85498824D01*
X162113010Y-85602612D01*
X162108670Y-85606418D01*
X162108666Y-85606421D01*
X162076848Y-85634325D01*
X161960392Y-85736455D01*
X161956817Y-85740990D01*
X161956816Y-85740991D01*
X161956144Y-85741844D01*
X161834720Y-85895869D01*
X161832031Y-85900980D01*
X161832029Y-85900983D01*
X161798355Y-85964987D01*
X161740203Y-86075515D01*
X161680007Y-86269378D01*
X161656148Y-86470964D01*
X161329499Y-86470964D01*
X161329499Y-85624934D01*
X161314734Y-85550699D01*
X161288654Y-85511667D01*
X161265377Y-85476832D01*
X161258484Y-85466516D01*
X161174301Y-85410266D01*
X161100067Y-85395500D01*
X160225142Y-85395500D01*
X159349934Y-85395501D01*
X159314182Y-85402612D01*
X159287874Y-85407844D01*
X159287872Y-85407845D01*
X159275699Y-85410266D01*
X159265379Y-85417161D01*
X159265378Y-85417162D01*
X159204985Y-85457516D01*
X159191516Y-85466516D01*
X159135266Y-85550699D01*
X159120500Y-85624933D01*
X150613082Y-85624933D01*
X150615002Y-85618394D01*
X150631905Y-85597420D01*
X151182168Y-85047157D01*
X151244480Y-85013131D01*
X151257101Y-85011102D01*
X151264241Y-85011214D01*
X151316036Y-84999351D01*
X151400779Y-84979943D01*
X151400783Y-84979942D01*
X151408182Y-84978247D01*
X151461286Y-84951539D01*
X151533321Y-84915310D01*
X151533324Y-84915308D01*
X151540104Y-84911898D01*
X151652391Y-84815995D01*
X151738561Y-84696077D01*
X151793640Y-84559065D01*
X151814446Y-84412871D01*
X151814581Y-84400000D01*
X151813222Y-84388765D01*
X151802527Y-84300390D01*
X151796841Y-84253402D01*
X151744644Y-84115267D01*
X151661004Y-83993570D01*
X151550750Y-83895337D01*
X151543866Y-83891692D01*
X151426957Y-83829792D01*
X151426955Y-83829791D01*
X151420246Y-83826239D01*
X151373340Y-83814457D01*
X151284398Y-83792116D01*
X151284394Y-83792116D01*
X151277027Y-83790265D01*
X151269428Y-83790225D01*
X151269426Y-83790225D01*
X151207798Y-83789903D01*
X151129362Y-83789492D01*
X151121982Y-83791264D01*
X151121980Y-83791264D01*
X150993153Y-83822192D01*
X150993149Y-83822193D01*
X150985774Y-83823964D01*
X150854554Y-83891692D01*
X150743277Y-83988765D01*
X150658368Y-84109579D01*
X150655609Y-84116654D01*
X150655608Y-84116657D01*
X150611499Y-84229792D01*
X150604727Y-84247160D01*
X150603735Y-84254693D01*
X150603735Y-84254694D01*
X150592300Y-84341553D01*
X150563578Y-84406480D01*
X150556473Y-84414202D01*
X149859302Y-85111373D01*
X149848213Y-85121228D01*
X149821945Y-85141936D01*
X149816590Y-85149683D01*
X149816589Y-85149685D01*
X149789016Y-85189581D01*
X149786713Y-85192804D01*
X149761242Y-85227289D01*
X149752282Y-85239419D01*
X149749918Y-85246150D01*
X149745864Y-85252016D01*
X149743024Y-85260997D01*
X149728406Y-85307219D01*
X149727153Y-85310975D01*
X149711065Y-85356786D01*
X149711064Y-85356791D01*
X149707945Y-85365673D01*
X149707665Y-85372802D01*
X149705515Y-85379600D01*
X149705000Y-85386143D01*
X149705000Y-85438159D01*
X149704903Y-85443105D01*
X149702692Y-85499384D01*
X149704557Y-85506419D01*
X149705000Y-85514465D01*
X149705000Y-90115501D01*
X149684998Y-90183622D01*
X149631342Y-90230115D01*
X149579000Y-90241501D01*
X149470934Y-90241501D01*
X149435182Y-90248612D01*
X149408874Y-90253844D01*
X149408872Y-90253845D01*
X149396699Y-90256266D01*
X149386379Y-90263161D01*
X149386378Y-90263162D01*
X149361427Y-90279834D01*
X149312516Y-90312516D01*
X149256266Y-90396699D01*
X149241500Y-90470933D01*
X149241500Y-90773794D01*
X149221498Y-90841915D01*
X149167842Y-90888408D01*
X149097568Y-90898512D01*
X149032988Y-90869018D01*
X148995667Y-90812730D01*
X148986569Y-90784728D01*
X148986568Y-90784726D01*
X148984527Y-90778444D01*
X148889040Y-90613056D01*
X148779936Y-90491883D01*
X148765675Y-90476045D01*
X148765674Y-90476044D01*
X148761253Y-90471134D01*
X148657166Y-90395510D01*
X148612094Y-90362763D01*
X148612093Y-90362762D01*
X148606752Y-90358882D01*
X148600724Y-90356198D01*
X148600722Y-90356197D01*
X148438319Y-90283891D01*
X148438318Y-90283891D01*
X148432288Y-90281206D01*
X148338887Y-90261353D01*
X148251944Y-90242872D01*
X148251939Y-90242872D01*
X148245487Y-90241500D01*
X148054513Y-90241500D01*
X148048061Y-90242872D01*
X148048056Y-90242872D01*
X147961112Y-90261353D01*
X147867712Y-90281206D01*
X147861682Y-90283891D01*
X147861681Y-90283891D01*
X147699278Y-90356197D01*
X147699276Y-90356198D01*
X147693248Y-90358882D01*
X147687907Y-90362762D01*
X147687906Y-90362763D01*
X147642834Y-90395510D01*
X147538747Y-90471134D01*
X147534326Y-90476044D01*
X147534325Y-90476045D01*
X147520065Y-90491883D01*
X147410960Y-90613056D01*
X147315473Y-90778444D01*
X147275382Y-90901832D01*
X147269833Y-90918909D01*
X147229759Y-90977514D01*
X147164363Y-91005151D01*
X147094406Y-90993044D01*
X147042100Y-90945038D01*
X147030167Y-90918909D01*
X147024619Y-90901832D01*
X146984527Y-90778444D01*
X146889040Y-90613056D01*
X146779936Y-90491883D01*
X146765675Y-90476045D01*
X146765674Y-90476044D01*
X146761253Y-90471134D01*
X146752625Y-90464865D01*
X146663610Y-90400192D01*
X146646938Y-90388079D01*
X146603585Y-90331858D01*
X146595000Y-90286144D01*
X146595000Y-85323099D01*
X146615002Y-85254978D01*
X146639168Y-85227289D01*
X146641990Y-85224878D01*
X146652391Y-85215995D01*
X146738561Y-85096077D01*
X146793640Y-84959065D01*
X146814446Y-84812871D01*
X146814581Y-84800000D01*
X146796841Y-84653402D01*
X146744644Y-84515267D01*
X146668265Y-84404135D01*
X146665306Y-84399829D01*
X146665305Y-84399827D01*
X146661004Y-84393570D01*
X146550750Y-84295337D01*
X146543866Y-84291692D01*
X146426957Y-84229792D01*
X146426955Y-84229791D01*
X146420246Y-84226239D01*
X146373340Y-84214457D01*
X146284398Y-84192116D01*
X146284394Y-84192116D01*
X146277027Y-84190265D01*
X146269428Y-84190225D01*
X146269426Y-84190225D01*
X146207798Y-84189903D01*
X146129362Y-84189492D01*
X146121982Y-84191264D01*
X146121980Y-84191264D01*
X145993153Y-84222192D01*
X145993149Y-84222193D01*
X145985774Y-84223964D01*
X145854554Y-84291692D01*
X145743277Y-84388765D01*
X145658368Y-84509579D01*
X145604727Y-84647160D01*
X145603735Y-84654693D01*
X145603735Y-84654694D01*
X145599216Y-84689024D01*
X145585453Y-84793564D01*
X145601657Y-84940340D01*
X145604267Y-84947472D01*
X145616150Y-84979943D01*
X145652404Y-85079014D01*
X145656640Y-85085317D01*
X145656640Y-85085318D01*
X145683582Y-85125412D01*
X145705000Y-85195688D01*
X145705000Y-90286144D01*
X145684998Y-90354265D01*
X145653062Y-90388079D01*
X145636390Y-90400192D01*
X145547376Y-90464865D01*
X145538747Y-90471134D01*
X145534326Y-90476044D01*
X145534325Y-90476045D01*
X145520065Y-90491883D01*
X145410960Y-90613056D01*
X145315473Y-90778444D01*
X145275382Y-90901832D01*
X145269833Y-90918909D01*
X145229759Y-90977514D01*
X145164363Y-91005151D01*
X145094406Y-90993044D01*
X145042100Y-90945038D01*
X145030167Y-90918909D01*
X145024619Y-90901832D01*
X144984527Y-90778444D01*
X144889040Y-90613056D01*
X144779936Y-90491883D01*
X144765675Y-90476045D01*
X144765674Y-90476044D01*
X144761253Y-90471134D01*
X144657166Y-90395510D01*
X144612094Y-90362763D01*
X144612093Y-90362762D01*
X144606752Y-90358882D01*
X144600724Y-90356198D01*
X144600722Y-90356197D01*
X144438319Y-90283891D01*
X144438318Y-90283891D01*
X144432288Y-90281206D01*
X144338887Y-90261353D01*
X144251944Y-90242872D01*
X144251939Y-90242872D01*
X144245487Y-90241500D01*
X144054513Y-90241500D01*
X144048061Y-90242872D01*
X144048056Y-90242872D01*
X143961112Y-90261353D01*
X143867712Y-90281206D01*
X143861682Y-90283891D01*
X143861681Y-90283891D01*
X143699278Y-90356197D01*
X143699276Y-90356198D01*
X143693248Y-90358882D01*
X143687907Y-90362762D01*
X143687906Y-90362763D01*
X143642834Y-90395510D01*
X143538747Y-90471134D01*
X143534326Y-90476044D01*
X143534325Y-90476045D01*
X143520065Y-90491883D01*
X143410960Y-90613056D01*
X143315473Y-90778444D01*
X143256458Y-90960072D01*
X143255768Y-90966633D01*
X143255768Y-90966635D01*
X143251720Y-91005151D01*
X143236496Y-91150000D01*
X143237186Y-91156565D01*
X143252993Y-91306956D01*
X143256458Y-91339928D01*
X143315473Y-91521556D01*
X143410960Y-91686944D01*
X143538747Y-91828866D01*
X143693248Y-91941118D01*
X143699274Y-91943801D01*
X143699281Y-91943805D01*
X143715189Y-91950887D01*
X143769285Y-91996866D01*
X143789935Y-92064794D01*
X143770583Y-92133102D01*
X143717373Y-92180104D01*
X143663941Y-92191994D01*
X138179051Y-92191994D01*
X138168179Y-92191524D01*
X138126464Y-92187911D01*
X138109738Y-92192066D01*
X138084175Y-92198416D01*
X138074489Y-92200421D01*
X138031527Y-92207572D01*
X138022361Y-92212518D01*
X138017761Y-92214093D01*
X138013312Y-92216018D01*
X138003203Y-92218529D01*
X137966599Y-92242164D01*
X137958081Y-92247201D01*
X137928918Y-92262936D01*
X137928915Y-92262939D01*
X137919753Y-92267882D01*
X137912688Y-92275524D01*
X137908845Y-92278505D01*
X137905250Y-92281777D01*
X137896506Y-92287423D01*
X137890060Y-92295600D01*
X137869531Y-92321641D01*
X137863111Y-92329158D01*
X137833541Y-92361146D01*
X137829330Y-92370671D01*
X137826660Y-92374735D01*
X137824324Y-92378985D01*
X137817876Y-92387164D01*
X137803443Y-92428263D01*
X137799802Y-92437460D01*
X137782186Y-92477307D01*
X137781287Y-92487679D01*
X137779317Y-92495352D01*
X137778420Y-92499517D01*
X137775794Y-92506996D01*
X137775310Y-92512585D01*
X137775310Y-92551253D01*
X137774840Y-92562124D01*
X137771227Y-92603840D01*
X137773738Y-92613949D01*
X137774555Y-92624331D01*
X137773926Y-92624381D01*
X137775310Y-92635693D01*
X137775310Y-102401251D01*
X137774840Y-102412122D01*
X137771227Y-102453838D01*
X137780208Y-102489990D01*
X137781732Y-102496127D01*
X137783737Y-102505813D01*
X137790888Y-102548775D01*
X137795834Y-102557941D01*
X137797409Y-102562541D01*
X137799334Y-102566990D01*
X137801845Y-102577099D01*
X137807495Y-102585849D01*
X137825480Y-102613703D01*
X137830517Y-102622221D01*
X137846252Y-102651384D01*
X137846255Y-102651387D01*
X137851198Y-102660549D01*
X137858840Y-102667614D01*
X137861821Y-102671457D01*
X137865093Y-102675052D01*
X137870739Y-102683796D01*
X137904957Y-102710771D01*
X137912474Y-102717191D01*
X137944462Y-102746761D01*
X137953987Y-102750972D01*
X137958051Y-102753642D01*
X137962301Y-102755978D01*
X137970480Y-102762426D01*
X138011583Y-102776861D01*
X138020776Y-102780500D01*
X138060623Y-102798116D01*
X138070995Y-102799015D01*
X138078668Y-102800985D01*
X138082833Y-102801882D01*
X138090312Y-102804508D01*
X138095901Y-102804992D01*
X138134569Y-102804992D01*
X138145440Y-102805462D01*
X138187156Y-102809075D01*
X138197265Y-102806564D01*
X138207647Y-102805747D01*
X138207697Y-102806376D01*
X138219009Y-102804992D01*
X144155446Y-102804992D01*
X144223567Y-102824994D01*
X144270060Y-102878650D01*
X144280164Y-102948924D01*
X144254396Y-103008998D01*
X144174868Y-103109879D01*
X144168597Y-103119536D01*
X144074546Y-103298298D01*
X144070138Y-103308941D01*
X144010235Y-103501857D01*
X144007845Y-103513101D01*
X143984101Y-103713717D01*
X143983800Y-103725218D01*
X143997011Y-103926789D01*
X143998811Y-103938156D01*
X144048537Y-104133950D01*
X144052375Y-104144788D01*
X144136950Y-104328246D01*
X144142698Y-104338202D01*
X144157042Y-104358499D01*
X144167630Y-104366887D01*
X144180931Y-104359859D01*
X145060905Y-103479885D01*
X145123217Y-103445859D01*
X145194032Y-103450924D01*
X145239095Y-103479885D01*
X146119910Y-104360700D01*
X146132290Y-104367460D01*
X146138870Y-104362534D01*
X146186065Y-104278261D01*
X146236802Y-104228599D01*
X146306334Y-104214251D01*
X146372585Y-104239773D01*
X146405119Y-104276827D01*
X146410960Y-104286944D01*
X146538747Y-104428866D01*
X146637843Y-104500864D01*
X146653061Y-104511920D01*
X146693248Y-104541118D01*
X146699276Y-104543802D01*
X146699278Y-104543803D01*
X146704999Y-104546350D01*
X146867712Y-104618794D01*
X146961113Y-104638647D01*
X147048056Y-104657128D01*
X147048061Y-104657128D01*
X147054513Y-104658500D01*
X147245487Y-104658500D01*
X147251939Y-104657128D01*
X147251944Y-104657128D01*
X147338888Y-104638647D01*
X147432288Y-104618794D01*
X147595001Y-104546350D01*
X147600722Y-104543803D01*
X147600724Y-104543802D01*
X147606752Y-104541118D01*
X147646940Y-104511920D01*
X147662157Y-104500864D01*
X147761253Y-104428866D01*
X147889040Y-104286944D01*
X147984527Y-104121556D01*
X148030167Y-103981090D01*
X148070241Y-103922486D01*
X148135637Y-103894849D01*
X148205594Y-103906956D01*
X148257900Y-103954962D01*
X148269832Y-103981089D01*
X148315473Y-104121556D01*
X148410960Y-104286944D01*
X148538747Y-104428866D01*
X148637843Y-104500864D01*
X148653061Y-104511920D01*
X148693248Y-104541118D01*
X148699276Y-104543802D01*
X148699278Y-104543803D01*
X148704999Y-104546350D01*
X148867712Y-104618794D01*
X148961113Y-104638647D01*
X149048056Y-104657128D01*
X149048061Y-104657128D01*
X149054513Y-104658500D01*
X149245487Y-104658500D01*
X149251939Y-104657128D01*
X149251944Y-104657128D01*
X149338888Y-104638647D01*
X149432288Y-104618794D01*
X149595001Y-104546350D01*
X149600722Y-104543803D01*
X149600724Y-104543802D01*
X149606752Y-104541118D01*
X149646940Y-104511920D01*
X149662157Y-104500864D01*
X149761253Y-104428866D01*
X149889040Y-104286944D01*
X149984527Y-104121556D01*
X150030167Y-103981090D01*
X150070241Y-103922486D01*
X150135637Y-103894849D01*
X150205594Y-103906956D01*
X150257900Y-103954962D01*
X150269832Y-103981089D01*
X150315473Y-104121556D01*
X150410960Y-104286944D01*
X150538747Y-104428866D01*
X150544089Y-104432747D01*
X150544091Y-104432749D01*
X150653061Y-104511920D01*
X150696415Y-104568142D01*
X150705000Y-104613856D01*
X150705000Y-104913485D01*
X150684998Y-104981606D01*
X150668095Y-105002580D01*
X150152580Y-105518095D01*
X150090268Y-105552121D01*
X150063485Y-105555000D01*
X139936515Y-105555000D01*
X139868394Y-105534998D01*
X139847420Y-105518095D01*
X139059553Y-104730228D01*
X144534132Y-104730228D01*
X144544014Y-104742717D01*
X144588362Y-104772350D01*
X144598472Y-104777840D01*
X144784077Y-104857582D01*
X144795020Y-104861137D01*
X144992042Y-104905719D01*
X145003452Y-104907221D01*
X145205307Y-104915152D01*
X145216789Y-104914550D01*
X145416712Y-104885563D01*
X145427894Y-104882878D01*
X145619185Y-104817943D01*
X145629688Y-104813267D01*
X145757708Y-104741573D01*
X145767570Y-104731497D01*
X145764615Y-104723825D01*
X145162812Y-104122022D01*
X145148868Y-104114408D01*
X145147035Y-104114539D01*
X145140420Y-104118790D01*
X144540328Y-104718882D01*
X144534132Y-104730228D01*
X139059553Y-104730228D01*
X136181905Y-101852580D01*
X136147879Y-101790268D01*
X136145000Y-101763485D01*
X136145000Y-88593564D01*
X137885453Y-88593564D01*
X137901657Y-88740340D01*
X137904267Y-88747472D01*
X137946451Y-88862746D01*
X137952404Y-88879014D01*
X137956640Y-88885317D01*
X137956640Y-88885318D01*
X138026824Y-88989762D01*
X138034765Y-89001580D01*
X138143985Y-89100962D01*
X138273758Y-89171423D01*
X138416592Y-89208895D01*
X138514644Y-89210435D01*
X138582442Y-89231504D01*
X138628086Y-89285883D01*
X138637086Y-89356307D01*
X138630058Y-89382188D01*
X138607488Y-89440077D01*
X138607487Y-89440081D01*
X138604727Y-89447160D01*
X138603735Y-89454693D01*
X138603735Y-89454694D01*
X138589329Y-89564123D01*
X138585453Y-89593564D01*
X138601657Y-89740340D01*
X138604267Y-89747472D01*
X138636724Y-89836165D01*
X138652404Y-89879014D01*
X138656640Y-89885317D01*
X138656640Y-89885318D01*
X138668019Y-89902251D01*
X138734765Y-90001580D01*
X138740384Y-90006693D01*
X138740385Y-90006694D01*
X138756030Y-90020930D01*
X138843985Y-90100962D01*
X138973758Y-90171423D01*
X139116592Y-90208895D01*
X139193379Y-90210101D01*
X139256643Y-90211095D01*
X139256646Y-90211095D01*
X139264241Y-90211214D01*
X139316036Y-90199351D01*
X139400779Y-90179943D01*
X139400783Y-90179942D01*
X139408182Y-90178247D01*
X139434694Y-90164913D01*
X139533321Y-90115310D01*
X139533324Y-90115308D01*
X139540104Y-90111898D01*
X139652391Y-90015995D01*
X139738561Y-89896077D01*
X139793640Y-89759065D01*
X139808190Y-89656829D01*
X139837591Y-89592206D01*
X139843838Y-89585487D01*
X150690698Y-78738627D01*
X150701787Y-78728772D01*
X150720658Y-78713895D01*
X150728055Y-78708064D01*
X150760991Y-78660409D01*
X150763287Y-78657196D01*
X150792120Y-78618160D01*
X150797718Y-78610581D01*
X150800082Y-78603850D01*
X150804136Y-78597984D01*
X150821599Y-78542766D01*
X150822847Y-78539025D01*
X150838935Y-78493214D01*
X150838936Y-78493209D01*
X150842055Y-78484327D01*
X150842335Y-78477198D01*
X150844485Y-78470400D01*
X150845000Y-78463857D01*
X150845000Y-78411841D01*
X150845097Y-78406895D01*
X150845621Y-78393564D01*
X150847308Y-78350616D01*
X150845443Y-78343581D01*
X150845000Y-78335535D01*
X150845000Y-77566855D01*
X150868678Y-77493329D01*
X150905678Y-77441838D01*
X150938561Y-77396077D01*
X150989206Y-77270096D01*
X150990805Y-77266118D01*
X150990806Y-77266116D01*
X150993640Y-77259065D01*
X151014446Y-77112871D01*
X151014581Y-77100000D01*
X151012042Y-77079014D01*
X151004604Y-77017552D01*
X150996841Y-76953402D01*
X150944644Y-76815267D01*
X150861004Y-76693570D01*
X150750750Y-76595337D01*
X150743866Y-76591692D01*
X150626957Y-76529792D01*
X150626955Y-76529791D01*
X150620246Y-76526239D01*
X150553920Y-76509579D01*
X150484398Y-76492116D01*
X150484394Y-76492116D01*
X150477027Y-76490265D01*
X150469428Y-76490225D01*
X150469426Y-76490225D01*
X150407798Y-76489903D01*
X150329362Y-76489492D01*
X150321982Y-76491264D01*
X150321980Y-76491264D01*
X150193153Y-76522192D01*
X150193149Y-76522193D01*
X150185774Y-76523964D01*
X150054554Y-76591692D01*
X149943277Y-76688765D01*
X149858368Y-76809579D01*
X149804727Y-76947160D01*
X149803735Y-76954693D01*
X149803735Y-76954694D01*
X149786539Y-77085318D01*
X149785453Y-77093564D01*
X149801657Y-77240340D01*
X149852404Y-77379014D01*
X149856640Y-77385317D01*
X149856640Y-77385318D01*
X149933582Y-77499820D01*
X149955000Y-77570096D01*
X149955000Y-78163485D01*
X149934998Y-78231606D01*
X149918095Y-78252580D01*
X149348635Y-78822040D01*
X149286323Y-78856066D01*
X149215508Y-78851001D01*
X149158672Y-78808454D01*
X149133861Y-78741934D01*
X149142633Y-78685948D01*
X149161496Y-78639025D01*
X149193640Y-78559065D01*
X149206259Y-78470400D01*
X149213865Y-78416955D01*
X149213865Y-78416952D01*
X149214446Y-78412871D01*
X149214581Y-78400000D01*
X149196841Y-78253402D01*
X149144644Y-78115267D01*
X149061004Y-77993570D01*
X148950750Y-77895337D01*
X148943866Y-77891692D01*
X148826957Y-77829792D01*
X148826955Y-77829791D01*
X148820246Y-77826239D01*
X148773340Y-77814457D01*
X148684398Y-77792116D01*
X148684394Y-77792116D01*
X148677027Y-77790265D01*
X148669428Y-77790225D01*
X148669426Y-77790225D01*
X148607798Y-77789903D01*
X148529362Y-77789492D01*
X148521982Y-77791264D01*
X148521980Y-77791264D01*
X148393153Y-77822192D01*
X148393149Y-77822193D01*
X148385774Y-77823964D01*
X148379029Y-77827445D01*
X148379030Y-77827445D01*
X148284678Y-77876144D01*
X148254554Y-77891692D01*
X148143277Y-77988765D01*
X148058368Y-78109579D01*
X148055609Y-78116654D01*
X148055608Y-78116657D01*
X148017003Y-78215675D01*
X148004727Y-78247160D01*
X148003735Y-78254693D01*
X148003735Y-78254694D01*
X147990849Y-78352580D01*
X147985453Y-78393564D01*
X147987471Y-78411841D01*
X147987927Y-78415969D01*
X147975522Y-78485874D01*
X147951783Y-78518892D01*
X138517951Y-87952724D01*
X138455639Y-87986750D01*
X138443335Y-87988794D01*
X138436956Y-87989532D01*
X138429362Y-87989492D01*
X138421982Y-87991264D01*
X138421980Y-87991264D01*
X138293153Y-88022192D01*
X138293149Y-88022193D01*
X138285774Y-88023964D01*
X138154554Y-88091692D01*
X138148832Y-88096684D01*
X138148830Y-88096685D01*
X138075133Y-88160975D01*
X138043277Y-88188765D01*
X137958368Y-88309579D01*
X137955609Y-88316654D01*
X137955608Y-88316657D01*
X137924414Y-88396667D01*
X137904727Y-88447160D01*
X137903735Y-88454693D01*
X137903735Y-88454694D01*
X137896598Y-88508911D01*
X137885453Y-88593564D01*
X136145000Y-88593564D01*
X136145000Y-88536515D01*
X136165002Y-88468394D01*
X136181905Y-88447420D01*
X145790698Y-78838627D01*
X145801787Y-78828772D01*
X145828055Y-78808064D01*
X145860991Y-78760409D01*
X145863287Y-78757196D01*
X145892120Y-78718160D01*
X145897718Y-78710581D01*
X145900082Y-78703850D01*
X145904136Y-78697984D01*
X145921599Y-78642766D01*
X145922847Y-78639025D01*
X145938935Y-78593214D01*
X145938936Y-78593209D01*
X145942055Y-78584327D01*
X145942335Y-78577198D01*
X145944485Y-78570400D01*
X145945000Y-78563857D01*
X145945000Y-78511841D01*
X145945097Y-78506895D01*
X145945923Y-78485874D01*
X145947308Y-78450616D01*
X145945443Y-78443581D01*
X145945000Y-78435535D01*
X145945000Y-77266855D01*
X145968678Y-77193329D01*
X146038561Y-77096077D01*
X146093640Y-76959065D01*
X146114446Y-76812871D01*
X146114581Y-76800000D01*
X146096841Y-76653402D01*
X146044644Y-76515267D01*
X145961004Y-76393570D01*
X145850750Y-76295337D01*
X145843866Y-76291692D01*
X145726957Y-76229792D01*
X145726955Y-76229791D01*
X145720246Y-76226239D01*
X145673340Y-76214457D01*
X145584398Y-76192116D01*
X145584394Y-76192116D01*
X145577027Y-76190265D01*
X145569428Y-76190225D01*
X145569426Y-76190225D01*
X145507798Y-76189903D01*
X145429362Y-76189492D01*
X145421982Y-76191264D01*
X145421980Y-76191264D01*
X145293153Y-76222192D01*
X145293149Y-76222193D01*
X145285774Y-76223964D01*
X145154554Y-76291692D01*
X145043277Y-76388765D01*
X144958368Y-76509579D01*
X144955609Y-76516654D01*
X144955608Y-76516657D01*
X144913745Y-76624031D01*
X144904727Y-76647160D01*
X144903735Y-76654693D01*
X144903735Y-76654694D01*
X144899250Y-76688765D01*
X144885453Y-76793564D01*
X144901657Y-76940340D01*
X144952404Y-77079014D01*
X144956640Y-77085317D01*
X144956640Y-77085318D01*
X145033582Y-77199820D01*
X145055000Y-77270096D01*
X145055000Y-78263485D01*
X145034998Y-78331606D01*
X145018095Y-78352580D01*
X135409302Y-87961373D01*
X135398213Y-87971228D01*
X135371945Y-87991936D01*
X135366590Y-87999683D01*
X135366589Y-87999685D01*
X135339016Y-88039581D01*
X135336713Y-88042804D01*
X135302282Y-88089419D01*
X135299918Y-88096150D01*
X135295864Y-88102016D01*
X135293024Y-88110997D01*
X135278406Y-88157219D01*
X135277153Y-88160975D01*
X135261065Y-88206786D01*
X135261064Y-88206791D01*
X135257945Y-88215673D01*
X135257665Y-88222802D01*
X135255515Y-88229600D01*
X135255000Y-88236143D01*
X135255000Y-88288159D01*
X135254903Y-88293105D01*
X135252692Y-88349384D01*
X135254557Y-88356419D01*
X135255000Y-88364465D01*
X135255000Y-101966113D01*
X135254127Y-101980923D01*
X135250196Y-102014136D01*
X127088310Y-102014136D01*
X127088310Y-91049933D01*
X128495500Y-91049933D01*
X128495501Y-92800066D01*
X128510266Y-92874301D01*
X128566516Y-92958484D01*
X128650699Y-93014734D01*
X128724933Y-93029500D01*
X129599858Y-93029500D01*
X130475066Y-93029499D01*
X130510818Y-93022388D01*
X130537126Y-93017156D01*
X130537128Y-93017155D01*
X130549301Y-93014734D01*
X130559621Y-93007839D01*
X130559622Y-93007838D01*
X130623168Y-92965377D01*
X130633484Y-92958484D01*
X130689734Y-92874301D01*
X130704500Y-92800067D01*
X130704499Y-91049934D01*
X130689734Y-90975699D01*
X130679293Y-90960072D01*
X130640377Y-90901832D01*
X130633484Y-90891516D01*
X130549301Y-90835266D01*
X130475067Y-90820500D01*
X129600142Y-90820500D01*
X128724934Y-90820501D01*
X128689182Y-90827612D01*
X128662874Y-90832844D01*
X128662872Y-90832845D01*
X128650699Y-90835266D01*
X128640379Y-90842161D01*
X128640378Y-90842162D01*
X128600186Y-90869018D01*
X128566516Y-90891516D01*
X128510266Y-90975699D01*
X128495500Y-91049933D01*
X127088310Y-91049933D01*
X127088310Y-89355964D01*
X128491148Y-89355964D01*
X128504424Y-89558522D01*
X128505845Y-89564118D01*
X128505846Y-89564123D01*
X128526119Y-89643945D01*
X128554392Y-89755269D01*
X128556809Y-89760512D01*
X128636959Y-89934371D01*
X128639377Y-89939616D01*
X128642710Y-89944332D01*
X128683169Y-90001580D01*
X128756533Y-90105389D01*
X128760675Y-90109424D01*
X128836842Y-90183622D01*
X128901938Y-90247035D01*
X128906742Y-90250245D01*
X128974400Y-90295453D01*
X129070720Y-90359812D01*
X129076023Y-90362090D01*
X129076026Y-90362092D01*
X129164707Y-90400192D01*
X129257228Y-90439942D01*
X129330244Y-90456464D01*
X129449579Y-90483467D01*
X129449584Y-90483468D01*
X129455216Y-90484742D01*
X129460987Y-90484969D01*
X129460989Y-90484969D01*
X129520756Y-90487317D01*
X129658053Y-90492712D01*
X129758499Y-90478148D01*
X129853231Y-90464413D01*
X129853236Y-90464412D01*
X129858945Y-90463584D01*
X129864409Y-90461729D01*
X129864414Y-90461728D01*
X130045693Y-90400192D01*
X130045698Y-90400190D01*
X130051165Y-90398334D01*
X130072511Y-90386380D01*
X130185983Y-90322832D01*
X130228276Y-90299147D01*
X130243911Y-90286144D01*
X130379913Y-90173031D01*
X130384345Y-90169345D01*
X130429286Y-90115310D01*
X130510453Y-90017718D01*
X130510455Y-90017715D01*
X130514147Y-90013276D01*
X130613334Y-89836165D01*
X130615190Y-89830698D01*
X130615192Y-89830693D01*
X130676728Y-89649414D01*
X130676729Y-89649409D01*
X130678584Y-89643945D01*
X130679412Y-89638236D01*
X130679413Y-89638231D01*
X130706024Y-89454694D01*
X130707712Y-89443053D01*
X130709232Y-89385000D01*
X130695128Y-89231504D01*
X130691187Y-89188613D01*
X130691186Y-89188610D01*
X130690658Y-89182859D01*
X130686411Y-89167800D01*
X130637125Y-88993046D01*
X130637124Y-88993044D01*
X130635557Y-88987487D01*
X130624978Y-88966033D01*
X130548331Y-88810609D01*
X130545776Y-88805428D01*
X130424320Y-88642779D01*
X130275258Y-88504987D01*
X130270375Y-88501906D01*
X130270371Y-88501903D01*
X130108464Y-88399748D01*
X130103581Y-88396667D01*
X129915039Y-88321446D01*
X129909379Y-88320320D01*
X129909375Y-88320319D01*
X129721613Y-88282971D01*
X129721610Y-88282971D01*
X129715946Y-88281844D01*
X129710171Y-88281768D01*
X129710167Y-88281768D01*
X129608793Y-88280441D01*
X129512971Y-88279187D01*
X129507274Y-88280166D01*
X129507273Y-88280166D01*
X129336101Y-88309579D01*
X129312910Y-88313564D01*
X129122463Y-88383824D01*
X128948010Y-88487612D01*
X128943670Y-88491418D01*
X128943666Y-88491421D01*
X128923723Y-88508911D01*
X128795392Y-88621455D01*
X128669720Y-88780869D01*
X128667031Y-88785980D01*
X128667029Y-88785983D01*
X128654073Y-88810609D01*
X128575203Y-88960515D01*
X128515007Y-89154378D01*
X128491148Y-89355964D01*
X127088310Y-89355964D01*
X127088310Y-86815964D01*
X128491148Y-86815964D01*
X128504424Y-87018522D01*
X128505845Y-87024118D01*
X128505846Y-87024123D01*
X128526119Y-87103945D01*
X128554392Y-87215269D01*
X128556809Y-87220512D01*
X128594010Y-87301208D01*
X128639377Y-87399616D01*
X128642710Y-87404332D01*
X128747539Y-87552662D01*
X128756533Y-87565389D01*
X128901938Y-87707035D01*
X129070720Y-87819812D01*
X129076023Y-87822090D01*
X129076026Y-87822092D01*
X129164707Y-87860192D01*
X129257228Y-87899942D01*
X129330244Y-87916464D01*
X129449579Y-87943467D01*
X129449584Y-87943468D01*
X129455216Y-87944742D01*
X129460987Y-87944969D01*
X129460989Y-87944969D01*
X129520756Y-87947317D01*
X129658053Y-87952712D01*
X129758499Y-87938148D01*
X129853231Y-87924413D01*
X129853236Y-87924412D01*
X129858945Y-87923584D01*
X129864409Y-87921729D01*
X129864414Y-87921728D01*
X130045693Y-87860192D01*
X130045698Y-87860190D01*
X130051165Y-87858334D01*
X130228276Y-87759147D01*
X130290934Y-87707035D01*
X130379913Y-87633031D01*
X130384345Y-87629345D01*
X130448122Y-87552662D01*
X130510453Y-87477718D01*
X130510455Y-87477715D01*
X130514147Y-87473276D01*
X130613334Y-87296165D01*
X130615190Y-87290698D01*
X130615192Y-87290693D01*
X130676728Y-87109414D01*
X130676729Y-87109409D01*
X130678584Y-87103945D01*
X130679412Y-87098236D01*
X130679413Y-87098231D01*
X130707179Y-86906727D01*
X130707712Y-86903053D01*
X130709232Y-86845000D01*
X130690658Y-86642859D01*
X130689090Y-86637299D01*
X130637125Y-86453046D01*
X130637124Y-86453044D01*
X130635557Y-86447487D01*
X130624978Y-86426033D01*
X130548331Y-86270609D01*
X130545776Y-86265428D01*
X130424320Y-86102779D01*
X130275258Y-85964987D01*
X130270375Y-85961906D01*
X130270371Y-85961903D01*
X130108464Y-85859748D01*
X130103581Y-85856667D01*
X129915039Y-85781446D01*
X129909379Y-85780320D01*
X129909375Y-85780319D01*
X129721613Y-85742971D01*
X129721610Y-85742971D01*
X129715946Y-85741844D01*
X129710171Y-85741768D01*
X129710167Y-85741768D01*
X129608793Y-85740441D01*
X129512971Y-85739187D01*
X129507274Y-85740166D01*
X129507273Y-85740166D01*
X129318607Y-85772585D01*
X129312910Y-85773564D01*
X129122463Y-85843824D01*
X128948010Y-85947612D01*
X128943670Y-85951418D01*
X128943666Y-85951421D01*
X128923723Y-85968911D01*
X128795392Y-86081455D01*
X128669720Y-86240869D01*
X128667031Y-86245980D01*
X128667029Y-86245983D01*
X128619128Y-86337027D01*
X128575203Y-86420515D01*
X128515007Y-86614378D01*
X128491148Y-86815964D01*
X127088310Y-86815964D01*
X127088310Y-83691426D01*
X127089861Y-83671717D01*
X127091514Y-83661281D01*
X127091514Y-83661279D01*
X127093065Y-83651486D01*
X127090893Y-83637773D01*
X127089395Y-83614378D01*
X127102649Y-83161214D01*
X127104654Y-83092648D01*
X127105085Y-83085297D01*
X127108556Y-83045852D01*
X127153762Y-82532043D01*
X127154622Y-82524728D01*
X127167284Y-82438782D01*
X127235570Y-81975278D01*
X127236855Y-81968032D01*
X127263945Y-81837609D01*
X127349802Y-81424244D01*
X127351512Y-81417074D01*
X127442923Y-81077970D01*
X127496064Y-80880836D01*
X127498188Y-80873785D01*
X127507800Y-80844958D01*
X127582838Y-80619900D01*
X127673855Y-80346918D01*
X127676390Y-80339996D01*
X127810898Y-80003564D01*
X135275453Y-80003564D01*
X135291657Y-80150340D01*
X135342404Y-80289014D01*
X135346640Y-80295317D01*
X135346640Y-80295318D01*
X135381321Y-80346928D01*
X135424765Y-80411580D01*
X135533985Y-80510962D01*
X135663758Y-80581423D01*
X135806592Y-80618895D01*
X135819546Y-80619098D01*
X135887340Y-80640164D01*
X135906662Y-80655987D01*
X136551095Y-81300420D01*
X136585121Y-81362732D01*
X136588000Y-81389515D01*
X136588000Y-82082237D01*
X136565087Y-82154687D01*
X136491368Y-82259579D01*
X136437727Y-82397160D01*
X136436735Y-82404693D01*
X136436735Y-82404694D01*
X136419969Y-82532052D01*
X136418453Y-82543564D01*
X136434657Y-82690340D01*
X136485404Y-82829014D01*
X136489640Y-82835317D01*
X136489640Y-82835318D01*
X136501019Y-82852251D01*
X136567765Y-82951580D01*
X136676985Y-83050962D01*
X136806758Y-83121423D01*
X136949592Y-83158895D01*
X137026379Y-83160101D01*
X137089643Y-83161095D01*
X137089646Y-83161095D01*
X137097241Y-83161214D01*
X137149036Y-83149351D01*
X137233779Y-83129943D01*
X137233783Y-83129942D01*
X137241182Y-83128247D01*
X137326580Y-83085297D01*
X137366321Y-83065310D01*
X137366324Y-83065308D01*
X137373104Y-83061898D01*
X137485391Y-82965995D01*
X137571561Y-82846077D01*
X137626640Y-82709065D01*
X137647446Y-82562871D01*
X137647581Y-82550000D01*
X137629841Y-82403402D01*
X137577644Y-82265267D01*
X137569463Y-82253363D01*
X137500160Y-82152527D01*
X137478000Y-82081160D01*
X137478000Y-81186887D01*
X137478873Y-81172077D01*
X137481697Y-81148217D01*
X137482804Y-81138864D01*
X137472396Y-81081874D01*
X137471746Y-81077970D01*
X137464532Y-81029985D01*
X137464532Y-81029984D01*
X137463132Y-81020674D01*
X137460044Y-81014244D01*
X137458763Y-81007228D01*
X137432053Y-80955809D01*
X137430290Y-80952280D01*
X137409286Y-80908540D01*
X137409285Y-80908539D01*
X137405208Y-80900048D01*
X137400366Y-80894810D01*
X137397079Y-80888482D01*
X137392816Y-80883491D01*
X137356037Y-80846712D01*
X137352608Y-80843146D01*
X137320770Y-80808704D01*
X137314375Y-80801786D01*
X137308081Y-80798130D01*
X137302078Y-80792753D01*
X136533316Y-80023991D01*
X136499290Y-79961679D01*
X136497327Y-79950058D01*
X136486841Y-79863402D01*
X136434644Y-79725267D01*
X136351004Y-79603570D01*
X136240750Y-79505337D01*
X136233866Y-79501692D01*
X136116957Y-79439792D01*
X136116955Y-79439791D01*
X136110246Y-79436239D01*
X136063340Y-79424457D01*
X135974398Y-79402116D01*
X135974394Y-79402116D01*
X135967027Y-79400265D01*
X135959428Y-79400225D01*
X135959426Y-79400225D01*
X135897798Y-79399903D01*
X135819362Y-79399492D01*
X135811982Y-79401264D01*
X135811980Y-79401264D01*
X135683153Y-79432192D01*
X135683149Y-79432193D01*
X135675774Y-79433964D01*
X135544554Y-79501692D01*
X135433277Y-79598765D01*
X135348368Y-79719579D01*
X135345609Y-79726654D01*
X135345608Y-79726657D01*
X135310176Y-79817536D01*
X135294727Y-79857160D01*
X135293735Y-79864693D01*
X135293735Y-79864694D01*
X135292914Y-79870934D01*
X135275453Y-80003564D01*
X127810898Y-80003564D01*
X127863925Y-79870934D01*
X127882573Y-79824291D01*
X127885506Y-79817536D01*
X127925482Y-79732370D01*
X128121500Y-79314768D01*
X128124821Y-79308200D01*
X128246308Y-79084428D01*
X128389804Y-78820115D01*
X128393499Y-78813760D01*
X128686586Y-78341985D01*
X128690648Y-78335854D01*
X128867169Y-78085649D01*
X129010816Y-77882041D01*
X129015240Y-77876144D01*
X129361404Y-77441829D01*
X129366166Y-77436201D01*
X129737121Y-77022892D01*
X129742203Y-77017552D01*
X130136705Y-76626636D01*
X130142091Y-76621602D01*
X130533714Y-76276514D01*
X130552675Y-76262715D01*
X130556207Y-76260618D01*
X130556212Y-76260614D01*
X130564570Y-76255650D01*
X130564578Y-76255641D01*
X130564585Y-76255637D01*
X130575353Y-76243376D01*
X130591246Y-76228186D01*
X131317130Y-75646646D01*
X131320632Y-75643939D01*
X132095293Y-75066794D01*
X132098888Y-75064213D01*
X132893291Y-74514665D01*
X132896974Y-74512211D01*
X133672574Y-74015014D01*
X133710255Y-73990859D01*
X133714016Y-73988541D01*
X133718401Y-73985943D01*
X134324020Y-73627080D01*
X134545042Y-73496112D01*
X134548889Y-73493923D01*
X135186859Y-73145564D01*
X140863453Y-73145564D01*
X140879657Y-73292340D01*
X140930404Y-73431014D01*
X140934640Y-73437317D01*
X140934640Y-73437318D01*
X140946019Y-73454251D01*
X141012765Y-73553580D01*
X141018384Y-73558693D01*
X141018385Y-73558694D01*
X141116369Y-73647852D01*
X141121985Y-73652962D01*
X141251758Y-73723423D01*
X141394592Y-73760895D01*
X141471379Y-73762101D01*
X141534643Y-73763095D01*
X141534646Y-73763095D01*
X141542241Y-73763214D01*
X141612450Y-73747134D01*
X141678779Y-73731943D01*
X141678783Y-73731942D01*
X141686182Y-73730247D01*
X141706954Y-73719800D01*
X141811321Y-73667310D01*
X141811324Y-73667308D01*
X141818104Y-73663898D01*
X141930391Y-73567995D01*
X142016561Y-73448077D01*
X142071640Y-73311065D01*
X142092446Y-73164871D01*
X142092581Y-73152000D01*
X142074841Y-73005402D01*
X142022644Y-72867267D01*
X141973314Y-72795492D01*
X141945160Y-72754527D01*
X141923000Y-72683160D01*
X141923000Y-72633447D01*
X141943002Y-72565326D01*
X141996658Y-72518833D01*
X142037580Y-72507966D01*
X142131653Y-72499405D01*
X142131654Y-72499405D01*
X142138673Y-72498766D01*
X142299659Y-72446458D01*
X142399221Y-72387107D01*
X142439004Y-72363392D01*
X142439006Y-72363391D01*
X142445056Y-72359784D01*
X142567638Y-72243052D01*
X142596920Y-72198979D01*
X142657410Y-72107935D01*
X142657411Y-72107933D01*
X142661311Y-72102063D01*
X142721420Y-71943824D01*
X142740972Y-71804705D01*
X142744427Y-71780123D01*
X142744427Y-71780118D01*
X142744978Y-71776200D01*
X142745274Y-71755000D01*
X142732104Y-71637580D01*
X142729840Y-71617399D01*
X144147800Y-71617399D01*
X144164318Y-71785862D01*
X144217748Y-71946479D01*
X144305435Y-72091267D01*
X144309084Y-72095045D01*
X144334544Y-72160560D01*
X144335000Y-72171265D01*
X144335000Y-72811237D01*
X144312087Y-72883687D01*
X144238368Y-72988579D01*
X144235609Y-72995654D01*
X144235608Y-72995657D01*
X144221836Y-73030982D01*
X144184727Y-73126160D01*
X144183735Y-73133693D01*
X144183735Y-73133694D01*
X144179631Y-73164871D01*
X144165453Y-73272564D01*
X144181657Y-73419340D01*
X144184267Y-73426472D01*
X144209714Y-73496009D01*
X144232404Y-73558014D01*
X144236640Y-73564317D01*
X144236640Y-73564318D01*
X144300242Y-73658967D01*
X144314765Y-73680580D01*
X144320384Y-73685693D01*
X144320385Y-73685694D01*
X144403161Y-73761014D01*
X144423985Y-73779962D01*
X144553758Y-73850423D01*
X144696592Y-73887895D01*
X144773379Y-73889101D01*
X144836643Y-73890095D01*
X144836646Y-73890095D01*
X144844241Y-73890214D01*
X144911804Y-73874740D01*
X144980779Y-73858943D01*
X144980783Y-73858942D01*
X144988182Y-73857247D01*
X145013040Y-73844745D01*
X145113321Y-73794310D01*
X145113324Y-73794308D01*
X145120104Y-73790898D01*
X145125877Y-73785967D01*
X145125882Y-73785964D01*
X145198328Y-73724088D01*
X145263117Y-73695056D01*
X145333317Y-73705660D01*
X145364958Y-73726704D01*
X145386405Y-73746219D01*
X145402534Y-73760895D01*
X145423488Y-73779962D01*
X145553261Y-73850423D01*
X145696095Y-73887895D01*
X145772882Y-73889101D01*
X145836146Y-73890095D01*
X145836149Y-73890095D01*
X145843744Y-73890214D01*
X145911307Y-73874740D01*
X145980282Y-73858943D01*
X145980286Y-73858942D01*
X145987685Y-73857247D01*
X146012543Y-73844745D01*
X146112824Y-73794310D01*
X146112827Y-73794308D01*
X146119607Y-73790898D01*
X146125380Y-73785967D01*
X146125385Y-73785964D01*
X146149275Y-73765560D01*
X146214064Y-73736529D01*
X146284264Y-73747134D01*
X146335685Y-73791093D01*
X146342524Y-73801271D01*
X146342531Y-73801279D01*
X146346765Y-73807580D01*
X146352384Y-73812693D01*
X146352385Y-73812694D01*
X146435161Y-73888014D01*
X146455985Y-73906962D01*
X146585758Y-73977423D01*
X146728592Y-74014895D01*
X146805379Y-74016101D01*
X146868643Y-74017095D01*
X146868646Y-74017095D01*
X146876241Y-74017214D01*
X146928036Y-74005351D01*
X147012779Y-73985943D01*
X147012783Y-73985942D01*
X147020182Y-73984247D01*
X147082076Y-73953118D01*
X147145321Y-73921310D01*
X147145324Y-73921308D01*
X147152104Y-73917898D01*
X147157877Y-73912967D01*
X147157882Y-73912964D01*
X147195084Y-73881190D01*
X147259873Y-73852158D01*
X147276915Y-73851000D01*
X148429113Y-73851000D01*
X148443923Y-73851873D01*
X148477136Y-73855804D01*
X148534141Y-73845393D01*
X148538034Y-73844745D01*
X148554242Y-73842308D01*
X148595326Y-73836132D01*
X148601757Y-73833044D01*
X148608771Y-73831763D01*
X148660185Y-73805056D01*
X148663725Y-73803287D01*
X148707456Y-73782288D01*
X148707457Y-73782287D01*
X148715952Y-73778208D01*
X148721190Y-73773366D01*
X148727518Y-73770079D01*
X148732509Y-73765816D01*
X148769288Y-73729037D01*
X148772854Y-73725608D01*
X148807296Y-73693770D01*
X148814214Y-73687375D01*
X148817870Y-73681081D01*
X148823247Y-73675078D01*
X150001193Y-72497132D01*
X152403698Y-72497132D01*
X152408607Y-72503690D01*
X152497118Y-72553157D01*
X152508357Y-72558067D01*
X152684641Y-72615345D01*
X152696615Y-72617978D01*
X152880676Y-72639926D01*
X152892925Y-72640183D01*
X153077742Y-72625962D01*
X153089822Y-72623831D01*
X153268345Y-72573986D01*
X153279778Y-72569552D01*
X153403507Y-72507052D01*
X153413791Y-72497407D01*
X153411553Y-72490763D01*
X153173189Y-72252399D01*
X154815800Y-72252399D01*
X154832318Y-72420862D01*
X154885748Y-72581479D01*
X154889397Y-72587504D01*
X154958330Y-72701325D01*
X154973435Y-72726267D01*
X154978326Y-72731332D01*
X154978327Y-72731333D01*
X155091021Y-72848031D01*
X155089646Y-72849359D01*
X155124051Y-72900290D01*
X155130000Y-72938549D01*
X155130000Y-73319237D01*
X155107087Y-73391687D01*
X155033368Y-73496579D01*
X155030609Y-73503654D01*
X155030608Y-73503657D01*
X155003600Y-73572930D01*
X154979727Y-73634160D01*
X154978735Y-73641693D01*
X154978735Y-73641694D01*
X154962395Y-73765816D01*
X154960453Y-73780564D01*
X154976657Y-73927340D01*
X155027404Y-74066014D01*
X155031640Y-74072317D01*
X155031640Y-74072318D01*
X155043019Y-74089251D01*
X155109765Y-74188580D01*
X155218985Y-74287962D01*
X155348758Y-74358423D01*
X155491592Y-74395895D01*
X155568379Y-74397101D01*
X155631643Y-74398095D01*
X155631646Y-74398095D01*
X155639241Y-74398214D01*
X155691036Y-74386351D01*
X155775779Y-74366943D01*
X155775783Y-74366942D01*
X155783182Y-74365247D01*
X155803954Y-74354800D01*
X155908321Y-74302310D01*
X155908324Y-74302308D01*
X155915104Y-74298898D01*
X156027391Y-74202995D01*
X156113561Y-74083077D01*
X156156034Y-73977423D01*
X156165805Y-73953118D01*
X156165806Y-73953116D01*
X156168640Y-73946065D01*
X156181766Y-73853834D01*
X156188865Y-73803955D01*
X156188865Y-73803952D01*
X156189446Y-73799871D01*
X156189581Y-73787000D01*
X156187023Y-73765857D01*
X156182567Y-73729037D01*
X156171841Y-73640402D01*
X156119644Y-73502267D01*
X156057462Y-73411791D01*
X156042160Y-73389527D01*
X156020000Y-73318160D01*
X156020000Y-72935174D01*
X156040002Y-72867053D01*
X156059108Y-72843928D01*
X156109971Y-72795492D01*
X156156638Y-72751052D01*
X156163473Y-72740765D01*
X156246410Y-72615935D01*
X156246411Y-72615933D01*
X156250311Y-72610063D01*
X156310420Y-72451824D01*
X156329841Y-72313638D01*
X156333427Y-72288123D01*
X156333427Y-72288118D01*
X156333978Y-72284200D01*
X156334274Y-72263000D01*
X156318473Y-72122128D01*
X156316191Y-72101780D01*
X156316190Y-72101777D01*
X156315406Y-72094784D01*
X156259738Y-71934929D01*
X156170038Y-71791379D01*
X156164560Y-71785862D01*
X156055726Y-71676266D01*
X156050764Y-71671269D01*
X156022168Y-71653121D01*
X155977911Y-71625035D01*
X155907844Y-71580569D01*
X155877713Y-71569840D01*
X155755016Y-71526149D01*
X155755011Y-71526148D01*
X155748381Y-71523787D01*
X155741395Y-71522954D01*
X155741391Y-71522953D01*
X155622287Y-71508751D01*
X155580301Y-71503745D01*
X155573298Y-71504481D01*
X155573297Y-71504481D01*
X155418965Y-71520701D01*
X155418961Y-71520702D01*
X155411957Y-71521438D01*
X155405286Y-71523709D01*
X155258387Y-71573717D01*
X155258384Y-71573718D01*
X155251717Y-71575988D01*
X155245719Y-71579678D01*
X155245717Y-71579679D01*
X155113543Y-71660993D01*
X155113541Y-71660995D01*
X155107544Y-71664684D01*
X155102511Y-71669613D01*
X155025191Y-71745331D01*
X154986605Y-71783117D01*
X154982794Y-71789031D01*
X154982792Y-71789033D01*
X154949535Y-71840638D01*
X154894909Y-71925400D01*
X154879232Y-71968473D01*
X154839425Y-72077840D01*
X154839424Y-72077845D01*
X154837015Y-72084463D01*
X154815800Y-72252399D01*
X153173189Y-72252399D01*
X152920812Y-72000022D01*
X152906868Y-71992408D01*
X152905035Y-71992539D01*
X152898420Y-71996790D01*
X152410458Y-72484752D01*
X152403698Y-72497132D01*
X150001193Y-72497132D01*
X150080590Y-72417735D01*
X150142902Y-72383709D01*
X150186348Y-72381937D01*
X150204901Y-72384412D01*
X150225099Y-72387107D01*
X150232110Y-72386469D01*
X150232114Y-72386469D01*
X150386652Y-72372405D01*
X150393673Y-72371766D01*
X150554659Y-72319458D01*
X150660935Y-72256105D01*
X150694004Y-72236392D01*
X150694006Y-72236391D01*
X150700056Y-72232784D01*
X150822638Y-72116052D01*
X150828031Y-72107935D01*
X150912410Y-71980935D01*
X150912411Y-71980933D01*
X150916311Y-71975063D01*
X150976420Y-71816824D01*
X150996174Y-71676266D01*
X150999427Y-71653123D01*
X150999427Y-71653118D01*
X150999978Y-71649200D01*
X151000274Y-71628000D01*
X150999377Y-71620002D01*
X151895738Y-71620002D01*
X151911248Y-71804705D01*
X151913461Y-71816764D01*
X151964554Y-71994945D01*
X151969066Y-72006342D01*
X152029148Y-72123250D01*
X152038865Y-72133468D01*
X152045666Y-72131124D01*
X152535978Y-71640812D01*
X152542356Y-71629132D01*
X153272408Y-71629132D01*
X153272539Y-71630965D01*
X153276790Y-71637580D01*
X153764661Y-72125451D01*
X153777041Y-72132211D01*
X153783775Y-72127170D01*
X153830262Y-72045337D01*
X153835256Y-72034121D01*
X153893759Y-71858253D01*
X153896479Y-71846281D01*
X153920039Y-71659784D01*
X153920531Y-71652757D01*
X153920828Y-71631523D01*
X153920533Y-71624494D01*
X153902188Y-71437397D01*
X153899805Y-71425362D01*
X153846233Y-71247924D01*
X153841559Y-71236584D01*
X153786562Y-71133148D01*
X153776702Y-71123067D01*
X153769575Y-71125635D01*
X153280022Y-71615188D01*
X153272408Y-71629132D01*
X152542356Y-71629132D01*
X152543592Y-71626868D01*
X152543461Y-71625035D01*
X152539210Y-71618420D01*
X152051121Y-71130331D01*
X152038741Y-71123571D01*
X152032353Y-71128353D01*
X151979997Y-71223586D01*
X151975166Y-71234858D01*
X151919120Y-71411538D01*
X151916570Y-71423532D01*
X151895909Y-71607733D01*
X151895738Y-71620002D01*
X150999377Y-71620002D01*
X150988491Y-71522953D01*
X150982191Y-71466780D01*
X150982190Y-71466777D01*
X150981406Y-71459784D01*
X150925738Y-71299929D01*
X150836038Y-71156379D01*
X150716764Y-71036269D01*
X150683176Y-71014953D01*
X150654068Y-70996481D01*
X150573844Y-70945569D01*
X150546442Y-70935812D01*
X150421016Y-70891149D01*
X150421011Y-70891148D01*
X150414381Y-70888787D01*
X150407395Y-70887954D01*
X150407391Y-70887953D01*
X150288287Y-70873751D01*
X150246301Y-70868745D01*
X150239298Y-70869481D01*
X150239297Y-70869481D01*
X150084965Y-70885701D01*
X150084961Y-70885702D01*
X150077957Y-70886438D01*
X150071286Y-70888709D01*
X149924387Y-70938717D01*
X149924384Y-70938718D01*
X149917717Y-70940988D01*
X149911719Y-70944678D01*
X149911717Y-70944679D01*
X149779543Y-71025993D01*
X149779541Y-71025995D01*
X149773544Y-71029684D01*
X149652605Y-71148117D01*
X149648794Y-71154031D01*
X149648792Y-71154033D01*
X149619748Y-71199101D01*
X149560909Y-71290400D01*
X149542772Y-71340230D01*
X149505425Y-71442840D01*
X149505424Y-71442845D01*
X149503015Y-71449463D01*
X149481800Y-71617399D01*
X149486712Y-71667494D01*
X149488532Y-71686056D01*
X149475273Y-71755804D01*
X149452228Y-71787447D01*
X148315580Y-72924095D01*
X148253268Y-72958121D01*
X148226485Y-72961000D01*
X147277702Y-72961000D01*
X147209581Y-72940998D01*
X147193892Y-72929083D01*
X147162750Y-72901337D01*
X147155866Y-72897692D01*
X147038957Y-72835792D01*
X147038955Y-72835791D01*
X147032246Y-72832239D01*
X146972903Y-72817333D01*
X146896398Y-72798116D01*
X146896394Y-72798116D01*
X146889027Y-72796265D01*
X146881428Y-72796225D01*
X146881426Y-72796225D01*
X146819798Y-72795903D01*
X146741362Y-72795492D01*
X146733982Y-72797264D01*
X146733980Y-72797264D01*
X146605153Y-72828192D01*
X146605149Y-72828193D01*
X146597774Y-72829964D01*
X146466554Y-72897692D01*
X146460832Y-72902684D01*
X146460830Y-72902685D01*
X146449829Y-72912282D01*
X146385347Y-72941990D01*
X146315039Y-72932120D01*
X146261229Y-72885806D01*
X146241000Y-72817333D01*
X146241000Y-72753515D01*
X146261002Y-72685394D01*
X146277905Y-72664420D01*
X146822142Y-72120183D01*
X146884454Y-72086157D01*
X146955269Y-72091222D01*
X147001874Y-72121752D01*
X147085123Y-72207960D01*
X147085128Y-72207964D01*
X147090021Y-72213031D01*
X147231660Y-72305717D01*
X147390315Y-72364720D01*
X147397296Y-72365651D01*
X147397298Y-72365652D01*
X147551118Y-72386176D01*
X147551122Y-72386176D01*
X147558099Y-72387107D01*
X147565110Y-72386469D01*
X147565114Y-72386469D01*
X147719652Y-72372405D01*
X147726673Y-72371766D01*
X147887659Y-72319458D01*
X147993935Y-72256105D01*
X148027004Y-72236392D01*
X148027006Y-72236391D01*
X148033056Y-72232784D01*
X148155638Y-72116052D01*
X148161031Y-72107935D01*
X148245410Y-71980935D01*
X148245411Y-71980933D01*
X148249311Y-71975063D01*
X148309420Y-71816824D01*
X148329174Y-71676266D01*
X148332427Y-71653123D01*
X148332427Y-71653118D01*
X148332978Y-71649200D01*
X148333274Y-71628000D01*
X148321491Y-71522953D01*
X148315191Y-71466780D01*
X148315190Y-71466777D01*
X148314406Y-71459784D01*
X148258738Y-71299929D01*
X148169038Y-71156379D01*
X148049764Y-71036269D01*
X148016176Y-71014953D01*
X147987068Y-70996481D01*
X147906844Y-70945569D01*
X147879442Y-70935812D01*
X147754016Y-70891149D01*
X147754011Y-70891148D01*
X147747381Y-70888787D01*
X147740395Y-70887954D01*
X147740391Y-70887953D01*
X147621287Y-70873751D01*
X147579301Y-70868745D01*
X147572298Y-70869481D01*
X147572297Y-70869481D01*
X147417965Y-70885701D01*
X147417961Y-70885702D01*
X147410957Y-70886438D01*
X147404286Y-70888709D01*
X147257387Y-70938717D01*
X147257384Y-70938718D01*
X147250717Y-70940988D01*
X147244719Y-70944678D01*
X147244717Y-70944679D01*
X147112543Y-71025993D01*
X147112541Y-71025995D01*
X147106544Y-71029684D01*
X147062752Y-71072569D01*
X146986722Y-71147023D01*
X146924057Y-71180394D01*
X146898564Y-71183000D01*
X146718887Y-71183000D01*
X146704077Y-71182127D01*
X146670864Y-71178196D01*
X146613859Y-71188607D01*
X146609966Y-71189255D01*
X146593758Y-71191692D01*
X146552674Y-71197868D01*
X146546243Y-71200956D01*
X146539229Y-71202237D01*
X146498131Y-71223586D01*
X146487816Y-71228944D01*
X146484275Y-71230713D01*
X146440544Y-71251712D01*
X146440543Y-71251713D01*
X146432048Y-71255792D01*
X146426810Y-71260634D01*
X146420482Y-71263921D01*
X146415491Y-71268184D01*
X146378712Y-71304963D01*
X146375146Y-71308392D01*
X146333786Y-71346625D01*
X146330130Y-71352919D01*
X146324753Y-71358922D01*
X145871998Y-71811677D01*
X145809686Y-71845703D01*
X145738871Y-71840638D01*
X145682035Y-71798091D01*
X145657224Y-71731571D01*
X145658129Y-71705050D01*
X145665978Y-71649200D01*
X145666274Y-71628000D01*
X145654491Y-71522953D01*
X145648191Y-71466780D01*
X145648190Y-71466777D01*
X145647406Y-71459784D01*
X145591738Y-71299929D01*
X145502038Y-71156379D01*
X145382764Y-71036269D01*
X145349176Y-71014953D01*
X145320068Y-70996481D01*
X145239844Y-70945569D01*
X145212442Y-70935812D01*
X145087016Y-70891149D01*
X145087011Y-70891148D01*
X145080381Y-70888787D01*
X145073395Y-70887954D01*
X145073391Y-70887953D01*
X144954287Y-70873751D01*
X144912301Y-70868745D01*
X144905298Y-70869481D01*
X144905297Y-70869481D01*
X144750965Y-70885701D01*
X144750961Y-70885702D01*
X144743957Y-70886438D01*
X144737286Y-70888709D01*
X144590387Y-70938717D01*
X144590384Y-70938718D01*
X144583717Y-70940988D01*
X144577719Y-70944678D01*
X144577717Y-70944679D01*
X144445543Y-71025993D01*
X144445541Y-71025995D01*
X144439544Y-71029684D01*
X144318605Y-71148117D01*
X144314794Y-71154031D01*
X144314792Y-71154033D01*
X144285748Y-71199101D01*
X144226909Y-71290400D01*
X144208772Y-71340230D01*
X144171425Y-71442840D01*
X144171424Y-71442845D01*
X144169015Y-71449463D01*
X144147800Y-71617399D01*
X142729840Y-71617399D01*
X142727191Y-71593780D01*
X142727190Y-71593777D01*
X142726406Y-71586784D01*
X142670738Y-71426929D01*
X142581038Y-71283379D01*
X142561716Y-71263921D01*
X142521661Y-71223586D01*
X142461764Y-71163269D01*
X142450908Y-71156379D01*
X142398416Y-71123067D01*
X142318844Y-71072569D01*
X142230935Y-71041266D01*
X142166016Y-71018149D01*
X142166011Y-71018148D01*
X142159381Y-71015787D01*
X142152395Y-71014954D01*
X142152391Y-71014953D01*
X142033287Y-71000751D01*
X141991301Y-70995745D01*
X141984298Y-70996481D01*
X141984297Y-70996481D01*
X141829965Y-71012701D01*
X141829961Y-71012702D01*
X141822957Y-71013438D01*
X141816286Y-71015709D01*
X141669387Y-71065717D01*
X141669384Y-71065718D01*
X141662717Y-71067988D01*
X141656719Y-71071678D01*
X141656717Y-71071679D01*
X141524543Y-71152993D01*
X141524541Y-71152995D01*
X141518544Y-71156684D01*
X141473662Y-71200636D01*
X141402891Y-71269941D01*
X141397605Y-71275117D01*
X141393794Y-71281031D01*
X141393792Y-71281033D01*
X141355642Y-71340230D01*
X141305909Y-71417400D01*
X141303498Y-71424025D01*
X141250425Y-71569840D01*
X141250424Y-71569845D01*
X141248015Y-71576463D01*
X141226800Y-71744399D01*
X141231521Y-71792547D01*
X141233532Y-71813056D01*
X141220273Y-71882804D01*
X141197228Y-71914447D01*
X141187302Y-71924373D01*
X141176213Y-71934228D01*
X141149945Y-71954936D01*
X141118785Y-72000022D01*
X141117016Y-72002581D01*
X141114713Y-72005804D01*
X141080282Y-72052419D01*
X141077918Y-72059150D01*
X141073864Y-72065016D01*
X141057724Y-72116052D01*
X141056406Y-72120219D01*
X141055153Y-72123975D01*
X141039065Y-72169786D01*
X141039064Y-72169791D01*
X141035945Y-72178673D01*
X141035665Y-72185802D01*
X141033515Y-72192600D01*
X141033000Y-72199143D01*
X141033000Y-72251159D01*
X141032903Y-72256105D01*
X141030692Y-72312384D01*
X141032557Y-72319419D01*
X141033000Y-72327465D01*
X141033000Y-72684237D01*
X141010087Y-72756687D01*
X140936368Y-72861579D01*
X140933609Y-72868654D01*
X140933608Y-72868657D01*
X140898728Y-72958121D01*
X140882727Y-72999160D01*
X140881735Y-73006693D01*
X140881735Y-73006694D01*
X140865016Y-73133694D01*
X140863453Y-73145564D01*
X135186859Y-73145564D01*
X135396700Y-73030982D01*
X135400621Y-73028929D01*
X135790590Y-72833445D01*
X136264190Y-72596038D01*
X136268179Y-72594125D01*
X137146421Y-72191830D01*
X137150476Y-72190058D01*
X138042287Y-71818864D01*
X138046402Y-71817235D01*
X138274481Y-71731571D01*
X138950751Y-71477571D01*
X138954887Y-71476100D01*
X139870559Y-71168424D01*
X139874779Y-71167088D01*
X139955140Y-71143192D01*
X140800753Y-70891742D01*
X140804971Y-70890569D01*
X141705124Y-70656976D01*
X141726837Y-70653328D01*
X141726951Y-70653319D01*
X141743132Y-70652039D01*
X141743188Y-70652016D01*
X141743249Y-70652011D01*
X141752102Y-70648336D01*
X141752104Y-70648336D01*
X141757075Y-70646273D01*
X141778805Y-70639481D01*
X141975331Y-70597087D01*
X142183474Y-70552188D01*
X142189270Y-70551079D01*
X142560604Y-70489120D01*
X142631792Y-70477242D01*
X142637670Y-70476403D01*
X143083165Y-70423498D01*
X143089077Y-70422937D01*
X143536562Y-70391080D01*
X143542493Y-70390798D01*
X143743905Y-70385975D01*
X143956387Y-70380887D01*
X143979062Y-70382395D01*
X143993957Y-70384748D01*
X144003751Y-70383193D01*
X144003752Y-70383193D01*
X144014086Y-70381552D01*
X144033844Y-70379993D01*
X152379775Y-70379993D01*
X152399533Y-70381552D01*
G37*
%TD.AperFunction*%
%TD*%
M02*
