M48
; DRILL file {KiCad 6.0.7-f9a2dced07~116~ubuntu20.04.1} date lun 10 ott 2022, 21:45:52
; FORMAT={-:-/ absolute / inch / decimal}
; #@! TF.CreationDate,2022-10-10T21:45:52+02:00
; #@! TF.GenerationSoftware,Kicad,Pcbnew,6.0.7-f9a2dced07~116~ubuntu20.04.1
; #@! TF.FileFunction,Plated,1,2,PTH
FMAT,2
INCH
; #@! TA.AperFunction,Plated,PTH,ViaDrill
T1C0.0120
; #@! TA.AperFunction,Plated,PTH,ComponentDrill
T2C0.0256
; #@! TA.AperFunction,Plated,PTH,ComponentDrill
T3C0.0315
; #@! TA.AperFunction,Plated,PTH,ComponentDrill
T4C0.0394
%
G90
G05
T1
X5.35Y-3.15
X5.3622Y-3.0866
X5.3819Y-3.0394
X5.395Y-3.25
X5.4094Y-4.5197
X5.4094Y-4.5591
X5.4488Y-4.5197
X5.4488Y-4.5591
X5.4528Y-3.4882
X5.4803Y-3.5276
X5.4882Y-4.5197
X5.4882Y-4.5591
X5.5276Y-4.5197
X5.5276Y-4.5591
X5.5669Y-4.5197
X5.5669Y-4.5591
X5.57Y-2.88
X5.6063Y-4.5197
X5.6063Y-4.5591
X5.6142Y-3.4961
X5.6299Y-4.2559
X5.6339Y-2.874
X5.6575Y-4.3071
X5.6614Y-3.4961
X5.7Y-2.885
X5.7283Y-3.0236
X5.7394Y-2.885
X5.7559Y-3.3386
X5.78Y-2.89
X5.7835Y-4.5197
X5.805Y-3.025
X5.845Y-3.025
X5.8504Y-3.0866
X5.9213Y-3.0354
X5.9528Y-3.3228
X5.9764Y-4.5512
X5.9882Y-2.8858
X6.125Y-2.905
X6.2244Y-3.3504
X6.2283Y-3.3071
X6.2323Y-3.063
X6.2402Y-3.0236
X6.5Y-4.1142
X6.5472Y-4.1417
X6.5827Y-4.1102
T3
X5.6752Y-3.5886
X5.7146Y-4.0846
X5.7539Y-3.5886
X5.7933Y-4.0846
X5.8327Y-3.5886
X5.872Y-4.0846
X5.9114Y-3.5886
X5.9508Y-4.0846
T4
X5.1024Y-3.4191
X5.1024Y-3.5191
X5.1024Y-3.6191
X6.3081Y-3.4055
X6.4081Y-3.4055
T2
G00X5.6606Y-4.6706
M15
G01X5.6606Y-4.7139
M16
G05
G00X5.6606Y-4.845
M15
G01X5.6606Y-4.8686
M16
G05
G00X6.0008Y-4.6706
M15
G01X6.0008Y-4.7139
M16
G05
G00X6.0008Y-4.845
M15
G01X6.0008Y-4.8686
M16
G05
T0
M30
