999
FreeCAD v0.19 24366 (Git)
  0
SECTION
  2
HEADER
  9
$ACADVER
  1
AC1014
  9
$ACADMAINTVER
 70
     9
  9
$DWGCODEPAGE
  3
ANSI_1252
  9
$TEXTSTYLE
  7
STANDARD
  9
$DIMSTYLE
  2
STANDARD
  9
$DIMTXSTY
  7
STANDARD
  9
$CMLSTYLE
  2
STANDARD
  9
$PEXTMAX
 10
50
 20
50
 30
50
  9
$PEXTMIN
 10
0
 20
0
 30
0
  9
$HANDSEED
  5
FFFF
  0
ENDSEC
  0
SECTION
  2
CLASSES
  0
CLASS
  1
ACDBDICTIONARYWDFLT
  2
AcDbDictionaryWithDefault
  3
ObjectDBX Classes
 90
        0
280
     0
281
     0
  0
CLASS
  1
XRECORD
  2
AcDbXrecord
  3
ObjectDBX Classes
 90
        0
280
     0
281
     0
  0
CLASS
  1
LWPOLYLINE
  2
AcDbPolyline
  3
ObjectDBX Classes
 90
        0
280
     0
281
     1
  0
ENDSEC
  0
SECTION
  2
TABLES
  0
TABLE
  2
VPORT
  5
20
330
0
100
AcDbSymbolTable
 70
     1
  0
VPORT
  5
21
330
20
100
AcDbSymbolTableRecord
100
AcDbViewportTableRecord
  2
*ACTIVE
 70
     0
  0
ENDTAB
  0
TABLE
  2
LTYPE
  5
22
330
0
100
AcDbSymbolTable
 70
     1
  0
LTYPE
  5
23
330
21
100
AcDbSymbolTableRecord
100
AcDbLinetypeTableRecord
  2
BYBLOCK
 70
     0
  3

 72
    65
 73
     0
 40
0.0
  0
LTYPE
  5
24
330
21
100
AcDbSymbolTableRecord
100
AcDbLinetypeTableRecord
  2
BYLAYER
 70
     0
  3

 72
    65
 73
     0
 40
0.0
  0
LTYPE
  5
25
330
21
100
AcDbSymbolTableRecord
100
AcDbLinetypeTableRecord
  2
CONTINUOUS
 70
     0
  3
Solid line
 72
    65
 73
     0
 40
0.0
  0
ENDTAB
  0
TABLE
  2
LAYER
  5
E64
330
0
100
AcDbSymbolTable
 70
3
  0
LAYER
  5
E65
330
E64
100
AcDbSymbolTableRecord
100
AcDbLayerTableRecord
  2
0
 70
   0
 62
   7
  6
CONTINUOUS
  0
LAYER
  5
E66
330
E64
100
AcDbSymbolTableRecord
100
AcDbLayerTableRecord
  2
none
 70
    0
 62
    7
  6
CONTINUOUS
  0
LAYER
  5
E67
330
E64
100
AcDbSymbolTableRecord
100
AcDbLayerTableRecord
  2
Shape2DView
 70
    0
 62
    7
  6
CONTINUOUS
  0
ENDTAB
  0
TABLE
  2
STYLE
  5
70
330
0
100
AcDbSymbolTable
 70
     2
  0
STYLE
  5
71
330
70
100
AcDbSymbolTableRecord
100
AcDbTextStyleTableRecord
  2
STANDARD
 70
     0
 40
0.0
 41
1.0
 50
0.0
 71
     0
 42
2.5
  3
arial.ttf
  4

  0
STYLE
  5
72
330
70
100
AcDbSymbolTableRecord
100
AcDbTextStyleTableRecord
  2
ANNOTATIVE
 70
     0
 40
0.0
 41
1.0
 50
0.0
 71
     0
 42
2.5
  3
arial.ttf
  4

  0
ENDTAB
  0
TABLE
  2
VIEW
  5
73
330
0
100
AcDbSymbolTable
 70
     0
  0
ENDTAB
  0
TABLE
  2
UCS
  5
74
330
0
100
AcDbSymbolTable
 70
     0
  0
ENDTAB
  0
TABLE
  2
APPID
  5
75
330
0
100
AcDbSymbolTable
 70
     2
  0
APPID
  5
76
330
75
100
AcDbSymbolTableRecord
100
AcDbRegAppTableRecord
  2
ACAD
 70
     0
  0
APPID
  5
77
330
75
100
AcDbSymbolTableRecord
100
AcDbRegAppTableRecord
  2
ACADANNOTATIVE
 70
     0
  0
ENDTAB
  0
TABLE
  2
DIMSTYLE
  5
78
330
0
100
AcDbSymbolTable
 70
     2
  0
DIMSTYLE
105
79
330
78
100
AcDbSymbolTableRecord
100
AcDbDimStyleTableRecord
  2
STANDARD
 70
     0
  3

  4

  5

  6

  7

 40
0.0
 41
2.5
 42
0.625
 43
3.75
 44
1.25
 45
0.0
 46
0.0
 47
0.0
 48
0.0
140
2.5
141
2.5
142
0.0
143
0.03937007874016
144
1.0
145
0.0
146
1.0
147
0.625
 71
     0
 72
     0
 73
     0
 74
     0
 75
     0
 76
     0
 77
     1
 78
     8
170
     0
171
     3
172
     1
173
     0
174
     0
175
     0
176
     0
177
     0
178
     0
270
     2
271
     2
272
     2
273
     2
274
     3
340
71
275
     0
280
     0
281
     0
282
     0
283
     0
284
     8
285
     0
286
     0
287
     3
288
     0
  0
ENDTAB
  0
TABLE
  2
BLOCK_RECORD
  5
A01
330
0
100
AcDbSymbolTable
  70
5
  0
BLOCK_RECORD
  5
A02
330
A01
100
AcDbSymbolTableRecord
100
AcDbBlockTableRecord
  2
*MODEL_SPACE
  0
BLOCK_RECORD
  5
A03
330
A01
100
AcDbSymbolTableRecord
100
AcDbBlockTableRecord
  2
*PAPER_SPACE
  0
ENDTAB
  0
ENDSEC
  0
SECTION
  2
BLOCKS
  0
BLOCK
  5
A04
330
A02
100
AcDbEntity
  8
0
100
AcDbBlockBegin
  2
*MODEL_SPACE
 70
   0
 10
0
 20
0
 30
0
  3
*MODEL_SPACE
  1
 
  0
ENDBLK
  5
A05
330
A02
100
AcDbEntity
  8
0
100
AcDbBlockEnd
  0
BLOCK
  5
A06
330
A03
100
AcDbEntity
 67
1
  8
0
100
AcDbBlockBegin
  2
*PAPER_SPACE
 70
   0
 10
0
 20
0
 30
0
  3
*PAPER_SPACE
  1
 
  0
ENDBLK
  5
A07
330
A03
100
AcDbEntity
 67
    1
  8
0
100
AcDbBlockEnd
  0
ENDSEC
  0
SECTION
  2
ENTITIES
  0
ARC
  5
A08
330
A02
100
AcDbEntity
  8
Shape2DView
100
AcDbCircle
 10
21.5038
 20
27.5072
 30
0
 40
28.0078
100
AcDbArc
 50
-129.706
 51
-103.541
  0
ARC
  5
A09
330
A02
100
AcDbEntity
  8
Shape2DView
100
AcDbCircle
 10
17.2908
 20
10.0274
 30
0
 40
10.0274
100
AcDbArc
 50
-103.523
 51
-90.0215
  0
LINE
  5
A0A
330
A02
100
AcDbEntity
  8
Shape2DView
100
AcDbLine
 10
17.287
 20
0
 30
0
 11
17.7507
 21
0
 31
0
  0
LINE
  5
A0B
330
A02
100
AcDbEntity
  8
Shape2DView
100
AcDbLine
 10
25.2507
 20
0
 30
0
 11
25.713
 21
0
 31
0
  0
ARC
  5
A0C
330
A02
100
AcDbEntity
  8
Shape2DView
100
AcDbCircle
 10
25.7092
 20
10.0274
 30
0
 40
10.0274
100
AcDbArc
 50
-89.9785
 51
-76.4769
  0
ARC
  5
A0D
330
A02
100
AcDbEntity
  8
Shape2DView
100
AcDbCircle
 10
21.4962
 20
27.5072
 30
0
 40
28.0078
100
AcDbArc
 50
-76.4589
 51
-50.2938
  0
ARC
  5
A0E
330
A02
100
AcDbEntity
  8
Shape2DView
100
AcDbCircle
 10
33.0001
 20
13.6528
 30
0
 40
9.99985
100
AcDbArc
 50
-50.2905
 51
0.000974888
  0
LINE
  5
A0F
330
A02
100
AcDbEntity
  8
Shape2DView
100
AcDbLine
 10
43
 20
13.653
 30
0
 11
43
 21
41.347
 31
0
  0
ARC
  5
A10
330
A02
100
AcDbEntity
  8
Shape2DView
100
AcDbCircle
 10
33.0001
 20
41.3472
 30
0
 40
9.99986
100
AcDbArc
 50
-0.00096994
 51
50.2905
  0
ARC
  5
A11
330
A02
100
AcDbEntity
  8
Shape2DView
100
AcDbCircle
 10
21.4962
 20
27.4927
 30
0
 40
28.0079
100
AcDbArc
 50
50.2938
 51
76.4589
  0
ARC
  5
A12
330
A02
100
AcDbEntity
  8
Shape2DView
100
AcDbCircle
 10
25.7092
 20
44.9727
 30
0
 40
10.0273
100
AcDbArc
 50
76.4769
 51
89.9785
  0
LINE
  5
A13
330
A02
100
AcDbEntity
  8
Shape2DView
100
AcDbLine
 10
25.713
 20
55
 30
0
 11
17.287
 21
55
 31
0
  0
ARC
  5
A14
330
A02
100
AcDbEntity
  8
Shape2DView
100
AcDbCircle
 10
17.2908
 20
44.9727
 30
0
 40
10.0273
100
AcDbArc
 50
90.0215
 51
103.523
  0
ARC
  5
A15
330
A02
100
AcDbEntity
  8
Shape2DView
100
AcDbCircle
 10
21.5038
 20
27.4927
 30
0
 40
28.0079
100
AcDbArc
 50
103.541
 51
129.706
  0
ARC
  5
A16
330
A02
100
AcDbEntity
  8
Shape2DView
100
AcDbCircle
 10
9.99984
 20
41.3472
 30
0
 40
9.99984
100
AcDbArc
 50
129.709
 51
-179.999
  0
LINE
  5
A17
330
A02
100
AcDbEntity
  8
Shape2DView
100
AcDbLine
 10
0
 20
41.347
 30
0
 11
0
 21
13.653
 31
0
  0
ARC
  5
A18
330
A02
100
AcDbEntity
  8
Shape2DView
100
AcDbCircle
 10
9.99984
 20
13.6528
 30
0
 40
9.99984
100
AcDbArc
 50
179.999
 51
-129.709
  0
ARC
  5
A19
330
A02
100
AcDbEntity
  8
Shape2DView
100
AcDbCircle
 10
18.5
 20
21.2
 30
0
 40
0.399999
100
AcDbArc
 50
-157.979
 51
-22.0212
  0
ARC
  5
A1A
330
A02
100
AcDbEntity
  8
Shape2DView
100
AcDbCircle
 10
19.5
 20
33.8
 30
0
 40
0.399999
100
AcDbArc
 50
22.0275
 51
157.972
  0
ARC
  5
A1B
330
A02
100
AcDbEntity
  8
Shape2DView
100
AcDbCircle
 10
20.5
 20
21.2
 30
0
 40
0.399999
100
AcDbArc
 50
-157.979
 51
-22.0212
  0
LINE
  5
A1C
330
A02
100
AcDbEntity
  8
Shape2DView
100
AcDbLine
 10
36.95
 20
32.425
 30
0
 11
23.95
 21
32.425
 31
0
  0
LINE
  5
A1D
330
A02
100
AcDbEntity
  8
Shape2DView
100
AcDbLine
 10
23.05
 20
32.425
 30
0
 11
21.95
 21
32.425
 31
0
  0
LINE
  5
A1E
330
A02
100
AcDbEntity
  8
Shape2DView
100
AcDbLine
 10
21.05
 20
32.425
 30
0
 11
19.95
 21
32.425
 31
0
  0
LINE
  5
A1F
330
A02
100
AcDbEntity
  8
Shape2DView
100
AcDbLine
 10
19.05
 20
32.425
 30
0
 11
17.95
 21
32.425
 31
0
  0
LINE
  5
A20
330
A02
100
AcDbEntity
  8
Shape2DView
100
AcDbLine
 10
17.05
 20
32.425
 30
0
 11
11.45
 21
32.425
 31
0
  0
LINE
  5
A21
330
A02
100
AcDbEntity
  8
Shape2DView
100
AcDbLine
 10
11.45
 20
32.425
 30
0
 11
11.45
 21
22.575
 31
0
  0
LINE
  5
A22
330
A02
100
AcDbEntity
  8
Shape2DView
100
AcDbLine
 10
11.45
 20
22.575
 30
0
 11
18.05
 21
22.575
 31
0
  0
LINE
  5
A23
330
A02
100
AcDbEntity
  8
Shape2DView
100
AcDbLine
 10
18.95
 20
22.575
 30
0
 11
20.05
 21
22.575
 31
0
  0
LINE
  5
A24
330
A02
100
AcDbEntity
  8
Shape2DView
100
AcDbLine
 10
20.95
 20
22.575
 30
0
 11
22.05
 21
22.575
 31
0
  0
LINE
  5
A25
330
A02
100
AcDbEntity
  8
Shape2DView
100
AcDbLine
 10
22.95
 20
22.575
 30
0
 11
24.05
 21
22.575
 31
0
  0
LINE
  5
A26
330
A02
100
AcDbEntity
  8
Shape2DView
100
AcDbLine
 10
24.95
 20
22.575
 30
0
 11
36.95
 21
22.575
 31
0
  0
LINE
  5
A27
330
A02
100
AcDbEntity
  8
Shape2DView
100
AcDbLine
 10
36.95
 20
22.575
 30
0
 11
36.95
 21
32.425
 31
0
  0
ARC
  5
A28
330
A02
100
AcDbEntity
  8
Shape2DView
100
AcDbCircle
 10
17.5
 20
33.8
 30
0
 40
0.399999
100
AcDbArc
 50
22.0275
 51
157.973
  0
ARC
  5
A29
330
A02
100
AcDbEntity
  8
Shape2DView
100
AcDbCircle
 10
21.5
 20
33.8
 30
0
 40
0.399999
100
AcDbArc
 50
22.0275
 51
157.972
  0
ARC
  5
A2A
330
A02
100
AcDbEntity
  8
Shape2DView
100
AcDbCircle
 10
22.5
 20
21.2
 30
0
 40
0.399999
100
AcDbArc
 50
-157.979
 51
-22.0212
  0
ARC
  5
A2B
330
A02
100
AcDbEntity
  8
Shape2DView
100
AcDbCircle
 10
23.5
 20
33.8
 30
0
 40
0.399999
100
AcDbArc
 50
22.0275
 51
157.972
  0
CIRCLE
  5
A2C
330
A02
100
AcDbEntity
  8
Shape2DView
100
AcDbCircle
 10
35
 20
11
 40
4.9
  0
ARC
  5
A2D
330
A02
100
AcDbEntity
  8
Shape2DView
100
AcDbCircle
 10
24.5
 20
21.2
 30
0
 40
0.399999
100
AcDbArc
 50
-157.979
 51
-22.0211
  0
CIRCLE
  5
A2E
330
A02
100
AcDbEntity
  8
Shape2DView
100
AcDbCircle
 10
36.05
 20
38.5
 40
0.508
  0
CIRCLE
  5
A2F
330
A02
100
AcDbEntity
  8
Shape2DView
100
AcDbCircle
 10
33.51
 20
38.5
 40
0.508
  0
LINE
  5
A30
330
A02
100
AcDbEntity
  8
Shape2DView
100
AcDbLine
 10
21.65
 20
8.85
 30
0
 11
21.65
 21
5.75
 31
0
  0
LINE
  5
A31
330
A02
100
AcDbEntity
  8
Shape2DView
100
AcDbLine
 10
21.65
 20
5.75
 30
0
 11
19.95
 21
5.75
 31
0
  0
LINE
  5
A32
330
A02
100
AcDbEntity
  8
Shape2DView
100
AcDbLine
 10
19.95
 20
5.75
 30
0
 11
19.95
 21
8.85
 31
0
  0
LINE
  5
A33
330
A02
100
AcDbEntity
  8
Shape2DView
100
AcDbLine
 10
19.95
 20
8.85
 30
0
 11
21.65
 21
8.85
 31
0
  0
LINE
  5
A34
330
A02
100
AcDbEntity
  8
Shape2DView
100
AcDbLine
 10
24.925
 20
12
 30
0
 11
23.475
 21
12
 31
0
  0
LINE
  5
A35
330
A02
100
AcDbEntity
  8
Shape2DView
100
AcDbLine
 10
23.475
 20
12
 30
0
 11
23.475
 21
9.80001
 31
0
  0
LINE
  5
A36
330
A02
100
AcDbEntity
  8
Shape2DView
100
AcDbLine
 10
23.475
 20
9.80001
 30
0
 11
24.925
 21
9.80001
 31
0
  0
LINE
  5
A37
330
A02
100
AcDbEntity
  8
Shape2DView
100
AcDbLine
 10
24.925
 20
9.80001
 30
0
 11
24.925
 21
12
 31
0
  0
LINE
  5
A38
330
A02
100
AcDbEntity
  8
Shape2DView
100
AcDbLine
 10
16.6
 20
10.925
 30
0
 11
16.6
 21
9.47501
 31
0
  0
LINE
  5
A39
330
A02
100
AcDbEntity
  8
Shape2DView
100
AcDbLine
 10
16.6
 20
9.47501
 30
0
 11
18.8
 21
9.47501
 31
0
  0
LINE
  5
A3A
330
A02
100
AcDbEntity
  8
Shape2DView
100
AcDbLine
 10
18.8
 20
9.47501
 30
0
 11
18.8
 21
10.925
 31
0
  0
LINE
  5
A3B
330
A02
100
AcDbEntity
  8
Shape2DView
100
AcDbLine
 10
18.8
 20
10.925
 30
0
 11
16.6
 21
10.925
 31
0
  0
ELLIPSE
  5
A3C
330
A02
100
AcDbEntity
  8
Shape2DView
100
AcDbEllipse
 10
24.4207
 20
3.83046
 30
0
 11
-0.199989
 21
-3.49672e-08
 31
0
 40
1
 41
1.87692
 42
3.14162
  0
LINE
  5
A3D
330
A02
100
AcDbEntity
  8
Shape2DView
100
AcDbLine
 10
24.481
 20
3.63977
 30
0
 11
24.481
 21
3.25047
 31
0
  0
LINE
  5
A3E
330
A02
100
AcDbEntity
  8
Shape2DView
100
AcDbLine
 10
23.8915
 20
3.25047
 30
0
 11
23.9599
 21
3.25047
 31
0
  0
ELLIPSE
  5
A3F
330
A02
100
AcDbEntity
  8
Shape2DView
100
AcDbEllipse
 10
23.0507
 20
3.88046
 30
0
 11
-0.249995
 21
-4.37106e-08
 31
0
 40
1
 41
6.28317
 42
1.57081
  0
ELLIPSE
  5
A40
330
A02
100
AcDbEntity
  8
Shape2DView
100
AcDbEllipse
 10
22.0007
 20
4.16046
 30
0
 11
-0.149987
 21
-2.62246e-08
 31
0
 40
1
 41
1.57074
 42
3.14165
  0
ELLIPSE
  5
A41
330
A02
100
AcDbEntity
  8
Shape2DView
100
AcDbEllipse
 10
21.0007
 20
4.16046
 30
0
 11
-0.149987
 21
-2.62246e-08
 31
0
 40
1
 41
6.28313
 42
1.57085
  0
ELLIPSE
  5
A42
330
A02
100
AcDbEntity
  8
Shape2DView
100
AcDbEllipse
 10
19.9507
 20
3.88046
 30
0
 11
-0.249995
 21
-4.37106e-08
 31
0
 40
1
 41
1.57078
 42
3.14161
  0
LINE
  5
A43
330
A02
100
AcDbEntity
  8
Shape2DView
100
AcDbLine
 10
19.9507
 20
3.63047
 30
0
 11
19.631
 21
3.63047
 31
0
  0
LINE
  5
A44
330
A02
100
AcDbEntity
  8
Shape2DView
100
AcDbLine
 10
19.0415
 20
3.25047
 30
0
 11
19.1099
 21
3.25047
 31
0
  0
LINE
  5
A45
330
A02
100
AcDbEntity
  8
Shape2DView
100
AcDbLine
 10
18.5204
 20
3.25047
 30
0
 11
18.5204
 21
3.63977
 31
0
  0
ELLIPSE
  5
A46
330
A02
100
AcDbEntity
  8
Shape2DView
100
AcDbEllipse
 10
18.5807
 20
3.83046
 30
0
 11
-0.199989
 21
-3.49672e-08
 31
0
 40
1
 41
6.28315
 42
1.26467
  0
LINE
  5
A47
330
A02
100
AcDbEntity
  8
Shape2DView
100
AcDbLine
 10
24.2557
 20
2.06047
 30
0
 11
24.2557
 21
1.2582
 31
0
  0
ELLIPSE
  5
A48
330
A02
100
AcDbEntity
  8
Shape2DView
100
AcDbEllipse
 10
24.3257
 20
0.760457
 30
0
 11
-0.0999839
 21
-1.74817e-08
 31
0
 40
1
 41
1.5707
 42
3.14169
  0
ELLIPSE
  5
A49
330
A02
100
AcDbEntity
  8
Shape2DView
100
AcDbEllipse
 10
23.4257
 20
0.760457
 30
0
 11
-0.0999839
 21
-1.74817e-08
 31
0
 40
1
 41
6.28309
 42
1.5709
  0
ELLIPSE
  5
A4A
330
A02
100
AcDbEntity
  8
Shape2DView
100
AcDbEllipse
 10
19.5757
 20
0.760456
 30
0
 11
-0.0999839
 21
-1.74817e-08
 31
0
 40
1
 41
1.5707
 42
3.14169
  0
ELLIPSE
  5
A4B
330
A02
100
AcDbEntity
  8
Shape2DView
100
AcDbEllipse
 10
18.6757
 20
0.760456
 30
0
 11
-0.0999839
 21
-1.74817e-08
 31
0
 40
1
 41
6.28309
 42
1.5709
  0
LINE
  5
A4C
330
A02
100
AcDbEntity
  8
Shape2DView
100
AcDbLine
 10
21.0007
 20
4.01047
 30
0
 11
22.0007
 21
4.01047
 31
0
  0
ELLIPSE
  5
A4D
330
A02
100
AcDbEntity
  8
Shape2DView
100
AcDbEllipse
 10
22.0007
 20
4.16046
 30
0
 11
-0.149987
 21
-2.62246e-08
 31
0
 40
1
 41
1.57074
 42
3.14165
  0
ELLIPSE
  5
A4E
330
A02
100
AcDbEntity
  8
Shape2DView
100
AcDbEllipse
 10
22.0007
 20
4.16046
 30
0
 11
-0.149987
 21
-2.62246e-08
 31
0
 40
1
 41
1.57074
 42
3.14165
  0
LINE
  5
A4F
330
A02
100
AcDbEntity
  8
Shape2DView
100
AcDbLine
 10
22.1507
 20
4.46047
 30
0
 11
22.1507
 21
4.46046
 31
0
  0
LINE
  5
A50
330
A02
100
AcDbEntity
  8
Shape2DView
100
AcDbLine
 10
22.1507
 20
4.46047
 30
0
 11
22.1507
 21
4.76047
 31
0
  0
LINE
  5
A51
330
A02
100
AcDbEntity
  8
Shape2DView
100
AcDbLine
 10
22.1507
 20
4.76047
 30
0
 11
22.1507
 21
4.76047
 31
0
  0
SPLINE
  5
A52
330
A02
100
AcDbEntity
  8
Shape2DView
100
AcDbSpline
210
0
220
0
230
1
 70
8
 71
3
 72
11
 73
7
 74
0
 40
0
 40
0
 40
0
 40
0
 40
0.785404
 40
0.785404
 40
0.785404
 40
1.57081
 40
1.57081
 40
1.57081
 40
1.57081
 10
22.1507
 20
4.36047
 30
0
 10
22.1507
 20
4.46543
 30
0
 10
22.1507
 20
4.56884
 30
0
 10
22.1507
 20
4.64331
 30
0
 10
22.1507
 20
4.71728
 30
0
 10
22.1507
 20
4.76012
 30
0
 10
22.1507
 20
4.76046
 30
0
  0
LINE
  5
A53
330
A02
100
AcDbEntity
  8
Shape2DView
100
AcDbLine
 10
22.1507
 20
4.16047
 30
0
 11
22.1507
 21
4.36047
 31
0
  0
LINE
  5
A54
330
A02
100
AcDbEntity
  8
Shape2DView
100
AcDbLine
 10
22.8007
 20
4.76047
 30
0
 11
22.8007
 21
4.76047
 31
0
  0
SPLINE
  5
A55
330
A02
100
AcDbEntity
  8
Shape2DView
100
AcDbSpline
210
0
220
0
230
1
 70
8
 71
3
 72
11
 73
7
 74
0
 40
0
 40
0
 40
0
 40
0
 40
0.785404
 40
0.785404
 40
0.785404
 40
1.57081
 40
1.57081
 40
1.57081
 40
1.57081
 10
22.8007
 20
4.36047
 30
0
 10
22.8007
 20
4.46543
 30
0
 10
22.8007
 20
4.56884
 30
0
 10
22.8007
 20
4.64331
 30
0
 10
22.8007
 20
4.71728
 30
0
 10
22.8007
 20
4.76012
 30
0
 10
22.8007
 20
4.76046
 30
0
  0
LINE
  5
A56
330
A02
100
AcDbEntity
  8
Shape2DView
100
AcDbLine
 10
22.8007
 20
4.36047
 30
0
 11
22.8007
 21
3.88047
 31
0
  0
ELLIPSE
  5
A57
330
A02
100
AcDbEntity
  8
Shape2DView
100
AcDbEllipse
 10
23.0507
 20
3.88046
 30
0
 11
-0.249995
 21
-4.37106e-08
 31
0
 40
1
 41
6.28317
 42
1.57081
  0
ELLIPSE
  5
A58
330
A02
100
AcDbEntity
  8
Shape2DView
100
AcDbEllipse
 10
23.0507
 20
3.88046
 30
0
 11
-0.249995
 21
-4.37106e-08
 31
0
 40
1
 41
6.28317
 42
1.57081
  0
ELLIPSE
  5
A59
330
A02
100
AcDbEntity
  8
Shape2DView
100
AcDbEllipse
 10
23.9599
 20
3.63047
 30
0
 11
-0.149962
 21
-2.62202e-08
 31
0
 40
4.37114e-08
 41
-2.55371
 42
-1.57068
  0
LINE
  5
A5A
330
A02
100
AcDbEntity
  8
Shape2DView
100
AcDbLine
 10
23.8915
 20
3.63047
 30
0
 11
23.9599
 21
3.63047
 31
0
  0
ELLIPSE
  5
A5B
330
A02
100
AcDbEntity
  8
Shape2DView
100
AcDbEllipse
 10
23.8915
 20
3.63047
 30
0
 11
-0.149962
 21
-2.62202e-08
 31
0
 40
4.37114e-08
 41
-1.57092
 42
-0.587883
  0
LINE
  5
A5C
330
A02
100
AcDbEntity
  8
Shape2DView
100
AcDbLine
 10
23.7449
 20
3.63047
 30
0
 11
23.7667
 21
3.63047
 31
0
  0
ELLIPSE
  5
A5D
330
A02
100
AcDbEntity
  8
Shape2DView
100
AcDbEllipse
 10
23.3704
 20
3.63047
 30
0
 11
0.449994
 21
7.86794e-08
 31
0
 40
4.37114e-08
 41
4.71238
 42
5.69519
  0
LINE
  5
A5E
330
A02
100
AcDbEntity
  8
Shape2DView
100
AcDbLine
 10
23.0507
 20
3.63047
 30
0
 11
23.3704
 21
3.63047
 31
0
  0
ELLIPSE
  5
A5F
330
A02
100
AcDbEntity
  8
Shape2DView
100
AcDbEllipse
 10
23.3704
 20
3.63047
 30
0
 11
-0.149962
 21
-2.62202e-08
 31
0
 40
4.37114e-08
 41
-4.71251
 42
-3.72948
  0
ELLIPSE
  5
A60
330
A02
100
AcDbEntity
  8
Shape2DView
100
AcDbEllipse
 10
24.481
 20
3.63047
 30
0
 11
-0.149962
 21
-2.62202e-08
 31
0
 40
4.37114e-08
 41
-5.6953
 42
-5.1259
  0
ELLIPSE
  5
A61
330
A02
100
AcDbEntity
  8
Shape2DView
100
AcDbEllipse
 10
24.481
 20
3.63047
 30
0
 11
0.449994
 21
7.86794e-08
 31
0
 40
4.37114e-08
 41
3.72959
 42
4.57804
  0
LINE
  5
A62
330
A02
100
AcDbEntity
  8
Shape2DView
100
AcDbLine
 10
24.0847
 20
3.63047
 30
0
 11
24.1066
 21
3.63047
 31
0
  0
ELLIPSE
  5
A63
330
A02
100
AcDbEntity
  8
Shape2DView
100
AcDbEllipse
 10
23.3704
 20
3.63047
 30
0
 11
-0.149962
 21
-2.62202e-08
 31
0
 40
4.37114e-08
 41
-4.71251
 42
-3.72948
  0
LINE
  5
A64
330
A02
100
AcDbEntity
  8
Shape2DView
100
AcDbLine
 10
23.8915
 20
3.25047
 30
0
 11
23.9599
 21
3.25047
 31
0
  0
LINE
  5
A65
330
A02
100
AcDbEntity
  8
Shape2DView
100
AcDbLine
 10
24.481
 20
3.63977
 30
0
 11
24.481
 21
3.25047
 31
0
  0
SPLINE
  5
A66
330
A02
100
AcDbEntity
  8
Shape2DView
100
AcDbSpline
210
0
220
0
230
1
 70
8
 71
1
 72
4
 73
2
 74
0
 40
0.992749
 40
0.992749
 40
1
 40
1
 10
24.4805
 20
3.63963
 30
0
 10
24.481
 20
3.63977
 30
0
  0
ELLIPSE
  5
A67
330
A02
100
AcDbEntity
  8
Shape2DView
100
AcDbEllipse
 10
24.481
 20
3.63047
 30
0
 11
-0.149962
 21
-2.62202e-08
 31
0
 40
4.37114e-08
 41
-5.6953
 42
-5.1259
  0
ELLIPSE
  5
A68
330
A02
100
AcDbEntity
  8
Shape2DView
100
AcDbEllipse
 10
24.4207
 20
3.83046
 30
0
 11
-0.199989
 21
-3.49672e-08
 31
0
 40
1
 41
1.87692
 42
3.14162
  0
SPLINE
  5
A69
330
A02
100
AcDbEntity
  8
Shape2DView
100
AcDbSpline
210
0
220
0
230
1
 70
8
 71
2
 72
6
 73
3
 74
0
 40
0
 40
0
 40
0
 40
1
 40
1
 40
1
 10
24.4207
 20
3.63047
 30
0
 10
24.4515
 20
3.6305
 30
0
 10
24.481
 20
3.63977
 30
0
  0
SPLINE
  5
A6A
330
A02
100
AcDbEntity
  8
Shape2DView
100
AcDbSpline
210
0
220
0
230
1
 70
8
 71
1
 72
4
 73
2
 74
0
 40
0.992749
 40
0.992749
 40
1
 40
1
 10
24.4805
 20
3.63963
 30
0
 10
24.481
 20
3.63977
 30
0
  0
ELLIPSE
  5
A6B
330
A02
100
AcDbEntity
  8
Shape2DView
100
AcDbEllipse
 10
24.4207
 20
3.83046
 30
0
 11
-0.199989
 21
-3.49672e-08
 31
0
 40
1
 41
1.87692
 42
3.14162
  0
LINE
  5
A6C
330
A02
100
AcDbEntity
  8
Shape2DView
100
AcDbLine
 10
24.6207
 20
3.83047
 30
0
 11
24.6207
 21
3.91047
 31
0
  0
ELLIPSE
  5
A6D
330
A02
100
AcDbEntity
  8
Shape2DView
100
AcDbEllipse
 10
24.4207
 20
3.91047
 30
0
 11
-0.199989
 21
-3.49672e-08
 31
0
 40
1
 41
3.14156
 42
4.71242
  0
LINE
  5
A6E
330
A02
100
AcDbEntity
  8
Shape2DView
100
AcDbLine
 10
24.4207
 20
4.11047
 30
0
 11
24.4053
 21
4.11047
 31
0
  0
ELLIPSE
  5
A6F
330
A02
100
AcDbEntity
  8
Shape2DView
100
AcDbEllipse
 10
24.4053
 20
4.11047
 30
0
 11
0.449984
 21
7.86778e-08
 31
0
 40
4.37114e-08
 41
4.01425
 42
4.7124
  0
LINE
  5
A70
330
A02
100
AcDbEntity
  8
Shape2DView
100
AcDbLine
 10
23.545
 20
4.11047
 30
0
 11
24.116
 21
4.11047
 31
0
  0
ELLIPSE
  5
A71
330
A02
100
AcDbEntity
  8
Shape2DView
100
AcDbEllipse
 10
24.4053
 20
4.71053
 30
0
 11
-0.299918
 21
-1.4632e-05
 31
0
 40
0.000133603
 41
-5.41081
 42
-4.71213
  0
ELLIPSE
  5
A72
330
A02
100
AcDbEntity
  8
Shape2DView
100
AcDbEllipse
 10
24.2507
 20
4.71053
 30
0
 11
-0.299913
 21
-1.54895e-05
 31
0
 40
0.000134045
 41
0.837495
 42
1.57113
  0
LINE
  5
A73
330
A02
100
AcDbEntity
  8
Shape2DView
100
AcDbLine
 10
23.6234
 20
4.71047
 30
0
 11
23.6507
 21
4.71047
 31
0
  0
LINE
  5
A74
330
A02
100
AcDbEntity
  8
Shape2DView
100
AcDbLine
 10
23.7061
 20
4.71047
 30
0
 11
24.0499
 21
4.71047
 31
0
  0
LINE
  5
A75
330
A02
100
AcDbEntity
  8
Shape2DView
100
AcDbLine
 10
23.5231
 20
4.71047
 30
0
 11
23.6234
 21
4.71047
 31
0
  0
LINE
  5
A76
330
A02
100
AcDbEntity
  8
Shape2DView
100
AcDbLine
 10
23.6483
 20
4.71047
 30
0
 11
23.5231
 21
4.71047
 31
0
  0
LINE
  5
A77
330
A02
100
AcDbEntity
  8
Shape2DView
100
AcDbLine
 10
24.7484
 20
4.71047
 30
0
 11
24.8007
 21
4.71047
 31
0
  0
ELLIPSE
  5
A78
330
A02
100
AcDbEntity
  8
Shape2DView
100
AcDbEllipse
 10
24.8007
 20
4.71047
 30
0
 11
0.449996
 21
7.86797e-08
 31
0
 40
4.37114e-08
 41
6.28318
 42
1.5708
  0
ELLIPSE
  5
A79
330
A02
100
AcDbEntity
  8
Shape2DView
100
AcDbEllipse
 10
24.8007
 20
4.71047
 30
0
 11
0.449996
 21
7.86797e-08
 31
0
 40
4.37114e-08
 41
4.71238
 42
4.16707e-06
  0
LINE
  5
A7A
330
A02
100
AcDbEntity
  8
Shape2DView
100
AcDbLine
 10
24.4053
 20
4.71047
 30
0
 11
24.8007
 21
4.71047
 31
0
  0
ELLIPSE
  5
A7B
330
A02
100
AcDbEntity
  8
Shape2DView
100
AcDbEllipse
 10
24.4053
 20
4.71047
 30
0
 11
0.449984
 21
7.86778e-08
 31
0
 40
4.37114e-08
 41
4.01425
 42
4.7124
  0
LINE
  5
A7C
330
A02
100
AcDbEntity
  8
Shape2DView
100
AcDbLine
 10
23.545
 20
4.71047
 30
0
 11
24.116
 21
4.71047
 31
0
  0
LINE
  5
A7D
330
A02
100
AcDbEntity
  8
Shape2DView
100
AcDbLine
 10
23.6415
 20
4.71047
 30
0
 11
23.545
 21
4.71047
 31
0
  0
LINE
  5
A7E
330
A02
100
AcDbEntity
  8
Shape2DView
100
AcDbLine
 10
24.2124
 20
4.71047
 30
0
 11
23.6415
 21
4.71047
 31
0
  0
ELLIPSE
  5
A7F
330
A02
100
AcDbEntity
  8
Shape2DView
100
AcDbEllipse
 10
24.4053
 20
4.71053
 30
0
 11
-0.299918
 21
-1.4632e-05
 31
0
 40
0.000133603
 41
-5.41081
 42
-4.71213
  0
LINE
  5
A80
330
A02
100
AcDbEntity
  8
Shape2DView
100
AcDbLine
 10
24.4054
 20
4.71047
 30
0
 11
24.7547
 21
4.71047
 31
0
  0
LINE
  5
A81
330
A02
100
AcDbEntity
  8
Shape2DView
100
AcDbLine
 10
24.8007
 20
4.71047
 30
0
 11
24.8007
 21
4.71047
 31
0
  0
ELLIPSE
  5
A82
330
A02
100
AcDbEntity
  8
Shape2DView
100
AcDbEllipse
 10
24.8007
 20
4.71047
 30
0
 11
-0.29999
 21
5.55222e-06
 31
0
 40
1.87267e-05
 41
-4.71233
 42
-3.14159
  0
LINE
  5
A83
330
A02
100
AcDbEntity
  8
Shape2DView
100
AcDbLine
 10
24.4053
 20
4.71047
 30
0
 11
24.7394
 21
4.71047
 31
0
  0
LINE
  5
A84
330
A02
100
AcDbEntity
  8
Shape2DView
100
AcDbLine
 10
24.741
 20
4.71047
 30
0
 11
24.7437
 21
4.71047
 31
0
  0
LINE
  5
A85
330
A02
100
AcDbEntity
  8
Shape2DView
100
AcDbLine
 10
23.6415
 20
4.71047
 30
0
 11
23.545
 21
4.71047
 31
0
  0
ELLIPSE
  5
A86
330
A02
100
AcDbEntity
  8
Shape2DView
100
AcDbEllipse
 10
23.545
 20
4.56047
 30
0
 11
6.717e-08
 21
-0.149987
 31
0
 40
0.766045
 41
-3.14165
 42
-1.57074
  0
ELLIPSE
  5
A87
330
A02
100
AcDbEntity
  8
Shape2DView
100
AcDbEllipse
 10
23.545
 20
4.56047
 30
0
 11
6.717e-08
 21
-0.149987
 31
0
 40
0.766045
 41
-3.14165
 42
-1.57074
  0
LINE
  5
A88
330
A02
100
AcDbEntity
  8
Shape2DView
100
AcDbLine
 10
23.4301
 20
4.44047
 30
0
 11
23.4301
 21
4.56047
 31
0
  0
LINE
  5
A89
330
A02
100
AcDbEntity
  8
Shape2DView
100
AcDbLine
 10
23.545
 20
4.11047
 30
0
 11
24.116
 21
4.11047
 31
0
  0
LINE
  5
A8A
330
A02
100
AcDbEntity
  8
Shape2DView
100
AcDbLine
 10
24.116
 20
4.11047
 30
0
 11
24.116
 21
4.71047
 31
0
  0
LINE
  5
A8B
330
A02
100
AcDbEntity
  8
Shape2DView
100
AcDbLine
 10
23.545
 20
4.71047
 30
0
 11
24.116
 21
4.71047
 31
0
  0
LINE
  5
A8C
330
A02
100
AcDbEntity
  8
Shape2DView
100
AcDbLine
 10
23.4301
 20
4.44047
 30
0
 11
23.4301
 21
4.56047
 31
0
  0
LINE
  5
A8D
330
A02
100
AcDbEntity
  8
Shape2DView
100
AcDbLine
 10
24.2124
 20
4.71047
 30
0
 11
23.6415
 21
4.71047
 31
0
  0
LINE
  5
A8E
330
A02
100
AcDbEntity
  8
Shape2DView
100
AcDbLine
 10
24.4053
 20
4.71047
 30
0
 11
24.4053
 21
4.11047
 31
0
  0
ELLIPSE
  5
A8F
330
A02
100
AcDbEntity
  8
Shape2DView
100
AcDbEllipse
 10
24.4053
 20
4.71047
 30
0
 11
0.449984
 21
7.86778e-08
 31
0
 40
4.37114e-08
 41
4.01425
 42
4.7124
  0
LINE
  5
A90
330
A02
100
AcDbEntity
  8
Shape2DView
100
AcDbLine
 10
24.116
 20
4.11047
 30
0
 11
24.116
 21
4.71047
 31
0
  0
ELLIPSE
  5
A91
330
A02
100
AcDbEntity
  8
Shape2DView
100
AcDbEllipse
 10
24.4053
 20
4.11047
 30
0
 11
0.449984
 21
7.86778e-08
 31
0
 40
4.37114e-08
 41
4.01425
 42
4.7124
  0
ELLIPSE
  5
A92
330
A02
100
AcDbEntity
  8
Shape2DView
100
AcDbEllipse
 10
24.4207
 20
3.83046
 30
0
 11
-0.199989
 21
-3.49672e-08
 31
0
 40
1
 41
1.87692
 42
3.14162
  0
LINE
  5
A93
330
A02
100
AcDbEntity
  8
Shape2DView
100
AcDbLine
 10
24.481
 20
3.63977
 30
0
 11
24.481
 21
3.25047
 31
0
  0
LINE
  5
A94
330
A02
100
AcDbEntity
  8
Shape2DView
100
AcDbLine
 10
23.3704
 20
3.25047
 30
0
 11
24.481
 21
3.25047
 31
0
  0
LINE
  5
A95
330
A02
100
AcDbEntity
  8
Shape2DView
100
AcDbLine
 10
23.3704
 20
3.25047
 30
0
 11
23.3704
 21
3.63047
 31
0
  0
LINE
  5
A96
330
A02
100
AcDbEntity
  8
Shape2DView
100
AcDbLine
 10
23.0507
 20
3.63047
 30
0
 11
23.3704
 21
3.63047
 31
0
  0
ELLIPSE
  5
A97
330
A02
100
AcDbEntity
  8
Shape2DView
100
AcDbEllipse
 10
23.0507
 20
3.88046
 30
0
 11
-0.249995
 21
-4.37106e-08
 31
0
 40
1
 41
6.28317
 42
1.57081
  0
LINE
  5
A98
330
A02
100
AcDbEntity
  8
Shape2DView
100
AcDbLine
 10
22.8007
 20
4.36047
 30
0
 11
22.8007
 21
3.88047
 31
0
  0
LINE
  5
A99
330
A02
100
AcDbEntity
  8
Shape2DView
100
AcDbLine
 10
22.8007
 20
4.36047
 30
0
 11
22.1507
 21
4.36047
 31
0
  0
LINE
  5
A9A
330
A02
100
AcDbEntity
  8
Shape2DView
100
AcDbLine
 10
22.1507
 20
4.16047
 30
0
 11
22.1507
 21
4.36047
 31
0
  0
ELLIPSE
  5
A9B
330
A02
100
AcDbEntity
  8
Shape2DView
100
AcDbEllipse
 10
22.0007
 20
4.16046
 30
0
 11
-0.149987
 21
-2.62246e-08
 31
0
 40
1
 41
1.57074
 42
3.14165
  0
LINE
  5
A9C
330
A02
100
AcDbEntity
  8
Shape2DView
100
AcDbLine
 10
21.0007
 20
4.01047
 30
0
 11
22.0007
 21
4.01047
 31
0
  0
ELLIPSE
  5
A9D
330
A02
100
AcDbEntity
  8
Shape2DView
100
AcDbEllipse
 10
21.0007
 20
4.16046
 30
0
 11
-0.149987
 21
-2.62246e-08
 31
0
 40
1
 41
6.28313
 42
1.57085
  0
LINE
  5
A9E
330
A02
100
AcDbEntity
  8
Shape2DView
100
AcDbLine
 10
20.8507
 20
4.16047
 30
0
 11
20.8507
 21
4.36047
 31
0
  0
LINE
  5
A9F
330
A02
100
AcDbEntity
  8
Shape2DView
100
AcDbLine
 10
20.8507
 20
4.36047
 30
0
 11
20.2007
 21
4.36047
 31
0
  0
LINE
  5
AA0
330
A02
100
AcDbEntity
  8
Shape2DView
100
AcDbLine
 10
20.2007
 20
3.88047
 30
0
 11
20.2007
 21
4.36047
 31
0
  0
ELLIPSE
  5
AA1
330
A02
100
AcDbEntity
  8
Shape2DView
100
AcDbEllipse
 10
19.9507
 20
3.88046
 30
0
 11
-0.249995
 21
-4.37106e-08
 31
0
 40
1
 41
1.57078
 42
3.14161
  0
LINE
  5
AA2
330
A02
100
AcDbEntity
  8
Shape2DView
100
AcDbLine
 10
19.631
 20
3.63047
 30
0
 11
19.9507
 21
3.63047
 31
0
  0
LINE
  5
AA3
330
A02
100
AcDbEntity
  8
Shape2DView
100
AcDbLine
 10
19.631
 20
3.63047
 30
0
 11
19.631
 21
3.25047
 31
0
  0
LINE
  5
AA4
330
A02
100
AcDbEntity
  8
Shape2DView
100
AcDbLine
 10
18.5204
 20
3.25047
 30
0
 11
19.631
 21
3.25047
 31
0
  0
LINE
  5
AA5
330
A02
100
AcDbEntity
  8
Shape2DView
100
AcDbLine
 10
18.5204
 20
3.25047
 30
0
 11
18.5204
 21
3.63977
 31
0
  0
ELLIPSE
  5
AA6
330
A02
100
AcDbEntity
  8
Shape2DView
100
AcDbEllipse
 10
18.5807
 20
3.83046
 30
0
 11
-0.199989
 21
-3.49672e-08
 31
0
 40
1
 41
6.28315
 42
1.26467
  0
LINE
  5
AA7
330
A02
100
AcDbEntity
  8
Shape2DView
100
AcDbLine
 10
18.3807
 20
3.83047
 30
0
 11
18.3807
 21
3.91047
 31
0
  0
ELLIPSE
  5
AA8
330
A02
100
AcDbEntity
  8
Shape2DView
100
AcDbEllipse
 10
18.5807
 20
3.91047
 30
0
 11
-0.199989
 21
-3.49672e-08
 31
0
 40
1
 41
4.71236
 42
3.23298e-05
  0
LINE
  5
AA9
330
A02
100
AcDbEntity
  8
Shape2DView
100
AcDbLine
 10
18.5807
 20
4.11046
 30
0
 11
18.5961
 21
4.11047
 31
0
  0
LINE
  5
AAA
330
A02
100
AcDbEntity
  8
Shape2DView
100
AcDbLine
 10
18.5961
 20
4.11047
 30
0
 11
18.5961
 21
4.71047
 31
0
  0
LINE
  5
AAB
330
A02
100
AcDbEntity
  8
Shape2DView
100
AcDbLine
 10
18.2007
 20
4.71047
 30
0
 11
18.5961
 21
4.71047
 31
0
  0
LINE
  5
AAC
330
A02
100
AcDbEntity
  8
Shape2DView
100
AcDbLine
 10
18.2007
 20
4.71047
 30
0
 11
18.2007
 21
-0.289534
 31
0
  0
LINE
  5
AAD
330
A02
100
AcDbEntity
  8
Shape2DView
100
AcDbLine
 10
18.2007
 20
-0.289534
 30
0
 11
18.2707
 21
-0.289535
 31
0
  0
ELLIPSE
  5
AAE
330
A02
100
AcDbEntity
  8
Shape2DView
100
AcDbEllipse
 10
18.2707
 20
-0.439526
 30
0
 11
-0.149987
 21
-2.62246e-08
 31
0
 40
1
 41
3.14154
 42
4.71244
  0
LINE
  5
AAF
330
A02
100
AcDbEntity
  8
Shape2DView
100
AcDbLine
 10
18.4207
 20
-0.609534
 30
0
 11
18.4207
 21
-0.439534
 31
0
  0
ELLIPSE
  5
AB0
330
A02
100
AcDbEntity
  8
Shape2DView
100
AcDbEllipse
 10
18.6207
 20
-0.60954
 30
0
 11
0.199989
 21
3.49672e-08
 31
0
 40
1
 41
-3.14162
 42
-1.57076
  0
LINE
  5
AB1
330
A02
100
AcDbEntity
  8
Shape2DView
100
AcDbLine
 10
18.6207
 20
-0.809532
 30
0
 11
24.3807
 21
-0.809531
 31
0
  0
ELLIPSE
  5
AB2
330
A02
100
AcDbEntity
  8
Shape2DView
100
AcDbEllipse
 10
24.3807
 20
-0.609539
 30
0
 11
0.199989
 21
3.49672e-08
 31
0
 40
1
 41
-1.57083
 42
-6.28315
  0
LINE
  5
AB3
330
A02
100
AcDbEntity
  8
Shape2DView
100
AcDbLine
 10
24.5807
 20
-0.609533
 30
0
 11
24.5807
 21
-0.439533
 31
0
  0
ELLIPSE
  5
AB4
330
A02
100
AcDbEntity
  8
Shape2DView
100
AcDbEllipse
 10
24.7307
 20
-0.439525
 30
0
 11
-0.149987
 21
-2.62246e-08
 31
0
 40
1
 41
4.71234
 42
5.29833e-05
  0
LINE
  5
AB5
330
A02
100
AcDbEntity
  8
Shape2DView
100
AcDbLine
 10
24.7307
 20
-0.289534
 30
0
 11
24.8007
 21
-0.289533
 31
0
  0
LINE
  5
AB6
330
A02
100
AcDbEntity
  8
Shape2DView
100
AcDbLine
 10
24.8007
 20
-0.289533
 30
0
 11
24.8007
 21
4.71047
 31
0
  0
LINE
  5
AB7
330
A02
100
AcDbEntity
  8
Shape2DView
100
AcDbLine
 10
24.4053
 20
4.71047
 30
0
 11
24.8007
 21
4.71047
 31
0
  0
LINE
  5
AB8
330
A02
100
AcDbEntity
  8
Shape2DView
100
AcDbLine
 10
24.4053
 20
4.71047
 30
0
 11
24.4053
 21
4.11047
 31
0
  0
LINE
  5
AB9
330
A02
100
AcDbEntity
  8
Shape2DView
100
AcDbLine
 10
24.4207
 20
4.11047
 30
0
 11
24.4053
 21
4.11047
 31
0
  0
ELLIPSE
  5
ABA
330
A02
100
AcDbEntity
  8
Shape2DView
100
AcDbEllipse
 10
24.4207
 20
3.91047
 30
0
 11
-0.199989
 21
-3.49672e-08
 31
0
 40
1
 41
3.14156
 42
4.71242
  0
LINE
  5
ABB
330
A02
100
AcDbEntity
  8
Shape2DView
100
AcDbLine
 10
24.6207
 20
3.83047
 30
0
 11
24.6207
 21
3.91047
 31
0
  0
ELLIPSE
  5
ABC
330
A02
100
AcDbEntity
  8
Shape2DView
100
AcDbEllipse
 10
23.3957
 20
1.25819
 30
0
 11
0.0999764
 21
1.74804e-08
 31
0
 40
1
 41
-1.42038
 42
-6.28303
  0
LINE
  5
ABD
330
A02
100
AcDbEntity
  8
Shape2DView
100
AcDbLine
 10
23.4957
 20
1.2582
 30
0
 11
23.4957
 21
2.06047
 31
0
  0
ELLIPSE
  5
ABE
330
A02
100
AcDbEntity
  8
Shape2DView
100
AcDbEllipse
 10
23.5957
 20
2.06048
 30
0
 11
-0.0999839
 21
-1.74817e-08
 31
0
 40
1
 41
4.71229
 42
9.87339e-05
  0
LINE
  5
ABF
330
A02
100
AcDbEntity
  8
Shape2DView
100
AcDbLine
 10
23.5957
 20
2.16046
 30
0
 11
24.1557
 21
2.16047
 31
0
  0
ELLIPSE
  5
AC0
330
A02
100
AcDbEntity
  8
Shape2DView
100
AcDbEllipse
 10
24.1557
 20
2.06048
 30
0
 11
-0.0999839
 21
-1.74817e-08
 31
0
 40
1
 41
3.14149
 42
4.71249
  0
LINE
  5
AC1
330
A02
100
AcDbEntity
  8
Shape2DView
100
AcDbLine
 10
24.2557
 20
1.2582
 30
0
 11
24.2557
 21
2.06047
 31
0
  0
ELLIPSE
  5
AC2
330
A02
100
AcDbEntity
  8
Shape2DView
100
AcDbEllipse
 10
24.3557
 20
1.25819
 30
0
 11
0.0999763
 21
1.74804e-08
 31
0
 40
1
 41
-3.14175
 42
-1.72121
  0
ELLIPSE
  5
AC3
330
A02
100
AcDbEntity
  8
Shape2DView
100
AcDbEllipse
 10
24.3257
 20
1.06048
 30
0
 11
-0.0999764
 21
-1.74804e-08
 31
0
 40
1
 41
3.14144
 42
4.56198
  0
LINE
  5
AC4
330
A02
100
AcDbEntity
  8
Shape2DView
100
AcDbLine
 10
24.4257
 20
0.760467
 30
0
 11
24.4257
 21
1.06047
 31
0
  0
ELLIPSE
  5
AC5
330
A02
100
AcDbEntity
  8
Shape2DView
100
AcDbEllipse
 10
24.3257
 20
0.760457
 30
0
 11
-0.0999839
 21
-1.74817e-08
 31
0
 40
1
 41
1.5707
 42
3.14169
  0
LINE
  5
AC6
330
A02
100
AcDbEntity
  8
Shape2DView
100
AcDbLine
 10
24.2257
 20
0.660467
 30
0
 11
24.3257
 21
0.660469
 31
0
  0
LINE
  5
AC7
330
A02
100
AcDbEntity
  8
Shape2DView
100
AcDbLine
 10
24.2257
 20
0.610467
 30
0
 11
24.2257
 21
0.660467
 31
0
  0
LINE
  5
AC8
330
A02
100
AcDbEntity
  8
Shape2DView
100
AcDbLine
 10
23.5257
 20
0.118483
 30
0
 11
24.2257
 21
0.118483
 31
0
  0
LINE
  5
AC9
330
A02
100
AcDbEntity
  8
Shape2DView
100
AcDbLine
 10
23.5257
 20
0.610467
 30
0
 11
23.5257
 21
0.660467
 31
0
  0
LINE
  5
ACA
330
A02
100
AcDbEntity
  8
Shape2DView
100
AcDbLine
 10
23.4257
 20
0.660469
 30
0
 11
23.5257
 21
0.660467
 31
0
  0
ELLIPSE
  5
ACB
330
A02
100
AcDbEntity
  8
Shape2DView
100
AcDbEllipse
 10
23.4257
 20
0.760457
 30
0
 11
-0.0999839
 21
-1.74817e-08
 31
0
 40
1
 41
6.28309
 42
1.5709
  0
LINE
  5
ACC
330
A02
100
AcDbEntity
  8
Shape2DView
100
AcDbLine
 10
23.3257
 20
0.760467
 30
0
 11
23.3257
 21
1.06047
 31
0
  0
ELLIPSE
  5
ACD
330
A02
100
AcDbEntity
  8
Shape2DView
100
AcDbEllipse
 10
23.4257
 20
1.06048
 30
0
 11
-0.0999763
 21
-1.74804e-08
 31
0
 40
1
 41
4.8628
 42
0.000154725
  0
ELLIPSE
  5
ACE
330
A02
100
AcDbEntity
  8
Shape2DView
100
AcDbEllipse
 10
19.5757
 20
1.06048
 30
0
 11
-0.0999764
 21
-1.74804e-08
 31
0
 40
1
 41
3.14144
 42
4.56198
  0
LINE
  5
ACF
330
A02
100
AcDbEntity
  8
Shape2DView
100
AcDbLine
 10
19.6757
 20
0.760466
 30
0
 11
19.6757
 21
1.06047
 31
0
  0
ELLIPSE
  5
AD0
330
A02
100
AcDbEntity
  8
Shape2DView
100
AcDbEllipse
 10
19.5757
 20
0.760456
 30
0
 11
-0.0999839
 21
-1.74817e-08
 31
0
 40
1
 41
1.5707
 42
3.14169
  0
LINE
  5
AD1
330
A02
100
AcDbEntity
  8
Shape2DView
100
AcDbLine
 10
19.4757
 20
0.660466
 30
0
 11
19.5757
 21
0.660468
 31
0
  0
LINE
  5
AD2
330
A02
100
AcDbEntity
  8
Shape2DView
100
AcDbLine
 10
19.4757
 20
0.610466
 30
0
 11
19.4757
 21
0.660466
 31
0
  0
LINE
  5
AD3
330
A02
100
AcDbEntity
  8
Shape2DView
100
AcDbLine
 10
18.7757
 20
0.118482
 30
0
 11
19.4757
 21
0.118483
 31
0
  0
LINE
  5
AD4
330
A02
100
AcDbEntity
  8
Shape2DView
100
AcDbLine
 10
18.7757
 20
0.610466
 30
0
 11
18.7757
 21
0.660466
 31
0
  0
LINE
  5
AD5
330
A02
100
AcDbEntity
  8
Shape2DView
100
AcDbLine
 10
18.6757
 20
0.660468
 30
0
 11
18.7757
 21
0.660466
 31
0
  0
ELLIPSE
  5
AD6
330
A02
100
AcDbEntity
  8
Shape2DView
100
AcDbEllipse
 10
18.6757
 20
0.760456
 30
0
 11
-0.0999839
 21
-1.74817e-08
 31
0
 40
1
 41
6.28309
 42
1.5709
  0
LINE
  5
AD7
330
A02
100
AcDbEntity
  8
Shape2DView
100
AcDbLine
 10
18.5757
 20
0.760466
 30
0
 11
18.5757
 21
1.06047
 31
0
  0
ELLIPSE
  5
AD8
330
A02
100
AcDbEntity
  8
Shape2DView
100
AcDbEllipse
 10
18.6757
 20
1.06048
 30
0
 11
-0.0999763
 21
-1.74804e-08
 31
0
 40
1
 41
4.8628
 42
0.000154725
  0
ELLIPSE
  5
AD9
330
A02
100
AcDbEntity
  8
Shape2DView
100
AcDbEllipse
 10
18.6457
 20
1.25819
 30
0
 11
0.0999764
 21
1.74804e-08
 31
0
 40
1
 41
-1.42038
 42
-6.28303
  0
LINE
  5
ADA
330
A02
100
AcDbEntity
  8
Shape2DView
100
AcDbLine
 10
18.7457
 20
1.2582
 30
0
 11
18.7457
 21
2.06047
 31
0
  0
ELLIPSE
  5
ADB
330
A02
100
AcDbEntity
  8
Shape2DView
100
AcDbEllipse
 10
18.8457
 20
2.06048
 30
0
 11
-0.0999839
 21
-1.74817e-08
 31
0
 40
1
 41
4.71229
 42
9.84964e-05
  0
LINE
  5
ADC
330
A02
100
AcDbEntity
  8
Shape2DView
100
AcDbLine
 10
18.8457
 20
2.16046
 30
0
 11
19.4057
 21
2.16046
 31
0
  0
ELLIPSE
  5
ADD
330
A02
100
AcDbEntity
  8
Shape2DView
100
AcDbEllipse
 10
19.4057
 20
2.06048
 30
0
 11
-0.0999839
 21
-1.74817e-08
 31
0
 40
1
 41
3.14149
 42
4.71249
  0
LINE
  5
ADE
330
A02
100
AcDbEntity
  8
Shape2DView
100
AcDbLine
 10
19.5057
 20
1.2582
 30
0
 11
19.5057
 21
2.06047
 31
0
  0
ELLIPSE
  5
ADF
330
A02
100
AcDbEntity
  8
Shape2DView
100
AcDbEllipse
 10
19.6057
 20
1.25819
 30
0
 11
0.0999763
 21
1.74804e-08
 31
0
 40
1
 41
-3.14175
 42
-1.72121
  0
LINE
  5
AE0
330
A02
100
AcDbEntity
  8
Shape2DView
100
AcDbLine
 10
20.8507
 20
4.46046
 30
0
 11
20.8507
 21
4.46047
 31
0
  0
LINE
  5
AE1
330
A02
100
AcDbEntity
  8
Shape2DView
100
AcDbLine
 10
20.8507
 20
4.76047
 30
0
 11
20.8507
 21
4.46047
 31
0
  0
LINE
  5
AE2
330
A02
100
AcDbEntity
  8
Shape2DView
100
AcDbLine
 10
20.8507
 20
4.76047
 30
0
 11
20.8507
 21
4.76047
 31
0
  0
SPLINE
  5
AE3
330
A02
100
AcDbEntity
  8
Shape2DView
100
AcDbSpline
210
0
220
0
230
1
 70
8
 71
3
 72
11
 73
7
 74
0
 40
0
 40
0
 40
0
 40
0
 40
0.785404
 40
0.785404
 40
0.785404
 40
1.57081
 40
1.57081
 40
1.57081
 40
1.57081
 10
20.8507
 20
4.36047
 30
0
 10
20.8507
 20
4.46543
 30
0
 10
20.8507
 20
4.56884
 30
0
 10
20.8507
 20
4.64331
 30
0
 10
20.8507
 20
4.71728
 30
0
 10
20.8507
 20
4.76012
 30
0
 10
20.8507
 20
4.76046
 30
0
  0
LINE
  5
AE4
330
A02
100
AcDbEntity
  8
Shape2DView
100
AcDbLine
 10
20.8507
 20
4.16047
 30
0
 11
20.8507
 21
4.36047
 31
0
  0
ELLIPSE
  5
AE5
330
A02
100
AcDbEntity
  8
Shape2DView
100
AcDbEllipse
 10
21.0007
 20
4.76047
 30
0
 11
-0.149987
 21
-2.62246e-08
 31
0
 40
4.37114e-08
 41
-1.57085
 42
-6.28313
  0
LINE
  5
AE6
330
A02
100
AcDbEntity
  8
Shape2DView
100
AcDbLine
 10
21.0007
 20
4.46047
 30
0
 11
21.0007
 21
4.76047
 31
0
  0
ELLIPSE
  5
AE7
330
A02
100
AcDbEntity
  8
Shape2DView
100
AcDbEllipse
 10
21.0007
 20
4.46047
 30
0
 11
-0.149987
 21
-2.62246e-08
 31
0
 40
4.37114e-08
 41
-1.57085
 42
-6.28313
  0
LINE
  5
AE8
330
A02
100
AcDbEntity
  8
Shape2DView
100
AcDbLine
 10
20.8507
 20
4.76047
 30
0
 11
20.8507
 21
4.46047
 31
0
  0
LINE
  5
AE9
330
A02
100
AcDbEntity
  8
Shape2DView
100
AcDbLine
 10
21.0007
 20
4.76047
 30
0
 11
22.0007
 21
4.76047
 31
0
  0
LINE
  5
AEA
330
A02
100
AcDbEntity
  8
Shape2DView
100
AcDbLine
 10
21.0007
 20
4.46047
 30
0
 11
21.0007
 21
4.76047
 31
0
  0
LINE
  5
AEB
330
A02
100
AcDbEntity
  8
Shape2DView
100
AcDbLine
 10
21.0007
 20
4.46047
 30
0
 11
22.0007
 21
4.46047
 31
0
  0
LINE
  5
AEC
330
A02
100
AcDbEntity
  8
Shape2DView
100
AcDbLine
 10
22.0007
 20
4.76047
 30
0
 11
22.0007
 21
4.46047
 31
0
  0
ELLIPSE
  5
AED
330
A02
100
AcDbEntity
  8
Shape2DView
100
AcDbEllipse
 10
22.0007
 20
4.46047
 30
0
 11
-0.149987
 21
-2.62246e-08
 31
0
 40
4.37114e-08
 41
-3.14165
 42
-1.57074
  0
LINE
  5
AEE
330
A02
100
AcDbEntity
  8
Shape2DView
100
AcDbLine
 10
22.0007
 20
4.76047
 30
0
 11
22.0007
 21
4.46047
 31
0
  0
ELLIPSE
  5
AEF
330
A02
100
AcDbEntity
  8
Shape2DView
100
AcDbEllipse
 10
22.0007
 20
4.76047
 30
0
 11
-0.149987
 21
-2.62246e-08
 31
0
 40
4.37114e-08
 41
-3.14165
 42
-1.57074
  0
LINE
  5
AF0
330
A02
100
AcDbEntity
  8
Shape2DView
100
AcDbLine
 10
22.1507
 20
4.46047
 30
0
 11
22.1507
 21
4.76047
 31
0
  0
LINE
  5
AF1
330
A02
100
AcDbEntity
  8
Shape2DView
100
AcDbLine
 10
20.8507
 20
4.76047
 30
0
 11
20.8507
 21
4.76047
 31
0
  0
LINE
  5
AF2
330
A02
100
AcDbEntity
  8
Shape2DView
100
AcDbLine
 10
20.2007
 20
4.76047
 30
0
 11
20.8507
 21
4.76047
 31
0
  0
LINE
  5
AF3
330
A02
100
AcDbEntity
  8
Shape2DView
100
AcDbLine
 10
20.2007
 20
4.76047
 30
0
 11
20.2007
 21
4.76047
 31
0
  0
LINE
  5
AF4
330
A02
100
AcDbEntity
  8
Shape2DView
100
AcDbLine
 10
20.2007
 20
4.76047
 30
0
 11
22.8007
 21
4.76047
 31
0
  0
LINE
  5
AF5
330
A02
100
AcDbEntity
  8
Shape2DView
100
AcDbLine
 10
22.8007
 20
4.76047
 30
0
 11
22.8007
 21
4.76047
 31
0
  0
LINE
  5
AF6
330
A02
100
AcDbEntity
  8
Shape2DView
100
AcDbLine
 10
22.1507
 20
4.76047
 30
0
 11
22.8007
 21
4.76047
 31
0
  0
LINE
  5
AF7
330
A02
100
AcDbEntity
  8
Shape2DView
100
AcDbLine
 10
22.1507
 20
4.76047
 30
0
 11
22.1507
 21
4.76047
 31
0
  0
ELLIPSE
  5
AF8
330
A02
100
AcDbEntity
  8
Shape2DView
100
AcDbEllipse
 10
22.0007
 20
4.76047
 30
0
 11
-0.149987
 21
-2.62246e-08
 31
0
 40
4.37114e-08
 41
-3.14165
 42
-1.57074
  0
LINE
  5
AF9
330
A02
100
AcDbEntity
  8
Shape2DView
100
AcDbLine
 10
21.0007
 20
4.76047
 30
0
 11
22.0007
 21
4.76047
 31
0
  0
ELLIPSE
  5
AFA
330
A02
100
AcDbEntity
  8
Shape2DView
100
AcDbEllipse
 10
21.0007
 20
4.76047
 30
0
 11
-0.149987
 21
-2.62246e-08
 31
0
 40
4.37114e-08
 41
-1.57085
 42
-6.28313
  0
LINE
  5
AFB
330
A02
100
AcDbEntity
  8
Shape2DView
100
AcDbLine
 10
20.2007
 20
4.76047
 30
0
 11
20.8507
 21
4.76047
 31
0
  0
SPLINE
  5
AFC
330
A02
100
AcDbEntity
  8
Shape2DView
100
AcDbSpline
210
0
220
0
230
1
 70
8
 71
3
 72
11
 73
7
 74
0
 40
0
 40
0
 40
0
 40
0
 40
0.785404
 40
0.785404
 40
0.785404
 40
1.57081
 40
1.57081
 40
1.57081
 40
1.57081
 10
20.2007
 20
4.36047
 30
0
 10
20.2007
 20
4.46543
 30
0
 10
20.2007
 20
4.56884
 30
0
 10
20.2007
 20
4.64331
 30
0
 10
20.2007
 20
4.71728
 30
0
 10
20.2007
 20
4.76012
 30
0
 10
20.2007
 20
4.76046
 30
0
  0
LINE
  5
AFD
330
A02
100
AcDbEntity
  8
Shape2DView
100
AcDbLine
 10
20.8507
 20
4.36047
 30
0
 11
20.2007
 21
4.36047
 31
0
  0
SPLINE
  5
AFE
330
A02
100
AcDbEntity
  8
Shape2DView
100
AcDbSpline
210
0
220
0
230
1
 70
8
 71
3
 72
11
 73
7
 74
0
 40
0
 40
0
 40
0
 40
0
 40
0.785404
 40
0.785404
 40
0.785404
 40
1.57081
 40
1.57081
 40
1.57081
 40
1.57081
 10
20.8507
 20
4.36047
 30
0
 10
20.8507
 20
4.46543
 30
0
 10
20.8507
 20
4.56884
 30
0
 10
20.8507
 20
4.64331
 30
0
 10
20.8507
 20
4.71728
 30
0
 10
20.8507
 20
4.76012
 30
0
 10
20.8507
 20
4.76046
 30
0
  0
LINE
  5
AFF
330
A02
100
AcDbEntity
  8
Shape2DView
100
AcDbLine
 10
20.2007
 20
4.76047
 30
0
 11
20.2007
 21
4.76047
 31
0
  0
SPLINE
  5
B00
330
A02
100
AcDbEntity
  8
Shape2DView
100
AcDbSpline
210
0
220
0
230
1
 70
8
 71
3
 72
11
 73
7
 74
0
 40
0
 40
0
 40
0
 40
0
 40
0.785404
 40
0.785404
 40
0.785404
 40
1.57081
 40
1.57081
 40
1.57081
 40
1.57081
 10
20.2007
 20
4.36047
 30
0
 10
20.2007
 20
4.46543
 30
0
 10
20.2007
 20
4.56884
 30
0
 10
20.2007
 20
4.64331
 30
0
 10
20.2007
 20
4.71728
 30
0
 10
20.2007
 20
4.76012
 30
0
 10
20.2007
 20
4.76046
 30
0
  0
LINE
  5
B01
330
A02
100
AcDbEntity
  8
Shape2DView
100
AcDbLine
 10
20.2007
 20
3.88047
 30
0
 11
20.2007
 21
4.36047
 31
0
  0
ELLIPSE
  5
B02
330
A02
100
AcDbEntity
  8
Shape2DView
100
AcDbEllipse
 10
19.9507
 20
3.88046
 30
0
 11
-0.249995
 21
-4.37106e-08
 31
0
 40
1
 41
1.57078
 42
3.14161
  0
ELLIPSE
  5
B03
330
A02
100
AcDbEntity
  8
Shape2DView
100
AcDbEllipse
 10
19.9507
 20
3.88046
 30
0
 11
-0.249995
 21
-4.37106e-08
 31
0
 40
1
 41
1.57078
 42
3.14161
  0
ELLIPSE
  5
B04
330
A02
100
AcDbEntity
  8
Shape2DView
100
AcDbEllipse
 10
19.0415
 20
3.63047
 30
0
 11
-0.149962
 21
-2.62202e-08
 31
0
 40
4.37114e-08
 41
-1.57092
 42
-0.587883
  0
LINE
  5
B05
330
A02
100
AcDbEntity
  8
Shape2DView
100
AcDbLine
 10
18.8949
 20
3.63047
 30
0
 11
18.9167
 21
3.63047
 31
0
  0
ELLIPSE
  5
B06
330
A02
100
AcDbEntity
  8
Shape2DView
100
AcDbEllipse
 10
18.5204
 20
3.63047
 30
0
 11
0.449994
 21
7.86794e-08
 31
0
 40
4.37114e-08
 41
4.84674
 42
5.69519
  0
ELLIPSE
  5
B07
330
A02
100
AcDbEntity
  8
Shape2DView
100
AcDbEllipse
 10
18.5204
 20
3.63047
 30
0
 11
-0.149962
 21
-2.62202e-08
 31
0
 40
4.37114e-08
 41
-4.29887
 42
-3.72948
  0
ELLIPSE
  5
B08
330
A02
100
AcDbEntity
  8
Shape2DView
100
AcDbEllipse
 10
19.631
 20
3.63047
 30
0
 11
-0.149962
 21
-2.62202e-08
 31
0
 40
4.37114e-08
 41
-5.6953
 42
-4.71227
  0
LINE
  5
B09
330
A02
100
AcDbEntity
  8
Shape2DView
100
AcDbLine
 10
19.9507
 20
3.63047
 30
0
 11
19.631
 21
3.63047
 31
0
  0
LINE
  5
B0A
330
A02
100
AcDbEntity
  8
Shape2DView
100
AcDbLine
 10
19.631
 20
3.63047
 30
0
 11
19.9507
 21
3.63047
 31
0
  0
ELLIPSE
  5
B0B
330
A02
100
AcDbEntity
  8
Shape2DView
100
AcDbEllipse
 10
19.631
 20
3.63047
 30
0
 11
0.449994
 21
7.86794e-08
 31
0
 40
4.37114e-08
 41
3.72959
 42
4.7124
  0
LINE
  5
B0C
330
A02
100
AcDbEntity
  8
Shape2DView
100
AcDbLine
 10
19.2347
 20
3.63047
 30
0
 11
19.2566
 21
3.63047
 31
0
  0
ELLIPSE
  5
B0D
330
A02
100
AcDbEntity
  8
Shape2DView
100
AcDbEllipse
 10
19.1099
 20
3.63047
 30
0
 11
-0.149962
 21
-2.62202e-08
 31
0
 40
4.37114e-08
 41
-2.55371
 42
-1.57068
  0
LINE
  5
B0E
330
A02
100
AcDbEntity
  8
Shape2DView
100
AcDbLine
 10
19.0415
 20
3.63047
 30
0
 11
19.1099
 21
3.63047
 31
0
  0
ELLIPSE
  5
B0F
330
A02
100
AcDbEntity
  8
Shape2DView
100
AcDbEllipse
 10
19.631
 20
3.63047
 30
0
 11
0.449994
 21
7.86794e-08
 31
0
 40
4.37114e-08
 41
3.72959
 42
4.7124
  0
LINE
  5
B10
330
A02
100
AcDbEntity
  8
Shape2DView
100
AcDbLine
 10
19.2566
 20
3.25047
 30
0
 11
19.2566
 21
3.63047
 31
0
  0
ELLIPSE
  5
B11
330
A02
100
AcDbEntity
  8
Shape2DView
100
AcDbEllipse
 10
19.631
 20
3.25047
 30
0
 11
-0.449994
 21
-7.86794e-08
 31
0
 40
4.37114e-08
 41
-5.69519
 42
-4.71238
  0
LINE
  5
B12
330
A02
100
AcDbEntity
  8
Shape2DView
100
AcDbLine
 10
19.631
 20
3.63047
 30
0
 11
19.631
 21
3.25047
 31
0
  0
LINE
  5
B13
330
A02
100
AcDbEntity
  8
Shape2DView
100
AcDbLine
 10
19.2566
 20
3.25047
 30
0
 11
19.2566
 21
3.63047
 31
0
  0
LINE
  5
B14
330
A02
100
AcDbEntity
  8
Shape2DView
100
AcDbLine
 10
19.2566
 20
3.25047
 30
0
 11
19.2347
 21
3.25047
 31
0
  0
LINE
  5
B15
330
A02
100
AcDbEntity
  8
Shape2DView
100
AcDbLine
 10
19.2347
 20
3.25047
 30
0
 11
19.2347
 21
3.63047
 31
0
  0
LINE
  5
B16
330
A02
100
AcDbEntity
  8
Shape2DView
100
AcDbLine
 10
19.2347
 20
3.63047
 30
0
 11
19.2566
 21
3.63047
 31
0
  0
LINE
  5
B17
330
A02
100
AcDbEntity
  8
Shape2DView
100
AcDbLine
 10
19.1099
 20
3.25047
 30
0
 11
19.0415
 21
3.25047
 31
0
  0
ELLIPSE
  5
B18
330
A02
100
AcDbEntity
  8
Shape2DView
100
AcDbEllipse
 10
19.1099
 20
3.25047
 30
0
 11
0.149962
 21
2.62202e-08
 31
0
 40
4.37114e-08
 41
0.587883
 42
1.57092
  0
LINE
  5
B19
330
A02
100
AcDbEntity
  8
Shape2DView
100
AcDbLine
 10
19.2566
 20
3.25047
 30
0
 11
19.2347
 21
3.25047
 31
0
  0
ELLIPSE
  5
B1A
330
A02
100
AcDbEntity
  8
Shape2DView
100
AcDbEllipse
 10
19.631
 20
3.25047
 30
0
 11
-0.449994
 21
-7.86794e-08
 31
0
 40
4.37114e-08
 41
-5.69519
 42
-4.71238
  0
LINE
  5
B1B
330
A02
100
AcDbEntity
  8
Shape2DView
100
AcDbLine
 10
18.5204
 20
3.25047
 30
0
 11
19.631
 21
3.25047
 31
0
  0
ELLIPSE
  5
B1C
330
A02
100
AcDbEntity
  8
Shape2DView
100
AcDbEllipse
 10
18.5204
 20
3.25047
 30
0
 11
-0.449994
 21
-7.86794e-08
 31
0
 40
4.37114e-08
 41
-4.7124
 42
-3.72959
  0
LINE
  5
B1D
330
A02
100
AcDbEntity
  8
Shape2DView
100
AcDbLine
 10
18.9167
 20
3.25047
 30
0
 11
18.8949
 21
3.25047
 31
0
  0
ELLIPSE
  5
B1E
330
A02
100
AcDbEntity
  8
Shape2DView
100
AcDbEllipse
 10
19.0415
 20
3.25047
 30
0
 11
0.149962
 21
2.62202e-08
 31
0
 40
4.37114e-08
 41
1.57068
 42
2.55371
  0
SPLINE
  5
B1F
330
A02
100
AcDbEntity
  8
Shape2DView
100
AcDbSpline
210
0
220
0
230
1
 70
8
 71
2
 72
6
 73
3
 74
0
 40
0
 40
0
 40
0
 40
0.999998
 40
0.999998
 40
0.999998
 10
18.5204
 20
3.63977
 30
0
 10
18.5501
 20
3.63046
 30
0
 10
18.5807
 20
3.63047
 30
0
  0
LINE
  5
B20
330
A02
100
AcDbEntity
  8
Shape2DView
100
AcDbLine
 10
18.5204
 20
3.25047
 30
0
 11
18.5204
 21
3.63977
 31
0
  0
ELLIPSE
  5
B21
330
A02
100
AcDbEntity
  8
Shape2DView
100
AcDbEllipse
 10
18.5204
 20
3.25047
 30
0
 11
-0.449994
 21
-7.86794e-08
 31
0
 40
4.37114e-08
 41
-4.7124
 42
-3.72959
  0
LINE
  5
B22
330
A02
100
AcDbEntity
  8
Shape2DView
100
AcDbLine
 10
18.8949
 20
3.63047
 30
0
 11
18.8949
 21
3.25047
 31
0
  0
ELLIPSE
  5
B23
330
A02
100
AcDbEntity
  8
Shape2DView
100
AcDbEllipse
 10
18.5204
 20
3.63047
 30
0
 11
0.449994
 21
7.86794e-08
 31
0
 40
4.37114e-08
 41
4.84674
 42
5.69519
  0
ELLIPSE
  5
B24
330
A02
100
AcDbEntity
  8
Shape2DView
100
AcDbEllipse
 10
18.5807
 20
3.83046
 30
0
 11
-0.199989
 21
-3.49672e-08
 31
0
 40
1
 41
6.28315
 42
1.26467
  0
SPLINE
  5
B25
330
A02
100
AcDbEntity
  8
Shape2DView
100
AcDbSpline
210
0
220
0
230
1
 70
8
 71
2
 72
6
 73
3
 74
0
 40
0
 40
0
 40
0
 40
1
 40
1
 40
1
 10
18.5807
 20
3.63047
 30
0
 10
18.5507
 20
3.63038
 30
0
 10
18.5204
 20
3.63977
 30
0
  0
SPLINE
  5
B26
330
A02
100
AcDbEntity
  8
Shape2DView
100
AcDbSpline
210
0
220
0
230
1
 70
8
 71
2
 72
6
 73
3
 74
0
 40
0
 40
0
 40
0
 40
1
 40
1
 40
1
 10
18.5204
 20
3.63977
 30
0
 10
18.5501
 20
3.63046
 30
0
 10
18.5807
 20
3.63047
 30
0
  0
ELLIPSE
  5
B27
330
A02
100
AcDbEntity
  8
Shape2DView
100
AcDbEllipse
 10
18.5807
 20
3.83046
 30
0
 11
-0.199989
 21
-3.49672e-08
 31
0
 40
1
 41
6.28315
 42
1.26467
  0
LINE
  5
B28
330
A02
100
AcDbEntity
  8
Shape2DView
100
AcDbLine
 10
18.3807
 20
3.83047
 30
0
 11
18.3807
 21
3.91047
 31
0
  0
ELLIPSE
  5
B29
330
A02
100
AcDbEntity
  8
Shape2DView
100
AcDbEllipse
 10
18.5807
 20
3.91047
 30
0
 11
-0.199989
 21
-3.49672e-08
 31
0
 40
1
 41
4.71236
 42
3.23298e-05
  0
LINE
  5
B2A
330
A02
100
AcDbEntity
  8
Shape2DView
100
AcDbLine
 10
18.8854
 20
4.11047
 30
0
 11
19.4564
 21
4.11047
 31
0
  0
ELLIPSE
  5
B2B
330
A02
100
AcDbEntity
  8
Shape2DView
100
AcDbEllipse
 10
18.5961
 20
4.11047
 30
0
 11
0.449984
 21
7.86778e-08
 31
0
 40
4.37114e-08
 41
4.71238
 42
5.41053
  0
LINE
  5
B2C
330
A02
100
AcDbEntity
  8
Shape2DView
100
AcDbLine
 10
18.5807
 20
4.11046
 30
0
 11
18.5961
 21
4.11047
 31
0
  0
LINE
  5
B2D
330
A02
100
AcDbEntity
  8
Shape2DView
100
AcDbLine
 10
19.5713
 20
4.44047
 30
0
 11
19.5713
 21
4.56047
 31
0
  0
ELLIPSE
  5
B2E
330
A02
100
AcDbEntity
  8
Shape2DView
100
AcDbEllipse
 10
19.4564
 20
4.56047
 30
0
 11
-1.84064e-08
 21
0.149987
 31
0
 40
0.766044
 41
-1.57085
 42
-6.28313
  0
LINE
  5
B2F
330
A02
100
AcDbEntity
  8
Shape2DView
100
AcDbLine
 10
18.8854
 20
4.71047
 30
0
 11
19.4564
 21
4.71046
 31
0
  0
LINE
  5
B30
330
A02
100
AcDbEntity
  8
Shape2DView
100
AcDbLine
 10
18.8854
 20
4.71047
 30
0
 11
18.8854
 21
4.11047
 31
0
  0
LINE
  5
B31
330
A02
100
AcDbEntity
  8
Shape2DView
100
AcDbLine
 10
18.8854
 20
4.11047
 30
0
 11
19.4564
 21
4.11047
 31
0
  0
ELLIPSE
  5
B32
330
A02
100
AcDbEntity
  8
Shape2DView
100
AcDbEllipse
 10
19.4564
 20
4.56047
 30
0
 11
-1.84064e-08
 21
0.149987
 31
0
 40
0.766044
 41
-1.57085
 42
-6.28313
  0
LINE
  5
B33
330
A02
100
AcDbEntity
  8
Shape2DView
100
AcDbLine
 10
19.4564
 20
4.71046
 30
0
 11
19.36
 21
4.71046
 31
0
  0
LINE
  5
B34
330
A02
100
AcDbEntity
  8
Shape2DView
100
AcDbLine
 10
19.36
 20
4.71046
 30
0
 11
18.789
 21
4.71047
 31
0
  0
LINE
  5
B35
330
A02
100
AcDbEntity
  8
Shape2DView
100
AcDbLine
 10
19.36
 20
4.71046
 30
0
 11
18.789
 21
4.71047
 31
0
  0
LINE
  5
B36
330
A02
100
AcDbEntity
  8
Shape2DView
100
AcDbLine
 10
19.4564
 20
4.71046
 30
0
 11
19.36
 21
4.71046
 31
0
  0
LINE
  5
B37
330
A02
100
AcDbEntity
  8
Shape2DView
100
AcDbLine
 10
18.8854
 20
4.71047
 30
0
 11
19.4564
 21
4.71046
 31
0
  0
ELLIPSE
  5
B38
330
A02
100
AcDbEntity
  8
Shape2DView
100
AcDbEllipse
 10
18.5961
 20
4.71047
 30
0
 11
0.449984
 21
7.86778e-08
 31
0
 40
4.37114e-08
 41
4.71238
 42
5.41053
  0
LINE
  5
B39
330
A02
100
AcDbEntity
  8
Shape2DView
100
AcDbLine
 10
18.2007
 20
4.71047
 30
0
 11
18.5961
 21
4.71047
 31
0
  0
ELLIPSE
  5
B3A
330
A02
100
AcDbEntity
  8
Shape2DView
100
AcDbEllipse
 10
18.2007
 20
4.71047
 30
0
 11
0.449996
 21
7.86797e-08
 31
0
 40
4.37114e-08
 41
3.14159
 42
4.71239
  0
ELLIPSE
  5
B3B
330
A02
100
AcDbEntity
  8
Shape2DView
100
AcDbEllipse
 10
18.2007
 20
4.71047
 30
0
 11
0.449996
 21
7.86797e-08
 31
0
 40
4.37114e-08
 41
1.57079
 42
3.1416
  0
LINE
  5
B3C
330
A02
100
AcDbEntity
  8
Shape2DView
100
AcDbLine
 10
18.2007
 20
4.71047
 30
0
 11
18.2529
 21
4.71047
 31
0
  0
LINE
  5
B3D
330
A02
100
AcDbEntity
  8
Shape2DView
100
AcDbLine
 10
19.4783
 20
4.71046
 30
0
 11
19.3532
 21
4.71047
 31
0
  0
LINE
  5
B3E
330
A02
100
AcDbEntity
  8
Shape2DView
100
AcDbLine
 10
19.378
 20
4.71046
 30
0
 11
19.4783
 21
4.71046
 31
0
  0
LINE
  5
B3F
330
A02
100
AcDbEntity
  8
Shape2DView
100
AcDbLine
 10
18.9515
 20
4.71047
 30
0
 11
19.2961
 21
4.71047
 31
0
  0
LINE
  5
B40
330
A02
100
AcDbEntity
  8
Shape2DView
100
AcDbLine
 10
19.3507
 20
4.71047
 30
0
 11
19.378
 21
4.71046
 31
0
  0
ELLIPSE
  5
B41
330
A02
100
AcDbEntity
  8
Shape2DView
100
AcDbEllipse
 10
18.7507
 20
4.71053
 30
0
 11
-0.299917
 21
1.53852e-05
 31
0
 40
0.000134048
 41
1.57053
 42
2.30404
  0
LINE
  5
B42
330
A02
100
AcDbEntity
  8
Shape2DView
100
AcDbLine
 10
18.2612
 20
4.71047
 30
0
 11
18.5961
 21
4.71047
 31
0
  0
ELLIPSE
  5
B43
330
A02
100
AcDbEntity
  8
Shape2DView
100
AcDbEllipse
 10
18.2007
 20
4.71047
 30
0
 11
-0.29999
 21
-5.68994e-06
 31
0
 40
1.87485e-05
 41
1.51247e-06
 42
1.0853
  0
LINE
  5
B44
330
A02
100
AcDbEntity
  8
Shape2DView
100
AcDbLine
 10
18.2007
 20
4.71047
 30
0
 11
18.2007
 21
4.71047
 31
0
  0
LINE
  5
B45
330
A02
100
AcDbEntity
  8
Shape2DView
100
AcDbLine
 10
18.2466
 20
4.71047
 30
0
 11
18.5961
 21
4.71047
 31
0
  0
ELLIPSE
  5
B46
330
A02
100
AcDbEntity
  8
Shape2DView
100
AcDbEllipse
 10
18.5961
 20
4.71052
 30
0
 11
-0.299918
 21
1.45271e-05
 31
0
 40
0.000133603
 41
-4.71265
 42
-4.01396
  0
LINE
  5
B47
330
A02
100
AcDbEntity
  8
Shape2DView
100
AcDbLine
 10
19.378
 20
4.71046
 30
0
 11
19.4783
 21
4.71046
 31
0
  0
LINE
  5
B48
330
A02
100
AcDbEntity
  8
Shape2DView
100
AcDbLine
 10
19.5898
 20
4.56047
 30
0
 11
19.5713
 21
4.56047
 31
0
  0
ELLIPSE
  5
B49
330
A02
100
AcDbEntity
  8
Shape2DView
100
AcDbEllipse
 10
19.4783
 20
4.56047
 30
0
 11
3.35093e-08
 21
-0.149987
 31
0
 40
0.743145
 41
-4.71244
 42
-3.14154
  0
LINE
  5
B4A
330
A02
100
AcDbEntity
  8
Shape2DView
100
AcDbLine
 10
19.4783
 20
4.71046
 30
0
 11
19.3532
 21
4.71047
 31
0
  0
LINE
  5
B4B
330
A02
100
AcDbEntity
  8
Shape2DView
100
AcDbLine
 10
19.5898
 20
4.56047
 30
0
 11
19.5898
 21
4.44047
 31
0
  0
ELLIPSE
  5
B4C
330
A02
100
AcDbEntity
  8
Shape2DView
100
AcDbEllipse
 10
19.4783
 20
4.56047
 30
0
 11
3.35093e-08
 21
-0.149987
 31
0
 40
0.743145
 41
-4.71244
 42
-3.14154
  0
LINE
  5
B4D
330
A02
100
AcDbEntity
  8
Shape2DView
100
AcDbLine
 10
18.2007
 20
4.71047
 30
0
 11
18.2529
 21
4.71047
 31
0
  0
LINE
  5
B4E
330
A02
100
AcDbEntity
  8
Shape2DView
100
AcDbLine
 10
17.7507
 20
4.71047
 30
0
 11
17.7507
 21
3.81047
 31
0
  0
ELLIPSE
  5
B4F
330
A02
100
AcDbEntity
  8
Shape2DView
100
AcDbEllipse
 10
18.2007
 20
4.71047
 30
0
 11
0.449996
 21
7.86797e-08
 31
0
 40
4.37114e-08
 41
1.57079
 42
3.1416
  0
LINE
  5
B50
330
A02
100
AcDbEntity
  8
Shape2DView
100
AcDbLine
 10
17.7507
 20
3.81047
 30
0
 11
17.7507
 21
3.81046
 31
0
  0
LINE
  5
B51
330
A02
100
AcDbEntity
  8
Shape2DView
100
AcDbLine
 10
17.7507
 20
4.71047
 30
0
 11
17.7507
 21
3.81047
 31
0
  0
LINE
  5
B52
330
A02
100
AcDbEntity
  8
Shape2DView
100
AcDbLine
 10
17.7507
 20
-0.289534
 30
0
 11
17.7507
 21
4.71047
 31
0
  0
LINE
  5
B53
330
A02
100
AcDbEntity
  8
Shape2DView
100
AcDbLine
 10
17.7507
 20
-0.289534
 30
0
 11
17.7507
 21
-0.289534
 31
0
  0
LINE
  5
B54
330
A02
100
AcDbEntity
  8
Shape2DView
100
AcDbLine
 10
17.7507
 20
1.11047
 30
0
 11
17.7507
 21
-0.289534
 31
0
  0
LINE
  5
B55
330
A02
100
AcDbEntity
  8
Shape2DView
100
AcDbLine
 10
17.7507
 20
1.11047
 30
0
 11
17.7507
 21
1.11047
 31
0
  0
LINE
  5
B56
330
A02
100
AcDbEntity
  8
Shape2DView
100
AcDbLine
 10
17.7507
 20
1.26047
 30
0
 11
17.7507
 21
2.46047
 31
0
  0
SPLINE
  5
B57
330
A02
100
AcDbEntity
  8
Shape2DView
100
AcDbSpline
210
0
220
0
230
1
 70
8
 71
3
 72
8
 73
4
 74
0
 40
0
 40
0
 40
0
 40
0
 40
1.5709
 40
1.5709
 40
1.5709
 40
1.5709
 10
17.7507
 20
2.61046
 30
0
 10
17.7507
 20
2.61215
 30
0
 10
17.7507
 20
2.54064
 30
0
 10
17.7507
 20
2.46047
 30
0
  0
LINE
  5
B58
330
A02
100
AcDbEntity
  8
Shape2DView
100
AcDbLine
 10
17.7507
 20
2.61047
 30
0
 11
17.7507
 21
2.61046
 31
0
  0
LINE
  5
B59
330
A02
100
AcDbEntity
  8
Shape2DView
100
AcDbLine
 10
17.7507
 20
3.23642
 30
0
 11
17.7507
 21
2.61047
 31
0
  0
ELLIPSE
  5
B5A
330
A02
100
AcDbEntity
  8
Shape2DView
100
AcDbEllipse
 10
19.0207
 20
1.11047
 30
0
 11
-0.499983
 21
-8.74198e-08
 31
0
 40
4.37114e-08
 41
-1.43034
 42
-0.755937
  0
LINE
  5
B5B
330
A02
100
AcDbEntity
  8
Shape2DView
100
AcDbLine
 10
18.5891
 20
1.11047
 30
0
 11
18.6569
 21
1.11047
 31
0
  0
LINE
  5
B5C
330
A02
100
AcDbEntity
  8
Shape2DView
100
AcDbLine
 10
17.7507
 20
1.11047
 30
0
 11
17.7507
 21
1.11047
 31
0
  0
ELLIPSE
  5
B5D
330
A02
100
AcDbEntity
  8
Shape2DView
100
AcDbEllipse
 10
19.0207
 20
1.11047
 30
0
 11
0.799996
 21
1.39876e-07
 31
0
 40
4.37114e-08
 41
1.65841
 42
2.14064
  0
LINE
  5
B5E
330
A02
100
AcDbEntity
  8
Shape2DView
100
AcDbLine
 10
18.0507
 20
-0.289534
 30
0
 11
18.0507
 21
-0.289534
 31
0
  0
LINE
  5
B5F
330
A02
100
AcDbEntity
  8
Shape2DView
100
AcDbLine
 10
17.7507
 20
2.61047
 30
0
 11
17.7507
 21
2.61046
 31
0
  0
LINE
  5
B60
330
A02
100
AcDbEntity
  8
Shape2DView
100
AcDbLine
 10
17.7507
 20
3.81047
 30
0
 11
17.7507
 21
3.81046
 31
0
  0
LINE
  5
B61
330
A02
100
AcDbEntity
  8
Shape2DView
100
AcDbLine
 10
18.9515
 20
4.71047
 30
0
 11
19.2961
 21
4.71047
 31
0
  0
LINE
  5
B62
330
A02
100
AcDbEntity
  8
Shape2DView
100
AcDbLine
 10
19.3507
 20
4.71047
 30
0
 11
19.378
 21
4.71046
 31
0
  0
LINE
  5
B63
330
A02
100
AcDbEntity
  8
Shape2DView
100
AcDbLine
 10
19.5898
 20
4.56047
 30
0
 11
19.5898
 21
4.44047
 31
0
  0
LINE
  5
B64
330
A02
100
AcDbEntity
  8
Shape2DView
100
AcDbLine
 10
19.5898
 20
4.56047
 30
0
 11
19.5713
 21
4.56047
 31
0
  0
ELLIPSE
  5
B65
330
A02
100
AcDbEntity
  8
Shape2DView
100
AcDbEllipse
 10
18.7507
 20
4.71053
 30
0
 11
-0.299917
 21
1.53852e-05
 31
0
 40
0.000134048
 41
1.57053
 42
2.30404
  0
LINE
  5
B66
330
A02
100
AcDbEntity
  8
Shape2DView
100
AcDbLine
 10
18.2612
 20
4.71047
 30
0
 11
18.5961
 21
4.71047
 31
0
  0
ELLIPSE
  5
B67
330
A02
100
AcDbEntity
  8
Shape2DView
100
AcDbEllipse
 10
18.2007
 20
4.71047
 30
0
 11
-0.29999
 21
-5.68994e-06
 31
0
 40
1.87485e-05
 41
1.51247e-06
 42
1.0853
  0
LINE
  5
B68
330
A02
100
AcDbEntity
  8
Shape2DView
100
AcDbLine
 10
18.2007
 20
-0.289534
 30
0
 11
18.2707
 21
-0.289535
 31
0
  0
ELLIPSE
  5
B69
330
A02
100
AcDbEntity
  8
Shape2DView
100
AcDbEllipse
 10
18.2007
 20
-0.289534
 30
0
 11
0.449996
 21
7.86797e-08
 31
0
 40
4.37114e-08
 41
3.14159
 42
4.71239
  0
LINE
  5
B6A
330
A02
100
AcDbEntity
  8
Shape2DView
100
AcDbLine
 10
17.7507
 20
-0.289534
 30
0
 11
17.7507
 21
-0.289534
 31
0
  0
LINE
  5
B6B
330
A02
100
AcDbEntity
  8
Shape2DView
100
AcDbLine
 10
17.7507
 20
-0.289534
 30
0
 11
17.7507
 21
-0.289534
 31
0
  0
LINE
  5
B6C
330
A02
100
AcDbEntity
  8
Shape2DView
100
AcDbLine
 10
18.0507
 20
-0.289534
 30
0
 11
18.0507
 21
-0.289534
 31
0
  0
ELLIPSE
  5
B6D
330
A02
100
AcDbEntity
  8
Shape2DView
100
AcDbEllipse
 10
18.2707
 20
-0.439526
 30
0
 11
-0.149987
 21
-2.62246e-08
 31
0
 40
1
 41
3.14154
 42
4.71244
  0
LINE
  5
B6E
330
A02
100
AcDbEntity
  8
Shape2DView
100
AcDbLine
 10
18.4207
 20
-0.509534
 30
0
 11
18.4207
 21
-0.609534
 31
0
  0
LINE
  5
B6F
330
A02
100
AcDbEntity
  8
Shape2DView
100
AcDbLine
 10
18.4207
 20
-0.609534
 30
0
 11
18.4207
 21
-0.439534
 31
0
  0
SPLINE
  5
B70
330
A02
100
AcDbEntity
  8
Shape2DView
100
AcDbSpline
210
0
220
0
230
1
 70
8
 71
2
 72
6
 73
3
 74
0
 40
0
 40
0
 40
0
 40
0.171349
 40
0.171349
 40
0.171349
 10
18.6207
 20
-0.809532
 30
0
 10
18.5947
 20
-0.809665
 30
0
 10
18.5693
 20
-0.802821
 30
0
  0
SPLINE
  5
B71
330
A02
100
AcDbEntity
  8
Shape2DView
100
AcDbSpline
210
0
220
0
230
1
 70
8
 71
2
 72
6
 73
3
 74
0
 40
0.333703
 40
0.333703
 40
0.333703
 40
0.500021
 40
0.500021
 40
0.500021
 10
18.5226
 20
-0.783821
 30
0
 10
18.5009
 20
-0.771977
 30
0
 10
18.4828
 20
-0.754413
 30
0
  0
SPLINE
  5
B72
330
A02
100
AcDbEntity
  8
Shape2DView
100
AcDbSpline
210
0
220
0
230
1
 70
8
 71
2
 72
6
 73
3
 74
0
 40
0.667206
 40
0.667206
 40
0.667206
 40
0.833355
 40
0.833355
 40
0.833355
 10
18.4495
 20
-0.712837
 30
0
 10
18.4358
 20
-0.690625
 30
0
 10
18.4286
 20
-0.665267
 30
0
  0
SPLINE
  5
B73
330
A02
100
AcDbEntity
  8
Shape2DView
100
AcDbSpline
210
0
220
0
230
1
 70
8
 71
1
 72
4
 73
2
 74
0
 40
0.976255
 40
0.976255
 40
1
 40
1
 10
18.4209
 20
-0.617973
 30
0
 10
18.4207
 20
-0.609534
 30
0
  0
ELLIPSE
  5
B74
330
A02
100
AcDbEntity
  8
Shape2DView
100
AcDbEllipse
 10
18.6207
 20
-0.60954
 30
0
 11
0.199989
 21
3.49672e-08
 31
0
 40
1
 41
-3.14162
 42
-1.57076
  0
LINE
  5
B75
330
A02
100
AcDbEntity
  8
Shape2DView
100
AcDbLine
 10
18.6207
 20
-0.809532
 30
0
 11
24.3807
 21
-0.809531
 31
0
  0
LINE
  5
B76
330
A02
100
AcDbEntity
  8
Shape2DView
100
AcDbLine
 10
24.3807
 20
-0.809531
 30
0
 11
18.6207
 21
-0.809532
 31
0
  0
SPLINE
  5
B77
330
A02
100
AcDbEntity
  8
Shape2DView
100
AcDbSpline
210
0
220
0
230
1
 70
8
 71
1
 72
4
 73
2
 74
0
 40
0
 40
0
 40
0.0298364
 40
0.0298364
 10
24.5807
 20
-0.609533
 30
0
 10
24.5805
 20
-0.619522
 30
0
  0
SPLINE
  5
B78
330
A02
100
AcDbEntity
  8
Shape2DView
100
AcDbSpline
210
0
220
0
230
1
 70
8
 71
2
 72
6
 73
3
 74
0
 40
0.163883
 40
0.163883
 40
0.163883
 40
0.332458
 40
0.332458
 40
0.332458
 10
24.5736
 20
-0.662298
 30
0
 10
24.5669
 20
-0.6879
 30
0
 10
24.5529
 20
-0.71126
 30
0
  0
SPLINE
  5
B79
330
A02
100
AcDbEntity
  8
Shape2DView
100
AcDbSpline
210
0
220
0
230
1
 70
8
 71
2
 72
6
 73
3
 74
0
 40
0.500403
 40
0.500403
 40
0.500403
 40
0.66373
 40
0.66373
 40
0.66373
 10
24.5185
 20
-0.754501
 30
0
 10
24.5
 20
-0.772421
 30
0
 10
24.4778
 20
-0.784359
 30
0
  0
SPLINE
  5
B7A
330
A02
100
AcDbEntity
  8
Shape2DView
100
AcDbSpline
210
0
220
0
230
1
 70
8
 71
2
 72
6
 73
3
 74
0
 40
0.812386
 40
0.812386
 40
0.812386
 40
1
 40
1
 40
1
 10
24.4342
 20
-0.802257
 30
0
 10
24.4064
 20
-0.809944
 30
0
 10
24.3807
 20
-0.809531
 30
0
  0
ELLIPSE
  5
B7B
330
A02
100
AcDbEntity
  8
Shape2DView
100
AcDbEllipse
 10
24.3807
 20
-0.609539
 30
0
 11
0.199989
 21
3.49672e-08
 31
0
 40
1
 41
-1.57083
 42
-6.28315
  0
SPLINE
  5
B7C
330
A02
100
AcDbEntity
  8
Shape2DView
100
AcDbSpline
210
0
220
0
230
1
 70
8
 71
1
 72
4
 73
2
 74
0
 40
0
 40
0
 40
0.0298364
 40
0.0298364
 10
24.5807
 20
-0.609533
 30
0
 10
24.5805
 20
-0.619522
 30
0
  0
SPLINE
  5
B7D
330
A02
100
AcDbEntity
  8
Shape2DView
100
AcDbSpline
210
0
220
0
230
1
 70
8
 71
2
 72
6
 73
3
 74
0
 40
0.163883
 40
0.163883
 40
0.163883
 40
0.332458
 40
0.332458
 40
0.332458
 10
24.5736
 20
-0.662298
 30
0
 10
24.5669
 20
-0.6879
 30
0
 10
24.5529
 20
-0.71126
 30
0
  0
SPLINE
  5
B7E
330
A02
100
AcDbEntity
  8
Shape2DView
100
AcDbSpline
210
0
220
0
230
1
 70
8
 71
2
 72
6
 73
3
 74
0
 40
0.500403
 40
0.500403
 40
0.500403
 40
0.66373
 40
0.66373
 40
0.66373
 10
24.5185
 20
-0.754501
 30
0
 10
24.5
 20
-0.772421
 30
0
 10
24.4778
 20
-0.784359
 30
0
  0
SPLINE
  5
B7F
330
A02
100
AcDbEntity
  8
Shape2DView
100
AcDbSpline
210
0
220
0
230
1
 70
8
 71
2
 72
6
 73
3
 74
0
 40
0.812386
 40
0.812386
 40
0.812386
 40
1
 40
1
 40
1
 10
24.4342
 20
-0.802257
 30
0
 10
24.4064
 20
-0.809944
 30
0
 10
24.3807
 20
-0.809531
 30
0
  0
LINE
  5
B80
330
A02
100
AcDbEntity
  8
Shape2DView
100
AcDbLine
 10
24.5807
 20
-0.509533
 30
0
 11
24.5807
 21
-0.609533
 31
0
  0
LINE
  5
B81
330
A02
100
AcDbEntity
  8
Shape2DView
100
AcDbLine
 10
18.4207
 20
-0.509534
 30
0
 11
18.4207
 21
-0.609534
 31
0
  0
SPLINE
  5
B82
330
A02
100
AcDbEntity
  8
Shape2DView
100
AcDbSpline
210
0
220
0
230
1
 70
8
 71
2
 72
6
 73
3
 74
0
 40
0
 40
0
 40
0
 40
0.171349
 40
0.171349
 40
0.171349
 10
18.6207
 20
-0.809532
 30
0
 10
18.5947
 20
-0.809665
 30
0
 10
18.5693
 20
-0.802821
 30
0
  0
SPLINE
  5
B83
330
A02
100
AcDbEntity
  8
Shape2DView
100
AcDbSpline
210
0
220
0
230
1
 70
8
 71
2
 72
6
 73
3
 74
0
 40
0.333703
 40
0.333703
 40
0.333703
 40
0.500021
 40
0.500021
 40
0.500021
 10
18.5226
 20
-0.783821
 30
0
 10
18.5009
 20
-0.771977
 30
0
 10
18.4828
 20
-0.754413
 30
0
  0
SPLINE
  5
B84
330
A02
100
AcDbEntity
  8
Shape2DView
100
AcDbSpline
210
0
220
0
230
1
 70
8
 71
2
 72
6
 73
3
 74
0
 40
0.667206
 40
0.667206
 40
0.667206
 40
0.833355
 40
0.833355
 40
0.833355
 10
18.4495
 20
-0.712837
 30
0
 10
18.4358
 20
-0.690625
 30
0
 10
18.4286
 20
-0.665267
 30
0
  0
SPLINE
  5
B85
330
A02
100
AcDbEntity
  8
Shape2DView
100
AcDbSpline
210
0
220
0
230
1
 70
8
 71
1
 72
4
 73
2
 74
0
 40
0.976255
 40
0.976255
 40
1
 40
1
 10
18.4209
 20
-0.617973
 30
0
 10
18.4207
 20
-0.609534
 30
0
  0
LINE
  5
B86
330
A02
100
AcDbEntity
  8
Shape2DView
100
AcDbLine
 10
24.3807
 20
-0.809531
 30
0
 11
18.6207
 21
-0.809532
 31
0
  0
LINE
  5
B87
330
A02
100
AcDbEntity
  8
Shape2DView
100
AcDbLine
 10
24.5807
 20
-0.509533
 30
0
 11
24.5807
 21
-0.609533
 31
0
  0
LINE
  5
B88
330
A02
100
AcDbEntity
  8
Shape2DView
100
AcDbLine
 10
24.5807
 20
-0.609533
 30
0
 11
24.5807
 21
-0.439533
 31
0
  0
ELLIPSE
  5
B89
330
A02
100
AcDbEntity
  8
Shape2DView
100
AcDbEllipse
 10
24.7307
 20
-0.439525
 30
0
 11
-0.149987
 21
-2.62246e-08
 31
0
 40
1
 41
4.71234
 42
5.29833e-05
  0
LINE
  5
B8A
330
A02
100
AcDbEntity
  8
Shape2DView
100
AcDbLine
 10
24.9507
 20
-0.289533
 30
0
 11
24.9507
 21
-0.289533
 31
0
  0
LINE
  5
B8B
330
A02
100
AcDbEntity
  8
Shape2DView
100
AcDbLine
 10
25.2507
 20
-0.289533
 30
0
 11
25.2507
 21
-0.289533
 31
0
  0
LINE
  5
B8C
330
A02
100
AcDbEntity
  8
Shape2DView
100
AcDbLine
 10
25.2507
 20
-0.289533
 30
0
 11
25.2507
 21
-0.289533
 31
0
  0
ELLIPSE
  5
B8D
330
A02
100
AcDbEntity
  8
Shape2DView
100
AcDbEllipse
 10
24.8007
 20
-0.289533
 30
0
 11
0.449996
 21
7.86797e-08
 31
0
 40
4.37114e-08
 41
4.71238
 42
4.16707e-06
  0
LINE
  5
B8E
330
A02
100
AcDbEntity
  8
Shape2DView
100
AcDbLine
 10
24.7307
 20
-0.289534
 30
0
 11
24.8007
 21
-0.289533
 31
0
  0
LINE
  5
B8F
330
A02
100
AcDbEntity
  8
Shape2DView
100
AcDbLine
 10
24.8007
 20
-0.289533
 30
0
 11
24.8007
 21
4.71047
 31
0
  0
ELLIPSE
  5
B90
330
A02
100
AcDbEntity
  8
Shape2DView
100
AcDbEllipse
 10
24.8007
 20
-0.289533
 30
0
 11
0.449996
 21
7.86797e-08
 31
0
 40
4.37114e-08
 41
4.71238
 42
4.16707e-06
  0
LINE
  5
B91
330
A02
100
AcDbEntity
  8
Shape2DView
100
AcDbLine
 10
25.2507
 20
4.71047
 30
0
 11
25.2507
 21
-0.289533
 31
0
  0
ELLIPSE
  5
B92
330
A02
100
AcDbEntity
  8
Shape2DView
100
AcDbEllipse
 10
24.8007
 20
4.71047
 30
0
 11
0.449996
 21
7.86797e-08
 31
0
 40
4.37114e-08
 41
4.71238
 42
4.16707e-06
  0
LINE
  5
B93
330
A02
100
AcDbEntity
  8
Shape2DView
100
AcDbLine
 10
25.2507
 20
3.81047
 30
0
 11
25.2507
 21
3.81047
 31
0
  0
LINE
  5
B94
330
A02
100
AcDbEntity
  8
Shape2DView
100
AcDbLine
 10
25.2507
 20
3.81047
 30
0
 11
25.2507
 21
4.71047
 31
0
  0
LINE
  5
B95
330
A02
100
AcDbEntity
  8
Shape2DView
100
AcDbLine
 10
25.2507
 20
4.71047
 30
0
 11
25.2507
 21
-0.289533
 31
0
  0
LINE
  5
B96
330
A02
100
AcDbEntity
  8
Shape2DView
100
AcDbLine
 10
25.2507
 20
-0.289533
 30
0
 11
25.2507
 21
-0.289533
 31
0
  0
LINE
  5
B97
330
A02
100
AcDbEntity
  8
Shape2DView
100
AcDbLine
 10
25.2507
 20
-0.289533
 30
0
 11
25.2507
 21
1.11047
 31
0
  0
LINE
  5
B98
330
A02
100
AcDbEntity
  8
Shape2DView
100
AcDbLine
 10
25.2507
 20
1.11047
 30
0
 11
25.2507
 21
1.11047
 31
0
  0
LINE
  5
B99
330
A02
100
AcDbEntity
  8
Shape2DView
100
AcDbLine
 10
25.2507
 20
2.46047
 30
0
 11
25.2507
 21
1.26047
 31
0
  0
SPLINE
  5
B9A
330
A02
100
AcDbEntity
  8
Shape2DView
100
AcDbSpline
210
0
220
0
230
1
 70
8
 71
3
 72
8
 73
4
 74
0
 40
0
 40
0
 40
0
 40
0
 40
1.5709
 40
1.5709
 40
1.5709
 40
1.5709
 10
25.2507
 20
2.61046
 30
0
 10
25.2507
 20
2.61215
 30
0
 10
25.2507
 20
2.54065
 30
0
 10
25.2507
 20
2.46047
 30
0
  0
LINE
  5
B9B
330
A02
100
AcDbEntity
  8
Shape2DView
100
AcDbLine
 10
25.2507
 20
2.61047
 30
0
 11
25.2507
 21
2.61047
 31
0
  0
LINE
  5
B9C
330
A02
100
AcDbEntity
  8
Shape2DView
100
AcDbLine
 10
25.2507
 20
2.61047
 30
0
 11
25.2507
 21
3.23642
 31
0
  0
LINE
  5
B9D
330
A02
100
AcDbEntity
  8
Shape2DView
100
AcDbLine
 10
25.2507
 20
2.61047
 30
0
 11
25.2507
 21
2.61047
 31
0
  0
ELLIPSE
  5
B9E
330
A02
100
AcDbEntity
  8
Shape2DView
100
AcDbEllipse
 10
23.9807
 20
1.11047
 30
0
 11
0.799996
 21
1.39876e-07
 31
0
 40
4.37114e-08
 41
1.00095
 42
1.48319
  0
LINE
  5
B9F
330
A02
100
AcDbEntity
  8
Shape2DView
100
AcDbLine
 10
25.2507
 20
1.11047
 30
0
 11
25.2507
 21
1.11047
 31
0
  0
LINE
  5
BA0
330
A02
100
AcDbEntity
  8
Shape2DView
100
AcDbLine
 10
24.3445
 20
1.11047
 30
0
 11
24.4123
 21
1.11047
 31
0
  0
ELLIPSE
  5
BA1
330
A02
100
AcDbEntity
  8
Shape2DView
100
AcDbEllipse
 10
23.9807
 20
1.11047
 30
0
 11
-0.499983
 21
-8.74198e-08
 31
0
 40
4.37114e-08
 41
-2.38566
 42
-1.71125
  0
LINE
  5
BA2
330
A02
100
AcDbEntity
  8
Shape2DView
100
AcDbLine
 10
24.9507
 20
-0.289533
 30
0
 11
24.9507
 21
-0.289533
 31
0
  0
LINE
  5
BA3
330
A02
100
AcDbEntity
  8
Shape2DView
100
AcDbLine
 10
24.9507
 20
-0.289533
 30
0
 11
24.9507
 21
1.11047
 31
0
  0
ELLIPSE
  5
BA4
330
A02
100
AcDbEntity
  8
Shape2DView
100
AcDbEllipse
 10
24.0507
 20
1.31048
 30
0
 11
-0.0999839
 21
-1.74817e-08
 31
0
 40
1
 41
4.71229
 42
9.87348e-05
  0
LINE
  5
BA5
330
A02
100
AcDbEntity
  8
Shape2DView
100
AcDbLine
 10
24.0507
 20
1.41047
 30
0
 11
24.2372
 21
1.41047
 31
0
  0
LINE
  5
BA6
330
A02
100
AcDbEntity
  8
Shape2DView
100
AcDbLine
 10
24.2372
 20
1.41047
 30
0
 11
24.2372
 21
2.11839
 31
0
  0
LINE
  5
BA7
330
A02
100
AcDbEntity
  8
Shape2DView
100
AcDbLine
 10
23.9807
 20
1.13905
 30
0
 11
23.9807
 21
0.610467
 31
0
  0
ELLIPSE
  5
BA8
330
A02
100
AcDbEntity
  8
Shape2DView
100
AcDbEllipse
 10
24.0507
 20
1.21046
 30
0
 11
-0.0999839
 21
-1.74817e-08
 31
0
 40
1
 41
6.28309
 42
0.7954
  0
LINE
  5
BA9
330
A02
100
AcDbEntity
  8
Shape2DView
100
AcDbLine
 10
23.9507
 20
1.21047
 30
0
 11
23.9507
 21
1.31047
 31
0
  0
ELLIPSE
  5
BAA
330
A02
100
AcDbEntity
  8
Shape2DView
100
AcDbEllipse
 10
21.6107
 20
-0.780289
 30
0
 11
0.149987
 21
2.62246e-08
 31
0
 40
0.798635
 41
-2.89497
 42
-1.57074
  0
LINE
  5
BAB
330
A02
100
AcDbEntity
  8
Shape2DView
100
AcDbLine
 10
23.7507
 20
-0.900074
 30
0
 11
23.7507
 21
-0.900076
 31
0
  0
LINE
  5
BAC
330
A02
100
AcDbEntity
  8
Shape2DView
100
AcDbLine
 10
23.7507
 20
-0.900076
 30
0
 11
21.6107
 21
-0.900076
 31
0
  0
ELLIPSE
  5
BAD
330
A02
100
AcDbEntity
  8
Shape2DView
100
AcDbEllipse
 10
23.7507
 20
-0.740355
 30
0
 11
0.199989
 21
3.49672e-08
 31
0
 40
0.798635
 41
-1.57083
 42
-0.447944
  0
ELLIPSE
  5
BAE
330
A02
100
AcDbEntity
  8
Shape2DView
100
AcDbEllipse
 10
21.6107
 20
-0.780289
 30
0
 11
0.149987
 21
2.62246e-08
 31
0
 40
0.798635
 41
-2.89497
 42
-1.57074
  0
LINE
  5
BAF
330
A02
100
AcDbEntity
  8
Shape2DView
100
AcDbLine
 10
23.7507
 20
-0.900076
 30
0
 11
21.6107
 21
-0.900076
 31
0
  0
LINE
  5
BB0
330
A02
100
AcDbEntity
  8
Shape2DView
100
AcDbLine
 10
24.9507
 20
-0.289533
 30
0
 11
25.0694
 21
-0.289533
 31
0
  0
LINE
  5
BB1
330
A02
100
AcDbEntity
  8
Shape2DView
100
AcDbLine
 10
25.2507
 20
-0.289533
 30
0
 11
25.2507
 21
-0.289533
 31
0
  0
LINE
  5
BB2
330
A02
100
AcDbEntity
  8
Shape2DView
100
AcDbLine
 10
25.2507
 20
-0.289533
 30
0
 11
25.2507
 21
1.11047
 31
0
  0
ELLIPSE
  5
BB3
330
A02
100
AcDbEntity
  8
Shape2DView
100
AcDbEllipse
 10
23.9807
 20
1.11047
 30
0
 11
0.799996
 21
1.39876e-07
 31
0
 40
4.37114e-08
 41
1.00095
 42
1.48319
  0
SPLINE
  5
BB4
330
A02
100
AcDbEntity
  8
Shape2DView
100
AcDbSpline
210
0
220
0
230
1
 70
8
 71
1
 72
4
 73
2
 74
0
 40
2.73358e-07
 40
2.73358e-07
 40
0.00245554
 40
0.00245554
 10
24.0507
 20
1.11047
 30
0
 10
24.0505
 20
1.11047
 30
0
  0
SPLINE
  5
BB5
330
A02
100
AcDbEntity
  8
Shape2DView
100
AcDbSpline
210
0
220
0
230
1
 70
8
 71
1
 72
4
 73
2
 74
0
 40
0.344054
 40
0.344054
 40
0.661065
 40
0.661065
 10
24.0246
 20
1.11395
 30
0
 10
24.0015
 20
1.12339
 30
0
  0
ELLIPSE
  5
BB6
330
A02
100
AcDbEntity
  8
Shape2DView
100
AcDbEllipse
 10
24.0507
 20
1.21046
 30
0
 11
-0.0999839
 21
-1.74817e-08
 31
0
 40
1
 41
6.28309
 42
0.7954
  0
SPLINE
  5
BB7
330
A02
100
AcDbEntity
  8
Shape2DView
100
AcDbSpline
210
0
220
0
230
1
 70
8
 71
1
 72
4
 73
2
 74
0
 40
0
 40
0
 40
0.00245554
 40
0.00245554
 10
24.0507
 20
1.11047
 30
0
 10
24.0505
 20
1.11047
 30
0
  0
SPLINE
  5
BB8
330
A02
100
AcDbEntity
  8
Shape2DView
100
AcDbSpline
210
0
220
0
230
1
 70
8
 71
1
 72
4
 73
2
 74
0
 40
0.344054
 40
0.344054
 40
0.661065
 40
0.661065
 10
24.0246
 20
1.11395
 30
0
 10
24.0015
 20
1.12339
 30
0
  0
SPLINE
  5
BB9
330
A02
100
AcDbEntity
  8
Shape2DView
100
AcDbSpline
210
0
220
0
230
1
 70
8
 71
2
 72
6
 73
3
 74
0
 40
0
 40
0
 40
0
 40
1
 40
1
 40
1
 10
23.9807
 20
1.13905
 30
0
 10
24.0101
 20
1.11104
 30
0
 10
24.0507
 20
1.11047
 30
0
  0
ELLIPSE
  5
BBA
330
A02
100
AcDbEntity
  8
Shape2DView
100
AcDbEllipse
 10
24.0507
 20
1.21046
 30
0
 11
-0.0999839
 21
-1.74817e-08
 31
0
 40
1
 41
6.28309
 42
0.7954
  0
LINE
  5
BBB
330
A02
100
AcDbEntity
  8
Shape2DView
100
AcDbLine
 10
23.9507
 20
1.21047
 30
0
 11
23.9507
 21
1.31047
 31
0
  0
ELLIPSE
  5
BBC
330
A02
100
AcDbEntity
  8
Shape2DView
100
AcDbEllipse
 10
24.0507
 20
1.31048
 30
0
 11
-0.0999839
 21
-1.74817e-08
 31
0
 40
1
 41
4.71229
 42
9.87348e-05
  0
LINE
  5
BBD
330
A02
100
AcDbEntity
  8
Shape2DView
100
AcDbLine
 10
24.0507
 20
1.41047
 30
0
 11
24.2372
 21
1.41047
 31
0
  0
LINE
  5
BBE
330
A02
100
AcDbEntity
  8
Shape2DView
100
AcDbLine
 10
25.2958
 20
1.41047
 30
0
 11
25.2507
 21
1.41047
 31
0
  0
LINE
  5
BBF
330
A02
100
AcDbEntity
  8
Shape2DView
100
AcDbLine
 10
25.3063
 20
1.41047
 30
0
 11
25.2958
 21
1.41047
 31
0
  0
LINE
  5
BC0
330
A02
100
AcDbEntity
  8
Shape2DView
100
AcDbLine
 10
25.2507
 20
1.41047
 30
0
 11
25.3063
 21
1.41047
 31
0
  0
ELLIPSE
  5
BC1
330
A02
100
AcDbEntity
  8
Shape2DView
100
AcDbEllipse
 10
24.2372
 20
1.41047
 30
0
 11
0.950028
 21
1.66108e-07
 31
0
 40
4.37114e-08
 41
4.71239
 42
4.73185
  0
ELLIPSE
  5
BC2
330
A02
100
AcDbEntity
  8
Shape2DView
100
AcDbEllipse
 10
24.2372
 20
1.41047
 30
0
 11
0.950028
 21
1.66108e-07
 31
0
 40
4.37114e-08
 41
4.71239
 42
4.73185
  0
LINE
  5
BC3
330
A02
100
AcDbEntity
  8
Shape2DView
100
AcDbLine
 10
24.2372
 20
1.41047
 30
0
 11
24.2372
 21
2.11839
 31
0
  0
LINE
  5
BC4
330
A02
100
AcDbEntity
  8
Shape2DView
100
AcDbLine
 10
25.2958
 20
2.31047
 30
0
 11
25.2507
 21
2.31047
 31
0
  0
LINE
  5
BC5
330
A02
100
AcDbEntity
  8
Shape2DView
100
AcDbLine
 10
25.3063
 20
2.31047
 30
0
 11
25.2958
 21
2.31047
 31
0
  0
LINE
  5
BC6
330
A02
100
AcDbEntity
  8
Shape2DView
100
AcDbLine
 10
25.2507
 20
2.31047
 30
0
 11
25.3063
 21
2.31047
 31
0
  0
ELLIPSE
  5
BC7
330
A02
100
AcDbEntity
  8
Shape2DView
100
AcDbEllipse
 10
24.0507
 20
1.21046
 30
0
 11
-0.0999839
 21
-1.74817e-08
 31
0
 40
1
 41
6.28309
 42
0.7954
  0
LINE
  5
BC8
330
A02
100
AcDbEntity
  8
Shape2DView
100
AcDbLine
 10
25.2958
 20
2.31047
 30
0
 11
25.2507
 21
2.31047
 31
0
  0
LINE
  5
BC9
330
A02
100
AcDbEntity
  8
Shape2DView
100
AcDbLine
 10
25.2958
 20
1.41047
 30
0
 11
25.2507
 21
1.41047
 31
0
  0
ELLIPSE
  5
BCA
330
A02
100
AcDbEntity
  8
Shape2DView
100
AcDbEllipse
 10
25.3063
 20
1.56046
 30
0
 11
1.60299e-07
 21
0.149987
 31
0
 40
0.999391
 41
-3.14164
 42
-1.57074
  0
LINE
  5
BCB
330
A02
100
AcDbEntity
  8
Shape2DView
100
AcDbLine
 10
25.3063
 20
1.41047
 30
0
 11
25.2958
 21
1.41047
 31
0
  0
ELLIPSE
  5
BCC
330
A02
100
AcDbEntity
  8
Shape2DView
100
AcDbEllipse
 10
25.3063
 20
1.56046
 30
0
 11
1.60299e-07
 21
0.149987
 31
0
 40
0.999391
 41
-3.14164
 42
-1.57074
  0
LINE
  5
BCD
330
A02
100
AcDbEntity
  8
Shape2DView
100
AcDbLine
 10
25.4562
 20
1.56047
 30
0
 11
25.4562
 21
2.16047
 31
0
  0
ELLIPSE
  5
BCE
330
A02
100
AcDbEntity
  8
Shape2DView
100
AcDbEllipse
 10
25.3063
 20
2.16048
 30
0
 11
1.61511e-07
 21
0.149987
 31
0
 40
0.999391
 41
-1.57085
 42
-6.28313
  0
LINE
  5
BCF
330
A02
100
AcDbEntity
  8
Shape2DView
100
AcDbLine
 10
25.2507
 20
2.31047
 30
0
 11
25.3063
 21
2.31047
 31
0
  0
LINE
  5
BD0
330
A02
100
AcDbEntity
  8
Shape2DView
100
AcDbLine
 10
25.2507
 20
1.41047
 30
0
 11
25.3063
 21
1.41047
 31
0
  0
LINE
  5
BD1
330
A02
100
AcDbEntity
  8
Shape2DView
100
AcDbLine
 10
25.3063
 20
2.31047
 30
0
 11
25.2958
 21
2.31047
 31
0
  0
ELLIPSE
  5
BD2
330
A02
100
AcDbEntity
  8
Shape2DView
100
AcDbEllipse
 10
25.3063
 20
2.16048
 30
0
 11
1.61511e-07
 21
0.149987
 31
0
 40
0.999391
 41
-1.57085
 42
-6.28313
  0
LINE
  5
BD3
330
A02
100
AcDbEntity
  8
Shape2DView
100
AcDbLine
 10
25.4562
 20
2.16047
 30
0
 11
25.4562
 21
2.16047
 31
0
  0
LINE
  5
BD4
330
A02
100
AcDbEntity
  8
Shape2DView
100
AcDbLine
 10
25.4562
 20
1.56047
 30
0
 11
25.4562
 21
2.16047
 31
0
  0
LINE
  5
BD5
330
A02
100
AcDbEntity
  8
Shape2DView
100
AcDbLine
 10
25.4562
 20
2.16047
 30
0
 11
25.4562
 21
2.16047
 31
0
  0
LINE
  5
BD6
330
A02
100
AcDbEntity
  8
Shape2DView
100
AcDbLine
 10
25.2507
 20
2.61047
 30
0
 11
25.2507
 21
3.23642
 31
0
  0
LINE
  5
BD7
330
A02
100
AcDbEntity
  8
Shape2DView
100
AcDbLine
 10
25.2507
 20
3.81047
 30
0
 11
25.2507
 21
3.81047
 31
0
  0
LINE
  5
BD8
330
A02
100
AcDbEntity
  8
Shape2DView
100
AcDbLine
 10
23.6234
 20
4.71047
 30
0
 11
23.6507
 21
4.71047
 31
0
  0
LINE
  5
BD9
330
A02
100
AcDbEntity
  8
Shape2DView
100
AcDbLine
 10
23.7061
 20
4.71047
 30
0
 11
24.05
 21
4.71047
 31
0
  0
LINE
  5
BDA
330
A02
100
AcDbEntity
  8
Shape2DView
100
AcDbLine
 10
23.4301
 20
4.56047
 30
0
 11
23.4116
 21
4.56047
 31
0
  0
LINE
  5
BDB
330
A02
100
AcDbEntity
  8
Shape2DView
100
AcDbLine
 10
23.5231
 20
4.71047
 30
0
 11
23.6234
 21
4.71047
 31
0
  0
ELLIPSE
  5
BDC
330
A02
100
AcDbEntity
  8
Shape2DView
100
AcDbEllipse
 10
23.5231
 20
4.56048
 30
0
 11
-5.07889e-08
 21
0.149987
 31
0
 40
0.743145
 41
-5.28422e-05
 42
-4.71234
  0
LINE
  5
BDD
330
A02
100
AcDbEntity
  8
Shape2DView
100
AcDbLine
 10
23.4116
 20
4.56047
 30
0
 11
23.4116
 21
4.44047
 31
0
  0
LINE
  5
BDE
330
A02
100
AcDbEntity
  8
Shape2DView
100
AcDbLine
 10
23.6483
 20
4.71047
 30
0
 11
23.5231
 21
4.71047
 31
0
  0
ELLIPSE
  5
BDF
330
A02
100
AcDbEntity
  8
Shape2DView
100
AcDbEllipse
 10
23.5231
 20
4.56048
 30
0
 11
-5.07889e-08
 21
0.149987
 31
0
 40
0.743145
 41
-5.28423e-05
 42
-4.71234
  0
LINE
  5
BE0
330
A02
100
AcDbEntity
  8
Shape2DView
100
AcDbLine
 10
23.4301
 20
4.56047
 30
0
 11
23.4116
 21
4.56047
 31
0
  0
LINE
  5
BE1
330
A02
100
AcDbEntity
  8
Shape2DView
100
AcDbLine
 10
23.4116
 20
4.56047
 30
0
 11
23.4116
 21
4.44047
 31
0
  0
LINE
  5
BE2
330
A02
100
AcDbEntity
  8
Shape2DView
100
AcDbLine
 10
24.7484
 20
4.71047
 30
0
 11
24.8007
 21
4.71047
 31
0
  0
ELLIPSE
  5
BE3
330
A02
100
AcDbEntity
  8
Shape2DView
100
AcDbEllipse
 10
24.8007
 20
4.71047
 30
0
 11
0.449996
 21
7.86797e-08
 31
0
 40
4.37114e-08
 41
6.28318
 42
1.5708
  0
LINE
  5
BE4
330
A02
100
AcDbEntity
  8
Shape2DView
100
AcDbLine
 10
25.2507
 20
3.81047
 30
0
 11
25.2507
 21
4.71047
 31
0
  0
ELLIPSE
  5
BE5
330
A02
100
AcDbEntity
  8
Shape2DView
100
AcDbEllipse
 10
24.2507
 20
4.71053
 30
0
 11
-0.299913
 21
-1.54895e-05
 31
0
 40
0.000134045
 41
0.837495
 42
1.57113
  0
LINE
  5
BE6
330
A02
100
AcDbEntity
  8
Shape2DView
100
AcDbLine
 10
24.4053
 20
4.71047
 30
0
 11
24.7394
 21
4.71047
 31
0
  0
LINE
  5
BE7
330
A02
100
AcDbEntity
  8
Shape2DView
100
AcDbLine
 10
24.741
 20
4.71047
 30
0
 11
24.7437
 21
4.71047
 31
0
  0
ELLIPSE
  5
BE8
330
A02
100
AcDbEntity
  8
Shape2DView
100
AcDbEllipse
 10
24.8007
 20
4.71047
 30
0
 11
-0.29999
 21
5.55222e-06
 31
0
 40
1.87267e-05
 41
-4.71233
 42
-3.14159
  0
LINE
  5
BE9
330
A02
100
AcDbEntity
  8
Shape2DView
100
AcDbLine
 10
24.4053
 20
4.71047
 30
0
 11
24.7547
 21
4.71047
 31
0
  0
ELLIPSE
  5
BEA
330
A02
100
AcDbEntity
  8
Shape2DView
100
AcDbEllipse
 10
23.9807
 20
1.11047
 30
0
 11
-0.499983
 21
-8.74198e-08
 31
0
 40
4.37114e-08
 41
-2.38566
 42
-1.71125
  0
LINE
  5
BEB
330
A02
100
AcDbEntity
  8
Shape2DView
100
AcDbLine
 10
24.3445
 20
0.662257
 30
0
 11
24.3445
 21
1.11047
 31
0
  0
LINE
  5
BEC
330
A02
100
AcDbEntity
  8
Shape2DView
100
AcDbLine
 10
23.9807
 20
1.13905
 30
0
 11
23.9807
 21
0.610467
 31
0
  0
SPLINE
  5
BED
330
A02
100
AcDbEntity
  8
Shape2DView
100
AcDbSpline
210
0
220
0
230
1
 70
8
 71
2
 72
6
 73
3
 74
0
 40
0
 40
0
 40
0
 40
0.999998
 40
0.999998
 40
0.999998
 10
23.9807
 20
1.13905
 30
0
 10
24.0101
 20
1.11104
 30
0
 10
24.0507
 20
1.11047
 30
0
  0
LINE
  5
BEE
330
A02
100
AcDbEntity
  8
Shape2DView
100
AcDbLine
 10
24.3445
 20
1.11047
 30
0
 11
24.4123
 21
1.11047
 31
0
  0
LINE
  5
BEF
330
A02
100
AcDbEntity
  8
Shape2DView
100
AcDbLine
 10
24.3445
 20
0.662257
 30
0
 11
24.3445
 21
1.11047
 31
0
  0
LINE
  5
BF0
330
A02
100
AcDbEntity
  8
Shape2DView
100
AcDbLine
 10
24.9507
 20
-0.289533
 30
0
 11
24.9507
 21
1.11047
 31
0
  0
LINE
  5
BF1
330
A02
100
AcDbEntity
  8
Shape2DView
100
AcDbLine
 10
25.0692
 20
-0.580623
 30
0
 11
25.0313
 21
-0.530257
 31
0
  0
LINE
  5
BF2
330
A02
100
AcDbEntity
  8
Shape2DView
100
AcDbLine
 10
24.9507
 20
-0.289533
 30
0
 11
25.0694
 21
-0.289533
 31
0
  0
LINE
  5
BF3
330
A02
100
AcDbEntity
  8
Shape2DView
100
AcDbLine
 10
25.2507
 20
-0.289533
 30
0
 11
25.2507
 21
-0.289533
 31
0
  0
LINE
  5
BF4
330
A02
100
AcDbEntity
  8
Shape2DView
100
AcDbLine
 10
25.1896
 20
-0.740349
 30
0
 11
25.4292
 21
-0.559804
 31
0
  0
LINE
  5
BF5
330
A02
100
AcDbEntity
  8
Shape2DView
100
AcDbLine
 10
25.0692
 20
-0.580623
 30
0
 11
25.0313
 21
-0.530257
 31
0
  0
LINE
  5
BF6
330
A02
100
AcDbEntity
  8
Shape2DView
100
AcDbLine
 10
25.0692
 20
-0.580623
 30
0
 11
25.0313
 21
-0.530257
 31
0
  0
ELLIPSE
  5
BF7
330
A02
100
AcDbEntity
  8
Shape2DView
100
AcDbEllipse
 10
25.0692
 20
-0.580628
 30
0
 11
-0.120356
 21
0.159718
 31
0
 40
2.63942e-08
 41
-4.71242
 42
-3.14156
  0
ELLIPSE
  5
BF8
330
A02
100
AcDbEntity
  8
Shape2DView
100
AcDbEllipse
 10
25.0692
 20
-0.580628
 30
0
 11
-0.120356
 21
0.159718
 31
0
 40
2.63942e-08
 41
-4.71242
 42
-3.14156
  0
LINE
  5
BF9
330
A02
100
AcDbEntity
  8
Shape2DView
100
AcDbLine
 10
25.4292
 20
-0.559804
 30
0
 11
25.1896
 21
-0.740349
 31
0
  0
ELLIPSE
  5
BFA
330
A02
100
AcDbEntity
  8
Shape2DView
100
AcDbEllipse
 10
25.3088
 20
-0.400084
 30
0
 11
-0.120356
 21
0.159718
 31
0
 40
2.63942e-08
 41
-4.71242
 42
-3.14156
  0
LINE
  5
BFB
330
A02
100
AcDbEntity
  8
Shape2DView
100
AcDbLine
 10
25.3088
 20
-0.400078
 30
0
 11
25.0692
 21
-0.580623
 31
0
  0
ELLIPSE
  5
BFC
330
A02
100
AcDbEntity
  8
Shape2DView
100
AcDbEllipse
 10
25.3088
 20
-0.400084
 30
0
 11
-0.120356
 21
0.159718
 31
0
 40
2.61042e-08
 41
-3.14162
 42
-1.57076
  0
LINE
  5
BFD
330
A02
100
AcDbEntity
  8
Shape2DView
100
AcDbLine
 10
25.2708
 20
-0.349713
 30
0
 11
25.3088
 21
-0.400078
 31
0
  0
ELLIPSE
  5
BFE
330
A02
100
AcDbEntity
  8
Shape2DView
100
AcDbEllipse
 10
25.3088
 20
-0.400084
 30
0
 11
-0.120356
 21
0.159718
 31
0
 40
2.63942e-08
 41
-4.71242
 42
-3.14156
  0
ELLIPSE
  5
BFF
330
A02
100
AcDbEntity
  8
Shape2DView
100
AcDbEllipse
 10
25.3507
 20
-0.289543
 30
0
 11
0.39996
 21
6.99312e-08
 31
0
 40
1
 41
-3.14162
 42
-2.4958
  0
LINE
  5
C00
330
A02
100
AcDbEntity
  8
Shape2DView
100
AcDbLine
 10
25.0692
 20
-0.580623
 30
0
 11
25.0313
 21
-0.530257
 31
0
  0
LINE
  5
C01
330
A02
100
AcDbEntity
  8
Shape2DView
100
AcDbLine
 10
25.3088
 20
-0.400078
 30
0
 11
25.0692
 21
-0.580623
 31
0
  0
LINE
  5
C02
330
A02
100
AcDbEntity
  8
Shape2DView
100
AcDbLine
 10
25.2708
 20
-0.349713
 30
0
 11
25.3088
 21
-0.400078
 31
0
  0
ELLIPSE
  5
C03
330
A02
100
AcDbEntity
  8
Shape2DView
100
AcDbEllipse
 10
25.3506
 20
-0.289574
 30
0
 11
-0.0998692
 21
-1.74617e-08
 31
0
 40
1
 41
6.28277
 42
0.646187
  0
LINE
  5
C04
330
A02
100
AcDbEntity
  8
Shape2DView
100
AcDbLine
 10
25.2507
 20
-0.289533
 30
0
 11
25.2507
 21
-0.289533
 31
0
  0
ELLIPSE
  5
C05
330
A02
100
AcDbEntity
  8
Shape2DView
100
AcDbEllipse
 10
25.3507
 20
-0.289543
 30
0
 11
0.39996
 21
6.99312e-08
 31
0
 40
1
 41
-3.14162
 42
-2.4958
  0
ELLIPSE
  5
C06
330
A02
100
AcDbEntity
  8
Shape2DView
100
AcDbEllipse
 10
25.3506
 20
-0.289574
 30
0
 11
-0.0998692
 21
-1.74617e-08
 31
0
 40
1
 41
6.28277
 42
0.646187
  0
ELLIPSE
  5
C07
330
A02
100
AcDbEntity
  8
Shape2DView
100
AcDbEllipse
 10
25.3506
 20
-0.289574
 30
0
 11
-0.0998692
 21
-1.74617e-08
 31
0
 40
1
 41
6.28277
 42
0.646187
  0
LINE
  5
C08
330
A02
100
AcDbEntity
  8
Shape2DView
100
AcDbLine
 10
25.1896
 20
-0.740349
 30
0
 11
25.4292
 21
-0.559804
 31
0
  0
LINE
  5
C09
330
A02
100
AcDbEntity
  8
Shape2DView
100
AcDbLine
 10
25.4292
 20
-0.559804
 30
0
 11
25.1896
 21
-0.740349
 31
0
  0
ELLIPSE
  5
C0A
330
A02
100
AcDbEntity
  8
Shape2DView
100
AcDbEllipse
 10
23.7507
 20
-0.740355
 30
0
 11
0.199989
 21
3.49672e-08
 31
0
 40
0.798635
 41
-1.57083
 42
-0.447944
  0
LINE
  5
C0B
330
A02
100
AcDbEntity
  8
Shape2DView
100
AcDbLine
 10
17.7507
 20
-0.289534
 30
0
 11
17.7507
 21
-0.289534
 31
0
  0
ELLIPSE
  5
C0C
330
A02
100
AcDbEntity
  8
Shape2DView
100
AcDbEllipse
 10
17.6508
 20
-0.289575
 30
0
 11
-0.0998692
 21
-1.74617e-08
 31
0
 40
1
 41
2.49541
 42
3.14201
  0
LINE
  5
C0D
330
A02
100
AcDbEntity
  8
Shape2DView
100
AcDbLine
 10
17.6926
 20
-0.40008
 30
0
 11
17.7306
 21
-0.349714
 31
0
  0
LINE
  5
C0E
330
A02
100
AcDbEntity
  8
Shape2DView
100
AcDbLine
 10
17.6926
 20
-0.40008
 30
0
 11
17.9322
 21
-0.580624
 31
0
  0
LINE
  5
C0F
330
A02
100
AcDbEntity
  8
Shape2DView
100
AcDbLine
 10
17.9322
 20
-0.580624
 30
0
 11
17.9702
 21
-0.530258
 31
0
  0
ELLIPSE
  5
C10
330
A02
100
AcDbEntity
  8
Shape2DView
100
AcDbEllipse
 10
17.6507
 20
-0.289544
 30
0
 11
0.39996
 21
6.99312e-08
 31
0
 40
1
 41
-0.645797
 42
-6.28316
  0
LINE
  5
C11
330
A02
100
AcDbEntity
  8
Shape2DView
100
AcDbLine
 10
17.8118
 20
-0.74035
 30
0
 11
17.5723
 21
-0.559806
 31
0
  0
LINE
  5
C12
330
A02
100
AcDbEntity
  8
Shape2DView
100
AcDbLine
 10
17.6926
 20
-0.40008
 30
0
 11
17.9322
 21
-0.580624
 31
0
  0
ELLIPSE
  5
C13
330
A02
100
AcDbEntity
  8
Shape2DView
100
AcDbEllipse
 10
17.6926
 20
-0.400085
 30
0
 11
0.120356
 21
0.159718
 31
0
 40
2.63302e-08
 41
3.14156
 42
4.71242
  0
LINE
  5
C14
330
A02
100
AcDbEntity
  8
Shape2DView
100
AcDbLine
 10
17.9702
 20
-0.530258
 30
0
 11
17.9322
 21
-0.580624
 31
0
  0
LINE
  5
C15
330
A02
100
AcDbEntity
  8
Shape2DView
100
AcDbLine
 10
17.9322
 20
-0.580624
 30
0
 11
17.9702
 21
-0.530258
 31
0
  0
ELLIPSE
  5
C16
330
A02
100
AcDbEntity
  8
Shape2DView
100
AcDbEllipse
 10
17.9322
 20
-0.580629
 30
0
 11
0.120356
 21
0.159718
 31
0
 40
2.63302e-08
 41
3.14156
 42
4.71242
  0
ELLIPSE
  5
C17
330
A02
100
AcDbEntity
  8
Shape2DView
100
AcDbEllipse
 10
17.6507
 20
-0.289544
 30
0
 11
0.39996
 21
6.99312e-08
 31
0
 40
1
 41
-0.645797
 42
-6.28316
  0
LINE
  5
C18
330
A02
100
AcDbEntity
  8
Shape2DView
100
AcDbLine
 10
17.7507
 20
-0.289534
 30
0
 11
17.7507
 21
-0.289534
 31
0
  0
LINE
  5
C19
330
A02
100
AcDbEntity
  8
Shape2DView
100
AcDbLine
 10
17.932
 20
-0.289534
 30
0
 11
18.0507
 21
-0.289534
 31
0
  0
LINE
  5
C1A
330
A02
100
AcDbEntity
  8
Shape2DView
100
AcDbLine
 10
17.9702
 20
-0.530258
 30
0
 11
17.9322
 21
-0.580624
 31
0
  0
LINE
  5
C1B
330
A02
100
AcDbEntity
  8
Shape2DView
100
AcDbLine
 10
17.5723
 20
-0.559806
 30
0
 11
17.8118
 21
-0.74035
 31
0
  0
ELLIPSE
  5
C1C
330
A02
100
AcDbEntity
  8
Shape2DView
100
AcDbEllipse
 10
17.6926
 20
-0.400085
 30
0
 11
0.120356
 21
0.159718
 31
0
 40
2.62992e-08
 41
1.57076
 42
3.14162
  0
LINE
  5
C1D
330
A02
100
AcDbEntity
  8
Shape2DView
100
AcDbLine
 10
17.6926
 20
-0.40008
 30
0
 11
17.7306
 21
-0.349714
 31
0
  0
ELLIPSE
  5
C1E
330
A02
100
AcDbEntity
  8
Shape2DView
100
AcDbEllipse
 10
17.6926
 20
-0.400085
 30
0
 11
0.120356
 21
0.159718
 31
0
 40
2.63302e-08
 41
3.14156
 42
4.71242
  0
LINE
  5
C1F
330
A02
100
AcDbEntity
  8
Shape2DView
100
AcDbLine
 10
17.5723
 20
-0.559806
 30
0
 11
17.8118
 21
-0.74035
 31
0
  0
LINE
  5
C20
330
A02
100
AcDbEntity
  8
Shape2DView
100
AcDbLine
 10
17.8118
 20
-0.74035
 30
0
 11
17.5723
 21
-0.559806
 31
0
  0
ELLIPSE
  5
C21
330
A02
100
AcDbEntity
  8
Shape2DView
100
AcDbEllipse
 10
17.6508
 20
-0.289575
 30
0
 11
-0.0998692
 21
-1.74617e-08
 31
0
 40
1
 41
2.49541
 42
3.14201
  0
ELLIPSE
  5
C22
330
A02
100
AcDbEntity
  8
Shape2DView
100
AcDbEllipse
 10
17.6508
 20
-0.289575
 30
0
 11
-0.0998692
 21
-1.74617e-08
 31
0
 40
1
 41
2.49541
 42
3.14201
  0
LINE
  5
C23
330
A02
100
AcDbEntity
  8
Shape2DView
100
AcDbLine
 10
17.7507
 20
-0.289534
 30
0
 11
17.7507
 21
-0.289534
 31
0
  0
LINE
  5
C24
330
A02
100
AcDbEntity
  8
Shape2DView
100
AcDbLine
 10
17.932
 20
-0.289534
 30
0
 11
18.0507
 21
-0.289534
 31
0
  0
SPLINE
  5
C25
330
A02
100
AcDbEntity
  8
Shape2DView
100
AcDbSpline
210
0
220
0
230
1
 70
8
 71
1
 72
4
 73
2
 74
0
 40
0
 40
0
 40
0.00564972
 40
0.00564972
 10
19.0207
 20
1.13905
 30
0
 10
19.0204
 20
1.13874
 30
0
  0
SPLINE
  5
C26
330
A02
100
AcDbEntity
  8
Shape2DView
100
AcDbSpline
210
0
220
0
230
1
 70
8
 71
2
 72
6
 73
3
 74
0
 40
0.270201
 40
0.270201
 40
0.270201
 40
1
 40
1
 40
1
 10
19.0044
 20
1.12609
 30
0
 10
18.9793
 20
1.11054
 30
0
 10
18.9507
 20
1.11047
 30
0
  0
ELLIPSE
  5
C27
330
A02
100
AcDbEntity
  8
Shape2DView
100
AcDbEllipse
 10
19.0207
 20
1.11047
 30
0
 11
0.799996
 21
1.39876e-07
 31
0
 40
4.37114e-08
 41
1.65841
 42
2.14064
  0
ELLIPSE
  5
C28
330
A02
100
AcDbEntity
  8
Shape2DView
100
AcDbEllipse
 10
18.9507
 20
1.21046
 30
0
 11
-0.0999839
 21
-1.74817e-08
 31
0
 40
1
 41
2.34619
 42
3.14169
  0
ELLIPSE
  5
C29
330
A02
100
AcDbEntity
  8
Shape2DView
100
AcDbEllipse
 10
21.2907
 20
-0.780289
 30
0
 11
0.149987
 21
2.62246e-08
 31
0
 40
0.798635
 41
-1.57085
 42
-0.246621
  0
ELLIPSE
  5
C2A
330
A02
100
AcDbEntity
  8
Shape2DView
100
AcDbEllipse
 10
19.2507
 20
-0.740356
 30
0
 11
0.199989
 21
3.49705e-08
 31
0
 40
0.798635
 41
-2.69365
 42
-1.57076
  0
LINE
  5
C2B
330
A02
100
AcDbEntity
  8
Shape2DView
100
AcDbLine
 10
19.2507
 20
-0.900077
 30
0
 11
21.2907
 21
-0.900077
 31
0
  0
ELLIPSE
  5
C2C
330
A02
100
AcDbEntity
  8
Shape2DView
100
AcDbEllipse
 10
21.2907
 20
-0.780289
 30
0
 11
0.149987
 21
2.62246e-08
 31
0
 40
0.798635
 41
-1.57085
 42
-0.246621
  0
LINE
  5
C2D
330
A02
100
AcDbEntity
  8
Shape2DView
100
AcDbLine
 10
19.2507
 20
-0.900077
 30
0
 11
21.2907
 21
-0.900077
 31
0
  0
LINE
  5
C2E
330
A02
100
AcDbEntity
  8
Shape2DView
100
AcDbLine
 10
21.2907
 20
-0.900074
 30
0
 11
21.2907
 21
-0.900077
 31
0
  0
LINE
  5
C2F
330
A02
100
AcDbEntity
  8
Shape2DView
100
AcDbLine
 10
18.7546
 20
2.10176
 30
0
 11
18.7546
 21
1.41047
 31
0
  0
LINE
  5
C30
330
A02
100
AcDbEntity
  8
Shape2DView
100
AcDbLine
 10
18.7546
 20
1.41047
 30
0
 11
18.9507
 21
1.41046
 31
0
  0
ELLIPSE
  5
C31
330
A02
100
AcDbEntity
  8
Shape2DView
100
AcDbEllipse
 10
18.9507
 20
1.31048
 30
0
 11
-0.0999839
 21
-1.74817e-08
 31
0
 40
1
 41
3.14149
 42
4.71249
  0
LINE
  5
C32
330
A02
100
AcDbEntity
  8
Shape2DView
100
AcDbLine
 10
19.0507
 20
1.21047
 30
0
 11
19.0507
 21
1.31047
 31
0
  0
ELLIPSE
  5
C33
330
A02
100
AcDbEntity
  8
Shape2DView
100
AcDbEllipse
 10
18.9507
 20
1.21046
 30
0
 11
-0.0999839
 21
-1.74817e-08
 31
0
 40
1
 41
2.34619
 42
3.14169
  0
LINE
  5
C34
330
A02
100
AcDbEntity
  8
Shape2DView
100
AcDbLine
 10
19.0207
 20
0.610466
 30
0
 11
19.0207
 21
1.13905
 31
0
  0
SPLINE
  5
C35
330
A02
100
AcDbEntity
  8
Shape2DView
100
AcDbSpline
210
0
220
0
230
1
 70
8
 71
2
 72
6
 73
3
 74
0
 40
0
 40
0
 40
0
 40
0.999998
 40
0.999998
 40
0.999998
 10
19.0207
 20
1.13905
 30
0
 10
18.991
 20
1.11098
 30
0
 10
18.9507
 20
1.11047
 30
0
  0
LINE
  5
C36
330
A02
100
AcDbEntity
  8
Shape2DView
100
AcDbLine
 10
19.0207
 20
0.610466
 30
0
 11
19.0207
 21
1.13905
 31
0
  0
LINE
  5
C37
330
A02
100
AcDbEntity
  8
Shape2DView
100
AcDbLine
 10
18.6569
 20
1.11047
 30
0
 11
18.6569
 21
0.662256
 31
0
  0
ELLIPSE
  5
C38
330
A02
100
AcDbEntity
  8
Shape2DView
100
AcDbEllipse
 10
19.0207
 20
1.11047
 30
0
 11
-0.499983
 21
-8.74198e-08
 31
0
 40
4.37114e-08
 41
-1.43034
 42
-0.755937
  0
ELLIPSE
  5
C39
330
A02
100
AcDbEntity
  8
Shape2DView
100
AcDbEllipse
 10
18.9507
 20
1.21046
 30
0
 11
-0.0999839
 21
-1.74817e-08
 31
0
 40
1
 41
2.34619
 42
3.14169
  0
SPLINE
  5
C3A
330
A02
100
AcDbEntity
  8
Shape2DView
100
AcDbSpline
210
0
220
0
230
1
 70
8
 71
2
 72
6
 73
3
 74
0
 40
0
 40
0
 40
0
 40
1
 40
1
 40
1
 10
19.0207
 20
1.13905
 30
0
 10
18.991
 20
1.11098
 30
0
 10
18.9507
 20
1.11047
 30
0
  0
SPLINE
  5
C3B
330
A02
100
AcDbEntity
  8
Shape2DView
100
AcDbSpline
210
0
220
0
230
1
 70
8
 71
1
 72
4
 73
2
 74
0
 40
0
 40
0
 40
0.00564972
 40
0.00564972
 10
19.0207
 20
1.13905
 30
0
 10
19.0204
 20
1.13874
 30
0
  0
SPLINE
  5
C3C
330
A02
100
AcDbEntity
  8
Shape2DView
100
AcDbSpline
210
0
220
0
230
1
 70
8
 71
2
 72
6
 73
3
 74
0
 40
0.270201
 40
0.270201
 40
0.270201
 40
1
 40
1
 40
1
 10
19.0044
 20
1.12609
 30
0
 10
18.9793
 20
1.11054
 30
0
 10
18.9507
 20
1.11047
 30
0
  0
ELLIPSE
  5
C3D
330
A02
100
AcDbEntity
  8
Shape2DView
100
AcDbEllipse
 10
18.9507
 20
1.21046
 30
0
 11
-0.0999839
 21
-1.74817e-08
 31
0
 40
1
 41
2.34619
 42
3.14169
  0
LINE
  5
C3E
330
A02
100
AcDbEntity
  8
Shape2DView
100
AcDbLine
 10
19.0507
 20
1.21047
 30
0
 11
19.0507
 21
1.31047
 31
0
  0
ELLIPSE
  5
C3F
330
A02
100
AcDbEntity
  8
Shape2DView
100
AcDbEllipse
 10
18.9507
 20
1.31048
 30
0
 11
-0.0999839
 21
-1.74817e-08
 31
0
 40
1
 41
3.14149
 42
4.71249
  0
LINE
  5
C40
330
A02
100
AcDbEntity
  8
Shape2DView
100
AcDbLine
 10
17.6935
 20
1.41047
 30
0
 11
17.7507
 21
1.41047
 31
0
  0
LINE
  5
C41
330
A02
100
AcDbEntity
  8
Shape2DView
100
AcDbLine
 10
18.7457
 20
1.41047
 30
0
 11
18.7468
 21
1.41047
 31
0
  0
LINE
  5
C42
330
A02
100
AcDbEntity
  8
Shape2DView
100
AcDbLine
 10
17.704
 20
1.41047
 30
0
 11
17.6935
 21
1.41047
 31
0
  0
LINE
  5
C43
330
A02
100
AcDbEntity
  8
Shape2DView
100
AcDbLine
 10
18.7546
 20
1.41047
 30
0
 11
18.9507
 21
1.41046
 31
0
  0
ELLIPSE
  5
C44
330
A02
100
AcDbEntity
  8
Shape2DView
100
AcDbEllipse
 10
18.7546
 20
1.41047
 30
0
 11
-0.450003
 21
-7.86811e-08
 31
0
 40
4.37114e-08
 41
-4.72983
 42
-4.71239
  0
LINE
  5
C45
330
A02
100
AcDbEntity
  8
Shape2DView
100
AcDbLine
 10
17.6935
 20
2.31046
 30
0
 11
17.7507
 21
2.31046
 31
0
  0
LINE
  5
C46
330
A02
100
AcDbEntity
  8
Shape2DView
100
AcDbLine
 10
17.7507
 20
2.31046
 30
0
 11
17.704
 21
2.31046
 31
0
  0
LINE
  5
C47
330
A02
100
AcDbEntity
  8
Shape2DView
100
AcDbLine
 10
17.7507
 20
3.23642
 30
0
 11
17.7507
 21
2.61047
 31
0
  0
LINE
  5
C48
330
A02
100
AcDbEntity
  8
Shape2DView
100
AcDbLine
 10
18.7468
 20
1.41047
 30
0
 11
18.7468
 21
2.07505
 31
0
  0
ELLIPSE
  5
C49
330
A02
100
AcDbEntity
  8
Shape2DView
100
AcDbEllipse
 10
18.7546
 20
1.41047
 30
0
 11
-0.450003
 21
-7.86811e-08
 31
0
 40
4.37114e-08
 41
-4.72983
 42
-4.71239
  0
LINE
  5
C4A
330
A02
100
AcDbEntity
  8
Shape2DView
100
AcDbLine
 10
18.7546
 20
2.10176
 30
0
 11
18.7546
 21
1.41047
 31
0
  0
ELLIPSE
  5
C4B
330
A02
100
AcDbEntity
  8
Shape2DView
100
AcDbEllipse
 10
17.6935
 20
1.56046
 30
0
 11
2.1399e-07
 21
-0.149987
 31
0
 40
0.999391
 41
-1.57085
 42
-6.28313
  0
LINE
  5
C4C
330
A02
100
AcDbEntity
  8
Shape2DView
100
AcDbLine
 10
17.6935
 20
1.41047
 30
0
 11
17.7507
 21
1.41047
 31
0
  0
LINE
  5
C4D
330
A02
100
AcDbEntity
  8
Shape2DView
100
AcDbLine
 10
18.7457
 20
1.41047
 30
0
 11
18.7468
 21
1.41047
 31
0
  0
LINE
  5
C4E
330
A02
100
AcDbEntity
  8
Shape2DView
100
AcDbLine
 10
18.7468
 20
1.41047
 30
0
 11
18.7468
 21
2.07505
 31
0
  0
LINE
  5
C4F
330
A02
100
AcDbEntity
  8
Shape2DView
100
AcDbLine
 10
17.6935
 20
2.31046
 30
0
 11
17.7507
 21
2.31046
 31
0
  0
ELLIPSE
  5
C50
330
A02
100
AcDbEntity
  8
Shape2DView
100
AcDbEllipse
 10
17.6935
 20
2.16047
 30
0
 11
2.13938e-07
 21
-0.149987
 31
0
 40
0.999391
 41
-3.14165
 42
-1.57074
  0
LINE
  5
C51
330
A02
100
AcDbEntity
  8
Shape2DView
100
AcDbLine
 10
17.5436
 20
1.56047
 30
0
 11
17.5436
 21
2.16047
 31
0
  0
LINE
  5
C52
330
A02
100
AcDbEntity
  8
Shape2DView
100
AcDbLine
 10
17.704
 20
1.41047
 30
0
 11
17.6935
 21
1.41047
 31
0
  0
ELLIPSE
  5
C53
330
A02
100
AcDbEntity
  8
Shape2DView
100
AcDbEllipse
 10
17.6935
 20
1.56046
 30
0
 11
2.1399e-07
 21
-0.149987
 31
0
 40
0.999391
 41
-1.57085
 42
-6.28313
  0
LINE
  5
C54
330
A02
100
AcDbEntity
  8
Shape2DView
100
AcDbLine
 10
17.5436
 20
1.56047
 30
0
 11
17.5436
 21
1.56047
 31
0
  0
LINE
  5
C55
330
A02
100
AcDbEntity
  8
Shape2DView
100
AcDbLine
 10
17.7507
 20
2.31046
 30
0
 11
17.704
 21
2.31046
 31
0
  0
ELLIPSE
  5
C56
330
A02
100
AcDbEntity
  8
Shape2DView
100
AcDbEllipse
 10
17.6935
 20
2.16047
 30
0
 11
2.13938e-07
 21
-0.149987
 31
0
 40
0.999391
 41
-3.14165
 42
-1.57074
  0
LINE
  5
C57
330
A02
100
AcDbEntity
  8
Shape2DView
100
AcDbLine
 10
17.5436
 20
1.56047
 30
0
 11
17.5436
 21
2.16047
 31
0
  0
LINE
  5
C58
330
A02
100
AcDbEntity
  8
Shape2DView
100
AcDbLine
 10
17.5436
 20
1.56047
 30
0
 11
17.5436
 21
1.56047
 31
0
  0
LINE
  5
C59
330
A02
100
AcDbEntity
  8
Shape2DView
100
AcDbLine
 10
18.1869
 20
-0.289534
 30
0
 11
18.1869
 21
1.11047
 31
0
  0
LINE
  5
C5A
330
A02
100
AcDbEntity
  8
Shape2DView
100
AcDbLine
 10
18.6569
 20
1.11047
 30
0
 11
18.6569
 21
0.662256
 31
0
  0
LINE
  5
C5B
330
A02
100
AcDbEntity
  8
Shape2DView
100
AcDbLine
 10
18.5891
 20
1.11047
 30
0
 11
18.6569
 21
1.11047
 31
0
  0
LINE
  5
C5C
330
A02
100
AcDbEntity
  8
Shape2DView
100
AcDbLine
 10
18.1869
 20
-0.289534
 30
0
 11
18.1869
 21
1.11047
 31
0
  0
ELLIPSE
  5
C5D
330
A02
100
AcDbEntity
  8
Shape2DView
100
AcDbEllipse
 10
19.2507
 20
-0.740356
 30
0
 11
0.199989
 21
3.49705e-08
 31
0
 40
0.798635
 41
-2.69365
 42
-1.57076
  0
LINE
  5
C5E
330
A02
100
AcDbEntity
  8
Shape2DView
100
AcDbLine
 10
17.9686
 20
-0.289534
 30
0
 11
17.9686
 21
1.11047
 31
0
  0
LINE
  5
C5F
330
A02
100
AcDbEntity
  8
Shape2DView
100
AcDbLine
 10
17.9686
 20
-0.289534
 30
0
 11
17.9686
 21
1.11047
 31
0
  0
LINE
  5
C60
330
A02
100
AcDbEntity
  8
Shape2DView
100
AcDbLine
 10
17.7507
 20
1.11047
 30
0
 11
17.7507
 21
-0.289534
 31
0
  0
LINE
  5
C61
330
A02
100
AcDbEntity
  8
Shape2DView
100
AcDbLine
 10
17.7507
 20
-0.289534
 30
0
 11
17.7507
 21
4.71047
 31
0
  0
ELLIPSE
  5
C62
330
A02
100
AcDbEntity
  8
Shape2DView
100
AcDbEllipse
 10
18.2007
 20
-0.289534
 30
0
 11
0.449996
 21
7.86797e-08
 31
0
 40
4.37114e-08
 41
3.14159
 42
4.71239
  0
LINE
  5
C63
330
A02
100
AcDbEntity
  8
Shape2DView
100
AcDbLine
 10
18.2007
 20
4.71047
 30
0
 11
18.2007
 21
-0.289534
 31
0
  0
ELLIPSE
  5
C64
330
A02
100
AcDbEntity
  8
Shape2DView
100
AcDbEllipse
 10
18.2007
 20
4.71047
 30
0
 11
0.449996
 21
7.86797e-08
 31
0
 40
4.37114e-08
 41
3.14159
 42
4.71239
  0
LINE
  5
C65
330
A02
100
AcDbEntity
  8
Shape2DView
100
AcDbLine
 10
18.2466
 20
4.71047
 30
0
 11
18.5961
 21
4.71047
 31
0
  0
ELLIPSE
  5
C66
330
A02
100
AcDbEntity
  8
Shape2DView
100
AcDbEllipse
 10
18.5961
 20
4.71052
 30
0
 11
-0.299918
 21
1.45271e-05
 31
0
 40
0.000133603
 41
-4.71265
 42
-4.01396
  0
LINE
  5
C67
330
A02
100
AcDbEntity
  8
Shape2DView
100
AcDbLine
 10
19.5713
 20
4.44047
 30
0
 11
19.5713
 21
4.56047
 31
0
  0
LINE
  5
C68
330
A02
100
AcDbEntity
  8
Shape2DView
100
AcDbLine
 10
19.5713
 20
4.56047
 30
0
 11
19.5713
 21
4.56047
 31
0
  0
ELLIPSE
  5
C69
330
A02
100
AcDbEntity
  8
Shape2DView
100
AcDbEllipse
 10
18.5961
 20
4.71047
 30
0
 11
0.449984
 21
7.86778e-08
 31
0
 40
4.37114e-08
 41
4.71238
 42
5.41053
  0
LINE
  5
C6A
330
A02
100
AcDbEntity
  8
Shape2DView
100
AcDbLine
 10
18.5961
 20
4.11047
 30
0
 11
18.5961
 21
4.71047
 31
0
  0
ELLIPSE
  5
C6B
330
A02
100
AcDbEntity
  8
Shape2DView
100
AcDbEllipse
 10
18.5961
 20
4.11047
 30
0
 11
0.449984
 21
7.86778e-08
 31
0
 40
4.37114e-08
 41
4.71238
 42
5.41053
  0
LINE
  5
C6C
330
A02
100
AcDbEntity
  8
Shape2DView
100
AcDbLine
 10
18.8854
 20
4.71047
 30
0
 11
18.8854
 21
4.11047
 31
0
  0
ELLIPSE
  5
C6D
330
A02
100
AcDbEntity
  8
Shape2DView
100
AcDbEllipse
 10
18.5204
 20
3.63047
 30
0
 11
-0.149962
 21
-2.62202e-08
 31
0
 40
4.37114e-08
 41
-4.29887
 42
-3.72948
  0
SPLINE
  5
C6E
330
A02
100
AcDbEntity
  8
Shape2DView
100
AcDbSpline
210
0
220
0
230
1
 70
8
 71
2
 72
6
 73
3
 74
0
 40
0
 40
0
 40
0
 40
1
 40
1
 40
1
 10
18.5807
 20
3.63047
 30
0
 10
18.5507
 20
3.63038
 30
0
 10
18.5204
 20
3.63977
 30
0
  0
LINE
  5
C6F
330
A02
100
AcDbEntity
  8
Shape2DView
100
AcDbLine
 10
18.5204
 20
3.25047
 30
0
 11
18.5204
 21
3.63977
 31
0
  0
LINE
  5
C70
330
A02
100
AcDbEntity
  8
Shape2DView
100
AcDbLine
 10
19.0415
 20
3.25047
 30
0
 11
19.1099
 21
3.25047
 31
0
  0
ELLIPSE
  5
C71
330
A02
100
AcDbEntity
  8
Shape2DView
100
AcDbEllipse
 10
19.631
 20
3.63047
 30
0
 11
-0.149962
 21
-2.62202e-08
 31
0
 40
4.37114e-08
 41
-5.6953
 42
-4.71227
  0
LINE
  5
C72
330
A02
100
AcDbEntity
  8
Shape2DView
100
AcDbLine
 10
18.9167
 20
3.25047
 30
0
 11
18.8949
 21
3.25047
 31
0
  0
LINE
  5
C73
330
A02
100
AcDbEntity
  8
Shape2DView
100
AcDbLine
 10
18.9167
 20
3.63047
 30
0
 11
18.9167
 21
3.25047
 31
0
  0
LINE
  5
C74
330
A02
100
AcDbEntity
  8
Shape2DView
100
AcDbLine
 10
18.8949
 20
3.63047
 30
0
 11
18.9167
 21
3.63047
 31
0
  0
LINE
  5
C75
330
A02
100
AcDbEntity
  8
Shape2DView
100
AcDbLine
 10
18.8949
 20
3.63047
 30
0
 11
18.8949
 21
3.25047
 31
0
  0
LINE
  5
C76
330
A02
100
AcDbEntity
  8
Shape2DView
100
AcDbLine
 10
19.0415
 20
3.25047
 30
0
 11
19.0415
 21
3.63047
 31
0
  0
ELLIPSE
  5
C77
330
A02
100
AcDbEntity
  8
Shape2DView
100
AcDbEllipse
 10
19.0415
 20
3.25047
 30
0
 11
0.149962
 21
2.62202e-08
 31
0
 40
4.37114e-08
 41
1.57068
 42
2.55371
  0
LINE
  5
C78
330
A02
100
AcDbEntity
  8
Shape2DView
100
AcDbLine
 10
18.9167
 20
3.63047
 30
0
 11
18.9167
 21
3.25047
 31
0
  0
ELLIPSE
  5
C79
330
A02
100
AcDbEntity
  8
Shape2DView
100
AcDbEllipse
 10
19.0415
 20
3.63047
 30
0
 11
-0.149962
 21
-2.62202e-08
 31
0
 40
4.37114e-08
 41
-1.57092
 42
-0.587883
  0
LINE
  5
C7A
330
A02
100
AcDbEntity
  8
Shape2DView
100
AcDbLine
 10
19.1099
 20
3.25047
 30
0
 11
19.0415
 21
3.25047
 31
0
  0
LINE
  5
C7B
330
A02
100
AcDbEntity
  8
Shape2DView
100
AcDbLine
 10
19.1099
 20
3.63047
 30
0
 11
19.1099
 21
3.25047
 31
0
  0
LINE
  5
C7C
330
A02
100
AcDbEntity
  8
Shape2DView
100
AcDbLine
 10
19.0415
 20
3.63047
 30
0
 11
19.1099
 21
3.63047
 31
0
  0
LINE
  5
C7D
330
A02
100
AcDbEntity
  8
Shape2DView
100
AcDbLine
 10
19.0415
 20
3.25047
 30
0
 11
19.0415
 21
3.63047
 31
0
  0
LINE
  5
C7E
330
A02
100
AcDbEntity
  8
Shape2DView
100
AcDbLine
 10
19.2347
 20
3.25047
 30
0
 11
19.2347
 21
3.63047
 31
0
  0
ELLIPSE
  5
C7F
330
A02
100
AcDbEntity
  8
Shape2DView
100
AcDbEllipse
 10
19.1099
 20
3.25047
 30
0
 11
0.149962
 21
2.62202e-08
 31
0
 40
4.37114e-08
 41
0.587883
 42
1.57092
  0
LINE
  5
C80
330
A02
100
AcDbEntity
  8
Shape2DView
100
AcDbLine
 10
19.1099
 20
3.63047
 30
0
 11
19.1099
 21
3.25047
 31
0
  0
ELLIPSE
  5
C81
330
A02
100
AcDbEntity
  8
Shape2DView
100
AcDbEllipse
 10
19.1099
 20
3.63047
 30
0
 11
-0.149962
 21
-2.62202e-08
 31
0
 40
4.37114e-08
 41
-2.55371
 42
-1.57068
  0
ELLIPSE
  5
C82
330
A02
100
AcDbEntity
  8
Shape2DView
100
AcDbEllipse
 10
21.0007
 20
4.46047
 30
0
 11
-0.149987
 21
-2.62246e-08
 31
0
 40
4.37114e-08
 41
-1.57085
 42
-6.28313
  0
LINE
  5
C83
330
A02
100
AcDbEntity
  8
Shape2DView
100
AcDbLine
 10
20.8507
 20
4.46046
 30
0
 11
20.8507
 21
4.46047
 31
0
  0
LINE
  5
C84
330
A02
100
AcDbEntity
  8
Shape2DView
100
AcDbLine
 10
22.1507
 20
4.46047
 30
0
 11
22.1507
 21
4.46047
 31
0
  0
LINE
  5
C85
330
A02
100
AcDbEntity
  8
Shape2DView
100
AcDbLine
 10
20.8507
 20
4.46047
 30
0
 11
20.8507
 21
4.46047
 31
0
  0
LINE
  5
C86
330
A02
100
AcDbEntity
  8
Shape2DView
100
AcDbLine
 10
22.1507
 20
4.46047
 30
0
 11
22.1507
 21
4.46046
 31
0
  0
ELLIPSE
  5
C87
330
A02
100
AcDbEntity
  8
Shape2DView
100
AcDbEllipse
 10
22.0007
 20
4.46047
 30
0
 11
-0.149987
 21
-2.62246e-08
 31
0
 40
4.37114e-08
 41
-3.14165
 42
-1.57074
  0
LINE
  5
C88
330
A02
100
AcDbEntity
  8
Shape2DView
100
AcDbLine
 10
21.0007
 20
4.46047
 30
0
 11
22.0007
 21
4.46047
 31
0
  0
LINE
  5
C89
330
A02
100
AcDbEntity
  8
Shape2DView
100
AcDbLine
 10
20.2007
 20
4.76047
 30
0
 11
22.8007
 21
4.76047
 31
0
  0
LINE
  5
C8A
330
A02
100
AcDbEntity
  8
Shape2DView
100
AcDbLine
 10
22.1507
 20
4.46047
 30
0
 11
22.1507
 21
4.46047
 31
0
  0
LINE
  5
C8B
330
A02
100
AcDbEntity
  8
Shape2DView
100
AcDbLine
 10
20.8507
 20
4.46047
 30
0
 11
20.8507
 21
4.46047
 31
0
  0
LINE
  5
C8C
330
A02
100
AcDbEntity
  8
Shape2DView
100
AcDbLine
 10
22.1507
 20
4.76047
 30
0
 11
22.8007
 21
4.76047
 31
0
  0
SPLINE
  5
C8D
330
A02
100
AcDbEntity
  8
Shape2DView
100
AcDbSpline
210
0
220
0
230
1
 70
8
 71
3
 72
11
 73
7
 74
0
 40
0
 40
0
 40
0
 40
0
 40
0.785404
 40
0.785404
 40
0.785404
 40
1.57081
 40
1.57081
 40
1.57081
 40
1.57081
 10
22.1507
 20
4.36047
 30
0
 10
22.1507
 20
4.46543
 30
0
 10
22.1507
 20
4.56884
 30
0
 10
22.1507
 20
4.64331
 30
0
 10
22.1507
 20
4.71728
 30
0
 10
22.1507
 20
4.76012
 30
0
 10
22.1507
 20
4.76046
 30
0
  0
LINE
  5
C8E
330
A02
100
AcDbEntity
  8
Shape2DView
100
AcDbLine
 10
22.8007
 20
4.36047
 30
0
 11
22.1507
 21
4.36047
 31
0
  0
SPLINE
  5
C8F
330
A02
100
AcDbEntity
  8
Shape2DView
100
AcDbSpline
210
0
220
0
230
1
 70
8
 71
3
 72
11
 73
7
 74
0
 40
0
 40
0
 40
0
 40
0
 40
0.785404
 40
0.785404
 40
0.785404
 40
1.57081
 40
1.57081
 40
1.57081
 40
1.57081
 10
22.8007
 20
4.36047
 30
0
 10
22.8007
 20
4.46543
 30
0
 10
22.8007
 20
4.56884
 30
0
 10
22.8007
 20
4.64331
 30
0
 10
22.8007
 20
4.71728
 30
0
 10
22.8007
 20
4.76012
 30
0
 10
22.8007
 20
4.76046
 30
0
  0
ELLIPSE
  5
C90
330
A02
100
AcDbEntity
  8
Shape2DView
100
AcDbEllipse
 10
21.0007
 20
4.16046
 30
0
 11
-0.149987
 21
-2.62246e-08
 31
0
 40
1
 41
6.28313
 42
1.57085
  0
ELLIPSE
  5
C91
330
A02
100
AcDbEntity
  8
Shape2DView
100
AcDbEllipse
 10
21.0007
 20
4.16046
 30
0
 11
-0.149987
 21
-2.62246e-08
 31
0
 40
1
 41
6.28313
 42
1.57085
  0
ELLIPSE
  5
C92
330
A02
100
AcDbEntity
  8
Shape2DView
100
AcDbEllipse
 10
23.3704
 20
3.63047
 30
0
 11
0.449994
 21
7.86794e-08
 31
0
 40
4.37114e-08
 41
4.71238
 42
5.69519
  0
LINE
  5
C93
330
A02
100
AcDbEntity
  8
Shape2DView
100
AcDbLine
 10
23.3704
 20
3.25047
 30
0
 11
23.3704
 21
3.63047
 31
0
  0
ELLIPSE
  5
C94
330
A02
100
AcDbEntity
  8
Shape2DView
100
AcDbEllipse
 10
23.3704
 20
3.25047
 30
0
 11
-0.449994
 21
-7.86794e-08
 31
0
 40
4.37114e-08
 41
-4.7124
 42
-3.72959
  0
LINE
  5
C95
330
A02
100
AcDbEntity
  8
Shape2DView
100
AcDbLine
 10
23.7449
 20
3.63047
 30
0
 11
23.7449
 21
3.25047
 31
0
  0
LINE
  5
C96
330
A02
100
AcDbEntity
  8
Shape2DView
100
AcDbLine
 10
23.7667
 20
3.25047
 30
0
 11
23.7449
 21
3.25047
 31
0
  0
LINE
  5
C97
330
A02
100
AcDbEntity
  8
Shape2DView
100
AcDbLine
 10
23.7667
 20
3.63047
 30
0
 11
23.7667
 21
3.25047
 31
0
  0
LINE
  5
C98
330
A02
100
AcDbEntity
  8
Shape2DView
100
AcDbLine
 10
23.7449
 20
3.63047
 30
0
 11
23.7667
 21
3.63047
 31
0
  0
LINE
  5
C99
330
A02
100
AcDbEntity
  8
Shape2DView
100
AcDbLine
 10
23.7449
 20
3.63047
 30
0
 11
23.7449
 21
3.25047
 31
0
  0
LINE
  5
C9A
330
A02
100
AcDbEntity
  8
Shape2DView
100
AcDbLine
 10
23.8915
 20
3.25047
 30
0
 11
23.8915
 21
3.63047
 31
0
  0
ELLIPSE
  5
C9B
330
A02
100
AcDbEntity
  8
Shape2DView
100
AcDbEllipse
 10
23.8915
 20
3.25047
 30
0
 11
0.149962
 21
2.62202e-08
 31
0
 40
4.37114e-08
 41
1.57068
 42
2.55371
  0
LINE
  5
C9C
330
A02
100
AcDbEntity
  8
Shape2DView
100
AcDbLine
 10
23.7667
 20
3.63047
 30
0
 11
23.7667
 21
3.25047
 31
0
  0
ELLIPSE
  5
C9D
330
A02
100
AcDbEntity
  8
Shape2DView
100
AcDbEllipse
 10
23.8915
 20
3.63047
 30
0
 11
-0.149962
 21
-2.62202e-08
 31
0
 40
4.37114e-08
 41
-1.57092
 42
-0.587883
  0
ELLIPSE
  5
C9E
330
A02
100
AcDbEntity
  8
Shape2DView
100
AcDbEllipse
 10
23.9599
 20
3.25047
 30
0
 11
0.149962
 21
2.62202e-08
 31
0
 40
4.37114e-08
 41
0.587883
 42
1.57092
  0
LINE
  5
C9F
330
A02
100
AcDbEntity
  8
Shape2DView
100
AcDbLine
 10
24.1066
 20
3.25047
 30
0
 11
24.0847
 21
3.25047
 31
0
  0
ELLIPSE
  5
CA0
330
A02
100
AcDbEntity
  8
Shape2DView
100
AcDbEllipse
 10
24.481
 20
3.25047
 30
0
 11
-0.449994
 21
-7.86794e-08
 31
0
 40
4.37114e-08
 41
-5.69519
 42
-4.71238
  0
LINE
  5
CA1
330
A02
100
AcDbEntity
  8
Shape2DView
100
AcDbLine
 10
23.3704
 20
3.25047
 30
0
 11
24.481
 21
3.25047
 31
0
  0
ELLIPSE
  5
CA2
330
A02
100
AcDbEntity
  8
Shape2DView
100
AcDbEllipse
 10
23.3704
 20
3.25047
 30
0
 11
-0.449994
 21
-7.86794e-08
 31
0
 40
4.37114e-08
 41
-4.7124
 42
-3.72959
  0
LINE
  5
CA3
330
A02
100
AcDbEntity
  8
Shape2DView
100
AcDbLine
 10
23.7667
 20
3.25047
 30
0
 11
23.7449
 21
3.25047
 31
0
  0
ELLIPSE
  5
CA4
330
A02
100
AcDbEntity
  8
Shape2DView
100
AcDbEllipse
 10
23.8915
 20
3.25047
 30
0
 11
0.149962
 21
2.62202e-08
 31
0
 40
4.37114e-08
 41
1.57068
 42
2.55371
  0
LINE
  5
CA5
330
A02
100
AcDbEntity
  8
Shape2DView
100
AcDbLine
 10
23.9599
 20
3.25047
 30
0
 11
23.8915
 21
3.25047
 31
0
  0
LINE
  5
CA6
330
A02
100
AcDbEntity
  8
Shape2DView
100
AcDbLine
 10
23.9599
 20
3.25047
 30
0
 11
23.8915
 21
3.25047
 31
0
  0
LINE
  5
CA7
330
A02
100
AcDbEntity
  8
Shape2DView
100
AcDbLine
 10
23.9599
 20
3.63047
 30
0
 11
23.9599
 21
3.25047
 31
0
  0
LINE
  5
CA8
330
A02
100
AcDbEntity
  8
Shape2DView
100
AcDbLine
 10
23.8915
 20
3.63047
 30
0
 11
23.9599
 21
3.63047
 31
0
  0
LINE
  5
CA9
330
A02
100
AcDbEntity
  8
Shape2DView
100
AcDbLine
 10
23.8915
 20
3.25047
 30
0
 11
23.8915
 21
3.63047
 31
0
  0
LINE
  5
CAA
330
A02
100
AcDbEntity
  8
Shape2DView
100
AcDbLine
 10
24.0847
 20
3.25047
 30
0
 11
24.0847
 21
3.63047
 31
0
  0
ELLIPSE
  5
CAB
330
A02
100
AcDbEntity
  8
Shape2DView
100
AcDbEllipse
 10
23.9599
 20
3.25047
 30
0
 11
0.149962
 21
2.62202e-08
 31
0
 40
4.37114e-08
 41
0.587883
 42
1.57092
  0
LINE
  5
CAC
330
A02
100
AcDbEntity
  8
Shape2DView
100
AcDbLine
 10
23.9599
 20
3.63047
 30
0
 11
23.9599
 21
3.25047
 31
0
  0
ELLIPSE
  5
CAD
330
A02
100
AcDbEntity
  8
Shape2DView
100
AcDbEllipse
 10
23.9599
 20
3.63047
 30
0
 11
-0.149962
 21
-2.62202e-08
 31
0
 40
4.37114e-08
 41
-2.55371
 42
-1.57068
  0
LINE
  5
CAE
330
A02
100
AcDbEntity
  8
Shape2DView
100
AcDbLine
 10
24.1066
 20
3.25047
 30
0
 11
24.1066
 21
3.63047
 31
0
  0
LINE
  5
CAF
330
A02
100
AcDbEntity
  8
Shape2DView
100
AcDbLine
 10
24.1066
 20
3.25047
 30
0
 11
24.0847
 21
3.25047
 31
0
  0
LINE
  5
CB0
330
A02
100
AcDbEntity
  8
Shape2DView
100
AcDbLine
 10
24.0847
 20
3.25047
 30
0
 11
24.0847
 21
3.63047
 31
0
  0
LINE
  5
CB1
330
A02
100
AcDbEntity
  8
Shape2DView
100
AcDbLine
 10
24.0847
 20
3.63047
 30
0
 11
24.1066
 21
3.63047
 31
0
  0
ELLIPSE
  5
CB2
330
A02
100
AcDbEntity
  8
Shape2DView
100
AcDbEllipse
 10
24.481
 20
3.63047
 30
0
 11
0.449994
 21
7.86794e-08
 31
0
 40
4.37114e-08
 41
3.72959
 42
4.57804
  0
LINE
  5
CB3
330
A02
100
AcDbEntity
  8
Shape2DView
100
AcDbLine
 10
24.1066
 20
3.25047
 30
0
 11
24.1066
 21
3.63047
 31
0
  0
ELLIPSE
  5
CB4
330
A02
100
AcDbEntity
  8
Shape2DView
100
AcDbEllipse
 10
24.481
 20
3.25047
 30
0
 11
-0.449994
 21
-7.86794e-08
 31
0
 40
4.37114e-08
 41
-5.69519
 42
-4.71238
  0
LINE
  5
CB5
330
A02
100
AcDbEntity
  8
Shape2DView
100
AcDbLine
 10
24.481
 20
3.63977
 30
0
 11
24.481
 21
3.25047
 31
0
  0
SPLINE
  5
CB6
330
A02
100
AcDbEntity
  8
Shape2DView
100
AcDbSpline
210
0
220
0
230
1
 70
8
 71
2
 72
6
 73
3
 74
0
 40
1.921e-06
 40
1.921e-06
 40
1.921e-06
 40
1
 40
1
 40
1
 10
24.4207
 20
3.63047
 30
0
 10
24.4515
 20
3.6305
 30
0
 10
24.481
 20
3.63977
 30
0
  0
ELLIPSE
  5
CB7
330
A02
100
AcDbEntity
  8
Shape2DView
100
AcDbEllipse
 10
24.3557
 20
1.25819
 30
0
 11
0.0999763
 21
1.74804e-08
 31
0
 40
1
 41
-3.14175
 42
-1.72121
  0
ELLIPSE
  5
CB8
330
A02
100
AcDbEntity
  8
Shape2DView
100
AcDbEllipse
 10
24.3257
 20
1.06048
 30
0
 11
-0.0999764
 21
-1.74804e-08
 31
0
 40
1
 41
3.14144
 42
4.56198
  0
LINE
  5
CB9
330
A02
100
AcDbEntity
  8
Shape2DView
100
AcDbLine
 10
24.4257
 20
0.760467
 30
0
 11
24.4257
 21
1.06047
 31
0
  0
ELLIPSE
  5
CBA
330
A02
100
AcDbEntity
  8
Shape2DView
100
AcDbEllipse
 10
24.3257
 20
0.760457
 30
0
 11
-0.0999839
 21
-1.74817e-08
 31
0
 40
1
 41
1.5707
 42
3.14169
  0
ELLIPSE
  5
CBB
330
A02
100
AcDbEntity
  8
Shape2DView
100
AcDbEllipse
 10
24.3257
 20
0.760457
 30
0
 11
-0.0999839
 21
-1.74817e-08
 31
0
 40
1
 41
1.5707
 42
3.14169
  0
LINE
  5
CBC
330
A02
100
AcDbEntity
  8
Shape2DView
100
AcDbLine
 10
24.2257
 20
0.660467
 30
0
 11
24.3257
 21
0.660469
 31
0
  0
LINE
  5
CBD
330
A02
100
AcDbEntity
  8
Shape2DView
100
AcDbLine
 10
24.2257
 20
0.610467
 30
0
 11
24.2257
 21
0.660467
 31
0
  0
LINE
  5
CBE
330
A02
100
AcDbEntity
  8
Shape2DView
100
AcDbLine
 10
23.5257
 20
0.610467
 30
0
 11
24.2257
 21
0.610467
 31
0
  0
SPLINE
  5
CBF
330
A02
100
AcDbEntity
  8
Shape2DView
100
AcDbSpline
210
0
220
0
230
1
 70
8
 71
2
 72
6
 73
3
 74
0
 40
0
 40
0
 40
0
 40
1.04774
 40
1.04774
 40
1.04774
 10
24.2257
 20
0.118483
 30
0
 10
24.2257
 20
0.17508
 30
0
 10
24.2257
 20
0.205076
 30
0
  0
LINE
  5
CC0
330
A02
100
AcDbEntity
  8
Shape2DView
100
AcDbLine
 10
24.2257
 20
0.510252
 30
0
 11
24.2257
 21
0.610467
 31
0
  0
LINE
  5
CC1
330
A02
100
AcDbEntity
  8
Shape2DView
100
AcDbLine
 10
24.2257
 20
0.510252
 30
0
 11
24.2257
 21
0.297462
 31
0
  0
LINE
  5
CC2
330
A02
100
AcDbEntity
  8
Shape2DView
100
AcDbLine
 10
24.2257
 20
0.205083
 30
0
 11
24.2257
 21
0.297462
 31
0
  0
LINE
  5
CC3
330
A02
100
AcDbEntity
  8
Shape2DView
100
AcDbLine
 10
24.2257
 20
0.205083
 30
0
 11
23.5257
 21
0.205082
 31
0
  0
SPLINE
  5
CC4
330
A02
100
AcDbEntity
  8
Shape2DView
100
AcDbSpline
210
0
220
0
230
1
 70
8
 71
2
 72
6
 73
3
 74
0
 40
0
 40
0
 40
0
 40
1.04774
 40
1.04774
 40
1.04774
 10
24.2257
 20
0.118483
 30
0
 10
24.2257
 20
0.17508
 30
0
 10
24.2257
 20
0.205076
 30
0
  0
LINE
  5
CC5
330
A02
100
AcDbEntity
  8
Shape2DView
100
AcDbLine
 10
23.5257
 20
0.118483
 30
0
 11
24.2257
 21
0.118483
 31
0
  0
SPLINE
  5
CC6
330
A02
100
AcDbEntity
  8
Shape2DView
100
AcDbSpline
210
0
220
0
230
1
 70
8
 71
2
 72
6
 73
3
 74
0
 40
0
 40
0
 40
0
 40
1.04774
 40
1.04774
 40
1.04774
 10
23.5257
 20
0.118483
 30
0
 10
23.5257
 20
0.17508
 30
0
 10
23.5257
 20
0.205076
 30
0
  0
LINE
  5
CC7
330
A02
100
AcDbEntity
  8
Shape2DView
100
AcDbLine
 10
23.5257
 20
0.510252
 30
0
 11
23.5257
 21
0.610467
 31
0
  0
LINE
  5
CC8
330
A02
100
AcDbEntity
  8
Shape2DView
100
AcDbLine
 10
23.5257
 20
0.297462
 30
0
 11
23.5257
 21
0.510252
 31
0
  0
LINE
  5
CC9
330
A02
100
AcDbEntity
  8
Shape2DView
100
AcDbLine
 10
23.5257
 20
0.205082
 30
0
 11
23.5257
 21
0.297462
 31
0
  0
SPLINE
  5
CCA
330
A02
100
AcDbEntity
  8
Shape2DView
100
AcDbSpline
210
0
220
0
230
1
 70
8
 71
2
 72
6
 73
3
 74
0
 40
0
 40
0
 40
0
 40
1.04774
 40
1.04774
 40
1.04774
 10
23.5257
 20
0.118483
 30
0
 10
23.5257
 20
0.17508
 30
0
 10
23.5257
 20
0.205076
 30
0
  0
LINE
  5
CCB
330
A02
100
AcDbEntity
  8
Shape2DView
100
AcDbLine
 10
23.5257
 20
0.610467
 30
0
 11
24.2257
 21
0.610467
 31
0
  0
LINE
  5
CCC
330
A02
100
AcDbEntity
  8
Shape2DView
100
AcDbLine
 10
23.5257
 20
0.510252
 30
0
 11
23.5257
 21
0.610467
 31
0
  0
LINE
  5
CCD
330
A02
100
AcDbEntity
  8
Shape2DView
100
AcDbLine
 10
23.5257
 20
0.510252
 30
0
 11
24.2257
 21
0.510252
 31
0
  0
LINE
  5
CCE
330
A02
100
AcDbEntity
  8
Shape2DView
100
AcDbLine
 10
24.2257
 20
0.510252
 30
0
 11
24.2257
 21
0.610467
 31
0
  0
LINE
  5
CCF
330
A02
100
AcDbEntity
  8
Shape2DView
100
AcDbLine
 10
23.5257
 20
0.510252
 30
0
 11
24.2257
 21
0.510252
 31
0
  0
LINE
  5
CD0
330
A02
100
AcDbEntity
  8
Shape2DView
100
AcDbLine
 10
23.5257
 20
0.297462
 30
0
 11
23.5257
 21
0.510252
 31
0
  0
LINE
  5
CD1
330
A02
100
AcDbEntity
  8
Shape2DView
100
AcDbLine
 10
23.5257
 20
0.297462
 30
0
 11
24.2257
 21
0.297462
 31
0
  0
LINE
  5
CD2
330
A02
100
AcDbEntity
  8
Shape2DView
100
AcDbLine
 10
24.2257
 20
0.510252
 30
0
 11
24.2257
 21
0.297462
 31
0
  0
LINE
  5
CD3
330
A02
100
AcDbEntity
  8
Shape2DView
100
AcDbLine
 10
23.5257
 20
0.297462
 30
0
 11
24.2257
 21
0.297462
 31
0
  0
LINE
  5
CD4
330
A02
100
AcDbEntity
  8
Shape2DView
100
AcDbLine
 10
23.5257
 20
0.205082
 30
0
 11
23.5257
 21
0.297462
 31
0
  0
LINE
  5
CD5
330
A02
100
AcDbEntity
  8
Shape2DView
100
AcDbLine
 10
24.2257
 20
0.205083
 30
0
 11
23.5257
 21
0.205082
 31
0
  0
LINE
  5
CD6
330
A02
100
AcDbEntity
  8
Shape2DView
100
AcDbLine
 10
24.2257
 20
0.205083
 30
0
 11
24.2257
 21
0.297462
 31
0
  0
LINE
  5
CD7
330
A02
100
AcDbEntity
  8
Shape2DView
100
AcDbLine
 10
23.5257
 20
0.610467
 30
0
 11
23.5257
 21
0.660467
 31
0
  0
LINE
  5
CD8
330
A02
100
AcDbEntity
  8
Shape2DView
100
AcDbLine
 10
23.4257
 20
0.660469
 30
0
 11
23.5257
 21
0.660467
 31
0
  0
ELLIPSE
  5
CD9
330
A02
100
AcDbEntity
  8
Shape2DView
100
AcDbEllipse
 10
23.4257
 20
0.760457
 30
0
 11
-0.0999839
 21
-1.74817e-08
 31
0
 40
1
 41
6.28309
 42
1.5709
  0
ELLIPSE
  5
CDA
330
A02
100
AcDbEntity
  8
Shape2DView
100
AcDbEllipse
 10
23.4257
 20
0.760457
 30
0
 11
-0.0999839
 21
-1.74817e-08
 31
0
 40
1
 41
6.28309
 42
1.5709
  0
LINE
  5
CDB
330
A02
100
AcDbEntity
  8
Shape2DView
100
AcDbLine
 10
23.3257
 20
0.760467
 30
0
 11
23.3257
 21
1.06047
 31
0
  0
ELLIPSE
  5
CDC
330
A02
100
AcDbEntity
  8
Shape2DView
100
AcDbEllipse
 10
23.4257
 20
1.06048
 30
0
 11
-0.0999763
 21
-1.74804e-08
 31
0
 40
1
 41
4.8628
 42
0.000154725
  0
ELLIPSE
  5
CDD
330
A02
100
AcDbEntity
  8
Shape2DView
100
AcDbEllipse
 10
23.3957
 20
1.25819
 30
0
 11
0.0999764
 21
1.74804e-08
 31
0
 40
1
 41
-1.42038
 42
-6.28303
  0
LINE
  5
CDE
330
A02
100
AcDbEntity
  8
Shape2DView
100
AcDbLine
 10
23.4957
 20
1.2582
 30
0
 11
23.4957
 21
2.06047
 31
0
  0
ELLIPSE
  5
CDF
330
A02
100
AcDbEntity
  8
Shape2DView
100
AcDbEllipse
 10
23.5957
 20
2.06048
 30
0
 11
-0.0999839
 21
-1.74817e-08
 31
0
 40
1
 41
4.71229
 42
9.87339e-05
  0
LINE
  5
CE0
330
A02
100
AcDbEntity
  8
Shape2DView
100
AcDbLine
 10
23.5957
 20
2.16046
 30
0
 11
24.1557
 21
2.16047
 31
0
  0
ELLIPSE
  5
CE1
330
A02
100
AcDbEntity
  8
Shape2DView
100
AcDbEllipse
 10
24.1557
 20
2.06048
 30
0
 11
-0.0999839
 21
-1.74817e-08
 31
0
 40
1
 41
3.14149
 42
4.71249
  0
LINE
  5
CE2
330
A02
100
AcDbEntity
  8
Shape2DView
100
AcDbLine
 10
24.2557
 20
2.06047
 30
0
 11
24.2557
 21
1.2582
 31
0
  0
LINE
  5
CE3
330
A02
100
AcDbEntity
  8
Shape2DView
100
AcDbLine
 10
24.2557
 20
1.2582
 30
0
 11
24.2557
 21
2.06047
 31
0
  0
ELLIPSE
  5
CE4
330
A02
100
AcDbEntity
  8
Shape2DView
100
AcDbEllipse
 10
19.6057
 20
1.25819
 30
0
 11
0.0999763
 21
1.74804e-08
 31
0
 40
1
 41
-3.14175
 42
-1.72121
  0
ELLIPSE
  5
CE5
330
A02
100
AcDbEntity
  8
Shape2DView
100
AcDbEllipse
 10
19.5757
 20
1.06048
 30
0
 11
-0.0999764
 21
-1.74804e-08
 31
0
 40
1
 41
3.14144
 42
4.56198
  0
LINE
  5
CE6
330
A02
100
AcDbEntity
  8
Shape2DView
100
AcDbLine
 10
19.6757
 20
0.760466
 30
0
 11
19.6757
 21
1.06047
 31
0
  0
ELLIPSE
  5
CE7
330
A02
100
AcDbEntity
  8
Shape2DView
100
AcDbEllipse
 10
19.5757
 20
0.760456
 30
0
 11
-0.0999839
 21
-1.74817e-08
 31
0
 40
1
 41
1.5707
 42
3.14169
  0
ELLIPSE
  5
CE8
330
A02
100
AcDbEntity
  8
Shape2DView
100
AcDbEllipse
 10
19.5757
 20
0.760456
 30
0
 11
-0.0999839
 21
-1.74817e-08
 31
0
 40
1
 41
1.5707
 42
3.14169
  0
LINE
  5
CE9
330
A02
100
AcDbEntity
  8
Shape2DView
100
AcDbLine
 10
19.4757
 20
0.660466
 30
0
 11
19.5757
 21
0.660468
 31
0
  0
LINE
  5
CEA
330
A02
100
AcDbEntity
  8
Shape2DView
100
AcDbLine
 10
19.4757
 20
0.610466
 30
0
 11
19.4757
 21
0.660466
 31
0
  0
LINE
  5
CEB
330
A02
100
AcDbEntity
  8
Shape2DView
100
AcDbLine
 10
18.7757
 20
0.610466
 30
0
 11
19.4757
 21
0.610466
 31
0
  0
LINE
  5
CEC
330
A02
100
AcDbEntity
  8
Shape2DView
100
AcDbLine
 10
18.7757
 20
0.610466
 30
0
 11
18.7757
 21
0.660466
 31
0
  0
LINE
  5
CED
330
A02
100
AcDbEntity
  8
Shape2DView
100
AcDbLine
 10
18.6757
 20
0.660468
 30
0
 11
18.7757
 21
0.660466
 31
0
  0
ELLIPSE
  5
CEE
330
A02
100
AcDbEntity
  8
Shape2DView
100
AcDbEllipse
 10
18.6757
 20
0.760456
 30
0
 11
-0.0999839
 21
-1.74817e-08
 31
0
 40
1
 41
6.28309
 42
1.5709
  0
ELLIPSE
  5
CEF
330
A02
100
AcDbEntity
  8
Shape2DView
100
AcDbEllipse
 10
18.6757
 20
0.760456
 30
0
 11
-0.0999839
 21
-1.74817e-08
 31
0
 40
1
 41
6.28309
 42
1.5709
  0
LINE
  5
CF0
330
A02
100
AcDbEntity
  8
Shape2DView
100
AcDbLine
 10
18.5757
 20
0.760466
 30
0
 11
18.5757
 21
1.06047
 31
0
  0
ELLIPSE
  5
CF1
330
A02
100
AcDbEntity
  8
Shape2DView
100
AcDbEllipse
 10
18.6757
 20
1.06048
 30
0
 11
-0.0999763
 21
-1.74804e-08
 31
0
 40
1
 41
4.8628
 42
0.000154725
  0
ELLIPSE
  5
CF2
330
A02
100
AcDbEntity
  8
Shape2DView
100
AcDbEllipse
 10
18.6457
 20
1.25819
 30
0
 11
0.0999764
 21
1.74804e-08
 31
0
 40
1
 41
-1.42038
 42
-6.28303
  0
LINE
  5
CF3
330
A02
100
AcDbEntity
  8
Shape2DView
100
AcDbLine
 10
18.7457
 20
1.2582
 30
0
 11
18.7457
 21
2.06047
 31
0
  0
ELLIPSE
  5
CF4
330
A02
100
AcDbEntity
  8
Shape2DView
100
AcDbEllipse
 10
18.8457
 20
2.06048
 30
0
 11
-0.0999839
 21
-1.74817e-08
 31
0
 40
1
 41
4.71229
 42
9.84964e-05
  0
LINE
  5
CF5
330
A02
100
AcDbEntity
  8
Shape2DView
100
AcDbLine
 10
18.8457
 20
2.16046
 30
0
 11
19.4057
 21
2.16046
 31
0
  0
ELLIPSE
  5
CF6
330
A02
100
AcDbEntity
  8
Shape2DView
100
AcDbEllipse
 10
19.4057
 20
2.06048
 30
0
 11
-0.0999839
 21
-1.74817e-08
 31
0
 40
1
 41
3.14149
 42
4.71249
  0
LINE
  5
CF7
330
A02
100
AcDbEntity
  8
Shape2DView
100
AcDbLine
 10
19.5057
 20
1.2582
 30
0
 11
19.5057
 21
2.06047
 31
0
  0
SPLINE
  5
CF8
330
A02
100
AcDbEntity
  8
Shape2DView
100
AcDbSpline
210
0
220
0
230
1
 70
8
 71
2
 72
6
 73
3
 74
0
 40
0
 40
0
 40
0
 40
1.04774
 40
1.04774
 40
1.04774
 10
19.4757
 20
0.118483
 30
0
 10
19.4757
 20
0.175079
 30
0
 10
19.4757
 20
0.205075
 30
0
  0
LINE
  5
CF9
330
A02
100
AcDbEntity
  8
Shape2DView
100
AcDbLine
 10
19.4757
 20
0.510252
 30
0
 11
19.4757
 21
0.610466
 31
0
  0
LINE
  5
CFA
330
A02
100
AcDbEntity
  8
Shape2DView
100
AcDbLine
 10
19.4757
 20
0.510252
 30
0
 11
19.4757
 21
0.297461
 31
0
  0
LINE
  5
CFB
330
A02
100
AcDbEntity
  8
Shape2DView
100
AcDbLine
 10
19.4757
 20
0.205082
 30
0
 11
19.4757
 21
0.297461
 31
0
  0
LINE
  5
CFC
330
A02
100
AcDbEntity
  8
Shape2DView
100
AcDbLine
 10
18.7757
 20
0.118482
 30
0
 11
19.4757
 21
0.118483
 31
0
  0
SPLINE
  5
CFD
330
A02
100
AcDbEntity
  8
Shape2DView
100
AcDbSpline
210
0
220
0
230
1
 70
8
 71
2
 72
6
 73
3
 74
0
 40
0
 40
0
 40
0
 40
1.04774
 40
1.04774
 40
1.04774
 10
18.7757
 20
0.118482
 30
0
 10
18.7757
 20
0.175079
 30
0
 10
18.7757
 20
0.205075
 30
0
  0
LINE
  5
CFE
330
A02
100
AcDbEntity
  8
Shape2DView
100
AcDbLine
 10
19.4757
 20
0.205082
 30
0
 11
18.7757
 21
0.205082
 31
0
  0
SPLINE
  5
CFF
330
A02
100
AcDbEntity
  8
Shape2DView
100
AcDbSpline
210
0
220
0
230
1
 70
8
 71
2
 72
6
 73
3
 74
0
 40
0
 40
0
 40
0
 40
1.04774
 40
1.04774
 40
1.04774
 10
19.4757
 20
0.118483
 30
0
 10
19.4757
 20
0.175079
 30
0
 10
19.4757
 20
0.205075
 30
0
  0
LINE
  5
D00
330
A02
100
AcDbEntity
  8
Shape2DView
100
AcDbLine
 10
18.7757
 20
0.510251
 30
0
 11
18.7757
 21
0.610466
 31
0
  0
LINE
  5
D01
330
A02
100
AcDbEntity
  8
Shape2DView
100
AcDbLine
 10
18.7757
 20
0.297461
 30
0
 11
18.7757
 21
0.510251
 31
0
  0
LINE
  5
D02
330
A02
100
AcDbEntity
  8
Shape2DView
100
AcDbLine
 10
18.7757
 20
0.205082
 30
0
 11
18.7757
 21
0.297461
 31
0
  0
SPLINE
  5
D03
330
A02
100
AcDbEntity
  8
Shape2DView
100
AcDbSpline
210
0
220
0
230
1
 70
8
 71
2
 72
6
 73
3
 74
0
 40
0
 40
0
 40
0
 40
1.04774
 40
1.04774
 40
1.04774
 10
18.7757
 20
0.118482
 30
0
 10
18.7757
 20
0.175079
 30
0
 10
18.7757
 20
0.205075
 30
0
  0
LINE
  5
D04
330
A02
100
AcDbEntity
  8
Shape2DView
100
AcDbLine
 10
18.7757
 20
0.510251
 30
0
 11
19.4757
 21
0.510252
 31
0
  0
LINE
  5
D05
330
A02
100
AcDbEntity
  8
Shape2DView
100
AcDbLine
 10
19.4757
 20
0.510252
 30
0
 11
19.4757
 21
0.610466
 31
0
  0
LINE
  5
D06
330
A02
100
AcDbEntity
  8
Shape2DView
100
AcDbLine
 10
18.7757
 20
0.610466
 30
0
 11
19.4757
 21
0.610466
 31
0
  0
LINE
  5
D07
330
A02
100
AcDbEntity
  8
Shape2DView
100
AcDbLine
 10
18.7757
 20
0.510251
 30
0
 11
18.7757
 21
0.610466
 31
0
  0
LINE
  5
D08
330
A02
100
AcDbEntity
  8
Shape2DView
100
AcDbLine
 10
18.7757
 20
0.297461
 30
0
 11
19.4757
 21
0.297461
 31
0
  0
LINE
  5
D09
330
A02
100
AcDbEntity
  8
Shape2DView
100
AcDbLine
 10
19.4757
 20
0.510252
 30
0
 11
19.4757
 21
0.297461
 31
0
  0
LINE
  5
D0A
330
A02
100
AcDbEntity
  8
Shape2DView
100
AcDbLine
 10
18.7757
 20
0.510251
 30
0
 11
19.4757
 21
0.510252
 31
0
  0
LINE
  5
D0B
330
A02
100
AcDbEntity
  8
Shape2DView
100
AcDbLine
 10
18.7757
 20
0.297461
 30
0
 11
18.7757
 21
0.510251
 31
0
  0
LINE
  5
D0C
330
A02
100
AcDbEntity
  8
Shape2DView
100
AcDbLine
 10
19.4757
 20
0.205082
 30
0
 11
18.7757
 21
0.205082
 31
0
  0
LINE
  5
D0D
330
A02
100
AcDbEntity
  8
Shape2DView
100
AcDbLine
 10
19.4757
 20
0.205082
 30
0
 11
19.4757
 21
0.297461
 31
0
  0
LINE
  5
D0E
330
A02
100
AcDbEntity
  8
Shape2DView
100
AcDbLine
 10
18.7757
 20
0.297461
 30
0
 11
19.4757
 21
0.297461
 31
0
  0
LINE
  5
D0F
330
A02
100
AcDbEntity
  8
Shape2DView
100
AcDbLine
 10
18.7757
 20
0.205082
 30
0
 11
18.7757
 21
0.297461
 31
0
  0
LINE
  5
D10
330
A02
100
AcDbEntity
  8
Shape2DView
100
AcDbLine
 10
19.8007
 20
4.44047
 30
0
 11
19.5898
 21
4.44047
 31
0
  0
LINE
  5
D11
330
A02
100
AcDbEntity
  8
Shape2DView
100
AcDbLine
 10
23.2007
 20
4.44047
 30
0
 11
22.8007
 21
4.44047
 31
0
  0
LINE
  5
D12
330
A02
100
AcDbEntity
  8
Shape2DView
100
AcDbLine
 10
22.1507
 20
4.44047
 30
0
 11
20.8507
 21
4.44047
 31
0
  0
LINE
  5
D13
330
A02
100
AcDbEntity
  8
Shape2DView
100
AcDbLine
 10
20.2007
 20
4.44047
 30
0
 11
19.8007
 21
4.44047
 31
0
  0
LINE
  5
D14
330
A02
100
AcDbEntity
  8
Shape2DView
100
AcDbLine
 10
23.4116
 20
4.44047
 30
0
 11
23.2007
 21
4.44047
 31
0
  0
LINE
  5
D15
330
A02
100
AcDbEntity
  8
Shape2DView
100
AcDbLine
 10
18.8854
 20
4.44047
 30
0
 11
20.2007
 21
4.44047
 31
0
  0
LINE
  5
D16
330
A02
100
AcDbEntity
  8
Shape2DView
100
AcDbLine
 10
20.8507
 20
4.44047
 30
0
 11
22.1507
 21
4.44047
 31
0
  0
LINE
  5
D17
330
A02
100
AcDbEntity
  8
Shape2DView
100
AcDbLine
 10
22.8007
 20
4.44047
 30
0
 11
24.116
 21
4.44047
 31
0
  0
ELLIPSE
  5
D18
330
A02
100
AcDbEntity
  8
Shape2DView
100
AcDbEllipse
 10
24.6407
 20
4.71047
 30
0
 11
0.299996
 21
5.2453e-08
 31
0
 40
4.37114e-08
 41
4.71238
 42
9.34016e-06
  0
ELLIPSE
  5
D19
330
A02
100
AcDbEntity
  8
Shape2DView
100
AcDbEllipse
 10
24.6907
 20
4.71047
 30
0
 11
0.249995
 21
4.37106e-08
 31
0
 40
4.37114e-08
 41
6.28317
 42
1.57081
  0
ELLIPSE
  5
D1A
330
A02
100
AcDbEntity
  8
Shape2DView
100
AcDbEllipse
 10
24.6907
 20
4.71047
 30
0
 11
0.249995
 21
4.37106e-08
 31
0
 40
4.37114e-08
 41
6.28317
 42
1.57081
  0
ELLIPSE
  5
D1B
330
A02
100
AcDbEntity
  8
Shape2DView
100
AcDbEllipse
 10
24.6407
 20
4.71047
 30
0
 11
0.299996
 21
5.2453e-08
 31
0
 40
4.37114e-08
 41
4.71238
 42
9.34016e-06
  0
LINE
  5
D1C
330
A02
100
AcDbEntity
  8
Shape2DView
100
AcDbLine
 10
23.6507
 20
4.71047
 30
0
 11
23.759
 21
4.71047
 31
0
  0
LINE
  5
D1D
330
A02
100
AcDbEntity
  8
Shape2DView
100
AcDbLine
 10
23.761
 20
4.71047
 30
0
 11
23.6507
 21
4.71047
 31
0
  0
LINE
  5
D1E
330
A02
100
AcDbEntity
  8
Shape2DView
100
AcDbLine
 10
18.8854
 20
4.44047
 30
0
 11
20.2007
 21
4.44047
 31
0
  0
LINE
  5
D1F
330
A02
100
AcDbEntity
  8
Shape2DView
100
AcDbLine
 10
20.8507
 20
4.44047
 30
0
 11
22.1507
 21
4.44047
 31
0
  0
LINE
  5
D20
330
A02
100
AcDbEntity
  8
Shape2DView
100
AcDbLine
 10
22.8007
 20
4.44047
 30
0
 11
24.116
 21
4.44047
 31
0
  0
LINE
  5
D21
330
A02
100
AcDbEntity
  8
Shape2DView
100
AcDbLine
 10
19.8007
 20
4.44047
 30
0
 11
19.5898
 21
4.44047
 31
0
  0
LINE
  5
D22
330
A02
100
AcDbEntity
  8
Shape2DView
100
AcDbLine
 10
23.2007
 20
4.44047
 30
0
 11
22.8007
 21
4.44047
 31
0
  0
LINE
  5
D23
330
A02
100
AcDbEntity
  8
Shape2DView
100
AcDbLine
 10
22.1507
 20
4.44047
 30
0
 11
20.8507
 21
4.44047
 31
0
  0
LINE
  5
D24
330
A02
100
AcDbEntity
  8
Shape2DView
100
AcDbLine
 10
20.2007
 20
4.44047
 30
0
 11
19.8007
 21
4.44047
 31
0
  0
LINE
  5
D25
330
A02
100
AcDbEntity
  8
Shape2DView
100
AcDbLine
 10
23.4116
 20
4.44047
 30
0
 11
23.2007
 21
4.44047
 31
0
  0
LINE
  5
D26
330
A02
100
AcDbEntity
  8
Shape2DView
100
AcDbLine
 10
19.3507
 20
4.71047
 30
0
 11
19.3507
 21
4.71047
 31
0
  0
LINE
  5
D27
330
A02
100
AcDbEntity
  8
Shape2DView
100
AcDbLine
 10
19.3507
 20
4.71047
 30
0
 11
19.2404
 21
4.71047
 31
0
  0
LINE
  5
D28
330
A02
100
AcDbEntity
  8
Shape2DView
100
AcDbLine
 10
19.3507
 20
4.71047
 30
0
 11
19.2404
 21
4.71047
 31
0
  0
LINE
  5
D29
330
A02
100
AcDbEntity
  8
Shape2DView
100
AcDbLine
 10
19.2424
 20
4.71047
 30
0
 11
19.3507
 21
4.71047
 31
0
  0
ELLIPSE
  5
D2A
330
A02
100
AcDbEntity
  8
Shape2DView
100
AcDbEllipse
 10
18.3607
 20
4.71047
 30
0
 11
0.299996
 21
5.2453e-08
 31
0
 40
4.37114e-08
 41
3.14158
 42
4.7124
  0
ELLIPSE
  5
D2B
330
A02
100
AcDbEntity
  8
Shape2DView
100
AcDbEllipse
 10
18.3107
 20
4.71047
 30
0
 11
0.249995
 21
4.37106e-08
 31
0
 40
4.37114e-08
 41
1.57078
 42
3.14161
  0
LINE
  5
D2C
330
A02
100
AcDbEntity
  8
Shape2DView
100
AcDbLine
 10
19.3507
 20
4.71047
 30
0
 11
19.3507
 21
4.71047
 31
0
  0
LINE
  5
D2D
330
A02
100
AcDbEntity
  8
Shape2DView
100
AcDbLine
 10
19.2424
 20
4.71047
 30
0
 11
19.3507
 21
4.71047
 31
0
  0
ELLIPSE
  5
D2E
330
A02
100
AcDbEntity
  8
Shape2DView
100
AcDbEllipse
 10
18.3607
 20
4.71047
 30
0
 11
0.299996
 21
5.2453e-08
 31
0
 40
4.37114e-08
 41
3.14158
 42
4.7124
  0
ELLIPSE
  5
D2F
330
A02
100
AcDbEntity
  8
Shape2DView
100
AcDbEllipse
 10
18.3107
 20
4.71047
 30
0
 11
0.249995
 21
4.37106e-08
 31
0
 40
4.37114e-08
 41
1.57078
 42
3.14161
  0
LINE
  5
D30
330
A02
100
AcDbEntity
  8
Shape2DView
100
AcDbLine
 10
23.761
 20
4.71047
 30
0
 11
23.6507
 21
4.71047
 31
0
  0
LINE
  5
D31
330
A02
100
AcDbEntity
  8
Shape2DView
100
AcDbLine
 10
23.6507
 20
4.71047
 30
0
 11
23.6507
 21
4.71047
 31
0
  0
LINE
  5
D32
330
A02
100
AcDbEntity
  8
Shape2DView
100
AcDbLine
 10
23.6507
 20
4.71047
 30
0
 11
23.6507
 21
4.71047
 31
0
  0
LINE
  5
D33
330
A02
100
AcDbEntity
  8
Shape2DView
100
AcDbLine
 10
23.6507
 20
4.71047
 30
0
 11
23.759
 21
4.71047
 31
0
  0
LINE
  5
D34
330
A02
100
AcDbEntity
  8
Shape2DView
100
AcDbLine
 10
22.0307
 20
4.44047
 30
0
 11
22.0307
 21
4.46047
 31
0
  0
LINE
  5
D35
330
A02
100
AcDbEntity
  8
Shape2DView
100
AcDbLine
 10
22.0307
 20
4.44047
 30
0
 11
22.0307
 21
4.46047
 31
0
  0
LINE
  5
D36
330
A02
100
AcDbEntity
  8
Shape2DView
100
AcDbLine
 10
22.0307
 20
4.76047
 30
0
 11
22.2707
 21
4.76047
 31
0
  0
LINE
  5
D37
330
A02
100
AcDbEntity
  8
Shape2DView
100
AcDbLine
 10
22.0307
 20
4.76047
 30
0
 11
22.2707
 21
4.76047
 31
0
  0
LINE
  5
D38
330
A02
100
AcDbEntity
  8
Shape2DView
100
AcDbLine
 10
22.9207
 20
4.56204
 30
0
 11
22.9207
 21
4.76047
 31
0
  0
LINE
  5
D39
330
A02
100
AcDbEntity
  8
Shape2DView
100
AcDbLine
 10
22.9207
 20
4.44047
 30
0
 11
22.9207
 21
4.56204
 31
0
  0
LINE
  5
D3A
330
A02
100
AcDbEntity
  8
Shape2DView
100
AcDbLine
 10
22.9207
 20
4.44047
 30
0
 11
22.9207
 21
4.56204
 31
0
  0
LINE
  5
D3B
330
A02
100
AcDbEntity
  8
Shape2DView
100
AcDbLine
 10
22.9207
 20
4.56204
 30
0
 11
22.8007
 21
4.56204
 31
0
  0
LINE
  5
D3C
330
A02
100
AcDbEntity
  8
Shape2DView
100
AcDbLine
 10
22.6807
 20
4.76047
 30
0
 11
22.9207
 21
4.76047
 31
0
  0
LINE
  5
D3D
330
A02
100
AcDbEntity
  8
Shape2DView
100
AcDbLine
 10
22.9207
 20
4.56204
 30
0
 11
22.8007
 21
4.56204
 31
0
  0
LINE
  5
D3E
330
A02
100
AcDbEntity
  8
Shape2DView
100
AcDbLine
 10
22.9207
 20
4.56204
 30
0
 11
22.9207
 21
4.76047
 31
0
  0
LINE
  5
D3F
330
A02
100
AcDbEntity
  8
Shape2DView
100
AcDbLine
 10
22.6807
 20
4.76047
 30
0
 11
22.9207
 21
4.76047
 31
0
  0
LINE
  5
D40
330
A02
100
AcDbEntity
  8
Shape2DView
100
AcDbLine
 10
21.3807
 20
4.44047
 30
0
 11
21.3807
 21
4.46047
 31
0
  0
LINE
  5
D41
330
A02
100
AcDbEntity
  8
Shape2DView
100
AcDbLine
 10
21.6207
 20
4.44047
 30
0
 11
21.6207
 21
4.46047
 31
0
  0
LINE
  5
D42
330
A02
100
AcDbEntity
  8
Shape2DView
100
AcDbLine
 10
21.6207
 20
4.44047
 30
0
 11
21.6207
 21
4.46047
 31
0
  0
LINE
  5
D43
330
A02
100
AcDbEntity
  8
Shape2DView
100
AcDbLine
 10
21.3807
 20
4.44047
 30
0
 11
21.3807
 21
4.46047
 31
0
  0
LINE
  5
D44
330
A02
100
AcDbEntity
  8
Shape2DView
100
AcDbLine
 10
21.3807
 20
4.76047
 30
0
 11
21.6207
 21
4.76047
 31
0
  0
LINE
  5
D45
330
A02
100
AcDbEntity
  8
Shape2DView
100
AcDbLine
 10
21.3807
 20
4.76047
 30
0
 11
21.6207
 21
4.76047
 31
0
  0
LINE
  5
D46
330
A02
100
AcDbEntity
  8
Shape2DView
100
AcDbLine
 10
20.9707
 20
4.44047
 30
0
 11
20.9707
 21
4.46047
 31
0
  0
LINE
  5
D47
330
A02
100
AcDbEntity
  8
Shape2DView
100
AcDbLine
 10
20.9707
 20
4.44047
 30
0
 11
20.9707
 21
4.46047
 31
0
  0
LINE
  5
D48
330
A02
100
AcDbEntity
  8
Shape2DView
100
AcDbLine
 10
20.7307
 20
4.76047
 30
0
 11
20.9707
 21
4.76047
 31
0
  0
LINE
  5
D49
330
A02
100
AcDbEntity
  8
Shape2DView
100
AcDbLine
 10
20.7307
 20
4.76047
 30
0
 11
20.9707
 21
4.76047
 31
0
  0
LINE
  5
D4A
330
A02
100
AcDbEntity
  8
Shape2DView
100
AcDbLine
 10
20.2007
 20
4.56204
 30
0
 11
20.0807
 21
4.56204
 31
0
  0
LINE
  5
D4B
330
A02
100
AcDbEntity
  8
Shape2DView
100
AcDbLine
 10
20.0807
 20
4.44047
 30
0
 11
20.0807
 21
4.56204
 31
0
  0
LINE
  5
D4C
330
A02
100
AcDbEntity
  8
Shape2DView
100
AcDbLine
 10
20.0807
 20
4.56204
 30
0
 11
20.0807
 21
4.76047
 31
0
  0
LINE
  5
D4D
330
A02
100
AcDbEntity
  8
Shape2DView
100
AcDbLine
 10
20.0807
 20
4.44047
 30
0
 11
20.0807
 21
4.56204
 31
0
  0
LINE
  5
D4E
330
A02
100
AcDbEntity
  8
Shape2DView
100
AcDbLine
 10
20.0807
 20
4.76047
 30
0
 11
20.3207
 21
4.76047
 31
0
  0
LINE
  5
D4F
330
A02
100
AcDbEntity
  8
Shape2DView
100
AcDbLine
 10
20.0807
 20
4.76047
 30
0
 11
20.3207
 21
4.76047
 31
0
  0
LINE
  5
D50
330
A02
100
AcDbEntity
  8
Shape2DView
100
AcDbLine
 10
20.0807
 20
4.56204
 30
0
 11
20.0807
 21
4.76047
 31
0
  0
LINE
  5
D51
330
A02
100
AcDbEntity
  8
Shape2DView
100
AcDbLine
 10
20.2007
 20
4.56204
 30
0
 11
20.0807
 21
4.56204
 31
0
  0
LINE
  5
D52
330
A02
100
AcDbEntity
  8
Shape2DView
100
AcDbLine
 10
24.925
 20
8.4
 30
0
 11
23.475
 21
8.4
 31
0
  0
LINE
  5
D53
330
A02
100
AcDbEntity
  8
Shape2DView
100
AcDbLine
 10
23.475
 20
8.4
 30
0
 11
23.475
 21
6.2
 31
0
  0
LINE
  5
D54
330
A02
100
AcDbEntity
  8
Shape2DView
100
AcDbLine
 10
23.475
 20
6.2
 30
0
 11
24.925
 21
6.2
 31
0
  0
LINE
  5
D55
330
A02
100
AcDbEntity
  8
Shape2DView
100
AcDbLine
 10
24.925
 20
6.2
 30
0
 11
24.925
 21
8.4
 31
0
  0
LINE
  5
D56
330
A02
100
AcDbEntity
  8
Shape2DView
100
AcDbLine
 10
20.2
 20
10.925
 30
0
 11
20.2
 21
9.47501
 31
0
  0
LINE
  5
D57
330
A02
100
AcDbEntity
  8
Shape2DView
100
AcDbLine
 10
20.2
 20
9.47501
 30
0
 11
22.4
 21
9.47501
 31
0
  0
LINE
  5
D58
330
A02
100
AcDbEntity
  8
Shape2DView
100
AcDbLine
 10
22.4
 20
9.47501
 30
0
 11
22.4
 21
10.925
 31
0
  0
LINE
  5
D59
330
A02
100
AcDbEntity
  8
Shape2DView
100
AcDbLine
 10
22.4
 20
10.925
 30
0
 11
20.2
 21
10.925
 31
0
  0
LINE
  5
D5A
330
A02
100
AcDbEntity
  8
Shape2DView
100
AcDbLine
 10
15.5
 20
8.825
 30
0
 11
15.5
 21
7.375
 31
0
  0
LINE
  5
D5B
330
A02
100
AcDbEntity
  8
Shape2DView
100
AcDbLine
 10
15.5
 20
7.375
 30
0
 11
17.7
 21
7.375
 31
0
  0
LINE
  5
D5C
330
A02
100
AcDbEntity
  8
Shape2DView
100
AcDbLine
 10
17.7
 20
7.375
 30
0
 11
17.7
 21
8.825
 31
0
  0
LINE
  5
D5D
330
A02
100
AcDbEntity
  8
Shape2DView
100
AcDbLine
 10
17.7
 20
8.825
 30
0
 11
15.5
 21
8.825
 31
0
  0
ELLIPSE
  5
D5E
330
A02
100
AcDbEntity
  8
Shape2DView
100
AcDbEllipse
 10
24.4955
 20
30.54
 30
0
 11
3.14662e-08
 21
-0.741404
 31
0
 40
1
 41
4.71239
 42
1.5708
  0
ELLIPSE
  5
D5F
330
A02
100
AcDbEntity
  8
Shape2DView
100
AcDbEllipse
 10
24.4955
 20
30.54
 30
0
 11
3.14662e-08
 21
-0.741404
 31
0
 40
1
 41
4.71239
 42
1.5708
  0
LINE
  5
D60
330
A02
100
AcDbEntity
  8
Shape2DView
100
AcDbLine
 10
18.95
 20
21.85
 30
0
 11
18.95
 21
22.95
 31
0
  0
ELLIPSE
  5
D61
330
A02
100
AcDbEntity
  8
Shape2DView
100
AcDbEllipse
 10
18.95
 20
21.85
 30
0
 11
3.49691e-08
 21
-0.8
 31
0
 40
4.37114e-08
 41
-0
 42
-4.71239
  0
LINE
  5
D62
330
A02
100
AcDbEntity
  8
Shape2DView
100
AcDbLine
 10
18.95
 20
21.05
 30
0
 11
18.05
 21
21.05
 31
0
  0
LINE
  5
D63
330
A02
100
AcDbEntity
  8
Shape2DView
100
AcDbLine
 10
20.95
 20
21.85
 30
0
 11
20.95
 21
22.95
 31
0
  0
ELLIPSE
  5
D64
330
A02
100
AcDbEntity
  8
Shape2DView
100
AcDbEllipse
 10
20.95
 20
21.85
 30
0
 11
3.49691e-08
 21
-0.8
 31
0
 40
4.37114e-08
 41
-0
 42
-4.71239
  0
LINE
  5
D65
330
A02
100
AcDbEntity
  8
Shape2DView
100
AcDbLine
 10
20.95
 20
21.05
 30
0
 11
20.05
 21
21.05
 31
0
  0
LINE
  5
D66
330
A02
100
AcDbEntity
  8
Shape2DView
100
AcDbLine
 10
22.95
 20
21.85
 30
0
 11
22.95
 21
22.95
 31
0
  0
ELLIPSE
  5
D67
330
A02
100
AcDbEntity
  8
Shape2DView
100
AcDbEllipse
 10
22.95
 20
21.85
 30
0
 11
3.49691e-08
 21
-0.8
 31
0
 40
4.37114e-08
 41
-0
 42
-4.71239
  0
LINE
  5
D68
330
A02
100
AcDbEntity
  8
Shape2DView
100
AcDbLine
 10
22.95
 20
21.05
 30
0
 11
22.05
 21
21.05
 31
0
  0
LINE
  5
D69
330
A02
100
AcDbEntity
  8
Shape2DView
100
AcDbLine
 10
24.95
 20
21.85
 30
0
 11
24.95
 21
22.95
 31
0
  0
ELLIPSE
  5
D6A
330
A02
100
AcDbEntity
  8
Shape2DView
100
AcDbEllipse
 10
24.95
 20
21.85
 30
0
 11
3.49691e-08
 21
-0.8
 31
0
 40
4.37114e-08
 41
-0
 42
-4.71239
  0
LINE
  5
D6B
330
A02
100
AcDbEntity
  8
Shape2DView
100
AcDbLine
 10
24.95
 20
21.05
 30
0
 11
24.05
 21
21.05
 31
0
  0
ELLIPSE
  5
D6C
330
A02
100
AcDbEntity
  8
Shape2DView
100
AcDbEllipse
 10
17.05
 20
33.15
 30
0
 11
2.18557e-08
 21
-0.5
 31
0
 40
4.37114e-08
 41
-4.71239
 42
-3.14159
  0
LINE
  5
D6D
330
A02
100
AcDbEntity
  8
Shape2DView
100
AcDbLine
 10
17.05
 20
33.15
 30
0
 11
17.05
 21
32.05
 31
0
  0
ELLIPSE
  5
D6E
330
A02
100
AcDbEntity
  8
Shape2DView
100
AcDbEllipse
 10
17.05
 20
33.15
 30
0
 11
-3.49691e-08
 21
0.8
 31
0
 40
4.37114e-08
 41
4.71239
 42
0
  0
LINE
  5
D6F
330
A02
100
AcDbEntity
  8
Shape2DView
100
AcDbLine
 10
17.05
 20
33.95
 30
0
 11
17.95
 21
33.95
 31
0
  0
ELLIPSE
  5
D70
330
A02
100
AcDbEntity
  8
Shape2DView
100
AcDbEllipse
 10
19.05
 20
33.15
 30
0
 11
2.18557e-08
 21
-0.5
 31
0
 40
4.37114e-08
 41
-4.71239
 42
-3.14159
  0
LINE
  5
D71
330
A02
100
AcDbEntity
  8
Shape2DView
100
AcDbLine
 10
19.05
 20
33.15
 30
0
 11
19.05
 21
32.05
 31
0
  0
ELLIPSE
  5
D72
330
A02
100
AcDbEntity
  8
Shape2DView
100
AcDbEllipse
 10
19.05
 20
33.15
 30
0
 11
-3.49691e-08
 21
0.8
 31
0
 40
4.37114e-08
 41
4.71239
 42
0
  0
LINE
  5
D73
330
A02
100
AcDbEntity
  8
Shape2DView
100
AcDbLine
 10
19.05
 20
33.95
 30
0
 11
19.95
 21
33.95
 31
0
  0
ELLIPSE
  5
D74
330
A02
100
AcDbEntity
  8
Shape2DView
100
AcDbEllipse
 10
21.05
 20
33.15
 30
0
 11
2.18557e-08
 21
-0.5
 31
0
 40
4.37114e-08
 41
-4.71239
 42
-3.14159
  0
LINE
  5
D75
330
A02
100
AcDbEntity
  8
Shape2DView
100
AcDbLine
 10
21.05
 20
33.15
 30
0
 11
21.05
 21
32.05
 31
0
  0
ELLIPSE
  5
D76
330
A02
100
AcDbEntity
  8
Shape2DView
100
AcDbEllipse
 10
21.05
 20
33.15
 30
0
 11
-3.49691e-08
 21
0.8
 31
0
 40
4.37114e-08
 41
4.71239
 42
0
  0
LINE
  5
D77
330
A02
100
AcDbEntity
  8
Shape2DView
100
AcDbLine
 10
21.05
 20
33.95
 30
0
 11
21.95
 21
33.95
 31
0
  0
ELLIPSE
  5
D78
330
A02
100
AcDbEntity
  8
Shape2DView
100
AcDbEllipse
 10
23.05
 20
33.15
 30
0
 11
2.18557e-08
 21
-0.5
 31
0
 40
4.37114e-08
 41
-4.71239
 42
-3.14159
  0
LINE
  5
D79
330
A02
100
AcDbEntity
  8
Shape2DView
100
AcDbLine
 10
23.05
 20
33.15
 30
0
 11
23.05
 21
32.05
 31
0
  0
ELLIPSE
  5
D7A
330
A02
100
AcDbEntity
  8
Shape2DView
100
AcDbEllipse
 10
23.05
 20
33.15
 30
0
 11
-3.49691e-08
 21
0.8
 31
0
 40
4.37114e-08
 41
4.71239
 42
0
  0
LINE
  5
D7B
330
A02
100
AcDbEntity
  8
Shape2DView
100
AcDbLine
 10
23.05
 20
33.95
 30
0
 11
23.95
 21
33.95
 31
0
  0
LINE
  5
D7C
330
A02
100
AcDbEntity
  8
Shape2DView
100
AcDbLine
 10
16.05
 20
22.95
 30
0
 11
25.95
 21
22.95
 31
0
  0
LINE
  5
D7D
330
A02
100
AcDbEntity
  8
Shape2DView
100
AcDbLine
 10
25.95
 20
32.05
 30
0
 11
16.05
 21
32.05
 31
0
  0
LINE
  5
D7E
330
A02
100
AcDbEntity
  8
Shape2DView
100
AcDbLine
 10
25.95
 20
22.95
 30
0
 11
25.95
 21
32.05
 31
0
  0
LINE
  5
D7F
330
A02
100
AcDbEntity
  8
Shape2DView
100
AcDbLine
 10
16.05
 20
32.05
 30
0
 11
16.05
 21
22.95
 31
0
  0
ELLIPSE
  5
D80
330
A02
100
AcDbEntity
  8
Shape2DView
100
AcDbEllipse
 10
24.4955
 20
30.54
 30
0
 11
3.14662e-08
 21
-0.741404
 31
0
 40
1
 41
1.5708
 42
4.71239
  0
LINE
  5
D81
330
A02
100
AcDbEntity
  8
Shape2DView
100
AcDbLine
 10
17.95
 20
33.15
 30
0
 11
17.95
 21
32.05
 31
0
  0
ELLIPSE
  5
D82
330
A02
100
AcDbEntity
  8
Shape2DView
100
AcDbEllipse
 10
17.95
 20
33.15
 30
0
 11
3.49691e-08
 21
-0.8
 31
0
 40
4.37114e-08
 41
-4.71239
 42
-3.14159
  0
LINE
  5
D83
330
A02
100
AcDbEntity
  8
Shape2DView
100
AcDbLine
 10
19.95
 20
33.15
 30
0
 11
19.95
 21
32.05
 31
0
  0
ELLIPSE
  5
D84
330
A02
100
AcDbEntity
  8
Shape2DView
100
AcDbEllipse
 10
19.95
 20
33.15
 30
0
 11
3.49691e-08
 21
-0.8
 31
0
 40
4.37114e-08
 41
-4.71239
 42
-3.14159
  0
LINE
  5
D85
330
A02
100
AcDbEntity
  8
Shape2DView
100
AcDbLine
 10
21.95
 20
33.15
 30
0
 11
21.95
 21
32.05
 31
0
  0
ELLIPSE
  5
D86
330
A02
100
AcDbEntity
  8
Shape2DView
100
AcDbEllipse
 10
21.95
 20
33.15
 30
0
 11
3.49691e-08
 21
-0.8
 31
0
 40
4.37114e-08
 41
-4.71239
 42
-3.14159
  0
LINE
  5
D87
330
A02
100
AcDbEntity
  8
Shape2DView
100
AcDbLine
 10
23.95
 20
33.15
 30
0
 11
23.95
 21
32.05
 31
0
  0
ELLIPSE
  5
D88
330
A02
100
AcDbEntity
  8
Shape2DView
100
AcDbEllipse
 10
23.95
 20
33.15
 30
0
 11
3.49691e-08
 21
-0.8
 31
0
 40
4.37114e-08
 41
-4.71239
 42
-3.14159
  0
ELLIPSE
  5
D89
330
A02
100
AcDbEntity
  8
Shape2DView
100
AcDbEllipse
 10
18.05
 20
21.85
 30
0
 11
-3.49691e-08
 21
0.8
 31
0
 40
4.37114e-08
 41
3.14159
 42
4.71239
  0
LINE
  5
D8A
330
A02
100
AcDbEntity
  8
Shape2DView
100
AcDbLine
 10
18.05
 20
21.85
 30
0
 11
18.05
 21
22.95
 31
0
  0
ELLIPSE
  5
D8B
330
A02
100
AcDbEntity
  8
Shape2DView
100
AcDbEllipse
 10
18.05
 20
21.85
 30
0
 11
2.18557e-08
 21
-0.5
 31
0
 40
4.37114e-08
 41
-0
 42
-4.71239
  0
ELLIPSE
  5
D8C
330
A02
100
AcDbEntity
  8
Shape2DView
100
AcDbEllipse
 10
20.05
 20
21.85
 30
0
 11
-3.49691e-08
 21
0.8
 31
0
 40
4.37114e-08
 41
3.14159
 42
4.71239
  0
LINE
  5
D8D
330
A02
100
AcDbEntity
  8
Shape2DView
100
AcDbLine
 10
20.05
 20
21.85
 30
0
 11
20.05
 21
22.95
 31
0
  0
ELLIPSE
  5
D8E
330
A02
100
AcDbEntity
  8
Shape2DView
100
AcDbEllipse
 10
20.05
 20
21.85
 30
0
 11
2.18557e-08
 21
-0.5
 31
0
 40
4.37114e-08
 41
-0
 42
-4.71239
  0
ELLIPSE
  5
D8F
330
A02
100
AcDbEntity
  8
Shape2DView
100
AcDbEllipse
 10
22.05
 20
21.85
 30
0
 11
-3.49691e-08
 21
0.8
 31
0
 40
4.37114e-08
 41
3.14159
 42
4.71239
  0
LINE
  5
D90
330
A02
100
AcDbEntity
  8
Shape2DView
100
AcDbLine
 10
22.05
 20
21.85
 30
0
 11
22.05
 21
22.95
 31
0
  0
ELLIPSE
  5
D91
330
A02
100
AcDbEntity
  8
Shape2DView
100
AcDbEllipse
 10
22.05
 20
21.85
 30
0
 11
2.18557e-08
 21
-0.5
 31
0
 40
4.37114e-08
 41
-0
 42
-4.71239
  0
ELLIPSE
  5
D92
330
A02
100
AcDbEntity
  8
Shape2DView
100
AcDbEllipse
 10
24.05
 20
21.85
 30
0
 11
-3.49691e-08
 21
0.8
 31
0
 40
4.37114e-08
 41
3.14159
 42
4.71239
  0
LINE
  5
D93
330
A02
100
AcDbEntity
  8
Shape2DView
100
AcDbLine
 10
24.05
 20
21.85
 30
0
 11
24.05
 21
22.95
 31
0
  0
ELLIPSE
  5
D94
330
A02
100
AcDbEntity
  8
Shape2DView
100
AcDbEllipse
 10
24.05
 20
21.85
 30
0
 11
2.18557e-08
 21
-0.5
 31
0
 40
4.37114e-08
 41
-0
 42
-4.71239
  0
LINE
  5
D95
330
A02
100
AcDbEntity
  8
Shape2DView
100
AcDbLine
 10
26.5
 20
30.35
 30
0
 11
26.5
 21
31.25
 31
0
  0
LINE
  5
D96
330
A02
100
AcDbEntity
  8
Shape2DView
100
AcDbLine
 10
29.7
 20
30.35
 30
0
 11
29.7
 21
32.425
 31
0
  0
LINE
  5
D97
330
A02
100
AcDbEntity
  8
Shape2DView
100
AcDbLine
 10
26.7
 20
32.425
 30
0
 11
26.7
 21
30.35
 31
0
  0
LINE
  5
D98
330
A02
100
AcDbEntity
  8
Shape2DView
100
AcDbLine
 10
26.7
 20
32.425
 30
0
 11
26.7
 21
30.35
 31
0
  0
LINE
  5
D99
330
A02
100
AcDbEntity
  8
Shape2DView
100
AcDbLine
 10
35.5
 20
30.35
 30
0
 11
35.5
 21
31.3
 31
0
  0
LINE
  5
D9A
330
A02
100
AcDbEntity
  8
Shape2DView
100
AcDbLine
 10
35.5
 20
31.3
 30
0
 11
33.5
 21
31.3
 31
0
  0
LINE
  5
D9B
330
A02
100
AcDbEntity
  8
Shape2DView
100
AcDbLine
 10
33.5
 20
31.3
 30
0
 11
33.5
 21
30.35
 31
0
  0
LINE
  5
D9C
330
A02
100
AcDbEntity
  8
Shape2DView
100
AcDbLine
 10
29.7
 20
31.3
 30
0
 11
33.5
 21
31.3
 31
0
  0
LINE
  5
D9D
330
A02
100
AcDbEntity
  8
Shape2DView
100
AcDbLine
 10
36.647
 20
31.3
 30
0
 11
36.647
 21
23.7
 31
0
  0
LINE
  5
D9E
330
A02
100
AcDbEntity
  8
Shape2DView
100
AcDbLine
 10
26.5
 20
24.65
 30
0
 11
26.7
 21
24.65
 31
0
  0
LINE
  5
D9F
330
A02
100
AcDbEntity
  8
Shape2DView
100
AcDbLine
 10
26.5
 20
30.35
 30
0
 11
26.7
 21
30.35
 31
0
  0
LINE
  5
DA0
330
A02
100
AcDbEntity
  8
Shape2DView
100
AcDbLine
 10
26.7
 20
24.65
 30
0
 11
26.7
 21
22.575
 31
0
  0
LINE
  5
DA1
330
A02
100
AcDbEntity
  8
Shape2DView
100
AcDbLine
 10
13.5
 20
23.75
 30
0
 11
16.05
 21
23.75
 31
0
  0
LINE
  5
DA2
330
A02
100
AcDbEntity
  8
Shape2DView
100
AcDbLine
 10
25.95
 20
23.75
 30
0
 11
26.5
 21
23.75
 31
0
  0
LINE
  5
DA3
330
A02
100
AcDbEntity
  8
Shape2DView
100
AcDbLine
 10
13.5
 20
23.75
 30
0
 11
11.45
 21
23.75
 31
0
  0
LINE
  5
DA4
330
A02
100
AcDbEntity
  8
Shape2DView
100
AcDbLine
 10
26.5
 20
23.75
 30
0
 11
26.5
 21
24.65
 31
0
  0
LINE
  5
DA5
330
A02
100
AcDbEntity
  8
Shape2DView
100
AcDbLine
 10
11.45
 20
31.25
 30
0
 11
13.5
 21
31.25
 31
0
  0
LINE
  5
DA6
330
A02
100
AcDbEntity
  8
Shape2DView
100
AcDbLine
 10
26.5
 20
31.25
 30
0
 11
25.95
 21
31.25
 31
0
  0
LINE
  5
DA7
330
A02
100
AcDbEntity
  8
Shape2DView
100
AcDbLine
 10
16.05
 20
31.25
 30
0
 11
13.5
 21
31.25
 31
0
  0
LINE
  5
DA8
330
A02
100
AcDbEntity
  8
Shape2DView
100
AcDbLine
 10
27.5
 20
24.65
 30
0
 11
26.5
 21
24.65
 31
0
  0
LINE
  5
DA9
330
A02
100
AcDbEntity
  8
Shape2DView
100
AcDbLine
 10
27.5
 20
24.65
 30
0
 11
27.5
 21
30.35
 31
0
  0
LINE
  5
DAA
330
A02
100
AcDbEntity
  8
Shape2DView
100
AcDbLine
 10
27.5
 20
30.35
 30
0
 11
26.5
 21
30.35
 31
0
  0
LINE
  5
DAB
330
A02
100
AcDbEntity
  8
Shape2DView
100
AcDbLine
 10
13.5
 20
31.25
 30
0
 11
13.5
 21
23.75
 31
0
  0
LINE
  5
DAC
330
A02
100
AcDbEntity
  8
Shape2DView
100
AcDbLine
 10
29.7
 20
22.575
 30
0
 11
29.7
 21
24.65
 31
0
  0
LINE
  5
DAD
330
A02
100
AcDbEntity
  8
Shape2DView
100
AcDbLine
 10
26.7
 20
24.65
 30
0
 11
26.7
 21
22.575
 31
0
  0
LINE
  5
DAE
330
A02
100
AcDbEntity
  8
Shape2DView
100
AcDbLine
 10
36.647
 20
23.7
 30
0
 11
35.5
 21
23.7
 31
0
  0
LINE
  5
DAF
330
A02
100
AcDbEntity
  8
Shape2DView
100
AcDbLine
 10
33.5
 20
23.7
 30
0
 11
35.5
 21
23.7
 31
0
  0
LINE
  5
DB0
330
A02
100
AcDbEntity
  8
Shape2DView
100
AcDbLine
 10
33.5
 20
23.7
 30
0
 11
29.7
 21
23.7
 31
0
  0
LINE
  5
DB1
330
A02
100
AcDbEntity
  8
Shape2DView
100
AcDbLine
 10
35.5
 20
31.3
 30
0
 11
36.647
 21
31.3
 31
0
  0
LINE
  5
DB2
330
A02
100
AcDbEntity
  8
Shape2DView
100
AcDbLine
 10
35.5
 20
23.7
 30
0
 11
35.5
 21
24.65
 31
0
  0
LINE
  5
DB3
330
A02
100
AcDbEntity
  8
Shape2DView
100
AcDbLine
 10
33.5
 20
24.65
 30
0
 11
33.5
 21
23.7
 31
0
  0
LINE
  5
DB4
330
A02
100
AcDbEntity
  8
Shape2DView
100
AcDbLine
 10
34.8
 20
30.35
 30
0
 11
27.5
 21
30.35
 31
0
  0
LINE
  5
DB5
330
A02
100
AcDbEntity
  8
Shape2DView
100
AcDbLine
 10
35.5
 20
30.35
 30
0
 11
34.8
 21
30.35
 31
0
  0
LINE
  5
DB6
330
A02
100
AcDbEntity
  8
Shape2DView
100
AcDbLine
 10
35.5
 20
24.65
 30
0
 11
34.8
 21
24.65
 31
0
  0
LINE
  5
DB7
330
A02
100
AcDbEntity
  8
Shape2DView
100
AcDbLine
 10
34.8
 20
24.65
 30
0
 11
27.5
 21
24.65
 31
0
  0
LINE
  5
DB8
330
A02
100
AcDbEntity
  8
Shape2DView
100
AcDbLine
 10
34.8
 20
24.65
 30
0
 11
34.8
 21
30.35
 31
0
  0
LINE
  5
DB9
330
A02
100
AcDbEntity
  8
Shape2DView
100
AcDbLine
 10
35.5
 20
24.65
 30
0
 11
35.5
 21
30.35
 31
0
  0
LINE
  5
DBA
330
A02
100
AcDbEntity
  8
Shape2DView
100
AcDbLine
 10
39.2
 20
33.425
 30
0
 11
39.2
 21
31.975
 31
0
  0
LINE
  5
DBB
330
A02
100
AcDbEntity
  8
Shape2DView
100
AcDbLine
 10
39.2
 20
31.975
 30
0
 11
41.4
 21
31.975
 31
0
  0
LINE
  5
DBC
330
A02
100
AcDbEntity
  8
Shape2DView
100
AcDbLine
 10
41.4
 20
31.975
 30
0
 11
41.4
 21
33.425
 31
0
  0
LINE
  5
DBD
330
A02
100
AcDbEntity
  8
Shape2DView
100
AcDbLine
 10
41.4
 20
33.425
 30
0
 11
39.2
 21
33.425
 31
0
  0
LINE
  5
DBE
330
A02
100
AcDbEntity
  8
Shape2DView
100
AcDbLine
 10
39.2
 20
23.025
 30
0
 11
39.2
 21
21.575
 31
0
  0
LINE
  5
DBF
330
A02
100
AcDbEntity
  8
Shape2DView
100
AcDbLine
 10
39.2
 20
21.575
 30
0
 11
41.4
 21
21.575
 31
0
  0
LINE
  5
DC0
330
A02
100
AcDbEntity
  8
Shape2DView
100
AcDbLine
 10
41.4
 20
21.575
 30
0
 11
41.4
 21
23.025
 31
0
  0
LINE
  5
DC1
330
A02
100
AcDbEntity
  8
Shape2DView
100
AcDbLine
 10
41.4
 20
23.025
 30
0
 11
39.2
 21
23.025
 31
0
  0
LINE
  5
DC2
330
A02
100
AcDbEntity
  8
Shape2DView
100
AcDbLine
 10
41.4001
 20
28.2
 30
0
 11
41.6001
 21
28.2
 31
0
  0
LINE
  5
DC3
330
A02
100
AcDbEntity
  8
Shape2DView
100
AcDbLine
 10
41.3351
 20
26.824
 30
0
 11
41.3351
 21
28.176
 31
0
  0
SPLINE
  5
DC4
330
A02
100
AcDbEntity
  8
Shape2DView
100
AcDbSpline
210
0
220
0
230
1
 70
8
 71
2
 72
6
 73
3
 74
0
 40
0
 40
0
 40
0
 40
0.400359
 40
0.400359
 40
0.400359
 10
41.3001
 20
28.1
 30
0
 10
41.3001
 20
28.1203
 30
0
 10
41.308
 20
28.139
 30
0
  0
SPLINE
  5
DC5
330
A02
100
AcDbEntity
  8
Shape2DView
100
AcDbSpline
210
0
220
0
230
1
 70
8
 71
3
 72
8
 73
4
 74
0
 40
1.97116
 40
1.97116
 40
1.97116
 40
1.97116
 40
3.14159
 40
3.14159
 40
3.14159
 40
3.14159
 10
41.308
 20
28.139
 30
0
 10
41.323
 20
28.1753
 30
0
 10
41.3608
 20
28.2004
 30
0
 10
41.4001
 20
28.2
 30
0
  0
LINE
  5
DC6
330
A02
100
AcDbEntity
  8
Shape2DView
100
AcDbLine
 10
40.9001
 20
28.2
 30
0
 11
41.4001
 21
28.2
 31
0
  0
LINE
  5
DC7
330
A02
100
AcDbEntity
  8
Shape2DView
100
AcDbLine
 10
41.308
 20
28.139
 30
0
 11
40.9001
 21
28.1247
 31
0
  0
ELLIPSE
  5
DC8
330
A02
100
AcDbEntity
  8
Shape2DView
100
AcDbEllipse
 10
40.9001
 20
28.75
 30
0
 11
-1.07743e-08
 21
0.55
 31
0
 40
1
 41
1.5708
 42
3.14159
  0
SPLINE
  5
DC9
330
A02
100
AcDbEntity
  8
Shape2DView
100
AcDbSpline
210
0
220
0
230
1
 70
8
 71
1
 72
17
 73
15
 74
0
 40
4.67746
 40
4.67746
 40
4.79216
 40
4.90685
 40
5.02154
 40
5.13624
 40
5.25093
 40
5.36563
 40
5.48032
 40
5.59502
 40
5.70971
 40
5.82441
 40
5.9391
 40
6.0538
 40
6.16849
 40
6.28319
 40
6.28319
 10
40.9001
 20
28.1247
 30
0
 10
40.8283
 20
28.1263
 30
0
 10
40.7572
 20
28.1361
 30
0
 10
40.6877
 20
28.154
 30
0
 10
40.6207
 20
28.1797
 30
0
 10
40.5571
 20
28.2129
 30
0
 10
40.4977
 20
28.2532
 30
0
 10
40.4433
 20
28.2999
 30
0
 10
40.3946
 20
28.3526
 30
0
 10
40.3523
 20
28.4105
 30
0
 10
40.3169
 20
28.4729
 30
0
 10
40.2889
 20
28.5389
 30
0
 10
40.2686
 20
28.6077
 30
0
 10
40.2563
 20
28.6784
 30
0
 10
40.2522
 20
28.75
 30
0
  0
LINE
  5
DCA
330
A02
100
AcDbEntity
  8
Shape2DView
100
AcDbLine
 10
41.6001
 20
25.5992
 30
0
 11
41.6001
 21
26.8
 31
0
  0
LINE
  5
DCB
330
A02
100
AcDbEntity
  8
Shape2DView
100
AcDbLine
 10
41.6001
 20
26.8
 30
0
 11
41.4001
 21
26.8
 31
0
  0
SPLINE
  5
DCC
330
A02
100
AcDbEntity
  8
Shape2DView
100
AcDbSpline
210
0
220
0
230
1
 70
8
 71
3
 72
8
 73
4
 74
0
 40
1.5708
 40
1.5708
 40
1.5708
 40
1.5708
 40
3.14159
 40
3.14159
 40
3.14159
 40
3.14159
 10
41.4001
 20
26.8
 30
0
 10
41.3466
 20
26.7989
 30
0
 10
41.2989
 20
26.8465
 30
0
 10
41.3001
 20
26.9
 30
0
  0
LINE
  5
DCD
330
A02
100
AcDbEntity
  8
Shape2DView
100
AcDbLine
 10
41.3001
 20
26.9
 30
0
 11
41.3001
 21
28.1
 31
0
  0
LINE
  5
DCE
330
A02
100
AcDbEntity
  8
Shape2DView
100
AcDbLine
 10
40.3501
 20
29.4445
 30
0
 11
40.3501
 21
28.75
 31
0
  0
LINE
  5
DCF
330
A02
100
AcDbEntity
  8
Shape2DView
100
AcDbLine
 10
40.2522
 20
29.4479
 30
0
 11
40.3501
 21
29.4445
 31
0
  0
LINE
  5
DD0
330
A02
100
AcDbEntity
  8
Shape2DView
100
AcDbLine
 10
40.2522
 20
28.75
 30
0
 11
40.2522
 21
29.4479
 31
0
  0
LINE
  5
DD1
330
A02
100
AcDbEntity
  8
Shape2DView
100
AcDbLine
 10
41.6001
 20
29.4008
 30
0
 11
41.6001
 21
28.2
 31
0
  0
LINE
  5
DD2
330
A02
100
AcDbEntity
  8
Shape2DView
100
AcDbLine
 10
40.3501
 20
29.4445
 30
0
 11
41.6001
 21
29.4008
 31
0
  0
LINE
  5
DD3
330
A02
100
AcDbEntity
  8
Shape2DView
100
AcDbLine
 10
39.3851
 20
29.4782
 30
0
 11
41.3351
 21
29.4101
 31
0
  0
LINE
  5
DD4
330
A02
100
AcDbEntity
  8
Shape2DView
100
AcDbLine
 10
41.3351
 20
25.5899
 30
0
 11
39.3851
 21
25.5218
 31
0
  0
LINE
  5
DD5
330
A02
100
AcDbEntity
  8
Shape2DView
100
AcDbLine
 10
38.7601
 20
25.5
 30
0
 11
41.6001
 21
25.5992
 31
0
  0
LINE
  5
DD6
330
A02
100
AcDbEntity
  8
Shape2DView
100
AcDbLine
 10
38.7601
 20
29.5
 30
0
 11
40.2522
 21
29.4479
 31
0
  0
LINE
  5
DD7
330
A02
100
AcDbEntity
  8
Shape2DView
100
AcDbLine
 10
38.7601
 20
25.5
 30
0
 11
38.7601
 21
29.5
 31
0
  0
LINE
  5
DD8
330
A02
100
AcDbEntity
  8
Shape2DView
100
AcDbLine
 10
38.6351
 20
25.5
 30
0
 11
38.7601
 21
25.5
 31
0
  0
LINE
  5
DD9
330
A02
100
AcDbEntity
  8
Shape2DView
100
AcDbLine
 10
38.6351
 20
25.5
 30
0
 11
38.6351
 21
29.5
 31
0
  0
LINE
  5
DDA
330
A02
100
AcDbEntity
  8
Shape2DView
100
AcDbLine
 10
38.6351
 20
29.5
 30
0
 11
38.7601
 21
29.5
 31
0
  0
LINE
  5
DDB
330
A02
100
AcDbEntity
  8
Shape2DView
100
AcDbLine
 10
37.8351
 20
25.57
 30
0
 11
38.6351
 21
25.5
 31
0
  0
LINE
  5
DDC
330
A02
100
AcDbEntity
  8
Shape2DView
100
AcDbLine
 10
37.8351
 20
25.57
 30
0
 11
37.8351
 21
29.43
 31
0
  0
LINE
  5
DDD
330
A02
100
AcDbEntity
  8
Shape2DView
100
AcDbLine
 10
37.8351
 20
29.43
 30
0
 11
38.6351
 21
29.5
 31
0
  0
LINE
  5
DDE
330
A02
100
AcDbEntity
  8
Shape2DView
100
AcDbLine
 10
41.4001
 20
28.2
 30
0
 11
41.6001
 21
28.2
 31
0
  0
LINE
  5
DDF
330
A02
100
AcDbEntity
  8
Shape2DView
100
AcDbLine
 10
41.3351
 20
26.824
 30
0
 11
41.3351
 21
28.176
 31
0
  0
SPLINE
  5
DE0
330
A02
100
AcDbEntity
  8
Shape2DView
100
AcDbSpline
210
0
220
0
230
1
 70
8
 71
2
 72
6
 73
3
 74
0
 40
0
 40
0
 40
0
 40
0.400359
 40
0.400359
 40
0.400359
 10
41.3001
 20
28.1
 30
0
 10
41.3001
 20
28.1203
 30
0
 10
41.308
 20
28.139
 30
0
  0
SPLINE
  5
DE1
330
A02
100
AcDbEntity
  8
Shape2DView
100
AcDbSpline
210
0
220
0
230
1
 70
8
 71
3
 72
8
 73
4
 74
0
 40
1.97116
 40
1.97116
 40
1.97116
 40
1.97116
 40
3.14159
 40
3.14159
 40
3.14159
 40
3.14159
 10
41.308
 20
28.139
 30
0
 10
41.323
 20
28.1753
 30
0
 10
41.3608
 20
28.2004
 30
0
 10
41.4001
 20
28.2
 30
0
  0
LINE
  5
DE2
330
A02
100
AcDbEntity
  8
Shape2DView
100
AcDbLine
 10
40.9001
 20
28.2
 30
0
 11
41.4001
 21
28.2
 31
0
  0
LINE
  5
DE3
330
A02
100
AcDbEntity
  8
Shape2DView
100
AcDbLine
 10
41.308
 20
28.139
 30
0
 11
40.9001
 21
28.1247
 31
0
  0
ELLIPSE
  5
DE4
330
A02
100
AcDbEntity
  8
Shape2DView
100
AcDbEllipse
 10
40.9001
 20
28.75
 30
0
 11
-1.07743e-08
 21
0.55
 31
0
 40
1
 41
1.5708
 42
3.14159
  0
SPLINE
  5
DE5
330
A02
100
AcDbEntity
  8
Shape2DView
100
AcDbSpline
210
0
220
0
230
1
 70
8
 71
1
 72
17
 73
15
 74
0
 40
4.67746
 40
4.67746
 40
4.79216
 40
4.90685
 40
5.02154
 40
5.13624
 40
5.25093
 40
5.36563
 40
5.48032
 40
5.59502
 40
5.70971
 40
5.82441
 40
5.9391
 40
6.0538
 40
6.16849
 40
6.28319
 40
6.28319
 10
40.9001
 20
28.1247
 30
0
 10
40.8283
 20
28.1263
 30
0
 10
40.7572
 20
28.1361
 30
0
 10
40.6877
 20
28.154
 30
0
 10
40.6207
 20
28.1797
 30
0
 10
40.5571
 20
28.2129
 30
0
 10
40.4977
 20
28.2532
 30
0
 10
40.4433
 20
28.2999
 30
0
 10
40.3946
 20
28.3526
 30
0
 10
40.3523
 20
28.4105
 30
0
 10
40.3169
 20
28.4729
 30
0
 10
40.2889
 20
28.5389
 30
0
 10
40.2686
 20
28.6077
 30
0
 10
40.2563
 20
28.6784
 30
0
 10
40.2522
 20
28.75
 30
0
  0
LINE
  5
DE6
330
A02
100
AcDbEntity
  8
Shape2DView
100
AcDbLine
 10
41.6001
 20
25.5992
 30
0
 11
41.6001
 21
26.8
 31
0
  0
LINE
  5
DE7
330
A02
100
AcDbEntity
  8
Shape2DView
100
AcDbLine
 10
41.6001
 20
26.8
 30
0
 11
41.4001
 21
26.8
 31
0
  0
SPLINE
  5
DE8
330
A02
100
AcDbEntity
  8
Shape2DView
100
AcDbSpline
210
0
220
0
230
1
 70
8
 71
3
 72
8
 73
4
 74
0
 40
1.5708
 40
1.5708
 40
1.5708
 40
1.5708
 40
3.14159
 40
3.14159
 40
3.14159
 40
3.14159
 10
41.4001
 20
26.8
 30
0
 10
41.3466
 20
26.7989
 30
0
 10
41.2989
 20
26.8465
 30
0
 10
41.3001
 20
26.9
 30
0
  0
LINE
  5
DE9
330
A02
100
AcDbEntity
  8
Shape2DView
100
AcDbLine
 10
41.3001
 20
26.9
 30
0
 11
41.3001
 21
28.1
 31
0
  0
LINE
  5
DEA
330
A02
100
AcDbEntity
  8
Shape2DView
100
AcDbLine
 10
40.3501
 20
29.4445
 30
0
 11
40.3501
 21
28.75
 31
0
  0
LINE
  5
DEB
330
A02
100
AcDbEntity
  8
Shape2DView
100
AcDbLine
 10
40.2522
 20
29.4479
 30
0
 11
40.3501
 21
29.4445
 31
0
  0
LINE
  5
DEC
330
A02
100
AcDbEntity
  8
Shape2DView
100
AcDbLine
 10
40.2522
 20
28.75
 30
0
 11
40.2522
 21
29.4479
 31
0
  0
LINE
  5
DED
330
A02
100
AcDbEntity
  8
Shape2DView
100
AcDbLine
 10
41.6001
 20
29.4008
 30
0
 11
41.6001
 21
28.2
 31
0
  0
LINE
  5
DEE
330
A02
100
AcDbEntity
  8
Shape2DView
100
AcDbLine
 10
40.3501
 20
29.4445
 30
0
 11
41.6001
 21
29.4008
 31
0
  0
LINE
  5
DEF
330
A02
100
AcDbEntity
  8
Shape2DView
100
AcDbLine
 10
39.3851
 20
29.4782
 30
0
 11
41.3351
 21
29.4101
 31
0
  0
LINE
  5
DF0
330
A02
100
AcDbEntity
  8
Shape2DView
100
AcDbLine
 10
41.3351
 20
25.5899
 30
0
 11
39.3851
 21
25.5218
 31
0
  0
LINE
  5
DF1
330
A02
100
AcDbEntity
  8
Shape2DView
100
AcDbLine
 10
38.7601
 20
25.5
 30
0
 11
41.6001
 21
25.5992
 31
0
  0
LINE
  5
DF2
330
A02
100
AcDbEntity
  8
Shape2DView
100
AcDbLine
 10
38.7601
 20
29.5
 30
0
 11
40.2522
 21
29.4479
 31
0
  0
LINE
  5
DF3
330
A02
100
AcDbEntity
  8
Shape2DView
100
AcDbLine
 10
38.7601
 20
25.5
 30
0
 11
38.7601
 21
29.5
 31
0
  0
LINE
  5
DF4
330
A02
100
AcDbEntity
  8
Shape2DView
100
AcDbLine
 10
38.6351
 20
25.5
 30
0
 11
38.7601
 21
25.5
 31
0
  0
LINE
  5
DF5
330
A02
100
AcDbEntity
  8
Shape2DView
100
AcDbLine
 10
38.6351
 20
25.5
 30
0
 11
38.6351
 21
29.5
 31
0
  0
LINE
  5
DF6
330
A02
100
AcDbEntity
  8
Shape2DView
100
AcDbLine
 10
38.6351
 20
29.5
 30
0
 11
38.7601
 21
29.5
 31
0
  0
LINE
  5
DF7
330
A02
100
AcDbEntity
  8
Shape2DView
100
AcDbLine
 10
37.8351
 20
25.57
 30
0
 11
38.6351
 21
25.5
 31
0
  0
LINE
  5
DF8
330
A02
100
AcDbEntity
  8
Shape2DView
100
AcDbLine
 10
37.8351
 20
25.57
 30
0
 11
37.8351
 21
29.43
 31
0
  0
LINE
  5
DF9
330
A02
100
AcDbEntity
  8
Shape2DView
100
AcDbLine
 10
37.8351
 20
29.43
 30
0
 11
38.6351
 21
29.5
 31
0
  0
LINE
  5
DFA
330
A02
100
AcDbEntity
  8
Shape2DView
100
AcDbLine
 10
41.4001
 20
28.2
 30
0
 11
41.6001
 21
28.2
 31
0
  0
LINE
  5
DFB
330
A02
100
AcDbEntity
  8
Shape2DView
100
AcDbLine
 10
41.3351
 20
26.824
 30
0
 11
41.3351
 21
28.176
 31
0
  0
SPLINE
  5
DFC
330
A02
100
AcDbEntity
  8
Shape2DView
100
AcDbSpline
210
0
220
0
230
1
 70
8
 71
2
 72
6
 73
3
 74
0
 40
0
 40
0
 40
0
 40
0.400359
 40
0.400359
 40
0.400359
 10
41.3001
 20
28.1
 30
0
 10
41.3001
 20
28.1203
 30
0
 10
41.308
 20
28.139
 30
0
  0
SPLINE
  5
DFD
330
A02
100
AcDbEntity
  8
Shape2DView
100
AcDbSpline
210
0
220
0
230
1
 70
8
 71
3
 72
8
 73
4
 74
0
 40
1.97116
 40
1.97116
 40
1.97116
 40
1.97116
 40
3.14159
 40
3.14159
 40
3.14159
 40
3.14159
 10
41.308
 20
28.139
 30
0
 10
41.323
 20
28.1753
 30
0
 10
41.3608
 20
28.2004
 30
0
 10
41.4001
 20
28.2
 30
0
  0
LINE
  5
DFE
330
A02
100
AcDbEntity
  8
Shape2DView
100
AcDbLine
 10
40.9001
 20
28.2
 30
0
 11
41.4001
 21
28.2
 31
0
  0
LINE
  5
DFF
330
A02
100
AcDbEntity
  8
Shape2DView
100
AcDbLine
 10
41.308
 20
28.139
 30
0
 11
40.9001
 21
28.1247
 31
0
  0
ELLIPSE
  5
E00
330
A02
100
AcDbEntity
  8
Shape2DView
100
AcDbEllipse
 10
40.9001
 20
28.75
 30
0
 11
-1.07743e-08
 21
0.55
 31
0
 40
1
 41
1.5708
 42
3.14159
  0
SPLINE
  5
E01
330
A02
100
AcDbEntity
  8
Shape2DView
100
AcDbSpline
210
0
220
0
230
1
 70
8
 71
1
 72
17
 73
15
 74
0
 40
4.67746
 40
4.67746
 40
4.79216
 40
4.90685
 40
5.02154
 40
5.13624
 40
5.25093
 40
5.36563
 40
5.48032
 40
5.59502
 40
5.70971
 40
5.82441
 40
5.9391
 40
6.0538
 40
6.16849
 40
6.28319
 40
6.28319
 10
40.9001
 20
28.1247
 30
0
 10
40.8283
 20
28.1263
 30
0
 10
40.7572
 20
28.1361
 30
0
 10
40.6877
 20
28.154
 30
0
 10
40.6207
 20
28.1797
 30
0
 10
40.5571
 20
28.2129
 30
0
 10
40.4977
 20
28.2532
 30
0
 10
40.4433
 20
28.2999
 30
0
 10
40.3946
 20
28.3526
 30
0
 10
40.3523
 20
28.4105
 30
0
 10
40.3169
 20
28.4729
 30
0
 10
40.2889
 20
28.5389
 30
0
 10
40.2686
 20
28.6077
 30
0
 10
40.2563
 20
28.6784
 30
0
 10
40.2522
 20
28.75
 30
0
  0
LINE
  5
E02
330
A02
100
AcDbEntity
  8
Shape2DView
100
AcDbLine
 10
41.6001
 20
25.5992
 30
0
 11
41.6001
 21
26.8
 31
0
  0
LINE
  5
E03
330
A02
100
AcDbEntity
  8
Shape2DView
100
AcDbLine
 10
41.6001
 20
26.8
 30
0
 11
41.4001
 21
26.8
 31
0
  0
SPLINE
  5
E04
330
A02
100
AcDbEntity
  8
Shape2DView
100
AcDbSpline
210
0
220
0
230
1
 70
8
 71
3
 72
8
 73
4
 74
0
 40
1.5708
 40
1.5708
 40
1.5708
 40
1.5708
 40
3.14159
 40
3.14159
 40
3.14159
 40
3.14159
 10
41.4001
 20
26.8
 30
0
 10
41.3466
 20
26.7989
 30
0
 10
41.2989
 20
26.8465
 30
0
 10
41.3001
 20
26.9
 30
0
  0
LINE
  5
E05
330
A02
100
AcDbEntity
  8
Shape2DView
100
AcDbLine
 10
41.3001
 20
26.9
 30
0
 11
41.3001
 21
28.1
 31
0
  0
LINE
  5
E06
330
A02
100
AcDbEntity
  8
Shape2DView
100
AcDbLine
 10
40.3501
 20
29.4445
 30
0
 11
40.3501
 21
28.75
 31
0
  0
LINE
  5
E07
330
A02
100
AcDbEntity
  8
Shape2DView
100
AcDbLine
 10
40.2522
 20
29.4479
 30
0
 11
40.3501
 21
29.4445
 31
0
  0
LINE
  5
E08
330
A02
100
AcDbEntity
  8
Shape2DView
100
AcDbLine
 10
40.2522
 20
28.75
 30
0
 11
40.2522
 21
29.4479
 31
0
  0
LINE
  5
E09
330
A02
100
AcDbEntity
  8
Shape2DView
100
AcDbLine
 10
41.6001
 20
29.4008
 30
0
 11
41.6001
 21
28.2
 31
0
  0
LINE
  5
E0A
330
A02
100
AcDbEntity
  8
Shape2DView
100
AcDbLine
 10
40.3501
 20
29.4445
 30
0
 11
41.6001
 21
29.4008
 31
0
  0
LINE
  5
E0B
330
A02
100
AcDbEntity
  8
Shape2DView
100
AcDbLine
 10
39.3851
 20
29.4782
 30
0
 11
41.3351
 21
29.4101
 31
0
  0
LINE
  5
E0C
330
A02
100
AcDbEntity
  8
Shape2DView
100
AcDbLine
 10
41.3351
 20
25.5899
 30
0
 11
39.3851
 21
25.5218
 31
0
  0
LINE
  5
E0D
330
A02
100
AcDbEntity
  8
Shape2DView
100
AcDbLine
 10
38.7601
 20
25.5
 30
0
 11
41.6001
 21
25.5992
 31
0
  0
LINE
  5
E0E
330
A02
100
AcDbEntity
  8
Shape2DView
100
AcDbLine
 10
38.7601
 20
29.5
 30
0
 11
40.2522
 21
29.4479
 31
0
  0
LINE
  5
E0F
330
A02
100
AcDbEntity
  8
Shape2DView
100
AcDbLine
 10
38.7601
 20
25.5
 30
0
 11
38.7601
 21
29.5
 31
0
  0
LINE
  5
E10
330
A02
100
AcDbEntity
  8
Shape2DView
100
AcDbLine
 10
38.6351
 20
25.5
 30
0
 11
38.7601
 21
25.5
 31
0
  0
LINE
  5
E11
330
A02
100
AcDbEntity
  8
Shape2DView
100
AcDbLine
 10
38.6351
 20
25.5
 30
0
 11
38.6351
 21
29.5
 31
0
  0
LINE
  5
E12
330
A02
100
AcDbEntity
  8
Shape2DView
100
AcDbLine
 10
38.6351
 20
29.5
 30
0
 11
38.7601
 21
29.5
 31
0
  0
LINE
  5
E13
330
A02
100
AcDbEntity
  8
Shape2DView
100
AcDbLine
 10
37.8351
 20
25.57
 30
0
 11
38.6351
 21
25.5
 31
0
  0
LINE
  5
E14
330
A02
100
AcDbEntity
  8
Shape2DView
100
AcDbLine
 10
37.8351
 20
25.57
 30
0
 11
37.8351
 21
29.43
 31
0
  0
LINE
  5
E15
330
A02
100
AcDbEntity
  8
Shape2DView
100
AcDbLine
 10
37.8351
 20
29.43
 30
0
 11
38.6351
 21
29.5
 31
0
  0
LINE
  5
E16
330
A02
100
AcDbEntity
  8
Shape2DView
100
AcDbLine
 10
17.5
 20
19.525
 30
0
 11
17.5
 21
18.075
 31
0
  0
LINE
  5
E17
330
A02
100
AcDbEntity
  8
Shape2DView
100
AcDbLine
 10
17.5
 20
18.075
 30
0
 11
19.7
 21
18.075
 31
0
  0
LINE
  5
E18
330
A02
100
AcDbEntity
  8
Shape2DView
100
AcDbLine
 10
19.7
 20
18.075
 30
0
 11
19.7
 21
19.525
 31
0
  0
LINE
  5
E19
330
A02
100
AcDbEntity
  8
Shape2DView
100
AcDbLine
 10
19.7
 20
19.525
 30
0
 11
17.5
 21
19.525
 31
0
  0
LINE
  5
E1A
330
A02
100
AcDbEntity
  8
Shape2DView
100
AcDbLine
 10
17.5
 20
17.425
 30
0
 11
17.5
 21
15.975
 31
0
  0
LINE
  5
E1B
330
A02
100
AcDbEntity
  8
Shape2DView
100
AcDbLine
 10
17.5
 20
15.975
 30
0
 11
19.7
 21
15.975
 31
0
  0
LINE
  5
E1C
330
A02
100
AcDbEntity
  8
Shape2DView
100
AcDbLine
 10
19.7
 20
15.975
 30
0
 11
19.7
 21
17.425
 31
0
  0
LINE
  5
E1D
330
A02
100
AcDbEntity
  8
Shape2DView
100
AcDbLine
 10
19.7
 20
17.425
 30
0
 11
17.5
 21
17.425
 31
0
  0
LINE
  5
E1E
330
A02
100
AcDbEntity
  8
Shape2DView
100
AcDbLine
 10
21.2
 20
17.425
 30
0
 11
21.2
 21
15.975
 31
0
  0
LINE
  5
E1F
330
A02
100
AcDbEntity
  8
Shape2DView
100
AcDbLine
 10
21.2
 20
15.975
 30
0
 11
23.4
 21
15.975
 31
0
  0
LINE
  5
E20
330
A02
100
AcDbEntity
  8
Shape2DView
100
AcDbLine
 10
23.4
 20
15.975
 30
0
 11
23.4
 21
17.425
 31
0
  0
LINE
  5
E21
330
A02
100
AcDbEntity
  8
Shape2DView
100
AcDbLine
 10
23.4
 20
17.425
 30
0
 11
21.2
 21
17.425
 31
0
  0
LINE
  5
E22
330
A02
100
AcDbEntity
  8
Shape2DView
100
AcDbLine
 10
21.2
 20
19.525
 30
0
 11
21.2
 21
18.075
 31
0
  0
LINE
  5
E23
330
A02
100
AcDbEntity
  8
Shape2DView
100
AcDbLine
 10
21.2
 20
18.075
 30
0
 11
23.4
 21
18.075
 31
0
  0
LINE
  5
E24
330
A02
100
AcDbEntity
  8
Shape2DView
100
AcDbLine
 10
23.4
 20
18.075
 30
0
 11
23.4
 21
19.525
 31
0
  0
LINE
  5
E25
330
A02
100
AcDbEntity
  8
Shape2DView
100
AcDbLine
 10
23.4
 20
19.525
 30
0
 11
21.2
 21
19.525
 31
0
  0
LINE
  5
E26
330
A02
100
AcDbEntity
  8
Shape2DView
100
AcDbLine
 10
6.1
 20
45.4
 30
0
 11
9.3
 21
45.4
 31
0
  0
LINE
  5
E27
330
A02
100
AcDbEntity
  8
Shape2DView
100
AcDbLine
 10
9.3
 20
45.4
 30
0
 11
9.3
 21
40.4
 31
0
  0
LINE
  5
E28
330
A02
100
AcDbEntity
  8
Shape2DView
100
AcDbLine
 10
9.3
 20
40.4
 30
0
 11
6.1
 21
40.4
 31
0
  0
LINE
  5
E29
330
A02
100
AcDbEntity
  8
Shape2DView
100
AcDbLine
 10
6.1
 20
40.4
 30
0
 11
6.1
 21
45.4
 31
0
  0
LINE
  5
E2A
330
A02
100
AcDbEntity
  8
Shape2DView
100
AcDbLine
 10
27.3
 20
39.1
 30
0
 11
27.3
 21
49.1
 31
0
  0
LINE
  5
E2B
330
A02
100
AcDbEntity
  8
Shape2DView
100
AcDbLine
 10
27.3
 20
49.1
 30
0
 11
17.3
 21
49.1
 31
0
  0
LINE
  5
E2C
330
A02
100
AcDbEntity
  8
Shape2DView
100
AcDbLine
 10
17.3
 20
49.1
 30
0
 11
17.3
 21
39.1
 31
0
  0
LINE
  5
E2D
330
A02
100
AcDbEntity
  8
Shape2DView
100
AcDbLine
 10
17.3
 20
39.1
 30
0
 11
27.3
 21
39.1
 31
0
  0
LINE
  5
E2E
330
A02
100
AcDbEntity
  8
Shape2DView
100
AcDbLine
 10
28.2
 20
39.225
 30
0
 11
28.2
 21
37.775
 31
0
  0
LINE
  5
E2F
330
A02
100
AcDbEntity
  8
Shape2DView
100
AcDbLine
 10
28.2
 20
37.775
 30
0
 11
30.4
 21
37.775
 31
0
  0
LINE
  5
E30
330
A02
100
AcDbEntity
  8
Shape2DView
100
AcDbLine
 10
30.4
 20
37.775
 30
0
 11
30.4
 21
39.225
 31
0
  0
LINE
  5
E31
330
A02
100
AcDbEntity
  8
Shape2DView
100
AcDbLine
 10
30.4
 20
39.225
 30
0
 11
28.2
 21
39.225
 31
0
  0
LINE
  5
E32
330
A02
100
AcDbEntity
  8
Shape2DView
100
AcDbLine
 10
12.5
 20
49.225
 30
0
 11
12.5
 21
47.775
 31
0
  0
LINE
  5
E33
330
A02
100
AcDbEntity
  8
Shape2DView
100
AcDbLine
 10
12.5
 20
47.775
 30
0
 11
14.7
 21
47.775
 31
0
  0
LINE
  5
E34
330
A02
100
AcDbEntity
  8
Shape2DView
100
AcDbLine
 10
14.7
 20
47.775
 30
0
 11
14.7
 21
49.225
 31
0
  0
LINE
  5
E35
330
A02
100
AcDbEntity
  8
Shape2DView
100
AcDbLine
 10
14.7
 20
49.225
 30
0
 11
12.5
 21
49.225
 31
0
  0
LINE
  5
E36
330
A02
100
AcDbEntity
  8
Shape2DView
100
AcDbLine
 10
14.6
 20
51.225
 30
0
 11
14.6
 21
49.775
 31
0
  0
LINE
  5
E37
330
A02
100
AcDbEntity
  8
Shape2DView
100
AcDbLine
 10
14.6
 20
49.775
 30
0
 11
16.8
 21
49.775
 31
0
  0
LINE
  5
E38
330
A02
100
AcDbEntity
  8
Shape2DView
100
AcDbLine
 10
16.8
 20
49.775
 30
0
 11
16.8
 21
51.225
 31
0
  0
LINE
  5
E39
330
A02
100
AcDbEntity
  8
Shape2DView
100
AcDbLine
 10
16.8
 20
51.225
 30
0
 11
14.6
 21
51.225
 31
0
  0
LINE
  5
E3A
330
A02
100
AcDbEntity
  8
Shape2DView
100
AcDbLine
 10
30.825
 20
42.5
 30
0
 11
29.375
 21
42.5
 31
0
  0
LINE
  5
E3B
330
A02
100
AcDbEntity
  8
Shape2DView
100
AcDbLine
 10
29.375
 20
42.5
 30
0
 11
29.375
 21
40.3
 31
0
  0
LINE
  5
E3C
330
A02
100
AcDbEntity
  8
Shape2DView
100
AcDbLine
 10
29.375
 20
40.3
 30
0
 11
30.825
 21
40.3
 31
0
  0
LINE
  5
E3D
330
A02
100
AcDbEntity
  8
Shape2DView
100
AcDbLine
 10
30.825
 20
40.3
 30
0
 11
30.825
 21
42.5
 31
0
  0
LINE
  5
E3E
330
A02
100
AcDbEntity
  8
Shape2DView
100
AcDbLine
 10
30.825
 20
49.9
 30
0
 11
29.375
 21
49.9
 31
0
  0
LINE
  5
E3F
330
A02
100
AcDbEntity
  8
Shape2DView
100
AcDbLine
 10
29.375
 20
49.9
 30
0
 11
29.375
 21
47.7
 31
0
  0
LINE
  5
E40
330
A02
100
AcDbEntity
  8
Shape2DView
100
AcDbLine
 10
29.375
 20
47.7
 30
0
 11
30.825
 21
47.7
 31
0
  0
LINE
  5
E41
330
A02
100
AcDbEntity
  8
Shape2DView
100
AcDbLine
 10
30.825
 20
47.7
 30
0
 11
30.825
 21
49.9
 31
0
  0
LINE
  5
E42
330
A02
100
AcDbEntity
  8
Shape2DView
100
AcDbLine
 10
11.825
 20
46.8
 30
0
 11
10.375
 21
46.8
 31
0
  0
LINE
  5
E43
330
A02
100
AcDbEntity
  8
Shape2DView
100
AcDbLine
 10
10.375
 20
46.8
 30
0
 11
10.375
 21
44.6
 31
0
  0
LINE
  5
E44
330
A02
100
AcDbEntity
  8
Shape2DView
100
AcDbLine
 10
10.375
 20
44.6
 30
0
 11
11.825
 21
44.6
 31
0
  0
LINE
  5
E45
330
A02
100
AcDbEntity
  8
Shape2DView
100
AcDbLine
 10
11.825
 20
44.6
 30
0
 11
11.825
 21
46.8
 31
0
  0
LINE
  5
E46
330
A02
100
AcDbEntity
  8
Shape2DView
100
AcDbLine
 10
13.925
 20
46.8
 30
0
 11
12.475
 21
46.8
 31
0
  0
LINE
  5
E47
330
A02
100
AcDbEntity
  8
Shape2DView
100
AcDbLine
 10
12.475
 20
46.8
 30
0
 11
12.475
 21
44.6
 31
0
  0
LINE
  5
E48
330
A02
100
AcDbEntity
  8
Shape2DView
100
AcDbLine
 10
12.475
 20
44.6
 30
0
 11
13.925
 21
44.6
 31
0
  0
LINE
  5
E49
330
A02
100
AcDbEntity
  8
Shape2DView
100
AcDbLine
 10
13.925
 20
44.6
 30
0
 11
13.925
 21
46.8
 31
0
  0
LINE
  5
E4A
330
A02
100
AcDbEntity
  8
Shape2DView
100
AcDbLine
 10
14.8
 20
38.425
 30
0
 11
14.8
 21
36.975
 31
0
  0
LINE
  5
E4B
330
A02
100
AcDbEntity
  8
Shape2DView
100
AcDbLine
 10
14.8
 20
36.975
 30
0
 11
17
 21
36.975
 31
0
  0
LINE
  5
E4C
330
A02
100
AcDbEntity
  8
Shape2DView
100
AcDbLine
 10
17
 20
36.975
 30
0
 11
17
 21
38.425
 31
0
  0
LINE
  5
E4D
330
A02
100
AcDbEntity
  8
Shape2DView
100
AcDbLine
 10
17
 20
38.425
 30
0
 11
14.8
 21
38.425
 31
0
  0
LINE
  5
E4E
330
A02
100
AcDbEntity
  8
Shape2DView
100
AcDbLine
 10
30.825
 20
46.2
 30
0
 11
29.375
 21
46.2
 31
0
  0
LINE
  5
E4F
330
A02
100
AcDbEntity
  8
Shape2DView
100
AcDbLine
 10
29.375
 20
46.2
 30
0
 11
29.375
 21
44
 31
0
  0
LINE
  5
E50
330
A02
100
AcDbEntity
  8
Shape2DView
100
AcDbLine
 10
29.375
 20
44
 30
0
 11
30.825
 21
44
 31
0
  0
LINE
  5
E51
330
A02
100
AcDbEntity
  8
Shape2DView
100
AcDbLine
 10
30.825
 20
44
 30
0
 11
30.825
 21
46.2
 31
0
  0
LINE
  5
E52
330
A02
100
AcDbEntity
  8
Shape2DView
100
AcDbLine
 10
20.7
 20
53.525
 30
0
 11
20.7
 21
52.075
 31
0
  0
LINE
  5
E53
330
A02
100
AcDbEntity
  8
Shape2DView
100
AcDbLine
 10
20.7
 20
52.075
 30
0
 11
22.9
 21
52.075
 31
0
  0
LINE
  5
E54
330
A02
100
AcDbEntity
  8
Shape2DView
100
AcDbLine
 10
22.9
 20
52.075
 30
0
 11
22.9
 21
53.525
 31
0
  0
LINE
  5
E55
330
A02
100
AcDbEntity
  8
Shape2DView
100
AcDbLine
 10
22.9
 20
53.525
 30
0
 11
20.7
 21
53.525
 31
0
  0
LINE
  5
E56
330
A02
100
AcDbEntity
  8
Shape2DView
100
AcDbLine
 10
17.95
 20
33.15
 30
0
 11
17.05
 21
33.15
 31
0
  0
LINE
  5
E57
330
A02
100
AcDbEntity
  8
Shape2DView
100
AcDbLine
 10
19.95
 20
33.15
 30
0
 11
19.05
 21
33.15
 31
0
  0
LINE
  5
E58
330
A02
100
AcDbEntity
  8
Shape2DView
100
AcDbLine
 10
21.95
 20
33.15
 30
0
 11
21.05
 21
33.15
 31
0
  0
LINE
  5
E59
330
A02
100
AcDbEntity
  8
Shape2DView
100
AcDbLine
 10
23.95
 20
33.15
 30
0
 11
23.05
 21
33.15
 31
0
  0
LINE
  5
E5A
330
A02
100
AcDbEntity
  8
Shape2DView
100
AcDbLine
 10
18.05
 20
21.85
 30
0
 11
18.95
 21
21.85
 31
0
  0
LINE
  5
E5B
330
A02
100
AcDbEntity
  8
Shape2DView
100
AcDbLine
 10
20.05
 20
21.85
 30
0
 11
20.95
 21
21.85
 31
0
  0
LINE
  5
E5C
330
A02
100
AcDbEntity
  8
Shape2DView
100
AcDbLine
 10
22.05
 20
21.85
 30
0
 11
22.95
 21
21.85
 31
0
  0
LINE
  5
E5D
330
A02
100
AcDbEntity
  8
Shape2DView
100
AcDbLine
 10
24.05
 20
21.85
 30
0
 11
24.95
 21
21.85
 31
0
  0
SPLINE
  5
E5E
330
A02
100
AcDbEntity
  8
Shape2DView
100
AcDbSpline
210
0
220
0
230
1
 70
8
 71
1
 72
4
 73
2
 74
0
 40
0
 40
0
 40
0.999998
 40
0.999998
 10
40.9001
 20
28.2
 30
0
 10
40.9001
 20
28.1247
 30
0
  0
LINE
  5
E5F
330
A02
100
AcDbEntity
  8
Shape2DView
100
AcDbLine
 10
40.2522
 20
28.75
 30
0
 11
40.3501
 21
28.75
 31
0
  0
SPLINE
  5
E60
330
A02
100
AcDbEntity
  8
Shape2DView
100
AcDbSpline
210
0
220
0
230
1
 70
8
 71
1
 72
4
 73
2
 74
0
 40
0
 40
0
 40
0.999998
 40
0.999998
 10
40.9001
 20
28.2
 30
0
 10
40.9001
 20
28.1247
 30
0
  0
LINE
  5
E61
330
A02
100
AcDbEntity
  8
Shape2DView
100
AcDbLine
 10
40.2522
 20
28.75
 30
0
 11
40.3501
 21
28.75
 31
0
  0
SPLINE
  5
E62
330
A02
100
AcDbEntity
  8
Shape2DView
100
AcDbSpline
210
0
220
0
230
1
 70
8
 71
1
 72
4
 73
2
 74
0
 40
0
 40
0
 40
0.999998
 40
0.999998
 10
40.9001
 20
28.2
 30
0
 10
40.9001
 20
28.1247
 30
0
  0
LINE
  5
E63
330
A02
100
AcDbEntity
  8
Shape2DView
100
AcDbLine
 10
40.2522
 20
28.75
 30
0
 11
40.3501
 21
28.75
 31
0
  0
ENDSEC
  0
SECTION
  2
OBJECTS
  0
DICTIONARY
  5
F000
330
0
100
AcDbDictionary
  3
ACAD_GROUP
350
F001
  0
DICTIONARY
  5
F001
330
F000
100
AcDbDictionary
  0
ENDSEC
  0
EOF